<svg xmlns="http://www.w3.org/2000/svg" xmlns:xlink="http://www.w3.org/1999/xlink" width="153" height="163" viewBox="0 0 153 163">
    <defs>
        <path id="znak-a" d="M74.0333167,155 C100.540599,155 116.506309,137.48643 129.542101,120.258621 C142.544576,103.074841 146.723391,90.2643548 146.723391,70.3504092 C146.723391,30.4714932 127.200914,0 74.0333167,0 C20.8657194,7.44985136e-15 1.34324231,30.4714932 1.34324231,70.3504092 C1.34324231,90.0225904 5.80337517,103.165467 18.5245326,120.258621 C31.5913631,137.816248 47.5260339,155 74.0333167,155 Z"/>
        <path id="znak-c" d="M38.3612322,91.7403114 C59.3328245,91.7403114 76.3336591,73.88542 76.3336591,51.8602952 C76.3336591,33.3594641 50.8921331,0.650264033 38.3612322,0.650264033 C25.8303313,0.650264033 0.388805269,29.8351704 0.388805269,51.8602952 C0.388805269,73.88542 17.3896399,91.7403114 38.3612322,91.7403114 Z"/>
    </defs>
    <g fill="none" fill-rule="evenodd" transform="translate(2 4)">
        <g transform="translate(0 6.256)">
            <path fill="#242727" d="M142.087055,27.0170015 C147.413739,20.0910131 150.003257,9.99389678 143.961947,3.96997314 C138.711707,-1.26515727 129.76076,-0.23377888 122.532642,3.38301233 C116.17415,6.56466157 138.712305,31.4049999 142.087055,27.0170015 Z"/>
            <path fill="#5B504C" d="M142.087055,27.0170015 C147.413739,20.0910131 150.003257,9.99389678 143.961947,3.96997314 C138.711707,-1.26515727 129.76076,-0.23377888 122.532642,3.38301233 C116.17415,6.56466157 138.712305,31.4049999 142.087055,27.0170015 Z"/>
            <path fill="#5B504C" d="M21.2985732,27.0170015 C26.6252568,20.0910131 29.214775,9.99389678 23.1734651,3.96997314 C17.923225,-1.26515727 8.97227791,-0.23377888 1.74415987,3.38301233 C-4.61433168,6.56466157 17.9238232,31.4049999 21.2985732,27.0170015 Z" transform="matrix(-1 0 0 1 27.278 0)"/>
        </g>
        <mask id="znak-b" fill="#fff">
            <use xlink:href="#znak-a"/>
        </mask>
        <use fill="#FFF" stroke="#5B504B" stroke-width="6.586" xlink:href="#znak-a"/>
        <g mask="url(#znak-b)">
            <g transform="translate(24.013 40.013)">
                <g transform="matrix(-1 0 0 1 22.897 .39)">
                    <path fill="#5B504C" d="M9.04105403,13.2227488 C13.4794863,13.2227488 18.0821081,11.7288408 18.0821081,7.55585647 C18.0821081,3.38287217 13.4794863,0 9.04105403,0 C4.60262179,0 0,3.38287217 0,7.55585647 C0,11.7288408 4.60262179,13.2227488 9.04105403,13.2227488 Z"/>
                    <ellipse cx="9.039" cy="6.623" fill="#FFF" rx="2.635" ry="2.678"/>
                </g>
                <g transform="translate(77.143 .39)">
                    <path fill="#5B504C" d="M9.04105403,13.2227488 C13.4794863,13.2227488 18.0821081,11.7288408 18.0821081,7.55585647 C18.0821081,3.38287217 13.4794863,0 9.04105403,0 C4.60262179,0 0,3.38287217 0,7.55585647 C0,11.7288408 4.60262179,13.2227488 9.04105403,13.2227488 Z"/>
                    <ellipse cx="9.039" cy="6.623" fill="#FFF" rx="2.635" ry="2.678"/>
                </g>
            </g>
        </g>
        <g fill="#5B504B" fill-rule="nonzero" stroke="#5B504C" stroke-width="4.618" mask="url(#znak-b)">
            <path d="M114.558705,47.8865521 L107.685187,47.8865521 C106.026062,47.6702917 104.366937,47.4913175 102.722625,47.2228563 C99.7302748,46.7381346 96.8416195,45.8805501 94.004812,44.7694188 C89.2496411,42.8976473 85.9091706,39.4523947 83.1760583,35.2539591 C79.8874354,30.2053963 77.472816,24.7988851 76.2655062,18.870366 C75.8581318,16.8718212 74.7767378,15.3505408 72.7176451,14.8807336 C69.399395,14.1350079 66.8292325,15.5220577 66.1478061,18.7808789 C65.110853,23.7175829 63.3406258,28.3559966 60.785277,32.6886628 C58.9706089,35.7685099 57.037432,38.7961561 54.3117265,41.1601065 C50.8675607,44.1579237 46.6975277,45.6419178 42.3423244,46.693391 C39.8240096,47.3048861 37.2612539,47.5808046 34.6984983,47.8865521 L27.8249802,47.8865521 C27.6249964,47.8492658 27.4250126,47.7970651 27.2250288,47.767236 C19.2404895,46.6411903 13.307636,42.7783312 10.181963,35.0302414 C7.86363197,29.265782 6.59706776,23.2328612 5.58233503,17.1402824 C5.11570611,14.3214394 4.26392316,11.8530874 1.36786113,10.6822981 C0.960486678,10.5182384 0.938266253,10.1453756 0.916045829,9.7948845 C0.82716413,8.47495005 0.753096047,7.14755834 0.671621156,5.82016663 L0.671621156,2.09153824 C6.76742435,1.24141097 12.885448,0.652287685 19.0330988,0.383826441 C20.6700034,0.309253873 22.3143149,0.398740954 23.9438127,0.137736967 L38.4019024,0.137736967 C41.660898,0.518057063 44.9273005,0.876005388 48.1566689,1.4949577 C52.5192789,2.33762772 56.844855,3.28469933 60.8000906,5.43984654 C61.9703663,6.07371336 63.2443373,6.45403346 64.5627492,6.64792214 C67.9772878,7.13264383 71.4140468,7.05807126 74.843399,6.92384064 C76.0729292,6.8790971 77.2950526,6.78961002 78.5171759,6.52860603 C80.4133188,6.12591416 82.0576303,5.1191845 83.805637,4.37345882 C87.783093,2.67320427 91.9975669,1.88273505 96.2194477,1.15192389 C98.7896101,0.704488482 101.3894,0.458399008 103.981783,0.145194224 L118.439872,0.145194224 C118.83984,0.286882102 119.247215,0.257053075 119.661996,0.257053075 C122.683974,0.271967589 125.691138,0.488228036 128.705709,0.689573969 C133.060912,0.980406983 137.393895,1.47258593 141.712064,2.0989955 L141.712064,5.82762389 C141.475046,7.08044303 141.645403,8.3630912 141.51208,9.62336759 C141.445419,10.2423199 141.215808,10.62264 140.623263,10.8911012 C138.816002,11.7039422 137.697574,13.1431928 137.245759,15.067165 C136.934673,16.3870995 136.727282,17.7294057 136.482857,19.0642547 C135.453311,24.5602529 134.231188,29.9891359 132.142468,35.2017583 C129.601932,41.5255121 124.935643,45.3137985 118.536161,47.1408265 C117.232563,47.506232 115.884524,47.6479199 114.558705,47.8865521 Z M107.190728,4.44247736 C103.525331,4.55457998 99.696698,4.21827214 95.8903242,4.82362625 C92.9075518,5.30193074 90.0063975,6.00444046 87.4094563,7.64861214 C85.3690026,8.94152896 83.8998758,10.6978033 83.2469306,13.0743787 C82.7646416,14.8231795 82.5123673,16.6168213 82.5123673,18.4254101 C82.5123673,23.70918 83.8850362,28.6192746 86.6452137,33.1033791 C88.9231021,36.7952919 91.7426382,39.8893241 95.9125837,41.5036017 C101.551656,43.6933395 107.376224,44.6125809 113.386288,44.1492234 C116.554556,43.9100712 119.589267,43.0879853 122.290086,41.301817 C125.102203,39.4409136 126.949741,36.7205568 128.530165,33.8208359 C131.505517,28.3577018 132.195562,22.3714222 132.188142,16.2805135 C132.180722,12.371869 130.348024,9.44225397 127.046198,7.43188042 C124.107945,5.64571209 120.850639,4.93572887 117.482035,4.63678856 C114.106012,4.33784826 110.722568,4.4798449 107.190728,4.44247736 Z M31.8942739,44.2538525 C36.1977764,44.246379 39.967051,43.71576 43.6695472,42.5573663 C46.7190981,41.6082308 49.7018705,40.5021517 52.0020184,38.1181028 C57.9972426,31.9225649 60.7129011,24.5312659 59.9263989,15.8918911 C59.6592849,13.0145906 58.7540655,10.3988629 56.3945589,8.4931185 C54.7325166,7.15536064 52.8404594,6.29590726 50.8222651,5.69802665 C47.1123492,4.59942102 43.3133952,4.35279527 39.4773421,4.43500386 C34.1573226,4.54710647 28.8298833,4.13606355 23.5247035,4.80867924 C20.3638551,5.21224865 17.366243,6.10906957 14.7322027,7.99239349 C12.0091243,9.93550548 10.5993563,12.6184947 10.43612,15.9666261 C10.3248225,18.2236254 10.5548373,20.4656777 10.8145314,22.7002565 C11.31908,27.1021525 12.4468944,31.3097373 14.8286605,35.0913322 C16.6390995,37.9686326 18.6647136,40.6292013 21.8404016,42.1612704 C25.1422268,43.775548 28.6518073,44.3061671 31.8942739,44.2538525 Z" transform="translate(2.841 22.635)"/>
        </g>
        <g mask="url(#znak-b)">
            <g transform="translate(35.672 41.956)">
                <mask id="znak-d" fill="#fff">
                    <use xlink:href="#znak-c"/>
                </mask>
                <use fill="#F4F8F9" stroke="#5B504C" stroke-width="6.586" xlink:href="#znak-c"/>
                <path stroke="#5B504C" stroke-linecap="round" stroke-linejoin="round" stroke-width="6.586" d="M36.8841753,49.1030681 C36.8841753,49.1030681 38.0124512,63.5218221 26.5416464,67.1265106 C15.0708416,70.7311991 0.0271631078,59.7050931 0.0271631078,59.7050931" mask="url(#znak-d)"/>
                <path stroke="#5B504C" stroke-linecap="round" stroke-linejoin="round" stroke-width="6.586" d="M76.4064972,49.1030681 C76.4064972,49.1030681 77.5347731,63.5218221 66.0639683,67.1265106 C54.5931634,70.7311991 39.549485,59.7050931 39.549485,59.7050931" mask="url(#znak-d)" transform="matrix(-1 0 0 1 115.986 0)"/>
                <path fill="#5B504C" d="M27.7309211,36.7693669 C31.2320064,35.2584221 34.7330918,34.5029497 38.2341771,34.5029497 C41.7352672,34.5029497 45.2363573,35.2584241 48.7374473,36.769373 L48.7374435,36.7693819 C49.7511098,37.2068451 50.2182148,38.383218 49.7807516,39.3968844 C49.726756,39.5220001 49.6601086,39.6412669 49.5818493,39.7528239 L38.2341771,55.9287001 L26.886501,39.7528563 C26.2524479,38.8490264 26.4711451,37.6023259 27.374975,36.9682727 C27.4865341,36.890012 27.605803,36.8233635 27.7309211,36.7693669 Z" mask="url(#znak-d)"/>
            </g>
        </g>
    </g>
</svg>
