<svg xmlns="http://www.w3.org/2000/svg" width="1057" height="583" viewBox="0 0 1057 583">
  <g fill="none" fill-rule="evenodd">
    <path fill="#DFE2FC" d="M622.67721 48L314.323506 48C303.145542 48 294 39.0036505 294 28.0080341L294 19.9912622C294 8.99634946 303.145542 0 314.323506 0L622.67721 0C633.855174 0 643 8.99634946 643 19.9912622L643 28.0080341C643 39.0036505 633.855174 48 622.67721 48M670.604946 103L547.394341 103C536.727525 103 528 94.2245341 528 83.5 528 72.7754659 536.727525 64 547.394341 64L670.604946 64C681.271762 64 690 72.7754659 690 83.5 690 94.2245341 681.271762 103 670.604946 103M606 64C600.05015 64 595.22799 60.418249 595.22799 56 595.22799 51.581751 600.05015 48 606 48L559 48C564.949144 48 569.77201 51.581751 569.77201 56 569.77201 60.418249 564.949144 64 559 64L606 64M323.323464 293L631.676536 293C642.854477 293 652 301.996218 652 312.991673L652 321.008327C652 332.003782 642.854477 341 631.676536 341L323.323464 341C312.145523 341 303 332.003782 303 321.008327L303 312.991673C303 301.996218 312.145523 293 323.323464 293M297.394341 358L420.604946 358C431.272475 358 440 366.77491 440 377.500358 440 388.22509 431.272475 397 420.604946 397L297.394341 397C286.727525 397 278 388.22509 278 377.500358 278 366.77491 286.727525 358 297.394341 358M274.514777 238L398.485223 238C409.218602 238 418 246.77491 418 257.499642 418 268.22509 409.218602 277 398.485223 277L274.514777 277C263.781398 277 255 268.22509 255 257.499642 255 246.77491 263.781398 238 274.514777 238M340 277C345.949144 277 350.77201 280.581751 350.77201 285 350.77201 289.418249 345.949144 293 340 293L387 293C381.050856 293 376.22799 289.418249 376.22799 285 376.22799 280.581751 381.050856 277 387 277L340 277M324 341C330.20205 341 335.230548 344.805375 335.230548 349.5 335.230548 354.194625 330.20205 358 324 358L373 358C366.797245 358 361.769452 354.194625 361.769452 349.5 361.769452 344.805375 366.797245 341 373 341L324 341M703.322915 110L1011.67565 110C1022.85726 110 1032 118.996349 1032 129.991262L1032 138.008738C1032 149.004354 1022.85726 158 1011.67565 158L703.322915 158C692.144883 158 683 149.004354 683 138.008738L683 129.991262C683 118.996349 692.144883 110 703.322915 110M737.395054 175L860.604946 175C871.272475 175 880 183.77491 880 194.499642 880 205.22509 871.272475 214 860.604946 214L737.395054 214C726.727525 214 718 205.22509 718 194.499642 718 183.77491 726.727525 175 737.395054 175M724.395054 55L847.605659 55C858.272475 55 867 63.7749104 867 74.5003584 867 85.2250896 858.272475 94 847.605659 94L724.395054 94C713.727525 94 705 85.2250896 705 74.5003584 705 63.7749104 713.727525 55 724.395054 55M720 94C725.949144 94 730.77201 97.581751 730.77201 102 730.77201 106.418249 725.949144 110 720 110L767 110C761.050856 110 756.22799 106.418249 756.22799 102 756.22799 97.581751 761.050856 94 767 94L720 94M794 158C800.20205 158 805.230548 161.805918 805.230548 166.50035 805.230548 171.194782 800.20205 175 794 175L843 175C836.797245 175 831.769452 171.194782 831.769452 166.50035 831.769452 161.805918 836.797245 158 843 158L794 158M899.675904 474L591.322665 474C580.145486 474 571 465.003782 571 454.008327L571 445.991673C571 434.996218 580.145486 426 591.322665 426L899.675904 426C910.850222 426 920 434.996218 920 445.991673L920 454.008327C920 465.003782 910.850222 474 899.675904 474M924.607085 409L801.394341 409C790.727525 409 782 400.22509 782 389.499642 782 378.77491 790.727525 370 801.394341 370L924.607085 370C935.273188 370 944 378.77491 944 389.499642 944 400.22509 935.273188 409 924.607085 409M947.606658 529L824.394768 529C813.727717 529 805 520.226129 805 509.502509 805 498.771721 813.727717 490 824.394768 490L947.606658 490C958.272996 490 967 498.771721 967 509.502509 967 520.226129 958.272996 529 947.606658 529M883 490C877.050856 490 872.22799 486.418249 872.22799 482 872.22799 477.581751 877.050856 474 883 474L836 474C841.94985 474 846.772716 477.581751 846.772716 482 846.772716 486.418249 841.94985 490 836 490L883 490M883 545C877.050856 545 872.22799 541.418249 872.22799 537 872.22799 532.581751 877.050856 529 883 529L836 529C841.94985 529 846.772716 532.581751 846.772716 537 846.772716 541.418249 841.94985 545 836 545L883 545" opacity=".35"/>
    <rect width="944" height="39" y="544" fill="#F4F5FE" rx="19.5"/>
    <path fill="#DFE2FC" d="M898 426C891.797245 426 886.769452 422.194625 886.769452 417.5 886.769452 412.805375 891.797245 409 898 409L849 409C855.20205 409 860.230548 412.805375 860.230548 417.5 860.230548 422.194625 855.20205 426 849 426L898 426M646.676494 169L338.32279 169C327.144826 169 318 159.816227 318 148.592253L318 140.407747C318 129.183773 327.144826 120 338.32279 120L646.676494 120C657.854458 120 667 129.183773 667 140.407747L667 148.592253C667 159.816227 657.854458 169 646.676494 169M694.605659 224L571.395054 224C560.727525 224 552 215.22509 552 204.499642 552 193.77491 560.727525 185 571.395054 185L694.605659 185C705.272475 185 714 193.77491 714 204.499642 714 215.22509 705.272475 224 694.605659 224M630 185C624.050856 185 619.22799 181.418249 619.22799 177 619.22799 172.581751 624.050856 169 630 169L583 169C588.949144 169 593.77201 172.581751 593.77201 177 593.77201 181.418249 588.949144 185 583 185L630 185M645 120C638.797334 120 633.769614 116.194082 633.769614 111.50035 633.769614 106.805918 638.797334 103 645 103L596 103C602.202666 103 607.230386 106.805918 607.230386 111.50035 607.230386 116.194082 602.202666 120 596 120L645 120M728.322707 230L1036.67586 230C1047.8502 230 1057 238.996349 1057 249.991262L1057 258.008738C1057 269.003651 1047.8502 278 1036.67586 278L728.322707 278C717.145504 278 708 269.003651 708 258.008738L708 249.991262C708 238.996349 717.145504 230 728.322707 230M703.395054 295L826.605659 295C837.272475 295 846 303.77491 846 314.499642 846 325.22509 837.272475 334 826.605659 334L703.395054 334C692.727525 334 684 325.22509 684 314.499642 684 303.77491 692.727525 295 703.395054 295M745 214C750.949144 214 755.77201 217.581751 755.77201 222 755.77201 226.418249 750.949144 230 745 230L792 230C786.05015 230 781.22799 226.418249 781.22799 222 781.22799 217.581751 786.05015 214 792 214L745 214M730 278C736.202755 278 741.230548 281.805918 741.230548 286.50035 741.230548 291.194082 736.202755 295 730 295L779 295C772.79795 295 767.769452 291.194082 767.769452 286.50035 767.769452 281.805918 772.79795 278 779 278L730 278" opacity=".35"/>
    <path fill="#CBCFEE" d="M359.990494 193.633692C355.117723 193.633692 351.152949 197.596416 351.152949 202.467384 351.152949 207.338351 355.117723 211.300358 359.990494 211.300358 364.863982 211.300358 368.828039 207.338351 368.828039 202.467384 368.828039 197.596416 364.863982 193.633692 359.990494 193.633692zM359.990494 217.035125C351.95408 217.035125 345.415215 210.500358 345.415215 202.467384 345.415215 194.434409 351.95408 187.898925 359.990494 187.898925 368.027625 187.898925 374.565773 194.434409 374.565773 202.467384 374.565773 210.500358 368.027625 217.035125 359.990494 217.035125zM955.713613 36.7928315C950.836539 36.7928315 946.877502 40.7555556 946.877502 45.6265233 946.877502 50.4967742 950.836539 54.4594982 955.713613 54.4594982 960.583515 54.4594982 964.549723 50.4967742 964.549723 45.6265233 964.549723 40.7555556 960.583515 36.7928315 955.713613 36.7928315zM955.713613 60.1942652C947.673613 60.1942652 941.139768 53.6587814 941.139768 45.6265233 941.139768 37.5935484 947.673613 31.0580645 955.713613 31.0580645 963.746441 31.0580645 970.287458 37.5935484 970.287458 45.6265233 970.287458 53.6587814 963.746441 60.1942652 955.713613 60.1942652zM630.819436 505.139785C625.946665 505.139785 621.981891 509.103943 621.981891 513.978495 621.981891 518.845878 625.946665 522.810036 630.819436 522.810036 635.692924 522.810036 639.656981 518.845878 639.656981 513.978495 639.656981 509.103943 635.692924 505.139785 630.819436 505.139785zM630.819436 528.544803C622.783022 528.544803 616.244157 522.007168 616.244157 513.978495 616.244157 505.942652 622.783022 499.407168 630.819436 499.407168 638.856567 499.407168 645.394715 505.942652 645.394715 513.978495 645.394715 522.007168 638.856567 528.544803 630.819436 528.544803z"/>
    <path fill="#FFF" d="M798.881973,429.321864 L799.813638,429.321864 C799.504517,429.338351 799.193245,429.335484 798.881973,429.321864"/>
    <path fill="#989FDD" d="M457.277363 72.7125448C452.867914 72.7125448 449.281113 76.297491 449.281113 80.7046595 449.281113 85.1111111 452.867914 88.6967742 457.277363 88.6967742 461.686095 88.6967742 465.273613 85.1111111 465.273613 80.7046595 465.273613 76.297491 461.686095 72.7125448 457.277363 72.7125448zM457.277363 91.5641577C451.286451 91.5641577 446.412246 86.6924731 446.412246 80.7046595 446.412246 74.7168459 451.286451 69.8451613 457.277363 69.8451613 463.268275 69.8451613 468.14248 74.7168459 468.14248 80.7046595 468.14248 86.6924731 463.268275 91.5641577 457.277363 91.5641577zM955.713613 437.056631C951.30273 437.056631 947.716646 440.642294 947.716646 445.048746 947.716646 449.455914 951.30273 453.04086 955.713613 453.04086 960.124496 453.04086 963.71058 449.455914 963.71058 445.048746 963.71058 440.642294 960.124496 437.056631 955.713613 437.056631zM955.713613 455.908244C949.724853 455.908244 944.847779 451.036559 944.847779 445.048746 944.847779 439.060932 949.724853 434.189247 955.713613 434.189247 961.702373 434.189247 966.579447 439.060932 966.579447 445.048746 966.579447 451.036559 961.702373 455.908244 955.713613 455.908244zM469.143715 421.151254C464.734983 421.151254 461.147465 424.736918 461.147465 429.144086 461.147465 433.550538 464.734983 437.135484 469.143715 437.135484 473.553163 437.135484 477.139964 433.550538 477.139964 429.144086 477.139964 424.736918 473.553163 421.151254 469.143715 421.151254zM469.143715 440.002867C463.152803 440.002867 458.278598 435.131183 458.278598 429.144086 458.278598 423.155556 463.152803 418.283871 469.143715 418.283871 475.134626 418.283871 480.008831 423.155556 480.008831 429.144086 480.008831 435.131183 475.134626 440.002867 469.143715 440.002867zM999.535558 189.82509C995.124674 189.82509 991.538591 193.410753 991.538591 197.817204 991.538591 202.224373 995.124674 205.809319 999.535558 205.809319 1003.93927 205.809319 1007.53252 202.224373 1007.53252 197.817204 1007.53252 193.410753 1003.93927 189.82509 999.535558 189.82509zM999.535558 208.676703C993.539625 208.676703 988.669723 203.805018 988.669723 197.817204 988.669723 191.829391 993.539625 186.957706 999.535558 186.957706 1005.52432 186.957706 1010.40139 191.829391 1010.40139 197.817204 1010.40139 203.805018 1005.52432 208.676703 999.535558 208.676703z"/>
  </g>
</svg>
