<svg xmlns="http://www.w3.org/2000/svg" width="60" height="60" viewBox="0 0 60 60">
  <g fill="none" fill-rule="evenodd">
    <rect width="60" height="60" fill="#FBFCFF" rx="3"/>
    <path fill="#F4F5FE" fill-rule="nonzero" d="M13,48.5 C12.171875,48.5 11.5,47.828125 11.5,47 L11.5,41 L12.753906,17.917969 C12.796875,17.121094 13.453125,16.5 14.253906,16.5 L45.746094,16.5 C46.546875,16.5 47.203125,17.121094 47.246094,17.917969 L48.5,41.027344 L48.5,47 C48.5,47.828125 47.828125,48.5 47,48.5 L13,48.5 Z"/>
    <path fill="#989FDD" fill-rule="nonzero" d="M45.746094,17 C46.277344,17 46.71875,17.414063 46.746094,17.945313 L48,41.027344 L48,47 C48,47.550781 47.550781,48 47,48 L13,48 C12.449219,48 12,47.550781 12,47 L12,41.027344 L13.253906,17.945313 C13.28125,17.414063 13.71875,17 14.253906,17 L45.746094,17 Z M45.746094,16 L14.253906,16 C13.1875,16 12.3125,16.832031 12.253906,17.890625 L11,41 L11,47 C11,48.105469 11.894531,49 13,49 L47,49 C48.105469,49 49,48.105469 49,47 L49,41 L47.746094,17.890625 C47.6875,16.832031 46.8125,16 45.746094,16 Z"/>
    <path fill="#CBCFEE" fill-rule="nonzero" d="M12,41 L13.253906,17.945313 C13.28125,17.414063 13.71875,17 14.253906,17 L45.75,17 C46.28125,17 46.71875,17.414063 46.746094,17.945313 L48,41 L12,41 Z"/>
    <polyline fill="#4788C7" fill-rule="nonzero" points="42 20 42 23 38 23 38 20 42 20"/>
    <path fill="#F4F5FE" fill-rule="nonzero" d="M33,20.5 C32.171875,20.5 31.5,19.828125 31.5,19 L31.5,13 C31.5,12.171875 32.171875,11.5 33,11.5 L47,11.5 C47.828125,11.5 48.5,12.171875 48.5,13 L48.5,19 C48.5,19.828125 47.828125,20.5 47,20.5 L33,20.5 Z"/>
    <path fill="#989FDD" fill-rule="nonzero" d="M47,12 C47.550781,12 48,12.449219 48,13 L48,19 C48,19.550781 47.550781,20 47,20 L33,20 C32.449219,20 32,19.550781 32,19 L32,13 C32,12.449219 32.449219,12 33,12 L47,12 Z M47,11 L33,11 C31.894531,11 31,11.894531 31,13 L31,19 C31,20.105469 31.894531,21 33,21 L47,21 C48.105469,21 49,20.105469 49,19 L49,13 C49,11.894531 48.105469,11 47,11 Z"/>
    <path fill="#F4F5FE" fill-rule="nonzero" d="M37,21 L43,21 L43,23.5 C43,23.777344 42.777344,24 42.5,24 L37.5,24 C37.222656,24 37,23.777344 37,23.5 L37,21 Z"/>
    <polygon fill="#F4F5FE" fill-rule="nonzero" points="16 30 19 30 19 33 16 33"/>
    <polygon fill="#F4F5FE" fill-rule="nonzero" points="22 30 25 30 25 33 22 33"/>
    <polygon fill="#F4F5FE" fill-rule="nonzero" points="28 30 31 30 31 33 28 33"/>
    <polygon fill="#F4F5FE" fill-rule="nonzero" points="34 30 37 30 37 33 34 33"/>
    <polygon fill="#F4F5FE" fill-rule="nonzero" points="16 35 19 35 19 38 16 38"/>
    <polygon fill="#F4F5FE" fill-rule="nonzero" points="22 35 25 35 25 38 22 38"/>
    <polygon fill="#F4F5FE" fill-rule="nonzero" points="28 35 31 35 31 38 28 38"/>
    <polygon fill="#F4F5FE" fill-rule="nonzero" points="34 35 37 35 37 38 34 38"/>
    <polygon fill="#F4F5FE" fill-rule="nonzero" points="41 35 44 35 44 38 41 38"/>
    <polygon fill="#989FDD" fill-rule="nonzero" points="41 30 44 30 44 33 41 33"/>
    <path fill="#989FDD" fill-rule="nonzero" d="M31.355469,44.929688 C31.355469,45.679688 30.75,46.285156 30,46.285156 C29.25,46.285156 28.644531,45.679688 28.644531,44.929688 C28.644531,44.179688 29.25,43.570313 30,43.570313 C30.75,43.570313 31.355469,44.179688 31.355469,44.929688 Z"/>
    <polygon fill="#F4F5FE" fill-rule="nonzero" points="16.5 11.5 28.5 11.5 28.5 26.5 16.5 26.5"/>
    <path fill="#989FDD" fill-rule="nonzero" d="M28,12 L28,26 L17,26 L17,12 L28,12 Z M29,11 L16,11 L16,27 L29,27 L29,11 Z"/>
    <polygon fill="#CBCFEE" fill-rule="nonzero" points="17 24 28 24 28 26 17 26"/>
    <path fill="#989FDD" fill-rule="nonzero" d="M28,24 L28,26 L17,26 L17,24 L15.5,24 C14.671875,24 14,24.671875 14,25.5 C14,26.328125 14.671875,27 15.5,27 L29.5,27 C30.328125,27 31,26.328125 31,25.5 C31,24.671875 30.328125,24 29.5,24 L28,24 Z"/>
    <polygon fill="#989FDD" fill-rule="nonzero" points="45 17 46 17 46 18 45 18"/>
    <polygon fill="#989FDD" fill-rule="nonzero" points="43 17 44 17 44 18 43 18"/>
    <polygon fill="#989FDD" fill-rule="nonzero" points="41 17 42 17 42 18 41 18"/>
    <path fill="#989FDD" fill-rule="nonzero" d="M42.5 20C42.773438 20 43 20.226563 43 20.5L43 23.5C43 23.773438 42.773438 24 42.5 24 42.226563 24 42 23.773438 42 23.5L42 20.5C42 20.226563 42.226563 20 42.5 20zM37.5 20C37.773438 20 38 20.226563 38 20.5L38 23.5C38 23.773438 37.773438 24 37.5 24 37.226563 24 37 23.773438 37 23.5L37 20.5C37 20.226563 37.226563 20 37.5 20z"/>
  </g>
</svg>
