<svg xmlns="http://www.w3.org/2000/svg" width="60" height="60" viewBox="0 0 60 60">
  <g fill="none" fill-rule="evenodd">
    <rect width="60" height="60" fill="#FBFCFF" rx="3"/>
    <path fill="#CBCFEE" fill-rule="nonzero" d="M30,46.5 C29.293,46.5 28.636,46.203 28.149,45.665 L28.001,45.5 L11.333,45.5 C10.874,45.5 10.5,45.126 10.5,44.667 L10.5,18.333 C10.5,17.874 10.874,17.5 11.333,17.5 L48.667,17.5 C49.126,17.5 49.5,17.874 49.5,18.333 L49.5,44.667 C49.5,45.126 49.126,45.5 48.667,45.5 L31.999,45.5 L31.851,45.665 C31.364,46.203 30.707,46.5 30,46.5 Z"/>
    <path fill="#989FDD" fill-rule="nonzero" d="M48.667,18 C48.85,18 49,18.15 49,18.333 L49,44.666 C49,44.85 48.85,45 48.667,45 L32.221,45 L31.776,45 L31.478,45.331 C31.09,45.762 30.565,46 30,46 C29.435,46 28.91,45.762 28.522,45.331 L28.224,45 L27.779,45 L11.333,45 C11.15,45 11,44.85 11,44.667 L11,18.333 C11,18.15 11.15,18 11.333,18 L48.667,18 Z M48.667,17 L11.333,17 C10.597,17 10,17.597 10,18.333 L10,44.666 C10,45.403 10.597,46 11.333,46 L27.778,46 C28.327,46.61 29.114,47 29.999,47 C30.884,47 31.671,46.61 32.22,46 L48.665,46 C49.403,46 50,45.403 50,44.667 L50,18.333 C50,17.597 49.403,17 48.667,17 Z"/>
    <path fill="#CBCFEE" fill-rule="nonzero" d="M29.45,43.5 C29.218,42.36 28.207,41.5 27,41.5 L13.5,41.5 L13.5,14.5 L27.333,14.5 C28.548,14.5 29.617,15.655 29.628,15.667 L29.998,16.08 L30.372,15.668 C30.382,15.656 31.441,14.5 32.667,14.5 L46.5,14.5 L46.5,41.5 L33,41.5 C31.793,41.5 30.782,42.36 30.55,43.5 L29.45,43.5 Z"/>
    <path fill="#989FDD" fill-rule="nonzero" d="M46,15 L46,41 L33,41 C31.696,41 30.584,41.836 30.171,43 L29.828,43 C29.415,41.836 28.303,41 26.999,41 L14,41 L14,15 L27.333,15 C28.16,15 29.003,15.725 29.255,16 L29.996,16.82 L30.742,16.003 C30.997,15.725 31.839,15 32.667,15 L46,15 Z M47,14 L32.667,14 C31.194,14 30,15.333 30,15.333 C30,15.333 28.806,14 27.333,14 L13,14 L13,42 L27,42 C28.105,42 29,42.895 29,44 L31,44 C31,42.895 31.895,42 33,42 L47,42 L47,14 Z"/>
    <path fill="#F4F5FE" fill-rule="nonzero" d="M32.667,15 C31.685,15 30.754,15.99 30.745,16 L30,16.832 L30,43 L30.171,43 C30.584,41.836 31.696,41 33,41 L46,41 L46,15 L32.667,15 Z"/>
    <path fill="#989FDD" d="M38.8546326,32.7335165 L36.1789137,32.7335165 L36.1789137,35 L34.6533546,35 L34.6533546,32.7335165 L33,32.7335165 L33,31.4313187 L34.6533546,31.4313187 L34.6533546,30.3021978 L33,30.3021978 L33,29.0082418 L34.6533546,29.0082418 L34.6533546,23 L38.942492,23 C40.1885046,23 41.1762477,23.3269198 41.9057508,23.9807692 C42.6352539,24.6346187 43,25.5192252 43,26.6346154 C43,27.8049509 42.649897,28.7074144 41.9496805,29.342033 C41.249464,29.9766515 40.255065,30.2967033 38.9664537,30.3021978 L36.1789137,30.3021978 L36.1789137,31.4313187 L38.8546326,31.4313187 L38.8546326,32.7335165 Z M36.1789137,29.0082418 L38.942492,29.0082418 C39.7678423,29.0082418 40.396164,28.8076943 40.827476,28.4065934 C41.2587881,28.0054925 41.4744409,27.4203335 41.4744409,26.6510989 C41.4744409,25.9532932 41.250801,25.3887384 40.8035144,24.9574176 C40.3562278,24.5260967 39.7518675,24.3076923 38.9904153,24.3021978 L36.1789137,24.3021978 L36.1789137,29.0082418 Z"/>
    <path fill="#989FDD" fill-rule="nonzero" d="M19.5 26L17.5 26C17.224 26 17 25.776 17 25.5 17 25.224 17.224 25 17.5 25L19.5 25C19.776 25 20 25.224 20 25.5 20 25.776 19.776 26 19.5 26zM19.5 20L17.5 20C17.224 20 17 19.776 17 19.5 17 19.224 17.224 19 17.5 19L19.5 19C19.776 19 20 19.224 20 19.5 20 19.776 19.776 20 19.5 20zM19.5 23L17.5 23C17.224 23 17 22.776 17 22.5 17 22.224 17.224 22 17.5 22L19.5 22C19.776 22 20 22.224 20 22.5 20 22.776 19.776 23 19.5 23zM26.5 26L22.5 26C22.224 26 22 25.776 22 25.5 22 25.224 22.224 25 22.5 25L26.5 25C26.776 25 27 25.224 27 25.5 27 25.776 26.776 26 26.5 26zM19.5 29L17.5 29C17.224 29 17 28.776 17 28.5 17 28.224 17.224 28 17.5 28L19.5 28C19.776 28 20 28.224 20 28.5 20 28.776 19.776 29 19.5 29zM26.5 29L22.5 29C22.224 29 22 28.776 22 28.5 22 28.224 22.224 28 22.5 28L26.5 28C26.776 28 27 28.224 27 28.5 27 28.776 26.776 29 26.5 29zM26.5 37L22.5 37C22.224 37 22 36.776 22 36.5 22 36.224 22.224 36 22.5 36L26.5 36C26.776 36 27 36.224 27 36.5 27 36.776 26.776 37 26.5 37zM26.5 20L22.5 20C22.224 20 22 19.776 22 19.5 22 19.224 22.224 19 22.5 19L26.5 19C26.776 19 27 19.224 27 19.5 27 19.776 26.776 20 26.5 20zM25.5 23L22.5 23C22.224 23 22 22.776 22 22.5 22 22.224 22.224 22 22.5 22L25.5 22C25.776 22 26 22.224 26 22.5 26 22.776 25.776 23 25.5 23zM26.5 34L22.5 34C22.224 34 22 33.776 22 33.5 22 33.224 22.224 33 22.5 33L26.5 33C26.776 33 27 33.224 27 33.5 27 33.776 26.776 34 26.5 34zM19.5 37L17.5 37C17.224 37 17 36.776 17 36.5 17 36.224 17.224 36 17.5 36L19.5 36C19.776 36 20 36.224 20 36.5 20 36.776 19.776 37 19.5 37z"/>
  </g>
</svg>
