<svg xmlns="http://www.w3.org/2000/svg" width="60" height="60" viewBox="0 0 60 60">
  <g fill="none" fill-rule="evenodd">
    <rect width="60" height="60" fill="#FBFCFF" rx="3"/>
    <g fill-rule="nonzero" transform="translate(11 23)">
      <path fill="#F4F5FE" d="M3,25.5 C1.621094,25.5 0.5,24.378906 0.5,23 L0.5,3 C0.5,1.621094 1.621094,0.5 3,0.5 L35,0.5 C36.378906,0.5 37.5,1.621094 37.5,3 L37.5,23 C37.5,24.378906 36.378906,25.5 35,25.5 L3,25.5 Z"/>
      <path fill="#989FDD" d="M35,1 C36.101563,1 37,1.898438 37,3 L37,23 C37,24.101563 36.101563,25 35,25 L3,25 C1.898438,25 1,24.101563 1,23 L1,3 C1,1.898438 1.898438,1 3,1 L35,1 Z M35,0 L3,0 C1.34375,0 0,1.34375 0,3 L0,23 C0,24.65625 1.34375,26 3,26 L35,26 C36.65625,26 38,24.65625 38,23 L38,3 C38,1.34375 36.65625,0 35,0 Z"/>
      <path fill="#CBCFEE" d="M16,13 C16,10.339844 17.164063,7.953125 19,6.304688 C17.40625,4.875 15.308594,4 13,4 C8.027344,4 4,8.027344 4,13 C4,17.972656 8.027344,22 13,22 C15.308594,22 17.40625,21.125 19,19.695313 C17.164063,18.046875 16,15.660156 16,13 Z"/>
      <path fill="#989FDD" d="M25,4 C22.691406,4 20.59375,4.875 19,6.304688 C20.835938,7.953125 22,10.339844 22,13 C22,15.660156 20.835938,18.046875 19,19.695313 C20.59375,21.125 22.691406,22 25,22 C29.972656,22 34,17.972656 34,13 C34,8.027344 29.972656,4 25,4 Z"/>
      <path fill="#CBCFEE" d="M22,13 C22,10.339844 20.835938,7.953125 19,6.304688 C17.164063,7.953125 16,10.339844 16,13 C16,15.660156 17.164063,18.046875 19,19.695313 C20.835938,18.046875 22,15.660156 22,13 Z"/>
    </g>
    <g fill-rule="nonzero" transform="translate(11 11)">
      <path fill="#F4F5FE" d="M3.5,26 C2.121094,26 1,24.878906 1,23.5 L1,3.5 C1,2.121094 2.121094,1 3.5,1 L35.5,1 C36.878906,1 38,2.121094 38,3.5 L38,23.5 C38,24.878906 36.878906,26 35.5,26 L3.5,26 Z"/>
      <path fill="#989FDD" d="M35,1 C36.101563,1 37,1.898438 37,3 L37,23 C37,24.101563 36.101563,25 35,25 L3,25 C1.898438,25 1,24.101563 1,23 L1,3 C1,1.898438 1.898438,1 3,1 L35,1 Z M35,0 L3,0 C1.34375,0 0,1.34375 0,3 L0,23 C0,24.65625 1.34375,26 3,26 L35,26 C36.65625,26 38,24.65625 38,23 L38,3 C38,1.34375 36.65625,0 35,0 Z"/>
      <path fill="#989FDD" d="M11.2745683,8 L8.94011004,15.121094 C8.94011004,15.121094 8.35934269,12.210938 8.30240445,11.828125 C6.97385064,8.730469 5,8.800781 5,8.800781 L7.3116835,18 L7.3116835,17.996094 L10.1168282,17.996094 L14,8 L11.2745683,8 Z"/>
      <polygon fill="#989FDD" points="13 18 15.494 18 17 8 14.473 8"/>
      <path fill="#989FDD" d="M31.9914162 8L29.2566521 8 25 18 27.5802577 18 28.109442 16.570313 31.3618022 16.570313 31.6360514 18 34 18 31.9914162 8zM28.8278965 14.660156L30.2416309 10.882813 30.9832619 14.660156 28.8278965 14.660156zM21.8398382 10.9152017C21.8398382 10.3642045 22.3142424 9.95388819 23.6685258 9.95388819 24.5484039 9.95388819 25.5580337 10.5674088 25.5580337 10.5674088L26 8.46893317C26 8.46893317 24.7105935 8 23.4455149 8 20.5828686 8 19.102889 9.31301286 19.102889 10.9738176 19.102889 13.9828059 22.8778514 13.5685811 22.8778514 15.112153 22.8778514 15.3778818 22.658895 15.9914024 21.0897117 15.9914024 19.5083629 15.9914024 18.4703497 15.4364987 18.4703497 15.4364987L18 17.4490038C18 17.4490038 19.0096298 18 20.9559046 18 22.9102893 18 25.6229095 16.6010156 25.6229095 14.5885115 25.6229095 12.1735052 21.8398382 11.9976555 21.8398382 10.9152017z"/>
      <path fill="#DFF0FE" d="M8,13 L7.18232088,8.88626301 C7.18232088,8.88626301 6.80662979,8 5.82688805,8 C4.85082931,8 2,8 2,8 C2,8 6.86187864,9.47341249 8,13 Z"/>
    </g>
  </g>
</svg>
