<svg xmlns="http://www.w3.org/2000/svg" width="60" height="60" viewBox="0 0 60 60">
  <g fill="none" fill-rule="evenodd">
    <rect width="60" height="60" fill="#FBFCFF" rx="3"/>
    <polygon fill="#F4F5FE" fill-rule="nonzero" points="26.551 22.535 36.051 12.707 45.676 22.012 36.18 31.84"/>
    <path fill="#989FDD" fill-rule="nonzero" d="M36.0625,13.414063 L44.972656,22.023438 L36.167969,31.132813 L27.257813,22.523438 L36.0625,13.414063 Z M36.039063,12 L25.84375,22.546875 L36.191406,32.546875 L46.386719,22 L36.039063,12 Z"/>
    <polygon fill="#F4F5FE" fill-rule="nonzero" points="20.324 19.152 26.551 12.707 37.961 23.734 31.734 30.18"/>
    <path fill="#989FDD" fill-rule="nonzero" d="M26.5625,13.414063 L37.253906,23.746094 L31.722656,29.472656 L21.027344,19.140625 L26.5625,13.414063 Z M26.539063,12 L19.617188,19.164063 L31.746094,30.886719 L38.667969,23.722656 L26.539063,12 Z"/>
    <path fill="#F4F5FE" fill-rule="nonzero" d="M20.910156,35.5 L17.84375,17.828125 L46.367188,21.683594 L42.898438,34.394531 C42.722656,35.046875 42.128906,35.5 41.453125,35.5 L20.910156,35.5 Z"/>
    <path fill="#989FDD" fill-rule="nonzero" d="M18.453125,18.417969 L45.734375,22.101563 L42.417969,34.261719 C42.300781,34.695313 41.902344,35 41.453125,35 L21.332031,35 L18.453125,18.417969 Z M17.234375,17.242188 L20.488281,36 L41.453125,36 C42.355469,36 43.144531,35.394531 43.382813,34.527344 L47,21.261719 L17.234375,17.242188 Z"/>
    <path fill="#F4F5FE" fill-rule="nonzero" d="M12.5,13 C12.5,13.828125 11.828125,14.5 11,14.5 C10.171875,14.5 9.5,13.828125 9.5,13 C9.5,12.171875 10.171875,11.5 11,11.5 C11.828125,11.5 12.5,12.171875 12.5,13 Z"/>
    <path fill="#989FDD" fill-rule="nonzero" d="M11,12 C11.550781,12 12,12.449219 12,13 C12,13.550781 11.550781,14 11,14 C10.449219,14 10,13.550781 10,13 C10,12.449219 10.449219,12 11,12 Z M11,11 C9.894531,11 9,11.894531 9,13 C9,14.105469 9.894531,15 11,15 C12.105469,15 13,14.105469 13,13 C13,11.894531 12.105469,11 11,11 Z"/>
    <path fill="#F4F5FE" fill-rule="nonzero" d="M41.5,46.5 C41.5,47.605469 40.605469,48.5 39.5,48.5 C38.394531,48.5 37.5,47.605469 37.5,46.5 C37.5,45.394531 38.394531,44.5 39.5,44.5 C40.605469,44.5 41.5,45.394531 41.5,46.5 Z"/>
    <path fill="#989FDD" fill-rule="nonzero" d="M39.5,45 C40.328125,45 41,45.671875 41,46.5 C41,47.328125 40.328125,48 39.5,48 C38.671875,48 38,47.328125 38,46.5 C38,45.671875 38.671875,45 39.5,45 Z M39.5,44 C38.117188,44 37,45.117188 37,46.5 C37,47.882813 38.117188,49 39.5,49 C40.882813,49 42,47.882813 42,46.5 C42,45.117188 40.882813,44 39.5,44 Z"/>
    <path fill="#F4F5FE" fill-rule="nonzero" d="M28.5,46.5 C28.5,47.605469 27.605469,48.5 26.5,48.5 C25.394531,48.5 24.5,47.605469 24.5,46.5 C24.5,45.394531 25.394531,44.5 26.5,44.5 C27.605469,44.5 28.5,45.394531 28.5,46.5 Z"/>
    <path fill="#989FDD" fill-rule="nonzero" d="M26.5,45 C27.328125,45 28,45.671875 28,46.5 C28,47.328125 27.328125,48 26.5,48 C25.671875,48 25,47.328125 25,46.5 C25,45.671875 25.671875,45 26.5,45 Z M26.5,44 C25.117188,44 24,45.117188 24,46.5 C24,47.882813 25.117188,49 26.5,49 C27.882813,49 29,47.882813 29,46.5 C29,45.117188 27.882813,44 26.5,44 Z"/>
    <path stroke="#989FDD" stroke-linecap="round" d="M26.5 31.5L26.5 24.5M30.5 31.5L30.5 24.5M34.5 31.5L34.5 24.5M38.5 31.5L38.5 24.5M11 11.5L13.117188 11.5C15.210938 11.5 17 13.003906 17.359375 15.066406L21.859375 40.933594C22.21875 42.996094 24.007813 44.5 26.097656 44.5L43.5 44.5"/>
  </g>
</svg>
