<svg xmlns="http://www.w3.org/2000/svg" xmlns:xlink="http://www.w3.org/1999/xlink" width="170" height="37" viewBox="0 0 170 37">
  <defs>
    <path id="logo-a" d="M16.7808851,35 C22.7892025,35 26.4080968,31.045323 29.3628762,27.1551724 C32.310104,23.274964 33.257302,20.3822737 33.257302,15.8855763 C33.257302,6.88065976 28.8322072,0 16.7808851,0 C4.72956307,1.6822245e-15 0.304468257,6.88065976 0.304468257,15.8855763 C0.304468257,20.3276817 1.31543171,23.2954279 4.19889406,27.1551724 C7.16070896,31.119798 10.7725677,35 16.7808851,35 Z"/>
    <path id="logo-c" d="M8.69521263,20.7155542 C13.4487735,20.7155542 17.3022961,16.6838045 17.3022961,11.7103892 C17.3022961,7.53278222 11.5355502,0.146833814 8.69521263,0.146833814 C5.85487509,0.146833814 0.0881291943,6.73697395 0.0881291943,11.7103892 C0.0881291943,16.6838045 3.94165171,20.7155542 8.69521263,20.7155542 Z"/>
  </defs>
  <g fill="none" fill-rule="evenodd" transform="translate(1 1)">
    <g transform="translate(0 1.413)">
      <path fill="#242727" d="M32.2063991,6.10061324 C33.4137807,4.53668038 34.0007382,2.25668637 32.6313746,0.896445548 C31.4413202,-0.285680674 29.4124389,-0.0527887793 27.7740654,0.763906009 C26.3328074,1.48234294 31.4414558,7.09145159 32.2063991,6.10061324 Z"/>
      <path fill="#5B504C" d="M32.2063991,6.10061324 C33.4137807,4.53668038 34.0007382,2.25668637 32.6313746,0.896445548 C31.4413202,-0.285680674 29.4124389,-0.0527887793 27.7740654,0.763906009 C26.3328074,1.48234294 31.4414558,7.09145159 32.2063991,6.10061324 Z"/>
      <path fill="#5B504C" d="M4.82767659,6.10061324 C6.03505821,4.53668038 6.62201568,2.25668637 5.25265209,0.896445548 C4.06259768,-0.285680674 2.03371633,-0.0527887793 0.395342904,0.763906009 C-1.04591518,1.48234294 4.06273326,7.09145159 4.82767659,6.10061324 Z" transform="matrix(-1 0 0 1 6.183 0)"/>
    </g>
    <mask id="logo-b" fill="#fff">
      <use xlink:href="#logo-a"/>
    </mask>
    <use fill="#FFF" stroke="#5B504B" stroke-width="1.493" xlink:href="#logo-a"/>
    <g mask="url(#logo-b)">
      <g transform="translate(5.443 9.035)">
        <g transform="matrix(-1 0 0 1 5.19 .088)">
          <path fill="#5B504C" d="M2.04930558,2.98578199 C3.05535022,2.98578199 4.09861116,2.64844791 4.09861116,1.70616114 C4.09861116,0.763874361 3.05535022,0 2.04930558,0 C1.04326094,0 0,0.763874361 0,1.70616114 C0,2.64844791 1.04326094,2.98578199 2.04930558,2.98578199 Z"/>
          <ellipse cx="2.049" cy="1.496" fill="#FFF" rx="1" ry="1"/>
        </g>
        <g transform="translate(17.486 .088)">
          <path fill="#5B504C" d="M2.04930558,2.98578199 C3.05535022,2.98578199 4.09861116,2.64844791 4.09861116,1.70616114 C4.09861116,0.763874361 3.05535022,0 2.04930558,0 C1.04326094,0 0,0.763874361 0,1.70616114 C0,2.64844791 1.04326094,2.98578199 2.04930558,2.98578199 Z"/>
          <ellipse cx="2.049" cy="1.496" fill="#FFF" rx="1" ry="1"/>
        </g>
      </g>
    </g>
    <g fill="#5B504B" fill-rule="nonzero" stroke="#5B504C" stroke-width="1.047" mask="url(#logo-b)">
      <path d="M25.9666398,10.8130924 L24.4086423,10.8130924 C24.032574,10.7642594 23.6565057,10.7238459 23.2837951,10.6632256 C22.6055289,10.5537723 21.9507671,10.3601242 21.3077574,10.1092236 C20.2299186,9.68656553 19.4727453,8.90860526 18.8532399,7.96057142 C18.1078187,6.82057336 17.560505,5.59974826 17.2868481,4.26105039 C17.1945099,3.80976607 16.9493939,3.46625115 16.4826662,3.36016566 C15.7305295,3.19177599 15.1479594,3.50498077 14.9935027,4.24084363 C14.75846,5.35558324 14.3572085,6.40296698 13.7779961,7.38131096 C13.3666714,8.07676029 12.9284846,8.76042235 12.310658,9.2942176 C11.5299804,9.97114407 10.5847729,10.3062395 9.59759353,10.5436689 C9.02677551,10.6817485 8.44588423,10.7440527 7.86499294,10.8130924 L6.30699552,10.8130924 C6.26166585,10.8046729 6.21633618,10.7928857 6.17100652,10.7861501 C4.36117761,10.5318817 3.0163975,9.65962318 2.3079116,7.91005452 C1.78242325,6.60840238 1.49533536,5.24612995 1.26532927,3.87038635 C1.15956005,3.2338734 0.96648925,2.6765036 0.310048523,2.41213182 C0.217710314,2.37508609 0.212673684,2.29089126 0.207637054,2.21174811 C0.187490536,1.9136984 0.170701771,1.61396479 0.152234129,1.31423118 L0.152234129,0.472282829 C1.53394952,0.280318606 2.92070154,0.147290768 4.31416907,0.0866704866 C4.68520078,0.0698315197 5.05791137,0.09003828 5.42726421,0.0311018957 L8.70443121,0.0311018957 C9.44313689,0.116980627 10.1835214,0.197807668 10.9155116,0.337571094 C11.9043699,0.52785142 12.8848338,0.7417063 13.7813539,1.22835244 C14.0466164,1.37148366 14.3353831,1.45736239 14.6342231,1.50114371 C15.4081852,1.61059699 16.1871839,1.59375803 16.9645038,1.56344789 C17.2431973,1.55334451 17.5202119,1.53313775 17.7972265,1.47420136 C18.2270189,1.38327094 18.5997295,1.15594489 18.9959444,0.987555217 C19.8975011,0.603626771 20.8527818,0.425133722 21.8097415,0.260111846 C22.3923116,0.159078044 22.9815973,0.103509454 23.5692041,0.0327857924 L26.8463711,0.0327857924 C26.9370304,0.0647798296 27.0293686,0.0580442428 27.1233857,0.0580442428 C27.8083673,0.0614120362 28.4899912,0.11024504 29.173294,0.155710251 C30.1604734,0.221382222 31.1426161,0.332519404 32.1214012,0.473966726 L32.1214012,1.31591507 C32.0676771,1.59880972 32.1062913,1.88843995 32.0760715,2.17301849 C32.0609616,2.31278191 32.0089164,2.39866065 31.8746063,2.45928093 C31.4649604,2.64282567 31.2114501,2.96781773 31.1090386,3.40226307 C31.0385258,3.70031279 30.9915173,4.00341419 30.9361143,4.3048317 C30.7027505,5.54586356 30.4257359,6.77174036 29.9522927,7.94878414 C29.376438,9.37672854 28.3187458,10.2321481 26.8681965,10.6447027 C26.5727142,10.7272137 26.2671587,10.7592077 25.9666398,10.8130924 Z M24.2965651,1.00314005 C23.4657418,1.02845354 22.5979182,0.952513063 21.7351402,1.08920593 C21.0590451,1.19721017 20.4014501,1.35584139 19.8128101,1.72710597 C19.3503072,2.01905493 19.0173052,2.41563299 18.8693043,2.95227906 C18.7599854,3.34716956 18.7028032,3.75218546 18.7028032,4.16057649 C18.7028032,5.35368582 19.0139415,6.46241684 19.6395818,7.47495658 C20.1559031,8.3086143 20.794998,9.00726673 21.7401856,9.37178104 C23.0183754,9.86623794 24.3386108,10.0738086 25.7008919,9.96917948 C26.4190327,9.91517736 27.1069006,9.72954508 27.7190862,9.32621675 C28.3564992,8.90601275 28.7752746,8.29173864 29.133504,7.63696294 C29.8079173,6.40335202 29.9643273,5.05161146 29.9626455,3.67624497 C29.9609637,2.79364783 29.545552,2.13212186 28.7971383,1.67816655 C28.1311342,1.27483821 27.3928115,1.11451942 26.6292613,1.04701677 C25.8640293,0.979514123 25.0971155,1.01157788 24.2965651,1.00314005 Z M7.22936875,9.99280541 C8.20482932,9.99111785 9.05919823,9.87130064 9.89843069,9.60972788 C10.5896622,9.39540696 11.2657573,9.14564716 11.7871242,8.60731353 C13.1460417,7.20832112 13.7615909,5.5393181 13.5833171,3.58849153 C13.5227713,2.93877853 13.3175882,2.34813034 12.7827667,1.91780095 C12.4060371,1.6157266 11.9771708,1.42165648 11.5197134,1.28665118 C10.6787991,1.03857894 9.81770292,0.982889255 8.94819755,1.00145248 C7.74232646,1.02676598 6.53477355,0.933949834 5.33226612,1.0858308 C4.61580715,1.17695937 3.93634841,1.37946732 3.33929927,1.80473401 C2.72206818,2.24350124 2.40252075,2.84933752 2.36552053,3.60536719 C2.3402931,4.1150122 2.39242978,4.62128207 2.45129378,5.12586437 C2.56565813,6.11984089 2.82129607,7.06994068 3.36116304,7.9238492 C3.77152921,8.5735622 4.23066841,9.17433579 4.95049104,9.52028686 C5.69890475,9.88480117 6.49440966,10.0046184 7.22936875,9.99280541 Z" transform="translate(.644 5.111)"/>
    </g>
    <g mask="url(#logo-b)">
      <g transform="translate(8.086 9.474)">
        <mask id="logo-d" fill="#fff">
          <use xlink:href="#logo-c"/>
        </mask>
        <use fill="#F4F8F9" stroke="#5B504C" stroke-width="1.493" xlink:href="#logo-c"/>
        <path stroke="#5B504C" stroke-linecap="round" stroke-linejoin="round" stroke-width="1.493" d="M8.36041307,11.0877896 C8.36041307,11.0877896 8.6161556,14.3436373 6.01610651,15.1575992 C3.41605742,15.9715611 0.00615697111,13.4817952 0.00615697111,13.4817952" mask="url(#logo-d)"/>
        <path stroke="#5B504C" stroke-linecap="round" stroke-linejoin="round" stroke-width="1.493" d="M17.318806,11.0877896 C17.318806,11.0877896 17.5745486,14.3436373 14.9744995,15.1575992 C12.3744504,15.9715611 8.96454993,13.4817952 8.96454993,13.4817952" mask="url(#logo-d)" transform="matrix(-1 0 0 1 26.29 0)"/>
        <path fill="#5B504C" d="M6.28778408,8.30185412 C7.08066055,7.96127713 7.87353702,7.79098863 8.66641349,7.79098863 C9.45927914,7.79098863 10.2521448,7.96127248 11.0450104,8.30184018 L11.0450285,8.30179825 C11.2749862,8.40057434 11.3813299,8.66706572 11.2825538,8.89702343 C11.2701529,8.92589353 11.2547831,8.9533956 11.2366922,8.97908581 L8.66641349,12.6290613 L6.09611443,8.97916877 C5.95201059,8.77453124 6.00108284,8.4918205 6.20572037,8.34771666 C6.23141103,8.32962554 6.25891354,8.31425535 6.28778408,8.30185412 Z" mask="url(#logo-d)"/>
      </g>
    </g>
    <path fill="#5B504C" d="M46.9040005,10.2159976 L50.314001,17.2999987 L53.3720015,10.2379976 C53.5810016,9.7539975 53.9990016,9.48999746 54.4500017,9.48999746 C55.0660018,9.48999746 55.5940019,10.0179975 55.5940019,10.6339976 C55.5940019,10.7659977 55.5720019,10.9199977 55.5280019,11.0299977 L50.8420011,22.2059995 C49.885001,24.4939999 48.8950008,25 47.2120005,25 C46.6180004,25 46.1560004,24.5159999 46.1560004,23.9219998 C46.1560004,23.3499997 46.5960004,22.8879997 47.1900005,22.8439996 C47.8060006,22.7999996 48.2240007,22.5579996 48.5760008,21.6779995 L49.1920009,20.1159992 L44.8580001,11.2939978 C44.7480001,11.0739977 44.6820001,10.8539977 44.6820001,10.6339976 C44.6820001,10.0179975 45.1880002,9.48999746 45.8260003,9.48999746 C46.3100004,9.48999746 46.7060004,9.79799751 46.9040005,10.2159976 Z M62.1078344,22.4259996 C61.7338344,22.4259996 61.4698343,22.2279995 61.2498343,21.8539995 L58.8738339,17.8499988 L58.8738339,23.9879998 C58.8738339,24.6039999 58.3678338,25.11 57.7518337,25.11 C57.1358336,25.11 56.6298335,24.6039999 56.6298335,23.9879998 L56.6298335,15.1879984 C56.6298335,14.4839983 57.2238336,13.8899982 57.9278337,13.8899982 C58.4338338,13.8899982 58.8188339,14.1539982 59.0938339,14.6159983 L62.1078344,19.7199991 L65.1218349,14.6159983 C65.385835,14.1539982 65.770835,13.8899982 66.2878351,13.8899982 C66.9918352,13.8899982 67.5858353,14.4839983 67.5858353,15.1879984 L67.5858353,23.9879998 C67.5858353,24.6039999 67.0798352,25.11 66.4638351,25.11 C65.847835,25.11 65.341835,24.6039999 65.341835,23.9879998 L65.341835,17.8499988 L62.9658346,21.8539995 C62.7458345,22.2279995 62.4818345,22.4259996 62.1078344,22.4259996 Z M70.4916669,23.9879998 L70.4916669,15.0119984 C70.4916669,14.3959983 70.9976669,13.8899982 71.613667,13.8899982 C72.2296671,13.8899982 72.7356672,14.3959983 72.7356672,15.0119984 L72.7356672,18.707999 L73.2196673,18.3779989 C75.2436676,16.9919987 76.2336678,16.3099986 76.4536678,14.9019983 C76.5416678,14.3519983 76.9816679,13.8899982 77.575668,13.8899982 C78.1916681,13.8899982 78.6976682,14.3959983 78.6976682,15.0119984 C78.6976682,16.5739986 77.9056681,17.7179988 76.2776678,18.883999 L79.0716683,23.2619997 C79.2146683,23.4929998 79.3136683,23.7239998 79.3136683,23.9879998 C79.3136683,24.6039999 78.8076682,25.11 78.1916681,25.11 C77.784668,25.11 77.410668,24.89 77.1576679,24.4939999 L74.3856675,20.1379992 L72.7356672,21.2159994 L72.7356672,23.9879998 C72.7356672,24.6039999 72.2296671,25.11 71.613667,25.11 C70.9976669,25.11 70.4916669,24.6039999 70.4916669,23.9879998 Z M85.2555008,23.2399997 C86.443501,23.2399997 87.4995011,22.6899996 87.9615012,21.8539995 L87.9615012,20.3359992 L85.1455008,20.3359992 C84.1555006,20.3359992 83.3635005,20.9299993 83.3635005,21.8099995 L83.3635005,21.9199995 C83.3635005,22.6459996 83.9355006,23.2399997 85.2555008,23.2399997 Z M85.7395009,13.7359982 C88.6875013,13.7359982 90.2055016,15.4519984 90.2055016,17.9159988 L90.2055016,23.9879998 C90.2055016,24.6039999 89.6995015,25.11 89.0835014,25.11 C88.4675013,25.11 87.9615012,24.6039999 87.9615012,23.9879998 L87.9615012,23.8559998 C87.3235011,24.714 86.2675009,25.264 84.8595007,25.264 C82.5275003,25.264 81.1195001,23.8779998 81.1195001,22.1399995 L81.1195001,21.8099995 C81.1195001,20.1379992 82.3515003,18.5319989 85.8275009,18.5319989 L87.9615012,18.5319989 L87.9615012,18.2459989 C87.9615012,16.6179986 87.1255011,15.7599985 85.6735008,15.7599985 C84.7495007,15.7599985 83.9355006,16.1779986 83.2975005,16.7719987 C83.0335004,17.0139987 82.8135004,17.1019987 82.5275003,17.1019987 C81.9775002,17.1019987 81.4935002,16.6179986 81.4935002,16.0679985 C81.4935002,15.7379985 81.6475002,15.4299984 81.9555002,15.1439984 C82.8355004,14.3079982 84.2215006,13.7359982 85.7395009,13.7359982 Z"/>
    <path fill="#31C766" d="M93.2433335 23.7239998C93.2433335 22.9759997 93.8813336 22.3379996 94.6293338 22.3379996 95.3773339 22.3379996 96.015334 22.9759997 96.015334 23.7239998 96.015334 24.4719999 95.3773339 25.11 94.6293338 25.11 93.8813336 25.11 93.2433335 24.4719999 93.2433335 23.7239998zM98.9211668 19.191999L98.9211668 15.4079984C98.9211668 11.8439978 101.121167 9.33599743 104.465168 9.33599743 107.809168 9.33599743 110.009169 11.8439978 110.009169 15.4079984L110.009169 19.191999C110.009169 22.7559996 107.809168 25.264 104.465168 25.264 101.121167 25.264 98.9211668 22.7559996 98.9211668 19.191999z"/>
    <path fill="#FFF" d="M101.297167,15.8039985 L101.297167,18.795999 C101.297167,21.5679994 102.507167,23.1079997 104.465168,23.1079997 C106.423168,23.1079997 107.633168,21.5679994 107.633168,18.795999 L107.633168,15.8039985 C107.633168,13.031998 106.423168,11.4919978 104.465168,11.4919978 C102.507167,11.4919978 101.297167,13.031998 101.297167,15.8039985 Z"/>
    <path fill="#31C766" d="M121.319002 15.0119984L121.319002 23.9879998C121.319002 24.6039999 120.813001 25.11 120.197001 25.11 119.581001 25.11 119.075001 24.6039999 119.075001 23.9879998L119.075001 20.3799992 114.939 20.3799992 114.939 23.9879998C114.939 24.6039999 114.433 25.11 113.817 25.11 113.201 25.11 112.695 24.6039999 112.695 23.9879998L112.695 15.0119984C112.695 14.3959983 113.201 13.8899982 113.817 13.8899982 114.433 13.8899982 114.939 14.3959983 114.939 15.0119984L114.939 18.3559989 119.075001 18.3559989 119.075001 15.0119984C119.075001 14.3959983 119.581001 13.8899982 120.197001 13.8899982 120.813001 13.8899982 121.319002 14.3959983 121.319002 15.0119984zM131.418835 23.9879998L131.418835 16.0239985 127.348834 16.0239985 127.348834 21.9199995C127.348834 23.9879998 126.094834 25.264 124.070833 25.264 123.520833 25.264 123.058833 24.802 123.058833 24.2519999 123.058833 23.7239998 123.476833 23.3059997 124.026833 23.2399997 124.752834 23.1519997 125.104834 22.5799996 125.104834 21.6999995L125.104834 15.1879984C125.104834 14.4839983 125.588834 13.9999982 126.292834 13.9999982L132.474835 13.9999982C133.178835 13.9999982 133.662835 14.4839983 133.662835 15.1879984L133.662835 23.9879998C133.662835 24.6039999 133.156835 25.11 132.540835 25.11 131.924835 25.11 131.418835 24.6039999 131.418835 23.9879998zM140.748667 13.7359982C143.696668 13.7359982 145.214668 15.4519984 145.214668 17.9159988L145.214668 23.9879998C145.214668 24.6039999 144.708668 25.11 144.092668 25.11 143.476668 25.11 142.970668 24.6039999 142.970668 23.9879998L142.970668 23.8559998C142.332668 24.714 141.276668 25.264 139.868667 25.264 137.536667 25.264 136.128667 23.8779998 136.128667 22.1399995L136.128667 21.8099995C136.128667 20.1379992 137.360667 18.5319989 140.836667 18.5319989L142.970668 18.5319989 142.970668 18.2459989C142.970668 16.6179986 142.134668 15.7599985 140.682667 15.7599985 139.758667 15.7599985 138.944667 16.1779986 138.306667 16.7719987 138.042667 17.0139987 137.822667 17.1019987 137.536667 17.1019987 136.986667 17.1019987 136.502667 16.6179986 136.502667 16.0679985 136.502667 15.7379985 136.656667 15.4299984 136.964667 15.1439984 137.844667 14.3079982 139.230667 13.7359982 140.748667 13.7359982z"/>
    <path fill="#FFF" d="M140.264667,23.2399997 C141.452668,23.2399997 142.508668,22.6899996 142.970668,21.8539995 L142.970668,20.3359992 L140.154667,20.3359992 C139.164667,20.3359992 138.372667,20.9299993 138.372667,21.8099995 L138.372667,21.9199995 C138.372667,22.6459996 138.944667,23.2399997 140.264667,23.2399997 Z"/>
    <path fill="#31C766" d="M154.456501 14.5939983C154.753501 14.1429982 155.204501 13.8899982 155.710501 13.8899982 156.348501 13.8899982 156.876502 14.4179983 156.876502 15.0559984L156.876502 23.9879998C156.876502 24.6039999 156.370501 25.11 155.754501 25.11 155.138501 25.11 154.632501 24.6039999 154.632501 23.9879998L154.632501 18.0039989 150.4525 24.4059999C150.1555 24.857 149.7045 25.11 149.1985 25.11 148.5605 25.11 148.0325 24.5819999 148.0325 23.9439998L148.0325 15.0119984C148.0325 14.3959983 148.5385 13.8899982 149.1545 13.8899982 149.7705 13.8899982 150.2765 14.3959983 150.2765 15.0119984L150.2765 20.9959993 154.456501 14.5939983zM152.454501 12.503998C151.024501 12.503998 149.8365 11.7779978 149.3745 10.5459976 149.3305 10.4359976 149.3085 10.3259976 149.3085 10.1939976 149.3085 9.68799749 149.7045 9.26999742 150.2105 9.26999742 150.5845 9.26999742 150.914501 9.48999746 151.068501 9.84199752 151.354501 10.4799976 151.816501 10.7879977 152.454501 10.7879977 153.092501 10.7879977 153.554501 10.4799976 153.840501 9.84199752 153.994501 9.48999746 154.324501 9.26999742 154.698501 9.26999742 155.204501 9.26999742 155.600501 9.68799749 155.600501 10.1939976 155.600501 10.3259976 155.578501 10.4359976 155.534501 10.5459976 155.072501 11.7779978 153.884501 12.503998 152.454501 12.503998zM168.406335 15.0119984L168.406335 23.9879998C168.406335 24.6039999 167.900335 25.11 167.284335 25.11 166.668335 25.11 166.162334 24.6039999 166.162334 23.9879998L166.162334 20.3799992 162.026334 20.3799992 162.026334 23.9879998C162.026334 24.6039999 161.520334 25.11 160.904334 25.11 160.288333 25.11 159.782333 24.6039999 159.782333 23.9879998L159.782333 15.0119984C159.782333 14.3959983 160.288333 13.8899982 160.904334 13.8899982 161.520334 13.8899982 162.026334 14.3959983 162.026334 15.0119984L162.026334 18.3559989 166.162334 18.3559989 166.162334 15.0119984C166.162334 14.3959983 166.668335 13.8899982 167.284335 13.8899982 167.900335 13.8899982 168.406335 14.3959983 168.406335 15.0119984z"/>
  </g>
</svg>
