<svg xmlns="http://www.w3.org/2000/svg" xmlns:xlink="http://www.w3.org/1999/xlink" width="338" height="284" viewBox="0 0 338 284">
  <defs>
    <path id="online-kassa-a" d="M114.970588,64.430725 L9.67147059,64.430725 C4.41264706,64.430725 0.149558824,60.1427688 0.149558824,54.8532687 L0.149558824,9.89695625 C0.149558824,4.60745625 4.41264706,0.3195 9.67147059,0.3195 L114.970588,0.3195 C120.229412,0.3195 124.491176,4.60745625 124.491176,9.89695625 L124.491176,54.8532687 C124.491176,60.1427688 120.229412,64.430725 114.970588,64.430725"/>
  </defs>
  <g fill="none" fill-rule="evenodd">
    <g transform="translate(0 64)">
      <path fill="#FFF" d="M69.912775,199.064207 C70.3664985,201.800671 72.7455499,203.893326 75.6033905,203.893326 L146.544823,203.893326 C149.402664,203.893326 151.782079,201.800671 152.235802,199.064207 L69.912775,199.064207"/>
      <polygon fill="#FFF" points=".762 190.725 220.162 190.725 220.162 .728 .762 .728"/>
      <polygon fill="#DFE2FC" points="2.941 18.611 222.342 18.611 222.342 2.912 2.941 2.912" opacity=".35"/>
      <path fill="#CBCFEE" d="M1.48807265,15.6992755 L219.435923,15.6992755 L219.435923,1.4557596 L1.48807265,1.4557596 L1.48807265,15.6992755 Z M220.162462,17.1550351 L0.761533804,17.1550351 C0.360484359,17.1550351 0.0349949546,16.8293088 0.0349949546,16.4271553 L0.0349949546,0.7278798 C0.0349949546,0.32609015 0.360484359,0 0.761533804,0 L220.162462,0 C220.565691,0 220.889001,0.32609015 220.889001,0.7278798 L220.889001,16.4271553 C220.889001,16.8293088 220.565691,17.1550351 220.162462,17.1550351 Z"/>
      <path fill="#FFF" d="M18.9112008 10.397399C18.9112008 8.38735893 17.2848436 6.758 15.2785066 6.758 13.2721695 6.758 11.6458123 8.38735893 11.6458123 10.397399 11.6458123 12.4070751 13.2721695 14.036798 15.2785066 14.036798 17.2848436 14.036798 18.9112008 12.4070751 18.9112008 10.397399M29.8092836 10.397399C29.8092836 8.38735893 28.1829263 6.758 26.1765893 6.758 24.1702523 6.758 22.5438951 8.38735893 22.5438951 10.397399 22.5438951 12.4070751 24.1702523 14.036798 26.1765893 14.036798 28.1829263 14.036798 29.8092836 12.4070751 29.8092836 10.397399M40.7073663 10.397399C40.7073663 8.38735893 39.0810091 6.758 37.074672 6.758 35.068335 6.758 33.4419778 8.38735893 33.4419778 10.397399 33.4419778 12.4070751 35.068335 14.036798 37.074672 14.036798 39.0810091 14.036798 40.7073663 12.4070751 40.7073663 10.397399"/>
      <path fill="#CBCFEE" d="M13.4621594 5.6661803C11.859778 5.6661803 10.556004 6.9723606 10.556004 8.5776995 10.556004 10.1830384 11.859778 11.4892187 13.4621594 11.4892187 15.0645409 11.4892187 16.3683148 10.1830384 16.3683148 8.5776995 16.3683148 6.9723606 15.0645409 5.6661803 13.4621594 5.6661803zM13.4621594 12.9449783C11.0584057 12.9449783 9.10292634 10.9858898 9.10292634 8.5776995 9.10292634 6.16950918 11.0584057 4.2104207 13.4621594 4.2104207 15.8659132 4.2104207 17.8213925 6.16950918 17.8213925 8.5776995 17.8213925 10.9858898 15.8659132 12.9449783 13.4621594 12.9449783zM24.3602422 5.6661803C22.7578607 5.6661803 21.4540868 6.9723606 21.4540868 8.5776995 21.4540868 10.1830384 22.7578607 11.4892187 24.3602422 11.4892187 25.9626236 11.4892187 27.2663976 10.1830384 27.2663976 8.5776995 27.2663976 6.9723606 25.9626236 5.6661803 24.3602422 5.6661803zM24.3602422 12.9449783C21.9564884 12.9449783 20.0010091 10.9858898 20.0010091 8.5776995 20.0010091 6.16950918 21.9564884 4.2104207 24.3602422 4.2104207 26.763996 4.2104207 28.7194753 6.16950918 28.7194753 8.5776995 28.7194753 10.9858898 26.763996 12.9449783 24.3602422 12.9449783zM35.2583249 5.6661803C33.6559435 5.6661803 32.3521695 6.9723606 32.3521695 8.5776995 32.3521695 10.1830384 33.6559435 11.4892187 35.2583249 11.4892187 36.8607064 11.4892187 38.1644803 10.1830384 38.1644803 8.5776995 38.1644803 6.9723606 36.8607064 5.6661803 35.2583249 5.6661803zM35.2583249 12.9449783C32.8545711 12.9449783 30.8990918 10.9858898 30.8990918 8.5776995 30.8990918 6.16950918 32.8545711 4.2104207 35.2583249 4.2104207 37.6620787 4.2104207 39.617558 6.16950918 39.617558 8.5776995 39.617558 10.9858898 37.6620787 12.9449783 35.2583249 12.9449783z"/>
      <path fill="#CBCFEE" d="M1.48807265,198.925822 L219.435923,198.925822 L219.435923,1.52417521 L1.48807265,1.52417521 L1.48807265,198.925822 Z M220.162462,200.449997 L0.761533804,200.449997 C0.360484359,200.449997 0.0349949546,200.108582 0.0349949546,199.687909 L0.0349949546,0.762087603 C0.0349949546,0.341415246 0.360484359,0 0.761533804,0 L220.162462,0 C220.565691,0 220.889001,0.341415246 220.889001,0.762087603 L220.889001,199.687909 C220.889001,200.108582 220.565691,200.449997 220.162462,200.449997 Z"/>
      <polygon fill="#DFE2FC" points="54.584 180.632 161.99 180.632 161.99 172.872 54.584 172.872" opacity=".35"/>
      <path fill="#CBCFEE" d="M130.739334 177.239459L85.4272856 177.239459C85.0262361 177.239459 84.7007467 176.913369 84.7007467 176.511579 84.7007467 176.109426 85.0262361 175.783699 85.4272856 175.783699L130.739334 175.783699C131.140383 175.783699 131.465873 176.109426 131.465873 176.511579 131.465873 176.913369 131.140383 177.239459 130.739334 177.239459M173.339939 170.256544L42.8263169 170.256544C42.4252674 170.256544 42.099778 169.930818 42.099778 169.528664 42.099778 169.126875 42.4252674 168.800785 42.8263169 168.800785L173.339939 168.800785C173.741352 168.800785 174.066478 169.126875 174.066478 169.528664 174.066478 169.930818 173.741352 170.256544 173.339939 170.256544"/>
      <path fill="#DFE2FC" d="M173.557901,108.701933 L108.396085,108.701933 C101.005005,108.701933 95.0132392,102.699109 95.0132392,95.2940234 C95.0132392,87.8893022 101.005005,81.8864775 108.396085,81.8864775 L173.557901,81.8864775 C180.948981,81.8864775 186.940747,87.8893022 186.940747,95.2940234 C186.940747,102.699109 180.948981,108.701933 173.557901,108.701933" opacity=".35"/>
      <polyline fill="#DFE2FC" points="201.17 34.31 130.98 34.31 130.98 68.603 202.027 68.603 202.027 34.31 201.17 34.31" opacity=".35"/>
      <path fill="#CBCFEE" d="M192.876569 59.9030518L139.713179 59.9030518C139.312129 59.9030518 138.98664 59.5769616 138.98664 59.175172 138.98664 58.7730184 139.312129 58.4472922 139.713179 58.4472922L192.876569 58.4472922C193.277619 58.4472922 193.603108 58.7730184 193.603108 59.175172 193.603108 59.5769616 193.277619 59.9030518 192.876569 59.9030518M192.876569 52.1838865L170.505711 52.1838865C170.104299 52.1838865 169.779173 51.8581603 169.779173 51.4560067 169.779173 51.054217 170.104299 50.7281269 170.505711 50.7281269L192.876569 50.7281269C193.277619 50.7281269 193.603108 51.054217 193.603108 51.4560067 193.603108 51.8581603 193.277619 52.1838865 192.876569 52.1838865M161.730575 52.1838865L139.713179 52.1838865C139.312129 52.1838865 138.98664 51.8581603 138.98664 51.4560067 138.98664 51.054217 139.312129 50.7281269 139.713179 50.7281269L161.730575 50.7281269C162.131988 50.7281269 162.457114 51.054217 162.457114 51.4560067 162.457114 51.8581603 162.131988 52.1838865 161.730575 52.1838865M161.998668 44.4770952L139.62781 44.4770952C139.226398 44.4770952 138.901271 44.151005 138.901271 43.7492154 138.901271 43.3470618 139.226398 43.0213356 139.62781 43.0213356L161.998668 43.0213356C162.399717 43.0213356 162.725207 43.3470618 162.725207 43.7492154 162.725207 44.151005 162.399717 44.4770952 161.998668 44.4770952"/>
      <polyline fill="#DFE2FC" points="201.897 120.253 131.706 120.253 131.706 154.546 202.754 154.546 202.754 120.253 201.897 120.253" opacity=".35"/>
      <polygon fill="#DFE2FC" points="76.187 154.552 115.857 154.552 115.857 120.259 76.187 120.259" opacity=".35"/>
      <path fill="#CBCFEE" d="M107.036367 145.347042L84.7516044 145.347042C84.3501917 145.347042 84.0250656 145.021316 84.0250656 144.619162 84.0250656 144.217372 84.3501917 143.891282 84.7516044 143.891282L107.036367 143.891282C107.43778 143.891282 107.762906 144.217372 107.762906 144.619162 107.762906 145.021316 107.43778 145.347042 107.036367 145.347042M106.769001 138.127202L84.7516044 138.127202C84.3501917 138.127202 84.0250656 137.801476 84.0250656 137.399322 84.0250656 136.997533 84.3501917 136.671442 84.7516044 136.671442L106.769001 136.671442C107.17005 136.671442 107.49554 136.997533 107.49554 137.399322 107.49554 137.801476 107.17005 138.127202 106.769001 138.127202M107.036731 130.420411L84.6662361 130.420411C84.2648234 130.420411 83.9396973 130.094321 83.9396973 129.692531 83.9396973 129.290377 84.2648234 128.964651 84.6662361 128.964651L107.036731 128.964651C107.43778 128.964651 107.763269 129.290377 107.763269 129.692531 107.763269 130.094321 107.43778 130.420411 107.036731 130.420411"/>
      <polygon fill="#DFE2FC" points="19.416 68.913 59.087 68.913 59.087 34.62 19.416 34.62" opacity=".35"/>
      <path fill="#CBCFEE" d="M50.2660747 59.7083439L27.9809485 59.7083439C27.5795358 59.7083439 27.2544097 59.3826177 27.2544097 58.9804641 27.2544097 58.5786745 27.5795358 58.2525843 27.9809485 58.2525843L50.2660747 58.2525843C50.6671241 58.2525843 50.9926135 58.5786745 50.9926135 58.9804641 50.9926135 59.3826177 50.6671241 59.7083439 50.2660747 59.7083439M49.9983451 52.4885042L27.9809485 52.4885042C27.5795358 52.4885042 27.2544097 52.162778 27.2544097 51.7606244 27.2544097 51.3588347 27.5795358 51.0327446 27.9809485 51.0327446L49.9983451 51.0327446C50.3993946 51.0327446 50.724884 51.3588347 50.724884 51.7606244 50.724884 52.162778 50.3993946 52.4885042 49.9983451 52.4885042M50.2660747 44.7817129L27.895217 44.7817129C27.4941675 44.7817129 27.1686781 44.4556227 27.1686781 44.0538331 27.1686781 43.6516795 27.4941675 43.3259533 27.895217 43.3259533L50.2660747 43.3259533C50.6671241 43.3259533 50.9926135 43.6516795 50.9926135 44.0538331 50.9926135 44.4556227 50.6671241 44.7817129 50.2660747 44.7817129M74.8764884 91.7128548C74.6904945 91.7128548 74.5045005 91.6418865 74.3628254 91.499586L58.201332 75.3082638C55.5105954 72.6129249 51.1328355 72.6129249 48.4420989 75.3082638L32.2809687 91.499586C31.9972553 91.783823 31.5369929 91.783823 31.2536428 91.499586 30.9695661 91.2153489 30.9695661 90.754601 31.2536428 90.4703639L47.414773 74.2790417C50.6718466 71.0155927 55.9715843 71.0155927 59.2286579 74.2790417L75.3901514 90.4703639C75.6738648 90.754601 75.6738648 91.2153489 75.3901514 91.499586 75.248113 91.6418865 75.0621191 91.7128548 74.8764884 91.7128548"/>
      <polygon fill="#DFE2FC" points="26.682 110.86 79.735 110.86 79.735 90.985 26.682 90.985" opacity=".35"/>
      <path fill="#CBCFEE" d="M27.4080727,110.131853 L79.0086781,110.131853 L79.0086781,91.7128548 L27.4080727,91.7128548 L27.4080727,110.131853 Z M79.735217,111.587613 L26.6815338,111.587613 C26.2801211,111.587613 25.954995,111.261523 25.954995,110.859733 L25.954995,90.984975 C25.954995,90.5831853 26.2801211,90.2570952 26.6815338,90.2570952 L79.735217,90.2570952 C80.1366297,90.2570952 80.4617558,90.5831853 80.4617558,90.984975 L80.4617558,110.859733 C80.4617558,111.261523 80.1366297,111.587613 79.735217,111.587613 Z"/>
      <polygon fill="#DFE2FC" points="19.274 154.393 58.945 154.393 58.945 120.1 19.274 120.1" opacity=".35"/>
      <path fill="#CBCFEE" d="M40.1536634,141.446728 L37.0862491,141.446728 L37.0862491,143.959754 L35.3373651,143.959754 L35.3373651,141.446728 L33.4419778,141.446728 L33.4419778,140.00288 L35.3373651,140.00288 L35.3373651,138.750936 L33.4419778,138.750936 L33.4419778,137.316227 L35.3373651,137.316227 L35.3373651,130.654424 L40.2543845,130.654424 C41.6827995,130.654424 42.8151371,131.016905 43.6514313,131.741879 C44.4877256,132.466852 44.9058664,133.447684 44.9058664,134.684404 C44.9058664,135.982045 44.5045123,136.982677 43.7017919,137.686327 C42.8990715,138.389978 41.7591035,138.744844 40.2818539,138.750936 L37.0862491,138.750936 L37.0862491,140.00288 L40.1536634,140.00288 L40.1536634,141.446728 Z M37.0862491,137.316227 L40.2543845,137.316227 C41.2005568,137.316227 41.9208578,137.093865 42.4153092,136.649133 C42.9097605,136.204401 43.1569825,135.55559 43.1569825,134.70268 C43.1569825,133.928969 42.9006041,133.303003 42.3878398,132.824765 C41.8750754,132.346526 41.1822435,132.104364 40.3093232,132.098272 L37.0862491,132.098272 L37.0862491,137.316227 Z"/>
      <polygon fill="#DFE2FC" points="76.308 68.867 115.978 68.867 115.978 34.574 76.308 34.574" opacity=".35"/>
      <path fill="#CBCFEE" d="M96.8236937 55.9208514L93.7562794 55.9208514 93.7562794 58.4338773 92.0073954 58.4338773 92.0073954 55.9208514 90.1120081 55.9208514 90.1120081 54.4770038 92.0073954 54.4770038 92.0073954 53.22506 90.1120081 53.22506 90.1120081 51.7903507 92.0073954 51.7903507 92.0073954 45.1285476 96.9244147 45.1285476C98.3528297 45.1285476 99.4851674 45.4910289 100.321462 46.2160024 101.157756 46.9409759 101.575897 47.9218077 101.575897 49.1585272 101.575897 50.4561689 101.174543 51.4568001 100.371822 52.1604509 99.5691018 52.8641016 98.4291338 53.2189678 96.9518841 53.22506L93.7562794 53.22506 93.7562794 54.4770038 96.8236937 54.4770038 96.8236937 55.9208514zM93.7562794 51.7903507L96.9244147 51.7903507C97.8705871 51.7903507 98.5908881 51.5679882 99.0853394 51.1232566 99.5797908 50.6785249 99.8270127 50.0297138 99.8270127 49.1768038 99.8270127 48.4030926 99.5706344 47.7771269 99.0578701 47.2988881 98.5451057 46.8206493 97.8522738 46.5784874 96.9793535 46.5723952L93.7562794 46.5723952 93.7562794 51.7903507zM139.103249 122.542568C138.501312 122.542568 138.013441 122.053796 138.013441 121.450748L138.013441 106.544134C138.013441 105.941085 138.501312 105.452314 139.103249 105.452314 139.70555 105.452314 140.193058 105.941085 140.193058 106.544134L140.193058 121.450748C140.193058 122.053796 139.70555 122.542568 139.103249 122.542568M139.103249 87.1701569C138.501312 87.1701569 138.013441 86.6810217 138.013441 86.0783372L138.013441 71.3322204C138.013441 70.729172 138.501312 70.2404007 139.103249 70.2404007 139.70555 70.2404007 140.193058 70.729172 140.193058 71.3322204L140.193058 86.0783372C140.193058 86.6810217 139.70555 87.1701569 139.103249 87.1701569M156.790474 115.202628C156.511483 115.202628 156.232856 115.095993 156.01998 114.883088L145.499334 104.342661C145.073582 103.916487 145.073582 103.225002 145.499334 102.798464 145.925086 102.372654 146.614571 102.37229 147.040323 102.798828L157.560969 113.338891C157.98672 113.765429 157.98672 114.456551 157.560969 114.883088 157.348093 115.095993 157.069102 115.202628 156.790474 115.202628M131.940303 90.306591C131.661312 90.306591 131.382321 90.1999566 131.169445 89.9866878L120.645893 79.4440768C120.220141 79.0175392 120.220141 78.3264174 120.645893 77.8998798 121.071282 77.4737062 121.761857 77.4737062 122.186882 77.8998798L132.710797 88.4428548C133.136549 88.8693923 133.136549 89.5605142 132.710797 89.9866878 132.497921 90.1999566 132.21893 90.306591 131.940303 90.306591M164.116529 97.4831219L149.237376 97.4831219C148.635439 97.4831219 148.147568 96.9943506 148.147568 96.3913022 148.147568 95.7886177 148.635439 95.2994825 149.237376 95.2994825L164.116529 95.2994825C164.718466 95.2994825 165.206337 95.7886177 165.206337 96.3913022 165.206337 96.9943506 164.718466 97.4831219 164.116529 97.4831219M128.969849 97.4831219L114.090333 97.4831219C113.488759 97.4831219 113.000525 96.9943506 113.000525 96.3913022 113.000525 95.7886177 113.488759 95.2994825 114.090333 95.2994825L128.969849 95.2994825C129.571786 95.2994825 130.059657 95.7886177 130.059657 96.3913022 130.059657 96.9943506 129.571786 97.4831219 128.969849 97.4831219M146.269102 90.3044073C145.990111 90.3044073 145.711483 90.197773 145.498607 89.9845042 145.072856 89.5583306 145.072856 88.8672087 145.498607 88.4406711L156.01998 77.8998798C156.445732 77.4737062 157.135217 77.4737062 157.560969 77.8998798 157.98672 78.3264174 157.98672 79.0175392 157.560969 79.4440768L147.039596 89.9845042C146.82672 90.197773 146.54773 90.3044073 146.269102 90.3044073M121.416387 115.202628C121.13776 115.202628 120.858769 115.095993 120.645893 114.883088 120.220141 114.456551 120.220141 113.765429 120.645893 113.338891L131.168718 102.797008C131.594107 102.370471 132.283956 102.370471 132.709707 102.797008 133.135459 103.223182 133.135459 103.914668 132.709707 104.340841L122.186882 114.883088C121.974369 115.095993 121.695378 115.202628 121.416387 115.202628"/>
      <polyline fill="#CBCFEE" points="139.5 135.51 120.178 116.152 131.596 104.713 89.875 95.913 89.655 96.134 98.439 137.931 109.857 126.492 129.179 145.85 139.5 135.51" transform="rotate(90 114.578 120.882)"/>
    </g>
    <g transform="translate(188)">
      <path fill="#FFF" d="M1.28294118,58.1166062 L1.28294118,56.3163125 C1.28294118,50.543125 5.93602941,45.8628938 11.6757353,45.8628938 L138.551471,45.8628938 C144.291176,45.8628938 148.945588,50.543125 148.945588,56.3163125 L148.945588,58.1166062 L1.28294118,58.1166062"/>
      <path fill="#989FDD" d="M148.945588,59.0041062 C148.460294,59.0041062 148.063235,58.60695 148.063235,58.1166062 L148.063235,56.3163125 C148.063235,51.0414562 143.797059,46.7503938 138.551471,46.7503938 L11.6757353,46.7503938 C6.43147059,46.7503938 2.16529412,51.0414562 2.16529412,56.3163125 L2.16529412,58.1166062 C2.16529412,58.60695 1.77044118,59.0041062 1.28294118,59.0041062 C0.795882353,59.0041062 0.400588235,58.60695 0.400588235,58.1166062 L0.400588235,56.3163125 C0.400588235,50.0629875 5.45867647,44.9753938 11.6757353,44.9753938 L138.551471,44.9753938 C144.772059,44.9753938 149.827941,50.0629875 149.827941,56.3163125 L149.827941,58.1166062 C149.827941,58.60695 149.430882,59.0041062 148.945588,59.0041062"/>
      <path fill="#989FDD" d="M25.0919118,55.9648625 C24.6048529,55.9648625 24.2095588,55.5677062 24.2095588,55.0778062 C24.2095588,52.9123063 25.9610294,51.1510625 28.1135294,51.1510625 L122.113235,51.1510625 C124.266176,51.1510625 126.017647,52.9123063 126.017647,55.0773625 C126.017647,55.5677062 125.625,55.9648625 125.135294,55.9648625 C124.65,55.9648625 124.252941,55.5677062 124.252941,55.0773625 C124.252941,53.8912187 123.295588,52.9260625 122.113235,52.9260625 L28.1135294,52.9260625 C26.9338235,52.9260625 25.9742647,53.8912187 25.9742647,55.0773625 C25.9742647,55.5677062 25.5789706,55.9648625 25.0919118,55.9648625"/>
      <path fill="#FFF" d="M27.4402941 199.785569L26.9333824 199.785569C27.1014706 199.796663 27.2708824 199.794444 27.4402941 199.785569M127.447059 6.80135625C126.970588 2.4841125 124.614706.89681875 122.355882.92788125L116.355882.92876875 116.355882.7446125 38.5460294.9327625 38.5416176.93365C38.4013235.92876875 38.2605882.9301 38.1211765.93941875L38.4922059.938975 37.2829412 1.07964375 36.0088235 1.5975 35.0073529 2.30261875 33.9286765 3.49009375 33.3375 4.4614625 32.9541176 5.35384375 32.5914706 6.80135625 32.5914706 193.923631 32.2817647 193.923631C31.8229412 197.876556 29.6205882 199.669306 27.4402941 199.785569L111.167647 199.797106C113.426471 199.827725 115.782353 198.240875 116.258824 193.923631L116.355882 193.923631 116.355882 6.80135625 127.447059 6.80135625"/>
      <path fill="#989FDD" d="M32.3805882,12.4245563 C32.3726471,12.4245563 32.3642647,12.4245563 32.3567647,12.4241125 C31.8692647,12.4112438 31.485,12.0034375 31.4982353,11.5135375 C31.5097059,11.0640188 31.5101471,10.6167187 31.5105882,10.172525 C31.5123529,8.283925 31.5141176,6.331425 32.3876471,4.39445625 C33.3917647,2.16905 35.3236765,0.53649375 37.4298529,0.13445625 C38.8676471,-0.13889375 40.3173529,0.19746875 41.5160294,1.08275 C42.5095588,1.81715625 43.7430882,3.23981875 44.2297059,5.91385625 L126.427941,5.91385625 C125.704412,1.77721875 123.732353,1.80473125 123.057353,1.81449375 C123.052941,1.81449375 123.048529,1.81449375 123.044118,1.81449375 C122.563235,1.81449375 122.170588,1.42488125 122.161765,0.938975 C122.157353,0.449075 122.545588,0.04615 123.035294,0.03949375 C123.057353,0.03905 123.083824,0.03905 123.110294,0.03905 C125.170588,0.03905 127.716176,1.21099375 128.325,6.7032875 C128.351471,6.95400625 128.272059,7.20516875 128.104412,7.39331875 C127.936765,7.581025 127.698529,7.68885625 127.447059,7.68885625 L43.4691176,7.68885625 C43.0217647,7.68885625 42.6445588,7.3511625 42.5929412,6.9038625 C42.2969118,4.3523 41.2760294,3.108025 40.4708824,2.5134 C39.6719118,1.92276875 38.7088235,1.69734375 37.7589706,1.87839375 C36.2073529,2.174375 34.7655882,3.41998125 33.9948529,5.127975 C33.2783824,6.71615625 33.2770588,8.39575 33.2752941,10.1743 C33.2748529,10.6335812 33.2744118,11.095525 33.2620588,11.5601312 C33.2492647,12.0424875 32.8570588,12.4245563 32.3805882,12.4245563"/>
      <path fill="#989FDD" d="M122.585294 1.8149375L38.1202941 1.8149375C37.6332353 1.8149375 37.2379412 1.4173375 37.2379412.9274375 37.2379412.43709375 37.6332353.0399375 38.1202941.0399375L122.585294.0399375C123.075.0399375 123.467647.43709375 123.467647.9274375 123.467647 1.4173375 123.075 1.8149375 122.585294 1.8149375M32.3801471 194.811131C31.8926471 194.811131 31.4977941 194.413531 31.4977941 193.923631L31.4977941 10.0012375C31.4977941 9.51089375 31.8926471 9.1137375 32.3801471 9.1137375 32.8672059 9.1137375 33.2625 9.51089375 33.2625 10.0012375L33.2625 193.923631C33.2625 194.413531 32.8672059 194.811131 32.3801471 194.811131M116.355882 194.811131C115.870588 194.811131 115.473529 194.413531 115.473529 193.923631L115.473529 6.80135625C115.473529 6.3110125 115.870588 5.91385625 116.355882 5.91385625 116.845588 5.91385625 117.238235 6.3110125 117.238235 6.80135625L117.238235 193.923631C117.238235 194.413531 116.845588 194.811131 116.355882 194.811131"/>
      <path fill="#6A79A8" d="M111.330882,200.684606 C111.304412,200.684606 111.277941,200.684606 111.255882,200.684162 L26.835,200.684162 C26.3479412,200.684162 25.9526471,200.287006 25.9526471,199.796662 C25.9526471,199.306762 26.3479412,198.909162 26.835,198.909162 L111.264706,198.909162 C111.286765,198.909606 111.304412,198.909606 111.322059,198.909606 C113.580882,198.909606 115.129412,197.01435 115.477941,193.825562 C115.535294,193.338325 115.972059,192.987762 116.452941,193.041456 C116.938235,193.095594 117.286765,193.534019 117.233824,194.021256 C116.691176,198.93845 113.841176,200.684606 111.330882,200.684606"/>
      <path fill="#6A79A8" d="M27.3176471,200.685937 C26.9933824,200.685937 26.6664706,200.655319 26.3404412,200.59275 C24.2347059,200.191156 22.3023529,198.5586 21.2982353,196.33275 C20.4247059,194.396669 20.4229412,192.444613 20.4207353,190.556456 C20.4202941,190.111819 20.4198529,189.664519 20.4083824,189.214113 C20.3951471,188.724213 20.7798529,188.316406 21.2664706,188.303538 C21.7689706,188.283125 22.1594118,188.677175 22.1722059,189.167075 C22.1845588,189.632569 22.185,190.094956 22.1854412,190.554681 C22.1872059,192.332787 22.1889706,194.011938 22.9054412,195.599231 C23.6761765,197.308113 25.1183824,198.552831 26.6695588,198.848813 C27.6185294,199.029863 28.5820588,198.804881 29.3814706,198.21425 C30.1861765,197.619625 31.2075,196.37535 31.5035294,193.823344 C31.5595588,193.33655 32.0073529,192.987319 32.4820588,193.045006 C32.9664706,193.101806 33.3127941,193.54245 33.2563235,194.029244 C32.8866176,197.215369 31.5132353,198.841712 30.4261765,199.644456 C29.4997059,200.329162 28.4223529,200.685937 27.3176471,200.685937"/>
      <path fill="#989FDD" d="M105.238235 20.7626187L42.1102941 20.7626187C41.6232353 20.7626187 41.2279412 20.3650187 41.2279412 19.8751187 41.2279412 19.384775 41.6232353 18.9876187 42.1102941 18.9876187L105.238235 18.9876187C105.727941 18.9876187 106.120588 19.384775 106.120588 19.8751187 106.120588 20.3650187 105.727941 20.7626187 105.238235 20.7626187M105.238235 30.8304188L68.8844118 30.8304188C68.3969118 30.8304188 68.0020588 30.4332625 68.0020588 29.9429188 68.0020588 29.4530188 68.3969118 29.0554188 68.8844118 29.0554188L105.238235 29.0554188C105.727941 29.0554188 106.120588 29.4530188 106.120588 29.9429188 106.120588 30.4332625 105.727941 30.8304188 105.238235 30.8304188M62.5552941 30.8304188L42.1102941 30.8304188C41.6232353 30.8304188 41.2279412 30.4332625 41.2279412 29.9429188 41.2279412 29.4530188 41.6232353 29.0554188 42.1102941 29.0554188L62.5552941 29.0554188C63.0423529 29.0554188 63.4376471 29.4530188 63.4376471 29.9429188 63.4376471 30.4332625 63.0423529 30.8304188 62.5552941 30.8304188M105.238235 40.8986625L94.5132353 40.8986625C94.0279412 40.8986625 93.6308824 40.5010625 93.6308824 40.0111625 93.6308824 39.5208187 94.0279412 39.1236625 94.5132353 39.1236625L105.238235 39.1236625C105.727941 39.1236625 106.120588 39.5208187 106.120588 40.0111625 106.120588 40.5010625 105.727941 40.8986625 105.238235 40.8986625M79.8013235 40.8986625L68.8844118 40.8986625C68.3969118 40.8986625 68.0020588 40.5010625 68.0020588 40.0111625 68.0020588 39.5208187 68.3969118 39.1236625 68.8844118 39.1236625L79.8013235 39.1236625C80.2883824 39.1236625 80.6836765 39.5208187 80.6836765 40.0111625 80.6836765 40.5010625 80.2883824 40.8986625 79.8013235 40.8986625M53.9982353 40.8986625L42.1102941 40.8986625C41.6232353 40.8986625 41.2279412 40.5010625 41.2279412 40.0111625 41.2279412 39.5208187 41.6232353 39.1236625 42.1102941 39.1236625L53.9982353 39.1236625C54.4857353 39.1236625 54.8805882 39.5208187 54.8805882 40.0111625 54.8805882 40.5010625 54.4857353 40.8986625 53.9982353 40.8986625"/>
      <polygon fill="#FFF" points="1.283 263.707 148.946 263.707 148.946 64.795 1.283 64.795"/>
      <path fill="#989FDD" d="M2.16529412,262.819813 L148.063235,262.819813 L148.063235,65.6821 L2.16529412,65.6821 L2.16529412,262.819813 Z M148.945588,264.594813 L1.28294118,264.594813 C0.795882353,264.594813 0.400588235,264.197213 0.400588235,263.707313 L0.400588235,64.7946 C0.400588235,64.3047 0.795882353,63.9071 1.28294118,63.9071 L148.945588,63.9071 C149.430882,63.9071 149.827941,64.3047 149.827941,64.7946 L149.827941,263.707313 C149.827941,264.197213 149.430882,264.594813 148.945588,264.594813 Z"/>
      <path fill="#F0F9FC" d="M127.764706,141.110281 L22.4655882,141.110281 C17.2067647,141.110281 12.9436765,136.822325 12.9436765,131.532825 L12.9436765,86.2219562 C12.9436765,80.9324563 17.2067647,76.6445 22.4655882,76.6445 L127.764706,76.6445 C133.023529,76.6445 137.285294,80.9324563 137.285294,86.2219562 L137.285294,131.532825 C137.285294,136.822325 133.023529,141.110281 127.764706,141.110281"/>
      <g transform="translate(12.794 76.325)">
        <mask id="online-kassa-b" fill="#fff">
          <use xlink:href="#online-kassa-a"/>
        </mask>
        <use fill="#DFE2FC" opacity=".35" xlink:href="#online-kassa-a"/>
        <polyline fill="#FFF" points="6.971 91.464 -12.764 63.744 86.034 -75.019 105.768 -47.299 6.971 91.464" mask="url(#online-kassa-b)"/>
        <polyline fill="#FFF" points="27.983 120.975 18.115 107.115 116.912 -31.648 126.776 -17.788 27.983 120.975" mask="url(#online-kassa-b)"/>
        <polyline fill="#FFF" points="42.483 143.98 32.615 130.121 131.409 -8.642 141.278 5.218 42.483 143.98" mask="url(#online-kassa-b)"/>
      </g>
      <path fill="#989FDD" d="M22.4655882,77.532 C17.7017647,77.532 13.8260294,81.4303437 13.8260294,86.2219562 L13.8260294,131.178269 C13.8260294,135.970325 17.7017647,139.868225 22.4655882,139.868225 L127.764706,139.868225 C132.525,139.868225 136.402941,135.970325 136.402941,131.178269 L136.402941,86.2219562 C136.402941,81.4303437 132.525,77.532 127.764706,77.532 L22.4655882,77.532 Z M127.764706,141.643225 L22.4655882,141.643225 C16.7285294,141.643225 12.0613235,136.948794 12.0613235,131.178269 L12.0613235,86.2219562 C12.0613235,80.4514312 16.7285294,75.757 22.4655882,75.757 L127.764706,75.757 C133.5,75.757 138.167647,80.4514312 138.167647,86.2219562 L138.167647,131.178269 C138.167647,136.948794 133.5,141.643225 127.764706,141.643225 Z"/>
      <path fill="#DFE2FC" d="M130.901471 174.569919L115.155882 174.569919C112.760294 174.569919 110.819118 172.616531 110.819118 170.206969L110.819118 160.116538C110.819118 157.706975 112.760294 155.754031 115.155882 155.754031L130.901471 155.754031C133.297059 155.754031 135.238235 157.706975 135.238235 160.116538L135.238235 170.206969C135.238235 172.616531 133.297059 174.569919 130.901471 174.569919M99.0044118 174.569919L83.2614706 174.569919C80.8658824 174.569919 78.9242647 172.616531 78.9242647 170.206969L78.9242647 160.116538C78.9242647 157.706975 80.8658824 155.754031 83.2614706 155.754031L99.0044118 155.754031C101.4 155.754031 103.341176 157.706975 103.341176 160.116538L103.341176 170.206969C103.341176 172.616531 101.4 174.569919 99.0044118 174.569919M67.1091176 174.569919L51.3652941 174.569919C48.9697059 174.569919 47.0276471 172.616531 47.0276471 170.206969L47.0276471 160.116538C47.0276471 157.706975 48.9697059 155.754031 51.3652941 155.754031L67.1091176 155.754031C69.5047059 155.754031 71.4467647 157.706975 71.4467647 160.116538L71.4467647 170.206969C71.4467647 172.616531 69.5047059 174.569919 67.1091176 174.569919M130.901471 200.577219L115.155882 200.577219C112.760294 200.577219 110.819118 198.623831 110.819118 196.214269L110.819118 186.123837C110.819118 183.714275 112.760294 181.761331 115.155882 181.761331L130.901471 181.761331C133.297059 181.761331 135.238235 183.714275 135.238235 186.123837L135.238235 196.214269C135.238235 198.623831 133.297059 200.577219 130.901471 200.577219M99.0044118 200.577219L83.2614706 200.577219C80.8658824 200.577219 78.9242647 198.623831 78.9242647 196.214269L78.9242647 186.123837C78.9242647 183.714275 80.8658824 181.761331 83.2614706 181.761331L99.0044118 181.761331C101.4 181.761331 103.341176 183.714275 103.341176 186.123837L103.341176 196.214269C103.341176 198.623831 101.4 200.577219 99.0044118 200.577219M67.1091176 200.577219L51.3652941 200.577219C48.9697059 200.577219 47.0276471 198.623831 47.0276471 196.214269L47.0276471 186.123837C47.0276471 183.714275 48.9697059 181.761331 51.3652941 181.761331L67.1091176 181.761331C69.5047059 181.761331 71.4467647 183.714275 71.4467647 186.123837L71.4467647 196.214269C71.4467647 198.623831 69.5047059 200.577219 67.1091176 200.577219M130.901471 226.584519L115.155882 226.584519C112.760294 226.584519 110.819118 224.631131 110.819118 222.221569L110.819118 212.131138C110.819118 209.721575 112.760294 207.768631 115.155882 207.768631L130.901471 207.768631C133.297059 207.768631 135.238235 209.721575 135.238235 212.131138L135.238235 222.221569C135.238235 224.631131 133.297059 226.584519 130.901471 226.584519M99.0044118 226.584519L83.2614706 226.584519C80.8658824 226.584519 78.9242647 224.631131 78.9242647 222.221569L78.9242647 212.131138C78.9242647 209.721575 80.8658824 207.768631 83.2614706 207.768631L99.0044118 207.768631C101.4 207.768631 103.341176 209.721575 103.341176 212.131138L103.341176 222.221569C103.341176 224.631131 101.4 226.584519 99.0044118 226.584519M67.1091176 226.584519L51.3652941 226.584519C48.9697059 226.584519 47.0276471 224.631131 47.0276471 222.221569L47.0276471 212.131138C47.0276471 209.721575 48.9697059 207.768631 51.3652941 207.768631L67.1091176 207.768631C69.5047059 207.768631 71.4467647 209.721575 71.4467647 212.131138L71.4467647 222.221569C71.4467647 224.631131 69.5047059 226.584519 67.1091176 226.584519M130.901471 252.591819L115.155882 252.591819C112.760294 252.591819 110.819118 250.638431 110.819118 248.228869L110.819118 238.138438C110.819118 235.729319 112.760294 233.775931 115.155882 233.775931L130.901471 233.775931C133.297059 233.775931 135.238235 235.729319 135.238235 238.138438L135.238235 248.228869C135.238235 250.638431 133.297059 252.591819 130.901471 252.591819M99.0044118 252.591819L83.2614706 252.591819C80.8658824 252.591819 78.9242647 250.638431 78.9242647 248.228869L78.9242647 238.138438C78.9242647 235.729319 80.8658824 233.775931 83.2614706 233.775931L99.0044118 233.775931C101.4 233.775931 103.341176 235.729319 103.341176 238.138438L103.341176 248.228869C103.341176 250.638431 101.4 252.591819 99.0044118 252.591819M67.1091176 252.591819L51.3652941 252.591819C48.9697059 252.591819 47.0276471 250.638431 47.0276471 248.228869L47.0276471 238.138438C47.0276471 235.729319 48.9697059 233.775931 51.3652941 233.775931L67.1091176 233.775931C69.5047059 233.775931 71.4467647 235.729319 71.4467647 238.138438L71.4467647 248.228869C71.4467647 250.638431 69.5047059 252.591819 67.1091176 252.591819M35.0708824 174.569919L19.3270588 174.569919C16.9314706 174.569919 14.9898529 172.616531 14.9898529 170.206969L14.9898529 160.116538C14.9898529 157.706975 16.9314706 155.754031 19.3270588 155.754031L35.0708824 155.754031C37.4664706 155.754031 39.4085294 157.706975 39.4085294 160.116538L39.4085294 170.206969C39.4085294 172.616531 37.4664706 174.569919 35.0708824 174.569919M35.0708824 200.577219L19.3270588 200.577219C16.9314706 200.577219 14.9898529 198.623831 14.9898529 196.214269L14.9898529 186.123837C14.9898529 183.714275 16.9314706 181.761331 19.3270588 181.761331L35.0708824 181.761331C37.4664706 181.761331 39.4085294 183.714275 39.4085294 186.123837L39.4085294 196.214269C39.4085294 198.623831 37.4664706 200.577219 35.0708824 200.577219M35.0708824 226.584519L19.3270588 226.584519C16.9314706 226.584519 14.9898529 224.631131 14.9898529 222.221569L14.9898529 212.131138C14.9898529 209.721575 16.9314706 207.768631 19.3270588 207.768631L35.0708824 207.768631C37.4664706 207.768631 39.4085294 209.721575 39.4085294 212.131138L39.4085294 222.221569C39.4085294 224.631131 37.4664706 226.584519 35.0708824 226.584519M35.0708824 252.591819L19.3270588 252.591819C16.9314706 252.591819 14.9898529 250.638431 14.9898529 248.228869L14.9898529 238.138438C14.9898529 235.729319 16.9314706 233.775931 19.3270588 233.775931L35.0708824 233.775931C37.4664706 233.775931 39.4085294 235.729319 39.4085294 238.138438L39.4085294 248.228869C39.4085294 250.638431 37.4664706 252.591819 35.0708824 252.591819" opacity=".35"/>
      <path fill="#FFF" d="M138.141176,282.672744 L12.0877941,282.672744 C6.12044118,282.672744 1.28294118,277.807025 1.28294118,271.804863 L1.28294118,263.706869 L148.945588,263.706869 L148.945588,271.804863 C148.945588,277.807025 144.110294,282.672744 138.141176,282.672744"/>
      <path fill="#989FDD" d="M2.16529412,264.594813 L2.16529412,271.804863 C2.16529412,277.307806 6.61676471,281.785244 12.0877941,281.785244 L138.141176,281.785244 C143.611765,281.785244 148.063235,277.307806 148.063235,271.804863 L148.063235,264.594813 L2.16529412,264.594813 Z M138.141176,283.560244 L12.0877941,283.560244 C5.64352941,283.560244 0.400588235,278.286719 0.400588235,271.804863 L0.400588235,263.707313 C0.400588235,263.216969 0.795882353,262.819813 1.28294118,262.819813 L148.945588,262.819813 C149.430882,262.819813 149.827941,263.216969 149.827941,263.707313 L149.827941,271.804863 C149.827941,278.286719 144.586765,283.560244 138.141176,283.560244 Z"/>
      <path fill="#989FDD" d="M16.5286765,272.710113 C16.1669118,272.710113 15.8722059,273.006538 15.8722059,273.370413 L15.8722059,273.546138 C15.8722059,273.910456 16.1669118,274.206881 16.5286765,274.206881 L133.698529,274.206881 C134.060294,274.206881 134.355882,273.910456 134.355882,273.546138 L134.355882,273.370413 C134.355882,273.006538 134.060294,272.710113 133.698529,272.710113 L16.5286765,272.710113 Z M133.698529,275.981881 L16.5286765,275.981881 C15.1932353,275.981881 14.1075,274.889369 14.1075,273.546138 L14.1075,273.370413 C14.1075,272.027625 15.1932353,270.935113 16.5286765,270.935113 L133.698529,270.935113 C135.035294,270.935113 136.120588,272.027625 136.120588,273.370413 L136.120588,273.546138 C136.120588,274.889369 135.035294,275.981881 133.698529,275.981881 Z"/>
      <polygon fill="#FFF" points="1.283 64.829 148.946 64.829 148.946 58.117 1.283 58.117"/>
      <path fill="#989FDD" d="M122.113235,59.0041062 L28.1135294,59.0041062 C25.9610294,59.0041062 24.2095588,57.2428625 24.2095588,55.0778063 C24.2095588,54.5874625 24.6048529,54.1903063 25.0919118,54.1903063 C25.5789706,54.1903063 25.9742647,54.5874625 25.9742647,55.0778063 C25.9742647,56.26395 26.9338235,57.2291063 28.1135294,57.2291063 L122.113235,57.2291063 C123.295588,57.2291063 124.252941,56.26395 124.252941,55.0778063 C124.252941,54.5874625 124.65,54.1903063 125.135294,54.1903063 C125.625,54.1903063 126.017647,54.5874625 126.017647,55.0778063 C126.017647,57.2428625 124.266176,59.0041062 122.113235,59.0041062"/>
      <path fill="#989FDD" d="M148.945588,65.7162688 L1.28294118,65.7162688 C0.795882353,65.7162688 0.400588235,65.3186687 0.400588235,64.8287688 L0.400588235,58.1166062 C0.400588235,57.6267063 0.795882353,57.2291062 1.28294118,57.2291062 C1.77044118,57.2291062 2.16529412,57.6267063 2.16529412,58.1166062 L2.16529412,63.9412688 L148.063235,63.9412688 L148.063235,58.1166062 C148.063235,57.6267063 148.460294,57.2291062 148.945588,57.2291062 C149.430882,57.2291062 149.827941,57.6267063 149.827941,58.1166062 L149.827941,64.8287688 C149.827941,65.3186687 149.430882,65.7162688 148.945588,65.7162688"/>
      <path fill="#31C766" d="M72.1702941,124.25 C71.4070588,124.25 70.6817647,123.914969 70.1845588,123.332325 L57.5055882,108.476906 C56.5641176,107.373744 56.6898529,105.7119 57.7866176,104.764937 C58.8833824,103.818419 60.5360294,103.944 61.4775,105.047606 L72.1575,117.561356 L88.7426471,97.8814875 C89.6735294,96.773 91.3279412,96.6349937 92.4308824,97.5757437 C93.5338235,98.5156062 93.6661765,100.177006 92.7352941,101.285937 L74.1670588,123.319456 C73.6716176,123.907425 72.9445588,124.247781 72.1786765,124.25 C72.1760294,124.25 72.1729412,124.25 72.1702941,124.25"/>
    </g>
  </g>
</svg>
