<svg xmlns="http://www.w3.org/2000/svg" xmlns:xlink="http://www.w3.org/1999/xlink" width="357" height="350" viewBox="0 0 357 350">
  <defs>
    <path id="online-kassa_ofd_fns-a" d="M0.348690164,124.022646 C11.1859576,66.9503835 35.4556881,-19.2073994 80.8198172,4.31587193 C107.027172,17.9057644 122.973648,67.1886184 132.676001,121.90237 C113.775967,131.018261 90.0089686,136.448501 64.1934516,136.448501 C40.4471551,136.448501 18.434471,131.853957 0.348690164,124.022646"/>
  </defs>
  <g fill="none" fill-rule="evenodd">
    <path fill="#FFF" d="M84.0084788,4.22322888 C115.773249,20.6946866 132.463956,89.6003406 141.232535,157.057834 C141.232535,157.057834 83.4093863,156.618188 64.3294581,154.139578 C48.165876,152.039578 0.70745593,139.883038 0.70745593,139.883038 C9.778679,84.9821526 34.1560718,-21.6276567 84.0084788,4.22322888 Z" transform="translate(215.472 159.357)"/>
    <g transform="translate(219.133 159.264)">
      <mask id="online-kassa_ofd_fns-b" fill="#fff">
        <use xlink:href="#online-kassa_ofd_fns-a"/>
      </mask>
      <path fill="#CBCFEE" d="M1.45841132 25.6968665C1.45841132 28.78297 1.45841132 31.8690736 1.45841132 34.9551771 1.45841132 36.2149864 3.79806529 35.9198229 3.79806529 34.8087875 3.79806529 31.7231608 3.79806529 28.6370572 3.79806529 25.5509537 3.79806529 24.2906676 1.45841132 24.5863079 1.45841132 25.6968665M10.7307617 25.9324251C10.7307617 29.0185286 10.7307617 32.1046322 10.7307617 35.1907357 10.7307617 35.8640327 13.0322873 35.4439373 13.0322873 34.5732289 13.0322873 31.4876022 13.0322873 28.4014986 13.0322873 25.3153951 13.0322873 24.6416213 10.7307617 25.0617166 10.7307617 25.9324251M19.9735626 25.7283379C19.9735626 28.8144414 19.9735626 31.900545 19.9735626 34.9861717 19.9735626 36.1215259 22.2965354 35.729564 22.2965354 34.7777929 22.2965354 31.6916894 22.2965354 28.6055858 22.2965354 25.5194823 22.2965354 24.3841281 19.9735626 24.7765668 19.9735626 25.7283379M29.2187465 25.6987738C29.2187465 28.7848774 29.2187465 31.8709809 29.2187465 34.9566076 29.2187465 36.210218 31.5579238 35.9088556 31.5579238 34.8073569 31.5579238 31.7212534 31.5579238 28.6351499 31.5579238 25.5490463 31.5579238 24.295436 29.2187465 24.5967984 29.2187465 25.6987738M38.4910968 25.9324251C38.4910968 29.0185286 38.4910968 32.1046322 38.4910968 35.1907357 38.4910968 35.6957084 40.7926224 35.3285422 40.7926224 34.5732289 40.7926224 31.4876022 40.7926224 28.4014986 40.7926224 25.3153951 40.7926224 24.8104223 38.4910968 25.1771117 38.4910968 25.9324251M47.7334211 25.727861C47.7334211 28.8134877 47.7334211 31.8995913 47.7334211 34.9856948 47.7334211 36.1243869 50.0568705 35.7343324 50.0568705 34.7782698 50.0568705 31.6926431 50.0568705 28.6065395 50.0568705 25.520436 50.0568705 24.3817439 47.7334211 24.7717984 47.7334211 25.727861M56.9976692 25.9324251C56.9976692 29.0185286 56.9976692 32.1046322 56.9976692 35.1907357 56.9976692 35.5073569 59.2996714 35.1993188 59.2996714 34.5732289 59.2996714 31.4876022 59.2996714 28.4014986 59.2996714 25.3153951 59.2996714 24.9987738 56.9976692 25.306812 56.9976692 25.9324251M66.2318912 25.695436C66.2318912 28.7815395 66.2318912 31.8676431 66.2318912 34.9532698 66.2318912 36.2192779 68.5724984 35.9288828 68.5724984 34.8106948 68.5724984 31.7245913 68.5724984 28.6384877 68.5724984 25.5523842 68.5724984 24.2868529 66.2318912 24.577248 66.2318912 25.695436M75.5018585 25.7588556C75.5018585 28.8449591 75.5018585 31.9305858 75.5018585 35.0166894 75.5018585 36.0161444 77.8086268 35.548842 77.8086268 34.7472752 77.8086268 31.6611717 77.8086268 28.5750681 77.8086268 25.4894414 77.8086268 24.4895095 75.5018585 24.956812 75.5018585 25.7588556M84.7580044 25.9324251C84.7580044 29.0185286 84.7580044 32.1046322 84.7580044 35.1907357 84.7580044 35.5917575 87.0595299 35.2574932 87.0595299 34.5732289 87.0595299 31.4876022 87.0595299 28.4014986 87.0595299 25.3153951 87.0595299 24.9138965 84.7580044 25.2481608 84.7580044 25.9324251M94.0060479 25.7483651C94.0060479 28.8344687 94.0060479 31.9200954 94.0060479 35.0061989 94.0060479 36.0547684 96.3185354 35.6108311 96.3185354 34.7577657 96.3185354 31.6716621 96.3185354 28.5855586 96.3185354 25.4999319 96.3185354 24.4513624 94.0060479 24.8952997 94.0060479 25.7483651M103.260764 25.7526567C103.260764 28.8387602 103.260764 31.9243869 103.260764 35.0104905 103.260764 36.0395095 105.570868 35.5855586 105.570868 34.7534741 105.570868 31.6673706 105.570868 28.581267 105.570868 25.4956403 105.570868 24.4666213 103.260764 24.9205722 103.260764 25.7526567M112.518339 25.9324251C112.518339 29.0185286 112.518339 32.1046322 112.518339 35.1907357 112.518339 35.5869891 114.819865 35.2541553 114.819865 34.5732289 114.819865 31.4876022 114.819865 28.4014986 114.819865 25.3153951 114.819865 24.9191417 112.518339 25.2514986 112.518339 25.9324251M121.771626 25.9324251C121.771626 29.0185286 121.771626 32.1046322 121.771626 35.1907357 121.771626 35.5617166 124.073151 35.2369891 124.073151 34.5732289 124.073151 31.4876022 124.073151 28.4014986 124.073151 25.3153951 124.073151 24.9439373 121.771626 25.2691417 121.771626 25.9324251M131.010614 25.7140327C131.010614 28.8001362 131.010614 31.8862398 131.010614 34.9723433 131.010614 36.1658719 133.341212 35.8149183 133.341212 34.7916213 133.341212 31.7059946 133.341212 28.619891 133.341212 25.5337875 133.341212 24.3402589 131.010614 24.6907357 131.010614 25.7140327M6.1038803 44.4485695C6.1038803 47.534673 6.1038803 50.6202997 6.1038803 53.7064033 6.1038803 54.0010899 8.40588248 53.6997275 8.40588248 53.0893733 8.40588248 50.0032698 8.40588248 46.9171662 8.40588248 43.8315395 8.40588248 43.5368529 6.1038803 43.8382153 6.1038803 44.4485695M15.3571665 44.4485695C15.3571665 47.534673 15.3571665 50.6202997 15.3571665 53.7064033 15.3571665 54.2409401 17.6591687 53.8647139 17.6591687 53.0893733 17.6591687 50.0032698 17.6591687 46.9171662 17.6591687 43.8315395 17.6591687 43.2970027 15.3571665 43.6732289 15.3571665 44.4485695M24.6104527 44.2821526C24.6104527 47.3682561 24.6104527 50.4538828 24.6104527 53.5399864 24.6104527 54.5041553 26.9129314 54.0220708 26.9129314 53.2557902 26.9129314 50.1696866 26.9129314 47.0835831 26.9129314 43.9979564 26.9129314 43.0337875 24.6104527 43.5153951 24.6104527 44.2821526M33.8513471 44.2368529C33.8513471 47.3224796 33.8513471 50.4085831 33.8513471 53.4946866 33.8513471 54.6615123 36.1786094 54.2910082 36.1786094 53.3010899 36.1786094 50.2149864 36.1786094 47.1288828 36.1786094 44.0432561 36.1786094 42.8764305 33.8513471 43.2469346 33.8513471 44.2368529M43.1175016 44.4485695C43.1175016 47.534673 43.1175016 50.6202997 43.1175016 53.7064033 43.1175016 54.2485695 45.4195038 53.8699591 45.4195038 53.0893733 45.4195038 50.0032698 45.4195038 46.9171662 45.4195038 43.8315395 45.4195038 43.2888965 43.1175016 43.6675068 43.1175016 44.4485695M52.3707878 44.4485695C52.3707878 47.534673 52.3707878 50.6202997 52.3707878 53.7064033 52.3707878 54.0969346 54.67279 53.7660082 54.67279 53.0893733 54.67279 50.0032698 54.67279 46.9171662 54.67279 43.8315395 54.67279 43.4410082 52.3707878 43.7719346 52.3707878 44.4485695M61.6102524 44.2301771C61.6102524 47.3162807 61.6102524 50.4023842 61.6102524 53.4884877 61.6102524 54.6810627 63.9403743 54.3296322 63.9403743 53.3072888 63.9403743 50.2216621 63.9403743 47.1355586 63.9403743 44.049455 63.9403743 42.8568801 61.6102524 43.2078338 61.6102524 44.2301771M70.8683047 44.2492507C70.8683047 47.3353542 70.8683047 50.4209809 70.8683047 53.5070845 70.8683047 54.6214578 73.1888945 54.2156676 73.1888945 53.2886921 73.1888945 50.2025886 73.1888945 47.116485 73.1888945 44.0308583 73.1888945 42.9160082 70.8683047 43.3217984 70.8683047 44.2492507M80.1158716 44.2273161C80.1158716 47.3134196 80.1158716 50.3995232 80.1158716 53.4851499 80.1158716 54.6896458 82.4483765 54.347752 82.4483765 53.3106267 82.4483765 50.2245232 82.4483765 47.1384196 82.4483765 44.0523161 82.4483765 42.8478202 80.1158716 43.1901907 80.1158716 44.2273161M89.3844091 44.4485695C89.3844091 47.534673 89.3844091 50.6202997 89.3844091 53.7064033 89.3844091 54.3501362 91.6864113 53.9395777 91.6864113 53.0893733 91.6864113 50.0032698 91.6864113 46.9171662 91.6864113 43.8315395 91.6864113 43.1873297 89.3844091 43.5983651 89.3844091 44.4485695M98.6381719 44.4485695C98.6381719 47.534673 98.6381719 50.6202997 98.6381719 53.7064033 98.6381719 54.3820845 100.939697 53.9615123 100.939697 53.0893733 100.939697 50.0032698 100.939697 46.9171662 100.939697 43.8315395 100.939697 43.1553815 98.6381719 43.5764305 98.6381719 44.4485695M107.886215 44.2645095C107.886215 47.3501362 107.886215 50.4362398 107.886215 53.5223433 107.886215 54.5699591 110.198703 54.1260218 110.198703 53.2734332 110.198703 50.1873297 110.198703 47.101703 110.198703 44.0155995 110.198703 42.9675068 107.886215 43.411921 107.886215 44.2645095M117.128063 44.221594C117.128063 47.3076975 117.128063 50.3938011 117.128063 53.4794278 117.128063 54.7063351 119.463428 54.3820845 119.463428 53.3163488 119.463428 50.2302452 119.463428 47.1441417 119.463428 44.0580381 119.463428 42.8316076 117.128063 43.1558583 117.128063 44.221594M126.392311 44.2611717C126.392311 47.3472752 126.392311 50.4329019 126.392311 53.5190054 126.392311 54.5814033 128.706229 54.1450954 128.706229 53.2767711 128.706229 50.1906676 128.706229 47.104564 128.706229 44.0189373 128.706229 42.9565395 126.392311 43.3928474 126.392311 44.2611717M1.46127095 62.7405995C1.46127095 65.826703 1.46127095 68.9128065 1.46127095 71.9989101 1.46127095 73.2129428 3.79472905 72.8786785 3.79472905 71.8286785 3.79472905 68.7430518 3.79472905 65.6569482 3.79472905 62.5708447 3.79472905 61.3563351 1.46127095 61.6905995 1.46127095 62.7405995M10.7307617 62.9642371C10.7307617 66.0503406 10.7307617 69.1364441 10.7307617 72.2225477 10.7307617 72.7737738 13.0322873 72.3923025 13.0322873 71.6050409 13.0322873 68.5194142 13.0322873 65.4333106 13.0322873 62.3472071 13.0322873 61.7959809 10.7307617 62.1774523 10.7307617 62.9642371M19.9840479 62.9642371C19.9840479 66.0503406 19.9840479 69.1364441 19.9840479 72.2225477 19.9840479 72.5177112 22.2860501 72.2158719 22.2860501 71.6050409 22.2860501 68.5194142 22.2860501 65.4333106 22.2860501 62.3472071 22.2860501 62.0520436 19.9840479 62.3538828 19.9840479 62.9642371M29.2373341 62.9642371C29.2373341 66.0503406 29.2373341 69.1364441 29.2373341 72.2225477 29.2373341 72.6135559 31.5393362 72.2826294 31.5393362 71.6050409 31.5393362 68.5194142 31.5393362 65.4333106 31.5393362 62.3472071 31.5393362 61.9557221 29.2373341 62.2871253 29.2373341 62.9642371M38.4763221 62.7453678C38.4763221 65.8314714 38.4763221 68.9175749 38.4763221 72.0036785 38.4763221 73.1986376 40.8073972 72.8495913 40.8073972 71.8239101 40.8073972 68.7378065 40.8073972 65.6521798 40.8073972 62.5660763 40.8073972 61.3706403 38.4763221 61.7201635 38.4763221 62.7453678M47.744383 62.9642371C47.744383 66.0503406 47.744383 69.1364441 47.744383 72.2225477 47.744383 72.639782 50.0459086 72.3002725 50.0459086 71.6050409 50.0459086 68.5194142 50.0459086 65.4333106 50.0459086 62.3472071 50.0459086 61.9299728 47.744383 62.2690054 47.744383 62.9642371M56.9976692 62.9642371C56.9976692 66.0503406 56.9976692 69.1364441 56.9976692 72.2225477 56.9976692 72.5410763 59.2996714 72.2320845 59.2996714 71.6050409 59.2996714 68.5194142 59.2996714 65.4333106 59.2996714 62.3472071 59.2996714 62.0286785 56.9976692 62.3371935 56.9976692 62.9642371M66.2509554 62.9642371C66.2509554 66.0503406 66.2509554 69.1364441 66.2509554 72.2225477 66.2509554 72.7771117 68.5529576 72.3942098 68.5529576 71.6050409 68.5529576 68.5194142 68.5529576 65.4333106 68.5529576 62.3472071 68.5529576 61.7926431 66.2509554 62.1750681 66.2509554 62.9642371M75.5047182 62.9642371C75.5047182 66.0503406 75.5047182 69.1364441 75.5047182 72.2225477 75.5047182 72.7766349 77.8062437 72.3942098 77.8062437 71.6050409 77.8062437 68.5194142 77.8062437 65.4333106 77.8062437 62.3472071 77.8062437 61.7926431 75.5047182 62.1750681 75.5047182 62.9642371M84.7465658 62.7577657C84.7465658 65.8433924 84.7465658 68.9294959 84.7465658 72.0155995 84.7465658 73.1614441 87.0709684 72.7766349 87.0709684 71.8119891 87.0709684 68.7258856 87.0709684 65.639782 87.0709684 62.5541553 87.0709684 61.4078338 84.7465658 61.7931199 84.7465658 62.7577657M93.9969924 62.7458447C93.9969924 65.8319482 93.9969924 68.9175749 93.9969924 72.0036785 93.9969924 73.1981608 96.3275909 72.8481608 96.3275909 71.8239101 96.3275909 68.7378065 96.3275909 65.651703 96.3275909 62.5655995 96.3275909 61.371594 93.9969924 61.721594 93.9969924 62.7458447M103.264577 62.9642371C103.264577 66.0503406 103.264577 69.1364441 103.264577 72.2225477 103.264577 72.6002044 105.566579 72.2730926 105.566579 71.6050409 105.566579 68.5194142 105.566579 65.4333106 105.566579 62.3472071 105.566579 61.9695504 103.264577 62.2966621 103.264577 62.9642371M112.508331 62.7625341C112.508331 65.8486376 112.508331 68.9347411 112.508331 72.0203678 112.508331 73.1457084 114.829874 72.746594 114.829874 71.8067439 114.829874 68.7211172 114.829874 65.6350136 114.829874 62.5489101 114.829874 61.4240463 112.508331 61.8231608 112.508331 62.7625341M121.771626 62.9642371C121.771626 66.0503406 121.771626 69.1364441 121.771626 72.2225477 121.771626 72.8233651 124.073151 72.426158 124.073151 71.6050409 124.073151 68.5194142 124.073151 65.4333106 124.073151 62.3472071 124.073151 61.7463896 121.771626 62.1435967 121.771626 62.9642371M131.013473 62.7577657C131.013473 65.8438692 131.013473 68.9299728 131.013473 72.0160763 131.013473 73.1604905 133.337876 72.7747275 133.337876 71.8115123 133.337876 68.7258856 133.337876 65.639782 133.337876 62.5536785 133.337876 61.4087875 131.013473 61.7950272 131.013473 62.7577657M6.0943482 81.280109C6.0943482 84.3662125 6.0943482 87.4523161 6.0943482 90.5384196 6.0943482 91.655654 8.41541458 91.2517711 8.41541458 90.3209809 8.41541458 87.2353542 8.41541458 84.1492507 8.41541458 81.0631471 8.41541458 79.945436 6.0943482 80.3493188 6.0943482 81.280109M15.3571665 81.4803815C15.3571665 84.566485 15.3571665 87.6521117 15.3571665 90.7382153 15.3571665 91.335218 17.6591687 90.9394414 17.6591687 90.1211853 17.6591687 87.0350817 17.6591687 83.9489782 17.6591687 80.8633515 17.6591687 80.2658719 15.3571665 80.6621253 15.3571665 81.4803815M24.600444 81.277248C24.600444 84.3633515 24.600444 87.4489782 24.600444 90.5350817 24.600444 91.6656676 26.9229402 91.2703678 26.9229402 90.3243188 26.9229402 87.2382153 26.9229402 84.1521117 26.9229402 81.0660082 26.9229402 79.9354223 24.600444 80.3311989 24.600444 81.277248M33.8546834 81.280109C33.8546834 84.3662125 33.8546834 87.4518392 33.8546834 90.5379428 33.8546834 91.6566076 36.1757497 91.2536785 36.1757497 90.3214578 36.1757497 87.2353542 36.1757497 84.1492507 36.1757497 81.063624 36.1757497 79.9444823 33.8546834 80.3478883 33.8546834 81.280109M43.114642 81.3049046C43.114642 84.3905313 43.114642 87.4766349 43.114642 90.5627384 43.114642 91.5702997 45.4223634 91.106812 45.4223634 90.2966621 45.4223634 87.2105586 45.4223634 84.124455 45.4223634 81.0388283 45.4223634 80.0307902 43.114642 80.4947548 43.114642 81.3049046M52.3593493 81.2720027C52.3593493 84.3581063 52.3593493 87.443733 52.3593493 90.5298365 52.3593493 91.6823569 54.6847051 91.3018392 54.6847051 90.329564 54.6847051 87.2434605 54.6847051 84.1573569 54.6847051 81.0712534 54.6847051 79.918733 52.3593493 80.2992507 52.3593493 81.2720027M61.6092992 81.2586512C61.6092992 84.3447548 61.6092992 87.4308583 61.6092992 90.5169619 61.6092992 91.7224114 63.9413275 91.3814714 63.9413275 90.3424387 63.9413275 87.256812 63.9413275 84.1707084 63.9413275 81.0846049 63.9413275 79.8786785 61.6092992 80.2200954 61.6092992 81.2586512M70.8778368 81.4803815C70.8778368 84.566485 70.8778368 87.6521117 70.8778368 90.7382153 70.8778368 91.2541553 73.179839 90.8841281 73.179839 90.1211853 73.179839 87.0350817 73.179839 83.9489782 73.179839 80.8633515 73.179839 80.3469346 70.8778368 80.7174387 70.8778368 81.4803815M80.131123 81.4803815C80.131123 84.566485 80.131123 87.6521117 80.131123 90.7382153 80.131123 91.3805177 82.4331251 90.970436 82.4331251 90.1211853 82.4331251 87.0350817 82.4331251 83.9489782 82.4331251 80.8633515 82.4331251 80.2205722 80.131123 80.6311308 80.131123 81.4803815M89.374877 81.280109C89.374877 84.3662125 89.374877 87.4523161 89.374877 90.5379428 89.374877 91.6561308 91.6959434 91.2527248 91.6959434 90.3214578 91.6959434 87.2353542 91.6959434 84.1492507 91.6959434 81.0631471 91.6959434 79.945436 89.374877 80.348842 89.374877 81.280109M98.6214908 81.2538828C98.6214908 84.3399864 98.6214908 87.4256131 98.6214908 90.5117166 98.6214908 91.7371935 100.956379 91.4115123 100.956379 90.3476839 100.956379 87.2615804 100.956379 84.1754768 100.956379 81.0893733 100.956379 79.8643733 98.6214908 80.1895777 98.6214908 81.2538828M107.891458 81.4803815C107.891458 84.566485 107.891458 87.6521117 107.891458 90.7382153 107.891458 91.2055177 110.19346 90.8507493 110.19346 90.1211853 110.19346 87.0350817 110.19346 83.9489782 110.19346 80.8633515 110.19346 80.396049 107.891458 80.7508174 107.891458 81.4803815M117.134736 81.2786785C117.134736 84.3643052 117.134736 87.4504087 117.134736 90.5365123 117.134736 91.6618529 119.456755 91.2627384 119.456755 90.3228883 119.456755 87.2367847 119.456755 84.151158 119.456755 81.0650545 119.456755 79.9397139 117.134736 80.3388283 117.134736 81.2786785M126.39803 81.4803815C126.39803 84.566485 126.39803 87.6521117 126.39803 90.7382153 126.39803 91.3147139 128.700033 90.9251362 128.700033 90.1211853 128.700033 87.0350817 128.700033 83.9489782 128.700033 80.8633515 128.700033 80.2868529 126.39803 80.6764305 126.39803 81.4803815M1.46222416 99.7747956C1.46222416 102.860899 1.46222416 105.946526 1.46222416 109.032629 1.46222416 110.238556 3.79425245 109.897616 3.79425245 108.858583 3.79425245 105.77248 3.79425245 102.686376 3.79425245 99.6007493 3.79425245 98.3948229 1.46222416 98.7357629 1.46222416 99.7747956M10.7250424 99.8105586C10.7250424 102.896662 10.7250424 105.982766 10.7250424 109.068869 10.7250424 110.122207 13.0380065 109.681131 13.0380065 108.822343 13.0380065 105.73624 13.0380065 102.650613 13.0380065 99.5645095 13.0380065 98.5111717 10.7250424 98.952248 10.7250424 99.8105586M19.977852 99.8081744C19.977852 102.893801 19.977852 105.979905 19.977852 109.066008 19.977852 110.131744 22.2922459 109.697343 22.2922459 108.825204 22.2922459 105.739101 22.2922459 102.653474 22.2922459 99.5673706 22.2922459 98.501158 19.977852 98.9355586 19.977852 99.8081744M29.2363808 99.8282016C29.2363808 102.913828 29.2363808 105.999932 29.2363808 109.086035 29.2363808 110.058311 31.5402894 109.579564 31.5402894 108.805177 31.5402894 105.719074 31.5402894 102.63297 31.5402894 99.5473433 31.5402894 98.5750681 29.2363808 99.0533379 29.2363808 99.8282016M38.4906202 99.830109C38.4906202 102.915736 38.4906202 106.001839 38.4906202 109.087943 38.4906202 110.050681 40.793099 109.568597 40.793099 108.80327 40.793099 105.717166 40.793099 102.631063 40.793099 99.545436 40.793099 98.5822207 38.4906202 99.064782 38.4906202 99.830109M47.744383 99.996049C47.744383 103.082153 47.744383 106.168256 47.744383 109.25436 47.744383 109.576703 50.0459086 109.266757 50.0459086 108.636853 50.0459086 105.551226 50.0459086 102.465123 50.0459086 99.3790191 50.0459086 99.0561989 47.744383 99.3666213 47.744383 99.996049M56.9976692 99.996049C56.9976692 103.082153 56.9976692 106.168256 56.9976692 109.25436 56.9976692 109.776022 59.2996714 109.40361 59.2996714 108.636853 59.2996714 105.551226 59.2996714 102.465123 59.2996714 99.3790191 59.2996714 98.8573569 56.9976692 99.2292916 56.9976692 99.996049M66.2509554 99.996049C66.2509554 103.082153 66.2509554 106.168256 66.2509554 109.25436 66.2509554 109.865668 68.5529576 109.465123 68.5529576 108.636853 68.5529576 105.551226 68.5529576 102.465123 68.5529576 99.3790191 68.5529576 98.7677112 66.2509554 99.1682561 66.2509554 99.996049M75.5047182 99.996049C75.5047182 103.082153 75.5047182 106.168256 75.5047182 109.25436 75.5047182 109.549523 77.8062437 109.247684 77.8062437 108.636853 77.8062437 105.551226 77.8062437 102.465123 77.8062437 99.3790191 77.8062437 99.0833787 75.5047182 99.385218 75.5047182 99.996049M84.7580044 99.996049C84.7580044 103.082153 84.7580044 106.168256 84.7580044 109.25436 84.7580044 109.930041 87.0595299 109.508992 87.0595299 108.636853 87.0595299 105.551226 87.0595299 102.465123 87.0595299 99.3790191 87.0595299 98.7033379 84.7580044 99.1239101 84.7580044 99.996049M94.0112905 99.996049C94.0112905 103.082153 94.0112905 106.168256 94.0112905 109.25436 94.0112905 109.683992 96.3132927 109.341144 96.3132927 108.636853 96.3132927 105.551226 96.3132927 102.465123 96.3132927 99.3790191 96.3132927 98.9489101 94.0112905 99.2922343 94.0112905 99.996049M103.264577 99.996049C103.264577 103.082153 103.264577 106.168256 103.264577 109.25436 103.264577 109.608651 105.566579 109.289169 105.566579 108.636853 105.566579 105.551226 105.566579 102.465123 105.566579 99.3790191 105.566579 99.0242507 103.264577 99.3442098 103.264577 99.996049M112.518339 99.996049C112.518339 103.082153 112.518339 106.168256 112.518339 109.25436 112.518339 109.878542 114.819865 109.473706 114.819865 108.636853 114.819865 105.551226 114.819865 102.465123 114.819865 99.3790191 114.819865 98.7548365 112.518339 99.1591962 112.518339 99.996049M121.757804 99.7809946C121.757804 102.867098 121.757804 105.952725 121.757804 109.038828 121.757804 110.219959 124.086973 109.859946 124.086973 108.852384 124.086973 105.766281 124.086973 102.680177 124.086973 99.5945504 124.086973 98.4129428 121.757804 98.7729564 121.757804 99.7809946M131.01538 99.7967302C131.01538 102.882834 131.01538 105.968937 131.01538 109.054564 131.01538 110.169414 133.33597 109.764101 133.33597 108.836172 133.33597 105.750545 133.33597 102.664441 133.33597 99.5783379 133.33597 98.4634877 131.01538 98.8692779 131.01538 99.7967302M6.09863765 118.32718C6.09863765 121.413283 6.09863765 124.499387 6.09863765 127.58549 6.09863765 128.635967 8.41112514 128.192984 8.41112514 127.337534 8.41112514 124.251907 8.41112514 121.165804 8.41112514 118.0797 8.41112514 117.029223 6.09863765 117.472207 6.09863765 118.32718M15.3571665 118.512193C15.3571665 121.59782 15.3571665 124.683924 15.3571665 127.770027 15.3571665 128.092371 17.6591687 127.782425 17.6591687 127.152997 17.6591687 124.066894 17.6591687 120.98079 17.6591687 117.895163 17.6591687 117.57282 15.3571665 117.882766 15.3571665 118.512193M24.6109293 118.512193C24.6109293 121.59782 24.6109293 124.683924 24.6109293 127.770027 24.6109293 128.09094 26.9124548 127.781471 26.9124548 127.152997 26.9124548 124.066894 26.9124548 120.98079 26.9124548 117.895163 26.9124548 117.574251 24.6109293 117.883719 24.6109293 118.512193M33.8508705 118.297139C33.8508705 121.383243 33.8508705 124.469346 33.8508705 127.55545 33.8508705 128.734196 36.1795626 128.372275 36.1795626 127.367575 36.1795626 124.281471 36.1795626 121.195845 36.1795626 118.109741 36.1795626 116.930995 33.8508705 117.292439 33.8508705 118.297139M43.1093993 118.316213C43.1093993 121.402316 43.1093993 124.487943 43.1093993 127.574046 43.1093993 128.674114 45.4276061 128.259264 45.4276061 127.348978 45.4276061 124.262875 45.4276061 121.176771 45.4276061 118.090668 45.4276061 116.991076 43.1093993 117.405926 43.1093993 118.316213M52.3707878 118.512193C52.3707878 121.59782 52.3707878 124.683924 52.3707878 127.770027 52.3707878 128.175341 54.67279 127.840123 54.67279 127.152997 54.67279 124.066894 54.67279 120.98079 54.67279 117.895163 54.67279 117.48985 52.3707878 117.825068 52.3707878 118.512193M61.6245506 118.512193C61.6245506 121.59782 61.6245506 124.683924 61.6245506 127.770027 61.6245506 128.23733 63.9260762 127.882561 63.9260762 127.152997 63.9260762 124.066894 63.9260762 120.98079 63.9260762 117.895163 63.9260762 117.427384 61.6245506 117.782629 61.6245506 118.512193M70.8778368 118.512193C70.8778368 121.59782 70.8778368 124.683924 70.8778368 127.770027 70.8778368 128.31267 73.179839 127.93406 73.179839 127.152997 73.179839 124.066894 73.179839 120.98079 73.179839 117.895163 73.179839 117.35252 70.8778368 117.731131 70.8778368 118.512193M80.131123 118.512193C80.131123 121.59782 80.131123 124.683924 80.131123 127.770027 80.131123 128.111444 82.4331251 127.795777 82.4331251 127.152997 82.4331251 124.066894 82.4331251 120.98079 82.4331251 117.895163 82.4331251 117.55327 80.131123 117.869414 80.131123 118.512193M89.3839325 118.344346C89.3839325 121.43045 89.3839325 124.516553 89.3839325 127.602657 89.3839325 128.572071 91.6873645 128.092371 91.6873645 127.320368 91.6873645 124.234741 91.6873645 121.148638 91.6873645 118.062534 91.6873645 117.092643 89.3839325 117.57282 89.3839325 118.344346M98.6381719 118.512193C98.6381719 121.59782 98.6381719 124.683924 98.6381719 127.770027 98.6381719 128.06376 100.939697 127.762398 100.939697 127.152997 100.939697 124.066894 100.939697 120.98079 100.939697 117.895163 100.939697 117.600954 98.6381719 117.902316 98.6381719 118.512193M107.891458 118.512193C107.891458 121.59782 107.891458 124.683924 107.891458 127.770027 107.891458 128.24639 110.19346 127.88876 110.19346 127.152997 110.19346 124.066894 110.19346 120.98079 110.19346 117.895163 110.19346 117.418801 107.891458 117.776431 107.891458 118.512193M117.144744 118.512193C117.144744 121.59782 117.144744 124.683924 117.144744 127.770027 117.144744 128.258311 119.446746 127.896866 119.446746 127.152997 119.446746 124.066894 119.446746 120.98079 119.446746 117.895163 119.446746 117.40688 117.144744 117.768324 117.144744 118.512193M126.394218 118.331948C126.394218 121.418052 126.394218 124.504155 126.394218 127.590259 126.394218 128.618801 128.704322 128.16485 128.704322 127.332766 128.704322 124.246662 128.704322 121.161035 128.704322 118.074932 128.704322 117.04639 126.394218 117.500341 126.394218 118.331948M1.46127095 136.804223C1.46127095 139.890327 1.46127095 142.976431 1.46127095 146.062534 1.46127095 147.276567 3.79472905 146.942302 3.79472905 145.892302 3.79472905 142.806676 3.79472905 139.720572 3.79472905 136.634469 3.79472905 135.419959 1.46127095 135.7547 1.46127095 136.804223M10.7307617 137.027861C10.7307617 140.113965 10.7307617 143.200068 10.7307617 146.285695 10.7307617 146.58515 13.0322873 146.282357 13.0322873 145.668665 13.0322873 142.583038 13.0322873 139.496935 13.0322873 136.410831 13.0322873 136.111853 10.7307617 136.414646 10.7307617 137.027861M19.9840479 137.027861C19.9840479 140.113965 19.9840479 143.200068 19.9840479 146.285695 19.9840479 146.866485 22.2860501 146.475477 22.2860501 145.668665 22.2860501 142.583038 22.2860501 139.496935 22.2860501 136.410831 22.2860501 135.830518 19.9840479 136.221049 19.9840479 137.027861M29.2230359 136.809469C29.2230359 139.895095 29.2230359 142.981199 29.2230359 146.067302 29.2230359 147.262262 31.5536344 146.912738 31.5536344 145.887534 31.5536344 142.801431 31.5536344 139.715804 31.5536344 136.6297 31.5536344 135.434741 29.2230359 135.783787 29.2230359 136.809469M38.4763221 136.808038C38.4763221 139.894142 38.4763221 142.980245 38.4763221 146.066349 38.4763221 147.265123 40.8073972 146.918937 40.8073972 145.888488 40.8073972 142.802384 40.8073972 139.716757 40.8073972 136.630654 40.8073972 135.431403 38.4763221 135.778065 38.4763221 136.808038M47.7358041 136.832357C47.7358041 139.91846 47.7358041 143.004087 47.7358041 146.090191 47.7358041 147.189305 50.0544875 146.774455 50.0544875 145.864646 50.0544875 142.778542 50.0544875 139.692439 50.0544875 136.606812 50.0544875 135.507221 47.7358041 135.922548 47.7358041 136.832357M56.9895669 136.832834C56.9895669 139.918937 56.9895669 143.005041 56.9895669 146.091144 56.9895669 147.186921 59.3077737 146.769687 59.3077737 145.863692 59.3077737 142.778065 59.3077737 139.691962 59.3077737 136.605858 59.3077737 135.509605 56.9895669 135.926839 56.9895669 136.832834M66.2395169 136.819482C66.2395169 139.905109 66.2395169 142.991213 66.2395169 146.077316 66.2395169 147.231267 68.5648727 146.851703 68.5648727 145.87752 68.5648727 142.791417 68.5648727 139.705313 68.5648727 136.619687 68.5648727 135.465259 66.2395169 135.844823 66.2395169 136.819482M75.5047182 137.027861C75.5047182 140.113965 75.5047182 143.200068 75.5047182 146.285695 75.5047182 146.600409 77.8062437 146.292847 77.8062437 145.668665 77.8062437 142.583038 77.8062437 139.496935 77.8062437 136.410831 77.8062437 136.096594 75.5047182 136.404155 75.5047182 137.027861M84.7580044 137.027861C84.7580044 140.113965 84.7580044 143.200068 84.7580044 146.285695 84.7580044 146.808787 87.0595299 146.436376 87.0595299 145.668665 87.0595299 142.583038 87.0595299 139.496935 87.0595299 136.410831 87.0595299 135.887738 84.7580044 136.260627 84.7580044 137.027861M94.0112905 137.027861C94.0112905 140.113965 94.0112905 143.200068 94.0112905 146.285695 94.0112905 146.808311 96.3132927 146.436376 96.3132927 145.668665 96.3132927 142.583038 96.3132927 139.496935 96.3132927 136.410831 96.3132927 135.888215 94.0112905 136.260627 94.0112905 137.027861M103.255998 136.83045C103.255998 139.916553 103.255998 143.002657 103.255998 146.088283 103.255998 147.195027 105.575158 146.784469 105.575158 145.866076 105.575158 142.78045 105.575158 139.694346 105.575158 136.608243 105.575158 135.501975 103.255998 135.912534 103.255998 136.83045M112.518339 137.027861C112.518339 140.113965 112.518339 143.200068 112.518339 146.285695 112.518339 146.588488 114.819865 146.284741 114.819865 145.668665 114.819865 142.583038 114.819865 139.496935 114.819865 136.410831 114.819865 136.108038 112.518339 136.412262 112.518339 137.027861M121.76257 136.830926C121.76257 139.91703 121.76257 143.002657 121.76257 146.08876 121.76257 147.194074 124.082207 146.782084 124.082207 145.866076 124.082207 142.779973 124.082207 139.693869 124.082207 136.607766 124.082207 135.502929 121.76257 135.914441 121.76257 136.830926M131.018716 136.840463C131.018716 139.926567 131.018716 143.01267 131.018716 146.098774 131.018716 147.160695 133.332633 146.72391 133.332633 145.856063 133.332633 142.769959 133.332633 139.684332 133.332633 136.598229 133.332633 135.536308 131.018716 135.972616 131.018716 136.840463" mask="url(#online-kassa_ofd_fns-b)"/>
    </g>
    <g transform="translate(216.472 159.357)">
      <path fill="#FFF" d="M62.43916,44.4622616 C58.256951,41.5802452 54.0742655,38.697752 49.8920566,35.8152589 C45.9333754,33.0872616 40.7202699,30.5542916 37.3311317,27.1611035 C34.14884,23.9743869 37.5155778,21.2587875 39.9705702,17.9833787 C42.1395996,15.0889646 44.4992709,12.3223433 47.1358498,9.84182561 C57.4977193,0.0942779292 70.670605,-2.41914169 83.4803177,4.22322888 C90.9796975,8.1123297 97.0730925,14.5339237 101.834376,21.4199591 C105.009996,26.0128747 101.160457,28.9420981 97.731284,32.56703 C94.6509859,35.8233651 91.1846376,38.7144414 87.4232709,41.1525204 C84.1675822,43.2625341 80.3928705,45.0916894 76.555247,44.5266349 C72.7171469,43.9615804 72.7724331,39.3472071 70.4623286,36.3402589 C67.7876213,39.047752 65.1133906,41.7552452 62.43916,44.4622616"/>
      <path fill="#989FDD" d="M128.363164 83.4481608C124.810806 69.7056082 120.617856 56.0294278 114.949116 43.0069482 110.669203 33.1759537 105.579539 22.7479564 97.9238324 15.0908719 97.5368292 14.7041553 95.46884 15.5686649 95.7471774 15.8466621 102.631737 22.7322207 107.343454 31.9681199 111.362664 40.7467302 115.505791 49.7966621 119.026472 59.2519074 121.781249 68.8182561 126.188892 84.1243188 129.957885 99.5233651 132.917125 115.185627 134.056759 121.217811 135.417383 126.246438 136.445841 129.176161 137.527748 130.643052 137.66185 129.176161 137.66185 128.164836 135.170955 113.135301 132.173199 98.1875558 128.363164 83.4481608zM43.3992666 11.219891C37.2420065 20.2612398 31.4307617 29.3083106 26.5817824 39.127861 26.0427421 40.2198229 28.3585658 40.0982289 28.756531 39.2928474 33.6055103 29.4737738 39.4167552 20.426703 45.5740152 11.3848774 46.2317301 10.4192779 43.8977954 10.4874659 43.3992666 11.219891"/>
      <path fill="#6A79A8" d="M2.75343852,131.439646 C7.95605876,102.268052 14.5970729,72.8604223 26.0422655,45.4388283 C26.3468161,44.7097411 24.0576823,44.9638965 23.7402633,45.7249319 C12.2950707,73.1465259 5.65357998,102.554155 0.451436344,131.725749 C0.293203482,132.61267 2.61236344,132.232153 2.75343852,131.439646"/>
      <path fill="#CBCFEE" d="M98.135445,30.7998638 C94.3707421,35.6731608 90.0098063,39.8183243 84.6446638,42.7608992 C83.0999869,43.6082425 79.9448618,45.448842 77.851136,46.2246594 C75.8779913,42.9816757 73.9048466,39.7391689 71.9321785,36.4966621 C71.5575669,35.8810627 70.1696931,35.1891689 69.5100718,35.7566076 C68.9696017,36.2215259 64.6086659,42.4333106 63.1483482,43.9205722 C62.2785441,44.8070163 61.8534124,45.6767711 60.5599064,45.1617847 C59.7044004,44.8208447 59.0767116,43.9653951 58.3713362,43.4055858 C52.4943199,38.7420981 46.6049119,34.094346 40.7216997,29.4384877 C38.8243351,27.936921 34.3161284,30.6949591 36.7239369,32.6008856 C44.1332383,38.4641008 51.5430163,44.3273161 58.9523177,50.1910082 C60.1419238,51.1322888 62.2609097,50.565327 63.1426289,49.447139 C65.108148,46.9523161 67.0741436,44.45797 69.0401393,41.963624 C70.0572144,43.6354223 71.0742894,45.3067439 72.0913645,46.9785422 C73.6317519,49.5096049 74.269926,51.1303815 77.4874864,50.2968665 C87.3036431,47.7538828 96.3596148,40.4467984 102.518305,32.4740463 C104.584864,29.7985014 99.6682067,28.8152589 98.135445,30.7998638"/>
      <path fill="#989FDD" d="M98.8346246,28.998842 C95.6761632,33.2598774 91.996296,37.0741144 87.5552905,40.0076294 C84.3262916,42.1400545 80.7565201,43.2730245 77.4145658,45.119346 C77.3430751,45.1589237 76.6181589,45.4145095 76.6210185,45.4331063 C76.6562873,45.6452997 77.5270446,45.4922343 77.5237084,45.4998638 C77.5732753,45.3849455 76.9946768,44.6043597 76.9279521,44.4913488 C76.19684,43.2549046 75.4662046,42.0184605 74.7355691,40.7815395 C73.5397671,38.7587875 72.3439652,36.7355586 71.1481632,34.7128065 C70.7892797,34.1053134 69.2731991,34.6250681 68.9419587,35.0575613 C66.1571556,38.6958447 63.3723526,42.3336512 60.5870729,45.9719346 C61.2981676,45.8202997 62.0092622,45.6686649 62.7198803,45.51703 C55.5226681,39.6533379 48.3259325,33.7901226 41.1287203,27.9269074 C40.5844374,27.4834469 38.4930947,28.3722752 38.9739891,28.7637602 C46.1712013,34.6274523 53.3679369,40.4906676 60.5651491,46.3538828 C61.0517628,46.7506131 62.3447922,46.3605586 62.6979565,45.8989782 C65.4827595,42.2606948 68.2680392,38.6228883 71.0528422,34.9846049 C70.3174407,35.0995232 69.5820392,35.2149183 68.8466376,35.3298365 C70.3536627,37.8794959 71.8606877,40.4296322 73.3677127,42.9792916 C73.8600457,43.8123297 74.4758194,45.5537466 75.2503025,46.1645777 C75.9256518,46.6976839 76.6601001,46.4258856 77.4684222,46.1474114 C86.8751752,42.9053815 95.0351295,36.8986376 100.945508,28.9258856 C101.469297,28.2196866 99.215432,28.4857629 98.8346246,28.998842"/>
      <path fill="#F2F2F2" d="M82.1577388,64.6835831 C82.6543613,65.6577657 84.3934929,65.5566757 85.2823613,65.6467984 C86.701691,65.7912807 88.1267399,65.8814033 89.5536953,65.9004768 C92.2817824,65.9371935 95.0970881,64.9620572 97.7760849,65.1504087 C98.6163395,65.2095368 99.9708509,64.7636921 100.67003,64.325 C101.39876,63.868188 101.130431,63.0680518 100.254431,63.0904632 C99.5271317,63.1085831 98.8022155,63.2101499 98.0844483,63.3202997 C96.6908553,63.5339237 95.3025049,63.8324251 93.8879412,63.8600817 C91.1898803,63.9130109 88.4508313,63.5839918 85.7913754,63.1410082 C84.7781132,62.9722071 83.6952666,63.2001362 82.7468226,63.5591962 C82.2583025,63.7446866 81.9537519,63.7837875 82.042877,64.3264305 C82.0648009,64.4594687 82.1038825,64.5777248 82.1577388,64.6835831"/>
      <path fill="#F9F9F9" d="M82.3703047,64.5758174 C82.7191795,65.2591281 83.9044962,65.324455 84.7700109,65.3726158 C84.9673254,65.3835831 85.1498651,65.3935967 85.3066681,65.4098093 C86.7731817,65.5590599 88.2029967,65.6434605 89.556555,65.6615804 C90.7995408,65.6725477 92.109728,65.4741826 93.3674886,65.2767711 C94.8273297,65.0474114 96.3357845,64.8104223 97.7927661,64.9124659 C98.5853602,64.9644414 99.8774363,64.541485 100.543254,64.123297 C100.777267,63.9764305 100.891175,63.7804496 100.840655,63.6126022 C100.786799,63.4323569 100.555645,63.3169619 100.26015,63.3288828 C99.5357106,63.3470027 98.8055517,63.4509537 98.1201937,63.5553815 C97.7927661,63.6059264 97.4662916,63.6607629 97.1383874,63.7155995 C96.0831839,63.8934605 94.9912818,64.0765668 93.8922307,64.0985014 C91.5697345,64.1438011 88.9836757,63.9139646 85.7522938,63.3760899 C84.9120392,63.2378065 83.9016366,63.3765668 82.8311817,63.7823569 L82.6739021,63.8400545 C82.2683112,63.986921 82.2320892,64.0083787 82.2778433,64.2878065 C82.2950011,64.3927112 82.3255038,64.4876022 82.3703047,64.5758174 Z M89.7038259,66.1393733 C89.6523526,66.1393733 89.6013558,66.1388965 89.5503591,66.1384196 C88.1825027,66.1202997 86.7388662,66.0349455 85.258531,65.8837875 C85.1079238,65.8690054 84.9330098,65.8594687 84.7442742,65.8489782 C83.7624679,65.7946185 82.4189184,65.7202316 81.9456496,64.7923025 L81.9456496,64.7918256 C81.8789249,64.6611717 81.8326942,64.5171662 81.8074342,64.3650545 C81.6963852,63.6865123 82.1110316,63.5363079 82.5118564,63.3918256 L82.6624635,63.3365123 C83.8272862,62.8949591 84.892975,62.7495232 85.830457,62.9054496 C89.0322894,63.4390327 91.5892753,63.666485 93.8826986,63.6216621 C94.9469576,63.6006812 96.0212252,63.4199591 97.0597476,63.245436 C97.3895582,63.1905995 97.7184157,63.1352861 98.0482263,63.0842643 C98.7488357,62.9774523 99.4961523,62.8711172 100.248235,62.8520436 C100.788229,62.8358311 101.179045,63.0833106 101.297243,63.4747956 C101.412581,63.8576975 101.220986,64.2611035 100.796331,64.5276567 C100.052827,64.9940054 98.6530381,65.4465259 97.7594037,65.3883515 C96.3577084,65.2872616 94.8745136,65.5223433 93.441839,65.7474114 C92.2141045,65.9405313 90.9468118,66.1393733 89.7038259,66.1393733 Z"/>
      <path fill="#989FDD" d="M82.0166638 63.8600817C84.9658955 64.3116485 87.9656474 64.5929837 90.9496714 64.6211172 93.0329119 64.6406676 95.0332231 64.3378747 97.0950163 64.0884877 97.7622633 64.0074251 98.4304635 63.9301771 99.1010468 63.8863079 99.233543 63.8777248 99.9198542 63.8929837 99.4928161 63.8600817 100.624276 63.9473433 101.841049 62.2955722 100.28684 62.1754087 97.6779042 61.9741826 95.0365593 62.847752 92.4300065 62.9168937 89.2291273 63.0017711 85.9734385 62.6598774 82.8106877 62.1754087 81.6696953 62.0008856 80.4734168 63.6235695 82.0166638 63.8600817M93.4651926 70.6478883C93.4651926 71.9258174 92.4295299 72.9619891 91.1517519 72.9619891 89.8739739 72.9619891 88.8383112 71.9258174 88.8383112 70.6478883 88.8383112 69.3694823 89.8739739 68.3333106 91.1517519 68.3333106 92.4295299 68.3333106 93.4651926 69.3694823 93.4651926 70.6478883"/>
    </g>
    <path fill="#FFF" d="M315.032353,126.971798 C315.529452,97.3205041 302.884644,73.0641689 286.78874,72.7938011 C270.692836,72.5234332 257.241613,96.3415531 256.744037,125.992847 C256.732598,126.679496 256.674929,130.095572 256.654912,131.307221 C256.378958,147.747207 257.584292,159.226158 259.894873,167.239441 C261.682141,173.437398 265.737573,178.68406 270.627064,182.783447 C274.139166,185.727929 278.098801,188.176975 282.270524,190.070504 C283.472046,190.616008 284.723134,190.725681 285.925132,190.267439 C286.693419,189.974659 287.455034,189.662807 288.209976,189.336649 C290.374716,188.400136 292.487983,187.340599 294.527375,186.154223 C299.676616,183.159673 304.560387,179.279632 307.756501,174.178406 C308.593896,172.841826 309.305467,171.425613 309.854039,169.946458 C312.81185,161.974659 314.644873,150.056063 314.942751,132.286172 C314.962768,131.111717 315.019961,127.69421 315.032353,126.971798"/>
    <path fill="#CBCFEE" d="M318.225606,99.7991144 C324.602581,92.3451635 324.162198,80.4928474 318.534923,72.4576294 C312.907647,64.4219346 303.065277,60.0292916 293.283913,59.3207084 C283.503025,58.6116485 273.750257,61.2070845 264.655203,64.8768392 C258.869695,67.2109673 252.872575,70.3595368 250.091108,75.9457084 C247.154268,81.8456403 248.707523,89.3320163 252.85637,94.4518392 C257.005217,99.572139 263.335008,102.549523 269.789669,103.870368 C276.243854,105.191213 282.899166,105.01049 289.483941,104.809264 C293.713811,104.680041 298.051869,104.522207 301.959077,102.896185 C305.866285,101.270163 309.310233,97.8345368 309.696283,93.6188011 L318.225606,99.7991144"/>
    <path fill="#989FDD" d="M316.201465 126.897411C316.342063 115.796117 314.883652 104.49312 310.803436 94.1137602 307.890427 86.7027248 303.455617 79.0179837 296.471924 74.7712534 290.766962 71.3017711 283.942931 71.0166213 277.999667 74.0993869 270.805314 77.8311308 265.930598 85.0948229 262.641547 92.2788828 258.171946 102.042643 256.090135 112.901226 255.646416 123.58767 255.212705 134.038079 255.211275 144.633924 256.390873 155.035218 257.483728 164.669278 259.748555 173.585218 266.755125 180.708243 270.706657 184.725613 275.451737 187.925681 280.517095 190.366144 282.524078 191.333174 284.313254 191.733243 286.447491 190.994142 289.664575 189.880245 292.809214 188.233719 295.719841 186.485627 300.862409 183.396662 305.681362 179.497071 308.863654 174.335286 311.326749 170.340327 312.531129 165.639169 313.476237 161.078678 315.803499 149.848638 316.009869 138.321049 316.201465 126.897411 316.222435 125.644755 313.881351 125.941349 313.862764 127.046185 313.705008 136.450409 313.507693 145.863215 312.180348 155.190191 310.968818 163.705586 309.113395 172.347343 302.896083 178.697411 298.855902 182.823978 293.733828 185.902452 288.496892 188.252793 286.71153 189.053883 284.898048 190.011853 282.925856 189.259401 281.634733 188.767302 280.376496 188.039646 279.177358 187.36921 276.701395 185.985899 274.334575 184.39564 272.131706 182.608447 267.908033 179.18045 264.194326 174.890327 262.072004 169.832016 260.594529 166.310559 259.856744 162.442916 259.265754 158.684946 257.737758 148.969346 257.692481 139.083038 257.85691 129.273501 258.020385 119.535967 258.879704 109.916213 261.811778 100.575886 265.570762 88.6019755 276.075136 68.6600817 291.830268 74.7326294 299.769554 77.7925068 304.877806 86.0084469 308.005765 93.5067439 312.410548 104.065872 314.006699 115.66451 313.862764 127.046185 313.846559 128.299796 316.187643 128.001771 316.201465 126.897411M242.114646 199.973978C231.959624 202.149319 220.912396 202.180313 210.973752 198.936376 203.040662 196.347139 198.258407 189.438215 196.208529 181.582766 193.747817 172.151362 196.091284 162.424796 198.942812 153.355313 200.508936 148.374251 202.299064 143.461376 203.726973 138.436921 205.189674 133.290872 206.114287 128.017507 206.836344 122.72173 207.573652 117.312943 208.637911 111.678134 208.814255 106.221662 208.885745 104.008174 208.268542 101.973978 206.360692 100.718937 204.746908 99.6574932 202.411066 99.2965259 201.606557 97.3376703 201.301053 96.5938011 199.034797 97.297139 199.305032 97.9547003 199.868855 99.3279973 200.990783 99.978406 202.264272 100.622616 204.592487 101.801362 206.281099 102.765054 206.500337 105.706676 206.704324 108.446594 205.953671 111.468801 205.63244 114.189169 205.301676 116.992984 204.977108 119.797752 204.601066 122.595845 203.831349 128.324591 202.82476 134.017575 201.195247 139.569891 199.639132 144.873297 197.729375 150.064169 196.128459 155.353747 193.379402 164.433719 191.443909 174.122616 194.251589 183.426703 196.599822 191.207766 201.612276 197.6203 209.506762 200.119414 220.076908 203.465395 231.631243 203.33045 242.39632 201.024932 243.789913 200.725954 243.498231 199.677861 242.114646 199.973978"/>
    <path fill="#FFF" d="M276.740953,124.001567 C276.660884,129.369346 272.246568,133.656131 266.880949,133.576022 C261.51533,133.495913 257.230651,129.079428 257.31072,123.711172 C257.391267,118.343392 261.805582,114.056608 267.171201,114.136717 C272.536344,114.216826 276.821023,118.633311 276.740953,124.001567"/>
    <path fill="#989FDD" d="M275.571365,124.075954 C275.338781,128.855313 271.643186,133.041008 266.603088,132.663351 C262.016242,132.31955 258.413108,128.199183 258.480309,123.636785 C258.548464,119.022888 262.212603,114.987398 266.932422,115.044619 C271.852416,115.1047 275.481763,119.308038 275.571365,124.075954 C275.594718,125.331948 277.931036,125.027725 277.910542,123.92718 C277.79997,118.036308 273.246009,113.267916 267.260326,113.245504 C261.450035,113.223569 256.248844,117.867507 256.141608,123.785559 C256.034372,129.674046 260.971047,134.445777 266.791824,134.467234 C272.739378,134.489646 277.622672,129.844755 277.910542,123.92718 C277.971071,122.678815 275.625221,122.968256 275.571365,124.075954"/>
    <path fill="#FFF" d="M305.410174,124.429768 C305.330104,129.797548 300.915789,134.084332 295.55017,134.004223 C290.185027,133.924114 285.900348,129.507629 285.980418,124.139373 C286.060487,118.771594 290.474803,114.484809 295.840422,114.564918 C301.205565,114.645027 305.490244,119.061512 305.410174,124.429768"/>
    <path fill="#989FDD" d="M304.264416,124.592371 C304.027066,129.468529 300.257121,134.148706 294.951077,133.319482 C290.402836,132.608992 287.088524,128.455245 287.15096,123.904292 C287.220544,118.864101 291.516662,114.319823 296.758363,115.308787 C301.302316,116.166144 304.175767,120.276975 304.259173,124.738283 C304.271088,125.352929 306.576427,124.939986 306.561175,124.121253 C306.447743,118.06158 301.355695,113.581676 295.349996,114.00654 C289.839489,114.397071 284.923308,118.639033 284.8318,124.374932 C284.736479,130.356403 289.935763,134.835354 295.751774,134.585014 C301.45054,134.339441 306.274736,130.058856 306.555933,124.266689 C306.596921,123.426022 304.297778,123.907153 304.264416,124.592371"/>
    <path fill="#989FDD" d="M306.167023 123.565259C308.643462 122.448501 311.285761 121.737057 314.024333 121.866757 315.111946 121.918256 316.645661 121.987875 317.36867 122.964441 317.881497 123.656335 318.124089 125.651907 316.905887 125.929905 315.480361 126.255109 315.872607 127.682766 317.288601 127.359469 320.426091 126.643256 321.152437 122.483787 318.162218 121.011308 314.311249 119.114918 308.818853 120.71233 305.18617 122.351226 303.74301 123.002112 305.035086 124.075954 306.167023 123.565259M277.901963 126.367166C277.809978 124.615259 278.839445 122.470436 280.85882 122.49094 282.724252 122.510014 284.012516 124.261444 284.23938 125.953747 284.382361 127.023297 286.690559 126.452044 286.540905 125.336717 285.642982 118.637602 275.222013 119.949864 275.568982 126.537875 275.632847 127.752861 277.956773 127.403338 277.901963 126.367166M275.675741 155.272684C274.736353 154.928406 273.408531 154.339986 272.637861 154.645163 271.602675 155.055722 272.174601 156.379905 272.434827 157.208651 273.02963 159.102657 273.950908 161.074864 275.008971 162.702793 276.570329 165.105109 278.85279 165.974864 281.442662 165.28154 282.816237 164.913896 284.039682 163.98549 285.018152 162.87064 286.017593 161.731471 287.467425 159.804564 285.891293 158.448433 285.381802 158.010218 284.737432 157.825681 284.112603 157.651635 281.461726 156.912057 278.810849 156.172956 276.159495 155.433856 276.016514 155.393801 275.853038 155.337534 275.675741 155.272684M209.198398 95.4355586C207.685654 95.7302452 205.590975 96.152248 204.874161 97.7134196 204.024374 99.5645095 205.580966 101.105177 206.373084 102.591485 206.833961 103.456471 209.080677 102.735967 208.674609 101.974455 208.10459 100.904905 207.192368 100.00654 207.014118 98.7500681 206.783917 97.1254768 208.324305 97.0072207 209.555375 96.7673706 209.946668 96.6910763 210.660146 96.2881471 210.52765 95.793188 210.385145 95.2615123 209.575869 95.3621253 209.198398 95.4355586"/>
    <path fill="#989FDD" d="M208.921014 97.9470708C209.281328 100.562534 207.813861 101.882425 206.374037 103.815531 205.490888 105.001431 207.647526 105.477316 208.321445 104.572275 209.151214 103.457902 210.186877 102.451294 210.802651 101.191485 211.392211 99.9846049 211.40222 98.6332425 211.223016 97.3300409 211.067643 96.2008856 208.760398 96.7816757 208.921014 97.9470708M329.177989 201.738283C340.458276 211.505858 343.80738 227.492847 337.416583 240.952589 331.186879 254.07282 317.586955 264.669619 303.368875 267.514441 294.539291 269.281608 285.235484 268.416621 276.876786 265.091144 276.332026 264.874659 274.247832 265.738692 274.999915 266.03767 289.788015 271.920913 306.717025 269.933447 320.12869 261.583992 332.729173 253.73951 343.776877 240.218256 343.036709 224.629905 342.602999 215.49891 338.216803 206.880518 331.338916 200.925272 330.842294 200.494687 328.755717 201.372548 329.177989 201.738283"/>
    <path fill="#989FDD" d="M277.194681,270.940531 C278.688838,269.757493 280.183471,268.574455 281.678104,267.391417 C282.029839,267.112943 281.965497,266.873569 281.521778,266.808243 C281.035164,266.737193 280.283558,266.936512 279.894172,267.245027 C278.399539,268.427589 276.905382,269.610627 275.410749,270.793665 C275.059014,271.072139 275.123356,271.311512 275.567075,271.376839 C276.053689,271.448365 276.805295,271.248569 277.194681,270.940531"/>
    <path fill="#989FDD" d="M274.597184,268.865327 C275.843983,268.721798 277.090781,268.57827 278.33758,268.434741 C278.829913,268.377997 279.54625,268.095232 279.609639,267.518733 C279.671121,266.958924 278.996725,266.73767 278.552529,266.788692 C277.30573,266.932221 276.058931,267.075749 274.812133,267.219278 C274.3198,267.275545 273.603462,267.558787 273.540074,268.135286 C273.479069,268.695095 274.152988,268.916349 274.597184,268.865327"/>
    <g transform="translate(165 198)">
      <path fill="#DFE2FC" d="M49.965062,49.0904632 L3.61331882,49.0904632 C1.52340588,49.0904632 0.149353645,51.2758174 1.06014581,53.1574251 C6.11215887,63.5916213 20.2911578,90.9817439 33.0498738,97.9245232 C36.1182568,99.5939373 173.787996,97.9245232 173.787996,97.9245232 L173.787996,85.1185286 L99.1978825,85.1185286 C70.6087312,85.1185286 49.965062,74.5455722 49.965062,49.0904632" opacity=".35"/>
      <path fill="#989FDD" d="M1.19883787,47.9341281 C-0.543630033,50.6411444 -0.131366703,53.397752 1.19788466,56.2106267 C2.63675517,59.2552452 4.32155386,62.2188011 5.93247878,65.1742507 C9.476037,71.675 13.3389206,77.9850136 17.6259826,84.022752 C21.2367421,89.1082425 25.2478498,94.184673 30.5519869,97.598842 C31.8721828,98.4480926 32.5961458,98.7876022 34.0493145,98.9235014 C43.372185,99.7951635 52.9295452,99.4046322 62.2781523,99.4308583 C78.0966725,99.4747275 93.9156692,99.3950954 109.733713,99.2906676 C124.561848,99.1933924 139.389506,99.0627384 154.216688,98.9115804 C158.979402,98.8629428 163.741639,98.811921 168.503876,98.7580381 C170.256353,98.7380109 172.249515,98.9854905 173.980067,98.6416894 C176.611404,98.1185967 175.50711,95.365327 176.613787,93.6091281 C177.257203,92.5877384 174.922792,92.6392371 174.432366,93.4179155 C173.739859,94.51703 174.008187,95.5946866 173.614988,96.7472071 C172.625556,99.6468665 174.195493,96.806812 173.83089,97.1515668 C173.738429,97.2393052 173.26516,97.1382153 173.140289,97.1601499 C172.138466,97.3361035 170.962681,97.1854223 169.947513,97.1968665 C165.731941,97.2450272 161.51637,97.2908038 157.300322,97.334673 C143.593162,97.4777248 129.885049,97.6021798 116.176936,97.7008856 C90.1228466,97.8887602 63.9338781,98.6040191 37.8907508,97.5449591 C36.6653993,97.494891 35.3861915,97.5053815 34.1732318,97.3008174 C33.949704,97.2631471 33.772407,97.2183243 33.931593,97.266485 C33.7933776,97.225 33.2143025,96.889782 32.6595343,96.5440736 C29.4910642,94.5694823 26.8020588,91.930654 24.3904374,89.1010899 C19.4742568,83.3337193 15.3211208,76.8110354 11.4915996,70.2888283 C9.42504026,66.7697548 7.47858542,63.1839237 5.58646355,59.5685286 C3.72246137,56.00797 0.847103373,52.0616485 3.38025898,48.1253406 C4.03177802,47.1130109 1.69641349,47.1611717 1.19883787,47.9341281"/>
      <path fill="#FFF" d="M54.1925484,47.5264305 L4.73715343,47.5264305 C4.73715343,47.5264305 22.3014777,84.5172343 37.7315647,92.4551771 C40.7174951,93.9910763 174.691162,92.4551771 174.691162,92.4551771 L174.691162,80.6734332 L102.103743,80.6734332 C74.281926,80.6734332 54.1925484,70.9459128 54.1925484,47.5264305"/>
      <path fill="#989FDD" d="M54.2845332,46.6466621 C39.8619891,46.6466621 25.439445,46.6466621 11.016901,46.6466621 C8.95415452,46.6466621 6.89188466,46.6466621 4.82913819,46.6466621 C4.38398912,46.6466621 3.28207835,47.1955041 3.58615234,47.8349455 C5.95058977,52.8059946 8.58907508,57.6583106 11.3448052,62.4205041 C16.3429619,71.05797 21.8382176,79.7526567 28.8791034,86.8876022 C31.9932405,90.0433243 35.3046921,93.3487738 39.8696148,93.6081744 C44.100914,93.8489782 48.3498477,93.8718665 52.5863896,93.9200272 C67.6785637,94.0931199 82.7735974,94.0273161 97.8657715,93.9591281 C114.380612,93.8847411 130.894975,93.7593324 147.409338,93.6091281 C153.363565,93.5547684 159.317314,93.4970708 165.271541,93.4355586 C168.216007,93.4050409 171.259606,93.5924387 174.19597,93.3397139 C174.328466,93.3282698 174.465728,93.3368529 174.599177,93.3354223 C175.07054,93.3301771 175.859798,92.9358311 175.859798,92.3779292 C175.859798,88.4506812 175.859798,84.5234332 175.859798,80.5961853 C175.859798,79.9915531 175.307412,79.793188 174.783624,79.793188 C159.933565,79.793188 145.083506,79.793188 130.233924,79.793188 C122.0978,79.793188 113.962152,79.793188 105.826028,79.793188 C96.6937998,79.793188 87.514864,79.4388965 78.7195952,76.7170981 C72.3817018,74.7563351 66.2149097,71.5729564 61.8539739,66.4550409 C57.3090686,61.1220708 55.4131338,54.3690736 55.3611839,47.4491826 C55.3521284,46.205109 53.0158107,46.5174387 53.0239129,47.6041553 C53.0682372,53.5489101 54.3259978,59.4326294 57.5421284,64.4995232 C60.6205201,69.349455 65.217852,72.9696185 70.3146659,75.513079 C80.3424353,80.51703 91.9239369,81.5536785 102.964968,81.5536785 C120.475913,81.5536785 137.986857,81.5536785 155.497802,81.5536785 C161.864768,81.5536785 168.231734,81.5536785 174.599177,81.5536785 C174.240294,81.2861717 173.88141,81.0186649 173.522527,80.751158 C173.522527,84.678406 173.522527,88.605654 173.522527,92.5329019 C173.942892,92.2134196 174.363258,91.8944142 174.783624,91.5749319 C167.670294,91.6564714 160.556964,91.7270436 153.443634,91.7942779 C137.782871,91.9430518 122.12163,92.0694142 106.46039,92.1566757 C90.7695996,92.2434605 75.0773798,92.3140327 59.3861132,92.2167575 C54.1734842,92.1843324 48.9579956,92.1504768 43.7472731,91.9931199 C42.3532035,91.951158 40.952938,91.9153951 39.5626812,91.7961853 C38.0542263,91.6669619 37.6481589,91.3212534 36.0858477,90.2326294 C28.1913624,84.731812 22.4425528,75.9498638 17.3933993,67.9313351 C13.4037388,61.5950954 9.74388901,55.0318801 6.42671817,48.3184605 C6.29183896,48.0461853 5.82047661,47.0758174 5.88815452,47.2179155 C5.47350816,47.6141689 5.05933841,48.0104223 4.64516866,48.4066757 C19.0677127,48.4066757 33.4902568,48.4066757 47.9128009,48.4066757 C49.9755473,48.4066757 52.0378172,48.4066757 54.1000871,48.4066757 C55.4412535,48.4066757 55.8439848,46.6466621 54.2845332,46.6466621"/>
      <path fill="#DFE2FC" d="M50.6809227,83.8043597 C84.1452666,84.7794959 117.630581,86.2481608 151.110653,86.149455 C151.978074,86.1470708 153.461745,85.9019755 153.824442,84.9411444 C154.148533,84.0828338 153.539432,83.426703 152.623397,83.4290872 C119.143325,83.5282698 85.6580109,82.0596049 52.193667,81.0844687 C51.3314886,81.0591962 49.8354255,81.3495913 49.4794015,82.2927793 C49.1476844,83.1720708 49.7715604,83.7781335 50.6809227,83.8043597" opacity=".35"/>
      <path fill="#FFF" d="M53.2879521,79.0378747 L153.782977,81.9661444 C156.995771,82.0596049 159.698122,79.0998638 159.806788,75.3681199 L159.818226,74.9713896 C159.824422,74.7525204 159.676675,74.5703678 159.488416,74.5651226 L142.388305,74.0668256 L140.532405,73.8560627 C135.196812,75.2198229 133.702655,63.4685967 133.272281,60.1674387 C131.359188,45.4984332 129.255454,20.4557902 128.37993,8.89625341 C128.115891,5.41246594 125.298202,2.67111717 121.809454,2.51709809 C104.434818,1.74938692 55.3740522,1.54243869 39.1656692,1.49427793 C36.3394015,1.48617166 34.1374864,3.92615804 34.4344113,6.73807902 C36.2640979,24.0945504 42.4199282,78.5047684 47.7192992,79.0598093 L53.2879521,79.0378747"/>
      <path fill="#DFE2FC" d="M90.6776148,29.3893733 L81.8728139,29.1328338 C79.6871034,29.0689373 77.8636126,30.7898501 77.8002242,32.9766349 L77.5828923,40.4320163 C77.5195038,42.6183243 79.2395713,44.4427112 81.4252818,44.5061308 L90.2300827,44.7626703 C92.4157933,44.8265668 94.2388074,43.105654 94.3026725,40.9188692 L94.5195277,33.4634877 C94.5833928,31.2771798 92.8633254,29.4527929 90.6776148,29.3893733" opacity=".35"/>
      <path fill="#989FDD" d="M52.5573166,79.5671662 C72.6938781,80.1536785 92.829963,80.7406676 112.966048,81.3271798 C124.337367,81.6585831 135.708686,81.9899864 147.080004,82.3213896 C149.063634,82.3790872 151.055843,82.4978202 153.040427,82.4949591 C156.234633,82.4901907 159.188631,80.8679837 160.412553,77.8061989 C160.779539,76.8882834 161.582141,74.6800409 160.422561,74.0763624 C159.927369,73.8188692 158.894089,73.9972071 158.379356,73.9819482 C153.152905,73.8298365 147.845909,73.9390327 142.637569,73.4826975 C141.335008,73.368733 139.823217,73.5990463 138.764677,72.7869891 C137.37585,71.7217302 136.671904,69.8282016 136.13477,68.2188692 C135.054783,64.9820845 134.632511,61.5683924 134.211193,58.1966621 C132.954862,48.1544278 132.022622,38.0692779 131.131848,27.9893733 C130.725304,23.3893052 130.336871,18.7873297 129.967978,14.1844005 C129.716331,11.044891 130.280155,5.89788828 127.861861,3.55231608 C125.741445,1.49570845 122.101613,1.97254768 119.364947,1.89434605 C116.156918,1.80231608 112.948413,1.73365123 109.739909,1.6726158 C101.164831,1.51001362 92.5883243,1.40463215 84.0118172,1.31355586 C75.1741306,1.21961853 66.3354908,1.14523161 57.4973275,1.08228883 C51.238074,1.03794278 44.8487073,0.626907357 38.5970794,0.965940054 C34.898148,1.16668937 32.9121349,3.52942779 33.2924657,7.13576294 C33.5774755,9.83419619 33.8720174,12.5311989 34.1751382,15.2277248 C35.0315974,22.8495232 35.9547813,30.4646458 36.9818651,38.0654632 C38.0551795,46.0072207 39.2152361,53.9461172 40.7065332,61.821594 C41.6773776,66.9485695 42.4737845,72.7035422 44.8320261,77.426158 C45.3024353,78.369346 45.8605397,79.4064714 46.9891404,79.5891008 C47.5734581,79.6839918 49.656222,78.7260218 48.4499347,78.5305177 C47.5705985,78.3879428 46.8618868,76.2474114 46.5792601,75.5254768 C45.7442481,73.3944823 45.1732753,71.1542916 44.6394777,68.9326975 C43.0156844,62.1782698 41.9032884,55.2955722 40.8566638,48.4324251 C38.7643678,34.7147139 37.1224635,20.9254768 35.6588096,7.12765668 C35.4500566,5.15878747 35.0835473,2.51328338 37.7773188,2.0383515 C38.9102089,1.83855586 40.3099978,2.051703 41.4600457,2.05790191 C44.4426398,2.07459128 47.4252339,2.09271117 50.4078281,2.11226158 C58.4371926,2.16423706 66.4665571,2.22527248 74.495445,2.2996594 C89.6934255,2.44080381 104.903798,2.51423706 120.095106,3.02016349 C121.525874,3.06784741 123.169684,2.94339237 124.479395,3.55183924 C126.927715,4.68957766 127.065454,7.05279292 127.242751,9.38692098 C127.528714,13.1577657 127.833741,16.9271798 128.149254,20.6956403 C128.971874,30.5218665 129.856929,40.3447548 130.91118,50.1485695 C131.324396,53.9904632 131.739996,57.8371253 132.279989,61.6632834 C132.726568,64.823297 133.278,68.1735695 134.724973,71.0508174 C136.053748,73.6925068 137.60319,74.3815395 140.28314,74.4401907 C142.070886,74.4792916 143.880078,74.6609673 145.674973,74.7129428 C148.896346,74.8068801 152.117243,74.9008174 155.338139,74.9947548 C156.064009,75.0157357 157.665878,74.7572888 158.34504,75.0824932 C158.762546,75.2822888 158.4742,74.9294278 158.667225,75.2799046 C159.081395,76.0314033 158.209208,78.0841962 157.867482,78.7512943 C156.141219,82.1206403 153.169587,81.3972752 150.116931,81.3085831 C140.063902,81.0158038 130.011349,80.7225477 119.958797,80.4297684 C98.4000457,79.8017711 76.8417715,79.173297 55.2830207,78.5452997 C54.8617018,78.5329019 54.4399064,78.5205041 54.0185876,78.5085831 C53.4476148,78.4918937 51.3777193,79.5328338 52.5573166,79.5671662"/>
      <path fill="#989FDD" d="M47.7297845,71.9987738 C57.063617,72.2705722 66.397926,72.5428474 75.7317584,72.8146458 C90.5251012,73.2457084 105.317967,73.6767711 120.11131,74.1078338 C123.533334,74.2074932 126.955835,74.3071526 130.378335,74.4072888 C131.283885,74.433515 132.812834,73.0974114 131.260531,73.0521117 C121.926699,72.7803134 112.59239,72.508515 103.258557,72.2362398 C88.4652144,71.8051771 73.6723482,71.3741144 58.8790054,70.9430518 C55.4569815,70.8433924 52.034481,70.743733 48.6119804,70.6440736 C47.7064309,70.6173706 46.177482,71.9534741 47.7297845,71.9987738"/>
    </g>
    <path fill="#E5E5E5" d="M0.354117519,147.991349 L0.662957563,262.255858 C0.670106638,265.037262 2.93016757,267.286035 5.71020457,267.278406 L108.287993,267.001362 C111.068507,266.993733 113.316176,264.733038 113.308551,261.951158 L113.260413,244.14312 L113.149365,234.328338 L112.856252,125.817371 C112.848627,123.035967 110.589042,120.787193 107.809005,120.794823 L27.0897519,121.012738 L0.354594124,147.967507 L0.354117519,147.991349"/>
    <path fill="#FFF" d="M1.9521741,150.533856 L2.26053754,264.798365 C2.26816322,267.579768 4.52774755,269.828542 7.30826115,269.820913 L109.88605,269.543869 C112.666087,269.53624 114.913756,267.275545 114.906131,264.493665 L114.85847,246.685627 L114.747421,236.870845 L114.454309,128.359877 C114.446683,125.578474 112.186622,123.3297 109.406585,123.33733 L28.6878085,123.555245 L1.95265071,150.510014 L1.9521741,150.533856"/>
    <path fill="#989FDD" d="M2.46023504,150.719346 L2.76812187,264.796935 C2.77479434,267.294142 4.81085092,269.320232 7.30683134,269.313556 L109.88462,269.036512 C112.380601,269.02936 114.405695,266.992302 114.399023,264.495095 L114.350886,246.687057 L114.239837,236.876567 L113.946725,128.361308 C113.940052,125.864101 111.903996,123.838011 109.408015,123.844687 L28.8994211,124.062602 L2.46023504,150.719346 Z M109.88748,270.051703 L7.30969097,270.328747 C4.25417628,270.336853 1.7615321,267.856812 1.75342982,264.799796 L1.44458977,150.535286 C1.44458977,150.531948 1.44458977,150.528134 1.44458977,150.524796 L1.44506638,150.500954 C1.4474494,150.3703 1.50035256,150.245368 1.59233732,150.152384 L28.3274951,123.197616 C28.4223395,123.102248 28.5514995,123.047888 28.6863787,123.047888 L109.405156,122.829496 C112.461147,122.82139 114.953314,125.301907 114.961893,128.358924 L115.254529,236.869414 L115.365578,246.679905 L115.413715,264.492711 C115.421817,267.549728 112.942995,270.04312 109.88748,270.051703 Z"/>
    <path fill="#989FDD" d="M2.69853754,150.817098 L3.00642437,264.796458 C3.01262024,267.158243 4.93524483,269.075136 7.29491621,269.075136 C7.29872905,269.075136 7.30254189,269.075136 7.30635473,269.075136 L109.884144,268.797616 C111.027519,268.794755 112.102263,268.345095 112.911539,267.531608 C113.719861,266.71812 114.16358,265.639986 114.16072,264.496049 L114.112583,246.687534 L114.001534,236.879905 L113.708899,128.362262 C113.702226,126.000477 111.779602,124.083106 109.420407,124.083106 C109.416594,124.083106 109.412781,124.083106 109.408968,124.083106 L28.9990316,124.300545 L2.69853754,150.817098 Z M7.29491621,269.551975 C4.67311208,269.551975 2.53649184,267.421935 2.52981937,264.797411 L2.22145593,150.621117 L28.7998107,123.824183 L28.8989445,123.824183 L109.407539,123.606267 C109.411828,123.606267 109.416118,123.606267 109.420407,123.606267 C110.686746,123.606267 111.878736,124.099319 112.779042,124.9953 C113.682209,125.894142 114.181691,127.089578 114.185504,128.360831 L114.478139,236.876567 L114.589188,246.684196 L114.637325,264.495095 C114.640662,265.766349 114.147852,266.963692 113.249452,267.867779 C112.350575,268.77139 111.156202,269.271117 109.885573,269.274455 L7.30778455,269.551975 C7.3034951,269.551975 7.29872905,269.551975 7.29491621,269.551975 Z M109.420884,123.067916 C109.415641,123.067916 109.410875,123.067916 109.406109,123.067916 L28.6868553,123.286308 C28.6148879,123.286308 28.54721,123.314441 28.4966899,123.365463 L1.7615321,150.320232 C1.71244178,150.369823 1.68479869,150.435627 1.68336888,150.505245 L1.99173232,264.799319 C1.99554516,266.214101 2.55126659,267.544005 3.55642655,268.544891 C4.55872688,269.541962 5.88559521,270.090327 7.293963,270.090327 C7.29872905,270.090327 7.30397171,270.090327 7.30873776,270.090327 L109.886527,269.813283 L109.88748,270.051703 L109.886527,269.813283 C112.810498,269.805177 115.183038,267.418597 115.175412,264.493188 L115.127275,246.679905 L115.016226,236.872275 L114.723114,128.359401 C114.719778,126.944619 114.16358,125.614237 113.15842,124.613828 C112.15612,123.616757 110.829728,123.067916 109.420884,123.067916 Z M7.293963,270.567166 C5.75834168,270.567166 4.31232209,269.96921 3.22042002,268.88297 C2.12470511,267.792916 1.51941676,266.342847 1.51512731,264.800272 L1.20628727,150.535763 C1.21057671,150.303542 1.28683351,150.121866 1.42266594,149.985014 L28.1583003,123.029768 C28.2988988,122.888147 28.4866812,122.809469 28.6859021,122.809469 L109.404679,122.591076 C109.409922,122.591076 109.415641,122.591076 109.420884,122.591076 C110.956505,122.591076 112.402524,123.189033 113.494427,124.275749 C114.590141,125.365804 115.195906,126.815872 115.199719,128.35797 L115.492831,236.868937 L115.60388,246.676567 L115.652017,264.492234 C115.660596,267.680381 113.074538,270.281063 109.887956,270.290123 L7.31016757,270.567166 C7.30492492,270.567166 7.29920566,270.567166 7.293963,270.567166 Z"/>
    <path fill="#FFF" d="M23.4713667,150.983515 L1.86876823,151.041689 C1.66382807,151.042643 1.47842873,150.919142 1.3993123,150.729837 C1.32019587,150.540054 1.36309032,150.321662 1.50797824,150.176226 L28.3279717,123.197616 C28.472383,123.051703 28.6911447,123.007834 28.8808335,123.086035 C29.0705223,123.16376 29.1944396,123.348774 29.1953928,123.553815 L29.2535386,145.16703 C29.2621175,148.365668 26.6684331,150.974932 23.4713667,150.983515"/>
    <path fill="#989FDD" d="M3.09126007,150.023161 L23.4685071,149.968324 C26.1060392,149.961172 28.2459956,147.808719 28.2388466,145.169891 L28.1835604,124.782629 L3.09126007,150.023161 Z M23.4713667,150.983515 L1.86876823,151.041689 C1.66382807,151.042643 1.47842873,150.919142 1.3993123,150.729837 C1.32019587,150.540054 1.36309032,150.321662 1.50797824,150.176226 L28.3279717,123.197616 C28.472383,123.051703 28.6911447,123.007834 28.8808335,123.086035 C29.0705223,123.16376 29.1944396,123.348774 29.1953928,123.553815 L29.2535386,145.16703 C29.2621175,148.365668 26.6684331,150.974932 23.4713667,150.983515 Z"/>
    <path fill="#DFE2FC" d="M16.9390185 246.674183C26.6498455 246.647956 36.3606725 246.62173 46.0714995 246.595504 61.5702176 246.553542 77.0689358 246.51158 92.567654 246.469619 96.1531534 246.460082 99.7381763 246.450545 103.323676 246.440531 103.817439 246.439578 105.927845 245.492575 104.814973 245.495913 95.1041458 245.522139 85.3933188 245.548365 75.6824918 245.574591 60.1837737 245.616553 44.6850555 245.658515 29.1863373 245.7 25.6008379 245.710014 22.015815 245.71955 18.4303156 245.729087 17.9365528 245.730518 15.8266224 246.677044 16.9390185 246.674183M17.2607269 251.675272C26.9715539 251.649046 36.6823808 251.62282 46.3932078 251.596594 61.891926 251.554632 77.3911208 251.51267 92.889839 251.470708 96.4748618 251.461172 100.060361 251.451635 103.645384 251.442098 104.562849 251.439237 106.069397 250.050204 104.519001 250.054496 94.8081741 250.080722 85.0973471 250.106948 75.3865201 250.133174 59.887802 250.175136 44.3890838 250.217098 28.8903656 250.25906 25.3048662 250.268597 21.7198433 250.278134 18.1343439 250.288147 17.2168792 250.290531 15.7108074 251.679564 17.2607269 251.675272M17.2526246 256.967234C29.9231687 256.933379 42.5932361 256.899046 55.2637802 256.864714 56.0711491 256.86233 57.7263983 255.644005 56.1831513 255.64782 43.5126072 255.682153 30.8420631 255.716485 18.1719956 255.750817 17.3646268 255.753202 15.7093776 256.971526 17.2526246 256.967234" opacity=".35"/>
    <path fill="#989FDD" d="M36.0567922,153.00797 C46.1155408,152.98079 56.1738128,152.95361 66.2325615,152.926431 C67.558,152.922616 67.9898041,151.202657 66.4274929,151.206948 C56.3692209,151.234128 46.3109489,151.261308 36.2522002,151.288488 C34.9262851,151.292302 34.4949576,153.012262 36.0567922,153.00797"/>
    <path fill="#31C766" d="M39.2480469 177.310547L41.4804688 177.310547 41.4804688 178.365234 41.6503906 178.365234C42.3847693 178.365234 43.0263644 178.499999 43.5751953 178.769531 44.1240262 179.039064 44.545897 179.417966 44.8408203 179.90625 45.1357437 180.394534 45.2832031 180.949216 45.2832031 181.570312 45.2832031 182.218753 45.1386733 182.78613 44.8496094 183.272461 44.5605454 183.758791 44.1367215 184.134764 43.578125 184.400391 43.0195285 184.666017 42.343754 184.798828 41.5507812 184.798828L41.4804688 184.798828 41.4804688 186.117188 39.2480469 186.117188 39.2480469 184.798828 39.1308594 184.798828C38.3417929 184.798828 37.6709012 184.668947 37.1181641 184.40918 36.5654269 184.149413 36.1484389 183.778323 35.8671875 183.295898 35.5859361 182.813474 35.4453125 182.234378 35.4453125 181.558594 35.4453125 180.921872 35.5947251 180.356448 35.8935547 179.862305 36.1923843 179.368162 36.6103489 178.995118 37.1474609 178.743164 37.684573 178.49121 38.3124964 178.365234 39.03125 178.365234L39.2480469 178.365234 39.2480469 177.310547zM41.4804688 183.046875L41.5507812 183.046875C42.0429712 183.046875 42.4121081 182.925782 42.6582031 182.683594 42.9042981 182.441405 43.0273438 182.066409 43.0273438 181.558594 43.0273438 181.113279 42.9003919 180.76465 42.6464844 180.512695 42.3925769 180.260741 42.0351586 180.134766 41.5742188 180.134766L41.4804688 180.134766 41.4804688 183.046875zM39.2480469 180.134766L39.1132812 180.134766C38.6562477 180.134766 38.3066418 180.255858 38.0644531 180.498047 37.8222644 180.740236 37.7011719 181.093748 37.7011719 181.558594 37.7011719 182.08594 37.8193348 182.465819 38.0556641 182.698242 38.2919934 182.930665 38.6503882 183.046875 39.1308594 183.046875L39.2480469 183.046875 39.2480469 180.134766zM54.5960937 186L52.2699218 186 52.2699218 182.507812 49.5804687 182.507812 49.5804687 186 47.2542968 186 47.2542968 177.433594 49.5804687 177.433594 49.5804687 180.609375 52.2699218 180.609375 52.2699218 177.433594 54.5960937 177.433594 54.5960937 186zM60.8621093 179.208984C60.3113253 179.208984 59.8816421 179.434568 59.5730468 179.885742 59.2644515 180.336916 59.1101562 180.95898 59.1101562 181.751953 59.1101562 183.400399 59.737103 184.224609 60.9910156 184.224609 61.3699237 184.224609 61.7371075 184.171876 62.0925781 184.066406 62.4480486 183.960937 62.8054669 183.833985 63.1648437 183.685547L63.1648437 185.642578C62.4499964 185.958986 61.6414107 186.117188 60.7390624 186.117188 59.4460872 186.117188 58.4548862 185.742191 57.7654296 184.992188 57.075973 184.242184 56.7312499 183.15821 56.7312499 181.740234 56.7312499 180.853511 56.8982404 180.074222 57.2322265 179.402344 57.5662125 178.730465 58.0466765 178.213869 58.6736327 177.852539 59.300589 177.491209 60.0378863 177.310547 60.8855468 177.310547 61.8113327 177.310547 62.6960895 177.511717 63.5398437 177.914062L62.8308593 179.736328C62.5144515 179.58789 62.1980484 179.462891 61.8816406 179.361328 61.5652327 179.259765 61.2253924 179.208984 60.8621093 179.208984zM81.9414062 181.705078C81.9414062 183.146492 81.5878942 184.242184 80.8808594 184.992188 80.1738246 185.742191 79.1386787 186.117188 77.7753906 186.117188 76.4316339 186.117188 75.4013708 185.740238 74.6845703 184.986328 73.9677699 184.232418 73.609375 183.134773 73.609375 181.693359 73.609375 180.267571 73.9658167 179.178715 74.6787109 178.426758 75.3916051 177.674801 76.4277276 177.298828 77.7871094 177.298828 79.1503974 177.298828 80.1835902 177.671871 80.8867188 178.417969 81.5898473 179.164066 81.9414062 180.259758 81.9414062 181.705078zM76.046875 181.705078C76.046875 183.361336 76.6230411 184.189453 77.7753906 184.189453 78.3613311 184.189453 78.795897 183.988283 79.0791016 183.585938 79.3623061 183.183592 79.5039062 182.556645 79.5039062 181.705078 79.5039062 180.849605 79.360353 180.217775 79.0732422 179.80957 78.7861314 179.401365 78.3574247 179.197266 77.7871094 179.197266 76.6269473 179.197266 76.046875 180.033195 76.046875 181.705078zM87.4105468 177.310547L89.6429687 177.310547 89.6429687 178.365234 89.8128906 178.365234C90.5472693 178.365234 91.1888644 178.499999 91.7376953 178.769531 92.2865261 179.039064 92.7083969 179.417966 93.0033203 179.90625 93.2982436 180.394534 93.4457031 180.949216 93.4457031 181.570312 93.4457031 182.218753 93.3011733 182.78613 93.0121093 183.272461 92.7230454 183.758791 92.2992215 184.134764 91.740625 184.400391 91.1820284 184.666017 90.5062539 184.798828 89.7132812 184.798828L89.6429687 184.798828 89.6429687 186.117188 87.4105468 186.117188 87.4105468 184.798828 87.2933593 184.798828C86.5042929 184.798828 85.8334012 184.668947 85.280664 184.40918 84.7279269 184.149413 84.3109389 183.778323 84.0296875 183.295898 83.7484361 182.813474 83.6078125 182.234378 83.6078125 181.558594 83.6078125 180.921872 83.757225 180.356448 84.0560547 179.862305 84.3548843 179.368162 84.7728488 178.995118 85.3099609 178.743164 85.847073 178.49121 86.4749964 178.365234 87.19375 178.365234L87.4105468 178.365234 87.4105468 177.310547zM89.6429687 183.046875L89.7132812 183.046875C90.2054712 183.046875 90.5746081 182.925782 90.8207031 182.683594 91.0667981 182.441405 91.1898437 182.066409 91.1898437 181.558594 91.1898437 181.113279 91.0628919 180.76465 90.8089843 180.512695 90.5550768 180.260741 90.1976585 180.134766 89.7367187 180.134766L89.6429687 180.134766 89.6429687 183.046875zM87.4105468 180.134766L87.2757812 180.134766C86.8187477 180.134766 86.4691418 180.255858 86.2269531 180.498047 85.9847644 180.740236 85.8636718 181.093748 85.8636718 181.558594 85.8636718 182.08594 85.9818347 182.465819 86.218164 182.698242 86.4544933 182.930665 86.8128882 183.046875 87.2933593 183.046875L87.4105468 183.046875 87.4105468 180.134766zM103.801562 188.666016L101.545703 188.666016 101.545703 186 96.5535156 186 96.5535156 188.666016 94.2976562 188.666016 94.2976562 184.101562 95.0066406 184.101562C95.5183619 183.234371 95.9402326 182.231451 96.2722656 181.092773 96.6042985 179.954096 96.8191401 178.734382 96.9167968 177.433594L102.629687 177.433594 102.629687 184.101562 103.801562 184.101562 103.801562 188.666016zM100.297656 184.101562L100.297656 179.326172 98.7742187 179.326172C98.6140616 180.998055 98.1746129 182.589836 97.4558593 184.101562L100.297656 184.101562z"/>
    <path fill="#989FDD" d="M35.6945724 157.486921C45.7528444 157.459741 55.811593 157.432561 65.8698651 157.405381 66.6138455 157.403474 68.3515473 156.283856 66.815926 156.288147 56.757654 156.315327 46.6989053 156.342507 36.6406333 156.369687 35.8961763 156.371594 34.158951 157.490736 35.6945724 157.486921M35.6940958 162.808924C40.1203264 162.797003 44.5460805 162.785082 48.9723112 162.773161 49.6476605 162.771253 51.4716279 161.762262 49.9479217 161.766553 45.521691 161.778474 41.0959369 161.790395 36.6697062 161.802316 35.9938803 161.804223 34.1703896 162.813215 35.6940958 162.808924"/>
    <path fill="#DFE2FC" d="M28.3699129,209.015327 C28.2321741,211.713283 26.3257541,214.450817 23.2816779,213.844755 C20.8905506,213.368392 19.2610381,211.047616 19.2572252,208.690599 C19.2519826,205.769959 21.725086,203.140668 24.775358,204.097684 C27.0463808,204.810559 28.2440892,206.918665 28.3727726,209.18985 C28.4170968,209.98188 30.7267247,209.498365 30.6742982,208.572343 C30.1976931,200.141349 16.911852,200.984401 16.9190011,209.133583 C16.9266268,217.665191 30.2653711,216.798774 30.6771578,208.746866 C30.7272013,207.759332 28.4118542,208.198978 28.3699129,209.015327" opacity=".35"/>
    <path fill="#989FDD" d="M36.2548662,204.136785 C56.0511317,204.083379 75.8469206,204.029496 95.6431861,203.97609 C98.4327552,203.96846 101.222801,203.961308 104.01237,203.953678 C104.969393,203.950817 106.420655,202.501226 104.869782,202.505041 C85.0735169,202.558924 65.277728,202.61233 45.4814625,202.665736 C42.6918934,202.673365 39.9018477,202.680995 37.1122786,202.688147 C36.1552557,202.691008 34.7039935,204.141076 36.2548662,204.136785"/>
    <path fill="#DFE2FC" d="M36.2734538,208.938556 C56.0697193,208.88515 75.8659848,208.831744 95.6617737,208.777861 C98.4518194,208.770708 101.241388,208.763079 104.031434,208.75545 C105.016577,208.752589 106.427804,207.259128 104.876931,207.26342 C85.0806659,207.316826 65.284877,207.370232 45.4886115,207.423638 C42.6985658,207.431267 39.9089967,207.438896 37.1194276,207.446526 C36.1338085,207.44891 34.7230577,208.942847 36.2734538,208.938556" opacity=".35"/>
    <path fill="#989FDD" d="M36.256296,214.196662 C46.1944635,214.169959 56.1331077,214.142779 66.0712753,214.116076 C66.9024744,214.113692 68.5262677,212.858174 66.9806376,212.862466 C57.0424701,212.889169 47.1038259,212.916349 37.1656583,212.943052 C36.3344592,212.945436 34.7106659,214.200954 36.256296,214.196662"/>
    <path fill="#DFE2FC" d="M27.9452579 228.921458C27.8032296 231.704768 25.71284 234.746526 22.4967095 233.698433 20.2847856 232.977452 18.8320936 230.837398 18.8192252 228.546185 18.8025441 225.584537 21.3452318 222.741621 24.5089358 223.948025 26.6727225 224.773433 27.8132383 226.840054 27.939062 229.062125 27.9733776 229.668665 30.2853885 229.232834 30.2405876 228.445095 29.768272 220.089441 16.5186529 221.019278 16.4900566 229.023025 16.4600305 237.480722 29.8302307 236.490327 30.2343917 228.585763 30.2758564 227.774183 27.9790968 228.257698 27.9452579 228.921458M35.8020914 223.937057C55.5978803 223.883651 75.3941458 223.830245 95.1904113 223.776362 97.9799804 223.76921 100.770026 223.76158 103.559595 223.753951 104.423203 223.751567 106.003149 222.445981 104.455613 222.449796 84.6593471 222.503678 64.8635582 222.557084 45.0672927 222.61049 42.2777236 222.61812 39.4876779 222.625749 36.6981088 222.632902 35.8340239 222.635286 34.2540783 223.941349 35.8020914 223.937057" opacity=".35"/>
    <path fill="#989FDD" d="M36.1519195 228.874728C55.9477084 228.820845 75.7439739 228.767439 95.5402394 228.714033 98.3298085 228.706403 101.119378 228.698774 103.909423 228.691144 105.198163 228.687807 105.698598 227.067984 104.131521 227.072275 84.3357323 227.126158 64.5394668 227.179564 44.7432013 227.23297 41.9536322 227.240599 39.1635865 227.248229 36.3740174 227.255381 35.0852775 227.259196 34.5848422 228.878542 36.1519195 228.874728M35.8483221 234.165736C45.7869663 234.139033 55.7251338 234.11233 65.663778 234.08515 66.6193711 234.082766 68.0720631 232.634128 66.5211904 232.63842 56.5830229 232.665123 46.6443787 232.692302 36.7062111 232.719005 35.7501415 232.721866 34.297926 234.170027 35.8483221 234.165736"/>
    <path fill="#FFF" d="M138.876979,130.108924 C138.876979,146.997139 125.193173,160.688147 108.313254,160.688147 C91.4328575,160.688147 77.7490511,146.997139 77.7490511,130.108924 C77.7490511,113.220708 91.4328575,99.5297003 108.313254,99.5297003 C125.193173,99.5297003 138.876979,113.220708 138.876979,130.108924"/>
    <path fill="#989FDD" d="M88.2138672,122.808992 C93.3316518,125.438283 97.2488683,130.459401 100.605597,134.991757 C102.732686,137.863283 104.75635,140.842575 106.551245,143.935354 C106.917277,144.566213 108.437171,144.107016 108.763645,143.612534 C112.643687,137.73549 116.792057,132.017234 121.089127,126.440123 C124.583119,121.904905 128.205793,117.45218 132.120627,113.27173 C135.330561,109.844687 138.832655,106.214033 143.064908,104.054905 C144.43324,103.356812 142.355243,103.155586 141.672268,103.503678 C134.894468,106.961717 129.520746,113.55688 124.727053,119.279428 C119.369536,125.674796 114.39378,132.394891 109.635356,139.245163 C108.624,140.700954 107.617887,142.161989 106.640847,143.641144 C107.378155,143.533856 108.115462,143.42609 108.853247,143.318324 C107.009739,140.142575 104.937937,137.07936 102.754133,134.131063 C99.2996997,129.467098 95.3248139,124.473638 90.0664309,121.771866 C89.4730577,121.467166 87.3493058,122.365054 88.2138672,122.808992"/>
    <path fill="#989FDD" d="M137.725978 130.417439C137.621602 140.24748 132.907502 149.630722 124.777097 155.260286 116.059991 161.296117 104.583819 161.71955 95.2414081 156.826226 77.5269532 147.547411 73.4791469 122.956812 87.5261262 108.617779 96.9052361 99.0438011 111.250094 97.5393733 122.780598 104.169823 123.349188 104.496935 125.236067 103.552316 124.950104 103.387807 114.847508 97.5784741 102.250838 97.7501362 92.1854168 103.569959 82.9631099 108.902452 76.9574102 118.750136 76.6156844 129.421798 76.2601371 140.537398 82.1447791 151.198569 91.7135778 156.850068 100.801482 162.217371 112.208546 162.433379 121.730638 158.05218 132.789304 152.964305 139.898344 141.961717 140.02798 129.800409 140.031793 129.447071 137.733127 129.757016 137.725978 130.417439M176.87193 24.0126703C161.983743 15.7004087 145.615221 12.4631471 128.829669 16.0508856 112.953003 19.4440736 98.3345745 27.9690054 86.2507312 38.6492507 79.4657824 44.6459809 73.3680979 51.3675068 68.1378346 58.7632834 66.8815038 60.5395095 70.1271839 60.9729564 71.0112862 59.7226839 87.8230511 35.9508174 116.461293 14.6995232 146.951145 17.1209128 156.630039 17.8895777 165.76751 21.2560627 174.199129 25.9634196 175.468805 26.6724796 178.520984 24.93297 176.87193 24.0126703"/>
    <path fill="#989FDD" d="M67.5997476 44.5248638C68.8260522 51.0322888 68.0768292 57.5730926 65.4092709 63.6332425 65.1047203 64.3251362 68.3699412 63.8044278 68.820333 63.0457766 71.9134995 57.8334469 78.3281262 55.8087875 83.8891534 54.7277929 85.2832231 54.4564714 86.9289402 52.9043597 84.5106464 53.3745232 77.6089293 54.7163488 69.2645288 57.1367847 65.4092709 63.6332425 66.5464505 63.4372616 67.6831534 63.2417575 68.820333 63.0457766 71.527926 56.8955041 72.2966899 50.2030654 71.0522742 43.5993188 70.9069097 42.8263624 67.4295996 43.6226839 67.5997476 44.5248638M72.5254603 296.472888C83.8009815 314.712943 96.393839 334.15797 116.449378 343.62752 135.908683 352.815259 158.628921 350.632766 178.304605 343.319959 189.62588 339.111853 200.297543 333.108447 209.786272 325.634946 211.625491 324.186308 208.830679 323.095777 207.515726 324.131471 191.436503 336.795845 171.482004 345.657425 150.929843 347.074114 140.566067 347.788896 130.049778 346.38985 120.470017 342.269482 110.958888 338.179155 102.871854 331.423774 96.0359086 323.741417 88.210531 314.946117 81.8659652 304.96015 75.6920239 294.973706 74.9056257 293.701022 71.60037 294.976567 72.5254603 296.472888"/>
    <path fill="#989FDD" d="M206.303243,339.046049 C206.960958,332.57248 209.533671,326.507084 213.741617,321.545095 C214.51753,320.630041 211.152222,321.258038 210.605079,321.764918 C206.296094,325.755109 199.67462,325.489033 194.266107,324.968801 C193.478279,324.892984 190.308855,326.268665 192.042268,326.435082 C199.258544,327.128883 208.071924,326.795095 213.741617,321.545095 C212.695946,321.618529 211.650274,321.691485 210.605079,321.764918 C206.188857,326.97248 203.54084,333.175681 202.850716,339.971594 C202.798766,340.481812 206.193624,340.124659 206.303243,339.046049"/>
    <polyline fill="#CBCFEE" points="200.539 85.482 164.475 58.686 207.832 .277 243.896 27.072 200.539 85.482"/>
    <polyline fill="#FFF" points="203.696 82.579 169.403 57.099 209.663 2.861 243.956 28.342 203.696 82.579"/>
    <path fill="#FFF" d="M204.762855,82.119346 C198.983543,77.8254087 193.204707,73.5314714 187.425395,69.2375341 C183.535822,66.3478883 179.646725,63.4577657 175.757151,60.5681199 C174.465552,59.6082425 173.173952,58.6483651 171.881876,57.6889646 C171.594007,57.4748638 171.161726,57.0004087 170.816187,56.8969346 C170.30193,56.7424387 170.710857,56.320436 170.4859,57.1320163 C170.836205,55.8679155 172.616801,54.2614441 173.383182,53.2286104 C175.727602,50.0700272 178.072022,46.911921 180.416918,43.7533379 C186.618026,35.3991144 192.819134,27.044891 199.020242,18.6906676 C202.926496,13.4282698 206.832751,8.1653951 210.739482,2.90299728 C210.025051,3.04223433 209.311097,3.18147139 208.596666,3.32118529 C214.375502,7.61512262 220.154814,11.9090599 225.93365,16.2029973 C229.823223,19.0926431 233.712797,21.9827657 237.60237,24.8724114 C238.89397,25.8322888 240.185569,26.7921662 241.477169,27.7520436 C241.765038,27.9656676 242.197319,28.4401226 242.542857,28.5435967 C243.057591,28.6980926 242.648664,29.1200954 242.873145,28.3089918 C242.523317,29.5730926 240.74272,31.1790872 239.975863,32.211921 C237.631443,35.3705041 235.287023,38.5290872 232.942603,41.6871935 C226.741495,50.0414169 220.540387,58.3956403 214.338803,66.7498638 C210.432548,72.0122616 206.526294,77.2751362 202.620039,82.5375341 C201.983295,83.3953678 204.300548,83.2570845 204.772387,82.6209809 C216.520701,66.7942098 228.269014,50.9674387 240.016851,35.1406676 C241.688781,32.888079 243.360712,30.6359673 245.032642,28.3833787 C245.120337,28.2655995 245.167521,27.9895095 245.022633,27.8817439 C235.033946,20.460218 225.045734,13.0386921 215.057047,5.61716621 C213.614363,4.54523161 212.172157,3.473297 210.729473,2.4013624 C210.112746,1.94311989 209.03133,2.22064033 208.586657,2.81955041 C196.83882,18.6463215 185.090507,34.4730926 173.342194,50.3003406 C171.67074,52.5524523 169.99881,54.8050409 168.326879,57.0571526 C168.239184,57.1754087 168.191523,57.4510218 168.336888,57.5587875 C178.325099,64.9803134 188.313787,72.4018392 198.301998,79.8233651 C199.744681,80.8952997 201.187365,81.9672343 202.630048,83.0391689 C203.30635,83.5417575 205.432009,82.6166894 204.762855,82.119346"/>
    <path fill="#989FDD" d="M168.335458,57.5311308 C178.321763,64.9507493 188.308067,72.3708447 198.294372,79.7909401 C199.736579,80.8623978 201.178786,81.9343324 202.620992,83.0057902 C203.144781,83.3953678 204.381571,83.0615804 204.755706,82.5575613 C216.503543,66.7307902 228.251856,50.9040191 240.00017,35.077248 C241.671624,32.8246594 243.343554,30.5725477 245.015484,28.3199591 C245.095554,28.2121935 245.174194,28.0214578 245.031689,27.9151226 C235.070644,20.5141008 225.1096,13.1126022 215.148555,5.71158038 C213.709684,4.64250681 212.271291,3.57391008 210.83242,2.50483651 C210.244289,2.06757493 208.166292,2.97452316 208.681978,3.35742507 C214.445086,7.63991826 220.208194,11.9219346 225.971301,16.203951 C229.85039,19.0859673 233.729001,21.9679837 237.607613,24.85 C238.895876,25.8070163 240.184139,26.7640327 241.472403,27.7215259 C241.946148,28.0734332 242.816905,29.1129428 242.890303,28.3724114 C242.859323,28.6828338 242.213047,29.2846049 242.038133,29.5206403 C241.356111,30.4385559 240.674566,31.3569482 239.993021,32.2753406 C237.648601,35.4339237 235.304181,38.5925068 232.959761,41.7506131 C226.758176,50.1048365 220.557069,58.4590599 214.355961,66.8132834 C210.449706,72.0756812 206.543452,77.3385559 202.63672,82.6009537 C203.348292,82.451703 204.059863,82.3024523 204.771434,82.1527248 C194.785129,74.7331063 184.798825,67.3130109 174.81252,59.8929155 C173.370313,58.8214578 171.928107,57.7495232 170.4859,56.6780654 C169.897769,56.2408038 167.819771,57.147752 168.335458,57.5311308"/>
    <path fill="#989FDD" d="M210.608416 32.0121253C219.985143 29.613624 229.361869 27.2151226 238.739073 24.8166213 240.094061 24.4699591 239.87244 23.5887602 238.50363 23.9387602 229.126903 26.3372616 219.750176 28.7357629 210.373449 31.1342643 209.017985 31.4809264 209.239606 32.3621253 210.608416 32.0121253M199.512575 78.3070163C199.097928 68.6057221 198.683758 58.9044278 198.269589 49.2031335 198.23432 48.3734332 195.926598 48.8598093 195.967587 49.8201635 196.382233 59.5214578 196.796403 69.222752 197.210572 78.9240463 197.245841 79.7532698 199.553563 79.2673706 199.512575 78.3070163"/>
    <path fill="#989FDD" d="M208.506111,2.98215259 C208.864518,15.4243188 209.223402,27.866485 209.582285,40.3081744 C209.633758,42.1053815 209.685708,43.9021117 209.737658,45.6993188 C210.064133,45.4375341 210.390131,45.1757493 210.716605,44.9144414 C198.608455,48.2766349 186.499828,51.6388283 174.391201,55.000545 C172.669227,55.4788147 170.947254,55.9570845 169.22528,56.4353542 C169.645645,56.6794959 170.066011,56.9236376 170.486376,57.1673025 C182.23469,41.3405313 193.982527,25.5137602 205.73084,9.6869891 C207.40277,7.43440054 209.074701,5.18228883 210.746631,2.92970027 C211.415785,2.02799728 209.085186,2.11144414 208.579508,2.79284741 C196.831195,18.6196185 185.083358,34.4463896 173.335045,50.2731608 C171.663114,52.5257493 169.991661,54.777861 168.31973,57.0304496 C167.770681,57.7700272 169.216224,57.8639646 169.580827,57.7628747 C181.689454,54.4006812 193.797604,51.0384877 205.906231,47.6762943 C207.628205,47.1980245 209.350178,46.7197548 211.072152,46.2419619 C211.361452,46.161376 212.063491,45.8657357 212.051576,45.4570845 C211.692692,33.0149183 211.334285,20.5732289 210.975402,8.13106267 C210.923452,6.33385559 210.871978,4.53712534 210.820028,2.73991826 C210.789526,1.67275204 208.481328,2.12145777 208.506111,2.98215259"/>
  </g>
</svg>
