<svg xmlns="http://www.w3.org/2000/svg" xmlns:xlink="http://www.w3.org/1999/xlink" width="457" height="428" viewBox="0 0 457 428">
  <defs>
    <path id="people-a" d="M0.397,151.944 C10.685,89.705 36.105,-23.722 92.648,5.583 C128.676,24.256 143.177,76.787 153.124,153.26 C153.124,153.26 93.036,156.015 71.396,153.205 C53.063,150.824 0.397,151.944 0.397,151.944"/>
    <path id="people-c" d="M9.37755345,20 C12.7351426,20 14.7574658,17.7401846 16.4086661,15.5172414 C18.0556463,13.2999794 18.5849629,11.6470135 18.5849629,9.07747216 C18.5849629,3.93180558 16.1121158,0 9.37755345,0 C2.64299113,9.61271143e-16 0.170144026,3.93180558 0.170144026,9.07747216 C0.170144026,11.6158181 0.735094188,13.3116731 2.3464408,15.5172414 C4.00157266,17.7827417 6.0199643,20 9.37755345,20 Z"/>
    <path id="people-e" d="M4.85908941,11.8374595 C7.5154911,11.8374595 9.66893015,9.53360258 9.66893015,6.69165099 C9.66893015,4.30444698 6.44633685,0.0839050365 4.85908941,0.0839050365 C3.27184196,0.0839050365 0.0492486674,3.8496994 0.0492486674,6.69165099 C0.0492486674,9.53360258 2.20268772,11.8374595 4.85908941,11.8374595 Z"/>
  </defs>
  <g fill="none" fill-rule="evenodd">
    <g transform="translate(54)">
      <path fill="#CBCFEE" d="M237.228817,191.820072 L245.743615,191.820789 L245.743615,191.603584 L356.177784,191.825806 L356.184239,191.826523 C356.383625,191.821505 356.583012,191.822939 356.780963,191.833692 L356.254526,191.833692 L357.970826,191.999283 L359.77893,192.609319 L361.200453,193.44086 L362.730994,194.841577 L363.570137,195.987097 L364.114505,197.039427 L364.628749,198.746237 L364.628749,417.661649 L363.976082,420.015054 L362.527304,422.266667 L360.705574,424.015054 L358.734662,425.374194 L355.600425,426.309677 L253.107279,426.321864 C249.900603,426.358423 246.558373,424.486738 245.882755,419.395699 L245.743615,419.395699 L245.743615,198.74552 L230.004293,198.74552 C230.679911,193.655197 234.022141,191.783513 237.228817,191.820072"/>
      <path fill="#989FDD" d="M246.267183,413.194982 C245.474658,413.194982 244.832749,412.553405 244.832749,411.76129 L244.832749,198.22724 C244.832749,197.435842 245.474658,196.793548 246.267183,196.793548 C247.05899,196.793548 247.701616,197.435842 247.701616,198.22724 L247.701616,411.76129 C247.701616,412.553405 247.05899,413.194982 246.267183,413.194982"/>
      <path fill="#989FDD" d="M230.563722 205.156272C230.54866 205.156272 230.532881 205.155556 230.517103 205.155556 229.725295 205.129749 229.104186 204.467384 229.129288 203.675986 229.146501 203.160573 229.146501 202.647312 229.147219 202.136918 229.150087 199.873835 229.152956 197.532616 230.454705 195.165591 231.92213 192.500358 234.7078 190.551971 237.725848 190.080287 240.006598 189.724731 242.336835 190.28172 244.132029 191.610753 246.067797 193.043011 247.297106 195.260932 247.687272 198.023656 247.798441 198.807885 247.252639 199.533333 246.468004 199.643728 245.6805 199.753405 244.958262 199.209319 244.846376 198.42509 244.565945 196.439427 243.728953 194.880287 242.425053 193.914695 241.242362 193.039427 239.689588 192.674552 238.169806 192.913262 236.009549 193.250896 234.01712 194.643728 232.96855 196.546953 232.021106 198.270968 232.018955 200.063799 232.016086 202.140502 232.015368 202.680287 232.014651 203.222222 231.996721 203.768459 231.971618 204.544086 231.335447 205.156272 230.563722 205.156272M365.188896 414.475986C364.396371 414.475986 363.754462 413.834409 363.754462 413.042294L363.754462 198.22724C363.754462 197.435842 364.396371 196.793548 365.188896 196.793548 365.980703 196.793548 366.623329 197.435842 366.623329 198.22724L366.623329 413.042294C366.623329 413.834409 365.980703 414.475986 365.188896 414.475986"/>
      <path fill="#989FDD" d="M365.186744,199.660932 C364.479568,199.660932 363.863479,199.138351 363.766655,198.417921 C363.083147,193.334767 359.527904,192.800717 357.996646,192.842294 L238.415811,192.842294 C237.623286,192.842294 236.981377,192.2 236.981377,191.408602 C236.981377,190.616487 237.623286,189.97491 238.415811,189.97491 L357.980867,189.97491 C358.015293,189.974194 358.050437,189.974194 358.084864,189.974194 C361.694616,189.974194 365.810723,192.086738 366.610419,198.036559 C366.715133,198.821505 366.165028,199.542652 365.379675,199.648746 C365.314409,199.656631 365.249859,199.660932 365.186744,199.660932"/>
      <path fill="#FFF" d="M170.020585,135.437993 C170.89559,128.931183 175.225427,126.538351 179.37883,126.585663 L190.408189,126.58638 L190.408189,126.308961 L333.463529,126.592832 L333.471418,126.593548 C333.730334,126.58638 333.988532,126.58853 334.245295,126.602151 L333.562505,126.602151 L335.786594,126.814337 L338.128307,127.594265 L339.969402,128.657348 L341.952507,130.447312 L343.039807,131.911828 L343.744831,133.256631 L344.411126,135.43871 L344.411126,417.486738 L344.981313,417.486738 C345.824043,423.444444 349.872731,426.146953 353.881973,426.321864 L199.947172,426.339068 C195.79377,426.385663 191.463932,423.993548 190.589645,417.486738 L190.408189,417.486738 L190.408189,135.437993 L170.020585,135.437993"/>
      <path fill="#989FDD" d="M344.799857,144.010036 C344.028849,144.010036 343.391961,143.397849 343.366858,142.622222 C343.343907,141.91828 343.34319,141.218638 343.342473,140.523297 C343.339604,137.882437 343.336018,135.38853 342.051483,133.05448 C340.629242,130.469534 337.924617,128.579211 334.991201,128.12043 C332.9041,127.792832 330.771814,128.296057 329.146601,129.499642 C327.359297,130.822222 326.213902,132.94552 325.832343,135.63871 C325.732649,136.346237 325.126601,136.871685 324.412253,136.871685 L170.020585,136.871685 C169.606751,136.871685 169.212999,136.69319 168.941174,136.382079 C168.668632,136.070968 168.543836,135.657348 168.598344,135.247312 C169.610337,127.725448 174.83813,125.088889 179.394608,125.151971 C180.187133,125.160573 180.82187,125.810036 180.813263,126.601434 C180.803939,127.393548 180.154141,128.010753 179.362334,128.019355 C177.466012,127.991398 173.184228,128.578495 171.759119,134.004301 L323.216653,134.004301 C323.86932,131.106093 325.314512,128.768459 327.438908,127.195699 C329.678059,125.538351 332.592828,124.841577 335.435158,125.287455 C339.226366,125.880287 342.724949,128.326882 344.566045,131.672401 C346.204168,134.650896 346.207754,137.634409 346.21134,140.519713 C346.212057,141.185663 346.212774,141.855914 346.234291,142.529749 C346.259393,143.321147 345.638284,143.983513 344.846476,144.009319 C344.830698,144.009319 344.814919,144.010036 344.799857,144.010036"/>
      <path fill="#989FDD" d="M334.24673 128.018638L178.95352 128.018638C178.160996 128.018638 177.519087 127.376344 177.519087 126.584946 177.519087 125.792832 178.160996 125.151254 178.95352 125.151254L334.24673 125.151254C335.038537 125.151254 335.681163 125.792832 335.681163 126.584946 335.681163 127.376344 335.038537 128.018638 334.24673 128.018638M344.800574 418.919713C344.00805 418.919713 343.366141 418.278136 343.366141 417.486022L343.366141 140.260932C343.366141 139.469534 344.00805 138.82724 344.800574 138.82724 345.592382 138.82724 346.235008 139.469534 346.235008 140.260932L346.235008 417.486022C346.235008 418.278136 345.592382 418.919713 344.800574 418.919713"/>
      <path fill="#6A79A8" d="M190.408906,418.919713 C189.616382,418.919713 188.974473,418.278136 188.974473,417.486022 L188.974473,138.598566 C188.974473,137.807168 189.616382,137.164875 190.408906,137.164875 C191.200714,137.164875 191.84334,137.807168 191.84334,138.598566 L191.84334,417.486022 C191.84334,418.278136 191.200714,418.919713 190.408906,418.919713"/>
      <path fill="#989FDD" d="M199.6359,427.773477 C195.126758,427.773477 189.988617,425.127599 188.986665,417.677419 C188.881235,416.892473 189.432774,416.170609 190.218127,416.065233 C191.001327,415.963441 191.724999,416.511111 191.83043,417.295341 C192.748467,424.127599 197.529434,424.906093 199.653113,424.906093 C199.686105,424.906093 199.71838,424.906093 199.750655,424.905376 L354.994376,424.905376 C355.786184,424.905376 356.42881,425.54767 356.42881,426.339068 C356.42881,427.131183 355.786184,427.77276 354.994376,427.77276 L199.766434,427.77276 C199.722683,427.773477 199.67965,427.773477 199.6359,427.773477"/>
      <path fill="#989FDD" d="M354.131565,427.77276 C351.85225,427.77276 349.622423,427.062366 347.826512,425.732616 C345.408057,423.942652 343.871062,421.16129 343.379768,417.691756 C343.269317,416.907527 343.815119,416.182079 344.599037,416.070968 C345.384389,415.955556 346.109495,416.505376 346.220664,417.289606 C346.601506,419.982796 347.747618,422.106093 349.534205,423.428674 C351.160136,424.632258 353.290987,425.132616 355.379522,424.808602 C358.312938,424.349821 361.017563,422.458781 362.439804,419.873835 C363.724339,417.540502 363.727208,415.045878 363.730077,412.406452 C363.730794,411.710394 363.732228,411.010036 363.755179,410.306093 C363.780282,409.530466 364.416453,408.91828 365.188178,408.91828 C365.20324,408.91828 365.219019,408.91828 365.234798,408.918996 C366.025888,408.944086 366.647715,409.606452 366.622612,410.398566 C366.600378,411.072401 366.599661,411.743369 366.598944,412.409319 C366.595358,415.294624 366.592489,418.278136 364.953649,421.255914 C363.11327,424.600717 359.614687,427.047312 355.823479,427.64086 C355.260464,427.729749 354.69458,427.77276 354.131565,427.77276"/>
      <path fill="#CBCFEE" d="M270.104599,93.9577061 L260.148913,93.9591398 L260.148913,93.6516129 L131.021923,93.9663082 L131.014034,93.9670251 C130.780938,93.9591398 130.547843,93.9620072 130.316182,93.9770609 L130.932271,93.9770609 L128.925499,94.2114695 L126.811144,95.0767025 L125.149352,96.2551971 L123.359179,98.2394265 L122.378027,99.8630824 L121.741855,101.354122 L121.140111,103.773477 L121.140111,414.020789 L121.903229,417.355556 L123.598012,420.546237 L125.727429,423.02509 L128.031847,424.951254 L131.697541,426.277419 L251.538726,426.29319 C255.287618,426.34552 259.19645,423.69319 259.986105,416.478136 L260.148913,416.478136 L260.148913,103.77276 L278.551979,103.77276 C277.761606,96.5584229 273.854209,93.9060932 270.104599,93.9577061"/>
      <path fill="#989FDD" d="M259.53641,407.092473 C258.743886,407.092473 258.101977,406.450896 258.101977,405.658781 L258.101977,103.037993 C258.101977,102.246595 258.743886,101.604301 259.53641,101.604301 C260.328218,101.604301 260.970844,102.246595 260.970844,103.037993 L260.970844,405.658781 C260.970844,406.450896 260.328218,407.092473 259.53641,407.092473"/>
      <path fill="#989FDD" d="M277.897877,112.259498 C277.122566,112.259498 276.48496,111.642294 276.464161,110.863799 C276.444079,110.098925 276.442644,109.338351 276.441927,108.582796 C276.439058,105.653763 276.436906,102.887455 275.248478,100.270251 C273.968963,97.4508961 271.572742,95.3964158 268.995782,94.9075269 C267.414319,94.6071685 265.814209,94.9806452 264.485206,95.9569892 C263.149031,96.9383513 261.452096,98.9913978 260.960803,103.199283 C260.869716,103.98638 260.146762,104.551254 259.370016,104.457348 C258.583229,104.365591 258.020214,103.65448 258.112018,102.867384 C258.721652,97.6351254 260.990926,94.9641577 262.786837,93.6458781 C264.765638,92.1935484 267.15899,91.6401434 269.530826,92.0910394 C273.010045,92.7505376 276.201659,95.4308244 277.861299,99.0853047 C279.305056,102.26595 279.307925,105.475986 279.310794,108.579928 C279.311511,109.311828 279.312228,110.047312 279.33231,110.787814 C279.35311,111.579211 278.728414,112.237993 277.935889,112.258781 C277.923697,112.259498 277.91007,112.259498 277.897877,112.259498"/>
      <path fill="#FFF" d="M133.706466,426.294624 L132.617013,426.294624 C132.978491,426.317563 133.34212,426.313978 133.706466,426.294624"/>
      <path fill="#989FDD" d="M338.243779 2.93978495L156.665292 2.93978495C155.872767 2.93978495 155.230858 2.29749104 155.230858 1.50609319 155.230858.713978495 155.872767.0724014337 156.665292.0724014337L338.243779.0724014337C339.036303.0724014337 339.678212.713978495 339.678212 1.50609319 339.678212 2.29749104 339.036303 2.93978495 338.243779 2.93978495M324.849756 415.206452C324.057948 415.206452 323.415322 414.564158 323.415322 413.77276L323.415322 14.0530466C323.415322 13.2616487 324.057948 12.6193548 324.849756 12.6193548 325.64228 12.6193548 326.284189 13.2616487 326.284189 14.0530466L326.284189 413.77276C326.284189 414.564158 325.64228 415.206452 324.849756 415.206452"/>
      <path fill="#989FDD" d="M314.039864,427.753405 C313.988942,427.753405 313.938737,427.753405 313.887814,427.752688 L132.405434,427.752688 C131.613627,427.752688 130.971001,427.110394 130.971001,426.318996 C130.971001,425.526882 131.613627,424.885305 132.405434,424.885305 L313.907897,424.885305 C313.949495,424.886022 313.992528,424.886022 314.034127,424.886022 C319.14071,424.886022 322.640011,420.683154 323.423929,413.614337 C323.512146,412.82724 324.227211,412.266667 325.00826,412.346953 C325.795764,412.435125 326.363083,413.144086 326.2763,413.930466 C325.144532,424.129749 319.242555,427.753405 314.039864,427.753405"/>
      <path fill="#CBCFEE" d="M68.9360535,304.384946 C73.2343336,313.86595 69.0285745,325.034409 59.5426655,329.330466 C50.0567565,333.625806 38.8825192,329.422939 34.5849563,319.941935 C30.2866762,310.460932 34.4917181,299.292473 43.9776271,294.996416 C53.4635361,290.700358 64.6377734,294.903943 68.9360535,304.384946"/>
      <path fill="#989FDD" d="M60.4435025,313.689999 L56.2200482,313.689999 L56.2200482,317.155221 L53.812049,317.155221 L53.812049,313.689999 L51.2023325,313.689999 L51.2023325,311.699072 L53.812049,311.699072 L53.812049,309.972761 L51.2023325,309.972761 L51.2023325,307.994435 L53.812049,307.994435 L53.812049,298.808447 L60.5821831,298.808447 C62.5489358,298.808447 64.1080262,299.308274 65.259501,300.307943 C66.4109759,301.307612 66.9867047,302.660085 66.9867047,304.365403 C66.9867047,306.154726 66.4340891,307.534501 65.3288413,308.504768 C64.2235935,309.475034 62.6539971,309.964361 60.620005,309.972761 L56.2200482,309.972761 L56.2200482,311.699072 L60.4435025,311.699072 L60.4435025,313.689999 Z M56.2200482,307.994435 L60.5821831,307.994435 C61.8849466,307.994435 62.876713,307.687818 63.557512,307.074576 C64.238311,306.461334 64.5787054,305.566685 64.5787054,304.390604 C64.5787054,303.323731 64.2257038,302.460584 63.51969,301.801138 C62.8136762,301.141693 61.8597314,300.807775 60.657827,300.799374 L56.2200482,300.799374 L56.2200482,307.994435 Z" transform="rotate(-30 59.095 307.982)"/>
      <path fill="#989FDD" d="M38.7648956,313.597849 L5.5046851,313.597849 C4.71216057,313.597849 4.07025156,312.955556 4.07025156,312.164158 C4.07025156,311.372043 4.71216057,310.730466 5.5046851,310.730466 L37.0995183,310.730466 C36.7143729,307.153405 37.273802,303.536201 38.719711,300.235125 L19.6697163,300.235125 C18.8771918,300.235125 18.2352828,299.593548 18.2352828,298.801434 C18.2352828,298.010036 18.8771918,297.367742 19.6697163,297.367742 L41.0564032,297.367742 C41.5699304,297.367742 42.0447279,297.642294 42.3000571,298.088172 C42.5561035,298.533333 42.5539518,299.08172 42.2950366,299.524731 C40.1068082,303.2681 39.3530134,307.660215 40.1727921,311.891756 C40.2545549,312.311828 40.1441035,312.746237 39.8715611,313.075986 C39.5990187,313.406452 39.193074,313.597849 38.7648956,313.597849"/>
      <path fill="#989FDD" d="M57.6714469 329.194982C52.2944728 329.195699 47.0085852 327.101792 43.0552864 323.156989L21.2834541 323.156989C20.4909295 323.156989 19.8490205 322.514695 19.8490205 321.723297 19.8490205 320.931183 20.4909295 320.289606 21.2834541 320.289606L43.6620517 320.289606C44.056521 320.289606 44.4344942 320.45233 44.7056021 320.739785 49.9240714 326.270251 58.0881499 327.878136 65.0222016 324.739785 73.9694808 320.686738 77.9507511 310.114695 73.8963247 301.172043 69.8433327 292.230108 59.2672542 288.251613 50.3171062 292.302509 50.131347 292.387097 49.9298091 292.430108 49.7254023 292.430108L1.91860125 292.430108C1.12607672 292.430108.484167707 291.78853.484167707 290.996416.484167707 290.205018 1.12607672 289.562724 1.91860125 289.562724L49.4213024 289.562724C59.746355 285.071685 71.8465192 289.702509 76.5098626 299.98853 81.2162391 310.371326 76.5944942 322.646595 66.2063265 327.350538 63.4636896 328.593548 60.5539411 329.194982 57.6714469 329.194982M120.486009 408.908244C119.693484 408.908244 119.051575 408.26595 119.051575 407.474552L119.051575 103.037993C119.051575 102.246595 119.693484 101.604301 120.486009 101.604301 121.277816 101.604301 121.920442 102.246595 121.920442 103.037993L121.920442 407.474552C121.920442 408.26595 121.277816 408.908244 120.486009 408.908244"/>
      <path fill="#989FDD" d="M120.487443,104.471685 C120.435087,104.471685 120.381295,104.468817 120.328221,104.463082 C119.540717,104.375627 118.973399,103.667384 119.060182,102.880287 C119.955986,94.8078853 124.660211,91.9397849 128.810027,91.9397849 C128.851625,91.9397849 128.892507,91.9405018 128.933388,91.9405018 L268.717502,91.9405018 C269.50931,91.9405018 270.151936,92.5827957 270.151936,93.3741935 C270.151936,94.1663082 269.50931,94.8078853 268.717502,94.8078853 L128.914023,94.8078853 C125.121381,94.772043 122.499954,97.8917563 121.911836,103.195699 C121.830073,103.929032 121.208963,104.471685 120.487443,104.471685"/>
      <path fill="#FFF" d="M346.686461,15.9312019 C345.672528,6.79654326 340.656862,3.43779519 335.84583,3.50312391 L323.068992,3.50525419 L323.068992,3.11541219 L157.358041,3.51377533 L157.348804,3.51519552 C157.049669,3.50525419 156.750534,3.50809457 156.45282,3.52726713 L157.243645,3.52726713 L154.667956,3.82479682 L151.954423,4.91976289 L149.822108,6.41238201 L147.524948,8.92469717 L146.265881,10.9811315 L145.448766,12.8692734 L144.677125,15.931912 L144.677125,411.885704 L144.017038,411.885704 C143.040763,420.250619 138.349811,424.043946 133.706466,424.290348 L312.019463,424.314492 C316.831206,424.37982 321.846161,421.021072 322.860094,411.885704 L323.068992,411.885704 L323.068992,15.9312019 L346.686461,15.9312019"/>
      <path fill="#989FDD" d="M144.325577,25.6028674 C144.312667,25.6028674 144.299757,25.6028674 144.286847,25.6028674 C143.49504,25.581362 142.869627,24.9225806 142.891144,24.1311828 C142.916963,23.1663082 142.917681,22.2071685 142.918398,21.2537634 C142.922701,17.2695341 142.926287,13.1491039 144.763079,9.10322581 C146.860221,4.48387097 150.885959,1.09749104 155.267436,0.266666667 C158.22739,-0.294623656 161.218184,0.395698925 163.69043,2.21003584 C165.804785,3.76272401 168.440557,6.81003584 169.409517,12.6193548 L347.050483,12.6193548 C345.512054,2.85448029 340.839386,2.91612903 339.250034,2.93835125 C338.456792,2.92473118 337.806994,2.31612903 337.796236,1.52473118 C337.785477,0.732616487 338.41878,0.082437276 339.211304,0.0709677419 C345.395147,-0.00286738351 349.087379,4.63727599 350.115151,13.8953405 C350.159618,14.3003584 350.029802,14.7060932 349.757977,15.009319 C349.485434,15.3132616 349.096703,15.4867384 348.689324,15.4867384 L168.163711,15.4867384 C167.435736,15.4867384 166.823233,14.9419355 166.739318,14.2193548 C166.083782,8.60358423 163.795861,5.84587814 161.992061,4.52114695 C160.169613,3.1827957 157.972061,2.67240143 155.80248,3.08387097 C152.322544,3.74408602 149.093634,6.5046595 147.3759,10.288172 C145.795154,13.7706093 145.790851,17.4071685 145.787265,21.2566308 C145.786548,22.2344086 145.785113,23.2179211 145.759293,24.2071685 C145.737777,24.9856631 145.100171,25.6028674 144.325577,25.6028674"/>
      <path fill="#989FDD" d="M144.32486,415.206452 C143.533053,415.206452 142.890426,414.564158 142.890426,413.77276 L142.890426,20.8888889 C142.890426,20.097491 143.533053,19.4551971 144.32486,19.4551971 C145.117384,19.4551971 145.759293,20.097491 145.759293,20.8888889 L145.759293,413.77276 C145.759293,414.564158 145.117384,415.206452 144.32486,415.206452"/>
      <path fill="#989FDD" d="M133.441813 427.755556C132.773367 427.755556 132.0999 427.692473 131.428585 427.564875 127.047108 426.73405 123.022087 423.34767 120.923511 418.727599 119.086719 414.68172 119.083133 410.56129 119.079547 406.576344 119.07883 405.623656 119.077395 404.664516 119.051575 403.699642 119.031493 402.908961 119.656189 402.250179 120.447996 402.228674 121.224025 402.210753 121.898926 402.832975 121.919725 403.624373 121.946262 404.612903 121.946979 405.596416 121.948414 406.573477 121.951283 410.423656 121.954869 414.060215 123.536332 417.543369 125.254783 421.327599 128.483693 424.088172 131.962912 424.74767 134.132492 425.160573 136.329327 424.649462 138.152492 423.310394 139.956293 421.98638 142.244214 419.228674 142.900467 413.612186 142.992271 412.825806 143.69873 412.258781 144.491254 412.354122 145.278041 412.445878 145.841773 413.157706 145.74997 413.944086 144.974658 420.585663 142.113681 423.960573 139.850145 425.622222 137.939479 427.024373 135.718976 427.755556 133.441813 427.755556M157.107814 183.296774L152.804514 183.296774C152.012707 183.296774 151.37008 182.65448 151.37008 181.863082 151.37008 181.070968 152.012707 180.429391 152.804514 180.429391L157.107814 180.429391C157.900339 180.429391 158.542248 181.070968 158.542248 181.863082 158.542248 182.65448 157.900339 183.296774 157.107814 183.296774M175.203194 183.296774L166.155504 183.296774C165.363697 183.296774 164.72107 182.65448 164.72107 181.863082 164.72107 181.070968 165.363697 180.429391 166.155504 180.429391L175.203194 180.429391C175.995001 180.429391 176.637627 181.070968 176.637627 181.863082 176.637627 182.65448 175.995001 183.296774 175.203194 183.296774zM193.298573 183.296774L184.250883 183.296774C183.459076 183.296774 182.81645 182.65448 182.81645 181.863082 182.81645 181.070968 183.459076 180.429391 184.250883 180.429391L193.298573 180.429391C194.09038 180.429391 194.733006 181.070968 194.733006 181.863082 194.733006 182.65448 194.09038 183.296774 193.298573 183.296774zM211.393952 183.296774L202.346262 183.296774C201.553738 183.296774 200.911829 182.65448 200.911829 181.863082 200.911829 181.070968 201.553738 180.429391 202.346262 180.429391L211.393952 180.429391C212.185759 180.429391 212.828385 181.070968 212.828385 181.863082 212.828385 182.65448 212.185759 183.296774 211.393952 183.296774zM229.488614 183.296774L220.440924 183.296774C219.649117 183.296774 219.006491 182.65448 219.006491 181.863082 219.006491 181.070968 219.649117 180.429391 220.440924 180.429391L229.488614 180.429391C230.281138 180.429391 230.923047 181.070968 230.923047 181.863082 230.923047 182.65448 230.281138 183.296774 229.488614 183.296774zM247.583993 183.296774L238.537021 183.296774C237.744496 183.296774 237.102587 182.65448 237.102587 181.863082 237.102587 181.070968 237.744496 180.429391 238.537021 180.429391L247.583993 180.429391C248.3758 180.429391 249.018426 181.070968 249.018426 181.863082 249.018426 182.65448 248.3758 183.296774 247.583993 183.296774zM265.679372 183.296774L256.631682 183.296774C255.839875 183.296774 255.197249 182.65448 255.197249 181.863082 255.197249 181.070968 255.839875 180.429391 256.631682 180.429391L265.679372 180.429391C266.471897 180.429391 267.113806 181.070968 267.113806 181.863082 267.113806 182.65448 266.471897 183.296774 265.679372 183.296774zM283.774751 183.296774L274.727062 183.296774C273.934537 183.296774 273.292628 182.65448 273.292628 181.863082 273.292628 181.070968 273.934537 180.429391 274.727062 180.429391L283.774751 180.429391C284.566558 180.429391 285.209185 181.070968 285.209185 181.863082 285.209185 182.65448 284.566558 183.296774 283.774751 183.296774zM301.869413 183.296774L292.822441 183.296774C292.030633 183.296774 291.388007 182.65448 291.388007 181.863082 291.388007 181.070968 292.030633 180.429391 292.822441 180.429391L301.869413 180.429391C302.661938 180.429391 303.303847 181.070968 303.303847 181.863082 303.303847 182.65448 302.661938 183.296774 301.869413 183.296774z"/>
      <path fill="#6A79A8" d="M315.22112,183.296774 L310.91782,183.296774 C310.125295,183.296774 309.483386,182.65448 309.483386,181.863082 C309.483386,181.070968 310.125295,180.429391 310.91782,180.429391 L315.22112,180.429391 C316.012928,180.429391 316.655554,181.070968 316.655554,181.863082 C316.655554,182.65448 316.012928,183.296774 315.22112,183.296774"/>
      <path fill="#989FDD" d="M157.107814 363.513262L152.804514 363.513262C152.012707 363.513262 151.37008 362.871685 151.37008 362.07957 151.37008 361.288172 152.012707 360.645878 152.804514 360.645878L157.107814 360.645878C157.900339 360.645878 158.542248 361.288172 158.542248 362.07957 158.542248 362.871685 157.900339 363.513262 157.107814 363.513262M175.203194 363.513262L166.155504 363.513262C165.363697 363.513262 164.72107 362.871685 164.72107 362.07957 164.72107 361.288172 165.363697 360.645878 166.155504 360.645878L175.203194 360.645878C175.995001 360.645878 176.637627 361.288172 176.637627 362.07957 176.637627 362.871685 175.995001 363.513262 175.203194 363.513262zM193.298573 363.513262L184.250883 363.513262C183.459076 363.513262 182.81645 362.871685 182.81645 362.07957 182.81645 361.288172 183.459076 360.645878 184.250883 360.645878L193.298573 360.645878C194.09038 360.645878 194.733006 361.288172 194.733006 362.07957 194.733006 362.871685 194.09038 363.513262 193.298573 363.513262zM211.393952 363.513262L202.346262 363.513262C201.553738 363.513262 200.911829 362.871685 200.911829 362.07957 200.911829 361.288172 201.553738 360.645878 202.346262 360.645878L211.393952 360.645878C212.185759 360.645878 212.828385 361.288172 212.828385 362.07957 212.828385 362.871685 212.185759 363.513262 211.393952 363.513262zM229.488614 363.513262L220.440924 363.513262C219.649117 363.513262 219.006491 362.871685 219.006491 362.07957 219.006491 361.288172 219.649117 360.645878 220.440924 360.645878L229.488614 360.645878C230.281138 360.645878 230.923047 361.288172 230.923047 362.07957 230.923047 362.871685 230.281138 363.513262 229.488614 363.513262zM247.583993 363.513262L238.537021 363.513262C237.744496 363.513262 237.102587 362.871685 237.102587 362.07957 237.102587 361.288172 237.744496 360.645878 238.537021 360.645878L247.583993 360.645878C248.3758 360.645878 249.018426 361.288172 249.018426 362.07957 249.018426 362.871685 248.3758 363.513262 247.583993 363.513262zM265.679372 363.513262L256.631682 363.513262C255.839875 363.513262 255.197249 362.871685 255.197249 362.07957 255.197249 361.288172 255.839875 360.645878 256.631682 360.645878L265.679372 360.645878C266.471897 360.645878 267.113806 361.288172 267.113806 362.07957 267.113806 362.871685 266.471897 363.513262 265.679372 363.513262zM283.774751 363.513262L274.727062 363.513262C273.934537 363.513262 273.292628 362.871685 273.292628 362.07957 273.292628 361.288172 273.934537 360.645878 274.727062 360.645878L283.774751 360.645878C284.566558 360.645878 285.209185 361.288172 285.209185 362.07957 285.209185 362.871685 284.566558 363.513262 283.774751 363.513262zM301.869413 363.513262L292.822441 363.513262C292.030633 363.513262 291.388007 362.871685 291.388007 362.07957 291.388007 361.288172 292.030633 360.645878 292.822441 360.645878L301.869413 360.645878C302.661938 360.645878 303.303847 361.288172 303.303847 362.07957 303.303847 362.871685 302.661938 363.513262 301.869413 363.513262zM315.22112 363.513262L310.91782 363.513262C310.125295 363.513262 309.483386 362.871685 309.483386 362.07957 309.483386 361.288172 310.125295 360.645878 310.91782 360.645878L315.22112 360.645878C316.012928 360.645878 316.655554 361.288172 316.655554 362.07957 316.655554 362.871685 316.012928 363.513262 315.22112 363.513262M300.951376 52.89319L165.243204 52.89319C164.451397 52.89319 163.808771 52.2516129 163.808771 51.4594982 163.808771 50.6681004 164.451397 50.0258065 165.243204 50.0258065L300.951376 50.0258065C301.7439 50.0258065 302.385809 50.6681004 302.385809 51.4594982 302.385809 52.2516129 301.7439 52.89319 300.951376 52.89319M300.951376 74.4L222.799133 74.4C222.007326 74.4 221.364699 73.7577061 221.364699 72.9663082 221.364699 72.1741935 222.007326 71.5326165 222.799133 71.5326165L300.951376 71.5326165C301.7439 71.5326165 302.385809 72.1741935 302.385809 72.9663082 302.385809 73.7577061 301.7439 74.4 300.951376 74.4M209.194248 74.4L165.243204 74.4C164.451397 74.4 163.808771 73.7577061 163.808771 72.9663082 163.808771 72.1741935 164.451397 71.5326165 165.243204 71.5326165L209.194248 71.5326165C209.986055 71.5326165 210.628682 72.1741935 210.628682 72.9663082 210.628682 73.7577061 209.986055 74.4 209.194248 74.4M300.951376 136.764158L165.243204 136.764158C164.451397 136.764158 163.808771 136.122581 163.808771 135.330466 163.808771 134.539068 164.451397 133.896774 165.243204 133.896774L300.951376 133.896774C301.7439 133.896774 302.385809 134.539068 302.385809 135.330466 302.385809 136.122581 301.7439 136.764158 300.951376 136.764158M300.951376 158.270968L222.799133 158.270968C222.007326 158.270968 221.364699 157.628674 221.364699 156.837276 221.364699 156.045161 222.007326 155.403584 222.799133 155.403584L300.951376 155.403584C301.7439 155.403584 302.385809 156.045161 302.385809 156.837276 302.385809 157.628674 301.7439 158.270968 300.951376 158.270968M209.194248 158.270968L165.243204 158.270968C164.451397 158.270968 163.808771 157.628674 163.808771 156.837276 163.808771 156.045161 164.451397 155.403584 165.243204 155.403584L209.194248 155.403584C209.986055 155.403584 210.628682 156.045161 210.628682 156.837276 210.628682 157.628674 209.986055 158.270968 209.194248 158.270968M300.951376 95.90681L277.897877 95.90681C277.10607 95.90681 276.463443 95.2645161 276.463443 94.4731183 276.463443 93.6810036 277.10607 93.0394265 277.897877 93.0394265L300.951376 93.0394265C301.7439 93.0394265 302.385809 93.6810036 302.385809 94.4731183 302.385809 95.2645161 301.7439 95.90681 300.951376 95.90681M246.267183 95.90681L222.799133 95.90681C222.007326 95.90681 221.364699 95.2645161 221.364699 94.4731183 221.364699 93.6810036 222.007326 93.0394265 222.799133 93.0394265L246.267183 93.0394265C247.05899 93.0394265 247.701616 93.6810036 247.701616 94.4731183 247.701616 95.2645161 247.05899 95.90681 246.267183 95.90681M190.799072 95.90681L165.243204 95.90681C164.451397 95.90681 163.808771 95.2645161 163.808771 94.4731183 163.808771 93.6810036 164.451397 93.0394265 165.243204 93.0394265L190.799072 93.0394265C191.59088 93.0394265 192.233506 93.6810036 192.233506 94.4731183 192.233506 95.2645161 191.59088 95.90681 190.799072 95.90681M234.012817 117.41362L165.243204 117.41362C164.451397 117.41362 163.808771 116.771326 163.808771 115.979928 163.808771 115.187814 164.451397 114.546237 165.243204 114.546237L234.012817 114.546237C234.805342 114.546237 235.447251 115.187814 235.447251 115.979928 235.447251 116.771326 234.805342 117.41362 234.012817 117.41362"/>
      <path fill="#CBCFEE" d="M268.792093,248.298208 C268.792093,264.45233 255.68926,277.548387 239.526062,277.548387 C223.363583,277.548387 210.260749,264.45233 210.260749,248.298208 C210.260749,232.143369 223.363583,219.047312 239.526062,219.047312 C255.68926,219.047312 268.792093,232.143369 268.792093,248.298208"/>
      <path fill="#989FDD" d="M238.006555 259.578814L229.562645 259.578814 229.562645 266.483871 224.748356 266.483871 224.748356 259.578814 219.530776 259.578814 219.530776 255.611544 224.748356 255.611544 224.748356 252.17157 219.530776 252.17157 219.530776 248.22941 224.748356 248.22941 224.748356 229.924731 238.283818 229.924731C242.215927 229.924731 245.333001 230.920723 247.635133 232.912738 249.937265 234.904752 251.088314 237.59979 251.088314 240.997932 251.088314 244.563471 249.983475 247.312911 247.773764 249.246337 245.564053 251.179763 242.425975 252.154831 238.359435 252.17157L229.562645 252.17157 229.562645 255.611544 238.006555 255.611544 238.006555 259.578814zM229.562645 248.22941L238.283818 248.22941C240.88842 248.22941 242.871249 247.618424 244.232363 246.396432 245.593478 245.17444 246.274025 243.391697 246.274025 241.048151 246.274025 238.922219 245.568272 237.20225 244.156746 235.88819 242.74522 234.57413 240.838008 233.90874 238.435052 233.892L229.562645 233.892 229.562645 248.22941zM300.951376 293.769176L165.243204 293.769176C164.451397 293.769176 163.808771 293.126882 163.808771 292.335484 163.808771 291.543369 164.451397 290.901792 165.243204 290.901792L300.951376 290.901792C301.7439 290.901792 302.385809 291.543369 302.385809 292.335484 302.385809 293.126882 301.7439 293.769176 300.951376 293.769176M209.194248 315.275269L165.243204 315.275269C164.451397 315.275269 163.808771 314.633692 163.808771 313.841577 163.808771 313.050179 164.451397 312.407885 165.243204 312.407885L209.194248 312.407885C209.986055 312.407885 210.628682 313.050179 210.628682 313.841577 210.628682 314.633692 209.986055 315.275269 209.194248 315.275269M298.985484 350.685305C298.618269 350.685305 298.251054 350.54552 297.97134 350.265233L281.263058 333.565591C280.702912 333.005735 280.702912 332.098208 281.263058 331.538351 281.823204 330.978495 282.731201 330.978495 283.291347 331.538351L299.999629 348.237993C300.559775 348.797849 300.559775 349.705376 299.999629 350.265233 299.719197 350.54552 299.352699 350.685305 298.985484 350.685305M295.550016 337.419355C295.182801 337.419355 294.815586 337.27957 294.535872 336.999283 293.975725 336.439427 293.975725 335.5319 294.535872 334.972043L297.97134 331.538351C298.531486 330.978495 299.439483 330.978495 299.999629 331.538351 300.559775 332.098208 300.559775 333.005735 299.999629 333.565591L296.564161 336.999283C296.283729 337.27957 295.917231 337.419355 295.550016 337.419355"/>
      <path fill="#989FDD" d="M282.277202 350.685305C281.909988 350.685305 281.54349 350.54552 281.263058 350.265233 280.702912 349.705376 280.702912 348.797849 281.263058 348.237993L292.047129 337.458781C292.607276 336.898925 293.515272 336.898925 294.075418 337.458781 294.635565 338.018638 294.635565 338.926165 294.075418 339.486022L283.291347 350.265233C283.010915 350.54552 282.644417 350.685305 282.277202 350.685305M300.951376 415.640143L222.799133 415.640143C222.007326 415.640143 221.364699 414.998566 221.364699 414.206452 221.364699 413.415054 222.007326 412.77276 222.799133 412.77276L300.951376 412.77276C301.7439 412.77276 302.385809 413.415054 302.385809 414.206452 302.385809 414.998566 301.7439 415.640143 300.951376 415.640143M209.194248 415.640143L165.243204 415.640143C164.451397 415.640143 163.808771 414.998566 163.808771 414.206452 163.808771 413.415054 164.451397 412.77276 165.243204 412.77276L209.194248 412.77276C209.986055 412.77276 210.628682 413.415054 210.628682 414.206452 210.628682 414.998566 209.986055 415.640143 209.194248 415.640143M18.7143836 237.009319C17.9218591 237.009319 17.27995 236.367025 17.27995 235.575627L17.27995 180.098208C17.27995 174.641577 21.7216735 170.202151 27.1811276 170.202151L120.486009 170.202151C121.277816 170.202151 121.920442 170.844444 121.920442 171.635842 121.920442 172.427957 121.277816 173.069534 120.486009 173.069534L27.1811276 173.069534C23.3031365 173.069534 20.1488171 176.222222 20.1488171 180.098208L20.1488171 235.575627C20.1488171 236.367025 19.5061909 237.009319 18.7143836 237.009319"/>
      <path fill="#989FDD" d="M120.72269 190.255197L39.421149 190.255197C38.6286244 190.255197 37.9867154 189.61362 37.9867154 188.821505 37.9867154 188.030108 38.6286244 187.387814 39.421149 187.387814L120.72269 187.387814C121.515215 187.387814 122.157124 188.030108 122.157124 188.821505 122.157124 189.61362 121.515215 190.255197 120.72269 190.255197M120.72269 211.762007L73.9027797 211.762007C73.1102551 211.762007 72.4683461 211.12043 72.4683461 210.328315 72.4683461 209.536918 73.1102551 208.894624 73.9027797 208.894624L120.72269 208.894624C121.515215 208.894624 122.157124 209.536918 122.157124 210.328315 122.157124 211.12043 121.515215 211.762007 120.72269 211.762007M65.7516111 211.762007L39.421149 211.762007C38.6286244 211.762007 37.9867154 211.12043 37.9867154 210.328315 37.9867154 209.536918 38.6286244 208.894624 39.421149 208.894624L65.7516111 208.894624C66.5434184 208.894624 67.1860446 209.536918 67.1860446 210.328315 67.1860446 211.12043 66.5434184 211.762007 65.7516111 211.762007M54.7308582 233.268817L39.421149 233.268817C38.6286244 233.268817 37.9867154 232.62724 37.9867154 231.835125 37.9867154 231.043728 38.6286244 230.401434 39.421149 230.401434L54.7308582 230.401434C55.5233827 230.401434 56.1652917 231.043728 56.1652917 231.835125 56.1652917 232.62724 55.5233827 233.268817 54.7308582 233.268817M80.6202319 254.775627L39.421149 254.775627C38.6286244 254.775627 37.9867154 254.133333 37.9867154 253.341935 37.9867154 252.550538 38.6286244 251.908244 39.421149 251.908244L80.6202319 251.908244C81.4127565 251.908244 82.0546655 252.550538 82.0546655 253.341935 82.0546655 254.133333 81.4127565 254.775627 80.6202319 254.775627M18.7143836 258.359857C17.9218591 258.359857 17.27995 257.717563 17.27995 256.926165L17.27995 243.783513C17.27995 242.992115 17.9218591 242.349821 18.7143836 242.349821 19.5061909 242.349821 20.1488171 242.992115 20.1488171 243.783513L20.1488171 256.926165C20.1488171 257.717563 19.5061909 258.359857 18.7143836 258.359857M76.6676211 237.485493L72.4441668 237.485493 72.4441668 240.950715 70.0361676 240.950715 70.0361676 237.485493 67.4264511 237.485493 67.4264511 235.494565 70.0361676 235.494565 70.0361676 233.768255 67.4264511 233.768255 67.4264511 231.789928 70.0361676 231.789928 70.0361676 222.60394 76.8063017 222.60394C78.7730544 222.60394 80.3321448 223.103767 81.4836196 224.103436 82.6350945 225.103105 83.2108233 226.455578 83.2108233 228.160896 83.2108233 229.95022 82.6582077 231.329994 81.5529599 232.300261 80.4477121 233.270528 78.8781157 233.759854 76.8441236 233.768255L72.4441668 233.768255 72.4441668 235.494565 76.6676211 235.494565 76.6676211 237.485493zM72.4441668 231.789928L76.8063017 231.789928C78.1090652 231.789928 79.1008316 231.483312 79.7816306 230.87007 80.4624296 230.256827 80.802824 229.362179 80.802824 228.186098 80.802824 227.119224 80.4498224 226.256078 79.7438086 225.596632 79.0377948 224.937187 78.08385 224.603268 76.8819456 224.594868L72.4441668 224.594868 72.4441668 231.789928zM232.324489 315.275269L217.262937 315.275269C216.470412 315.275269 215.828503 314.633692 215.828503 313.841577 215.828503 313.050179 216.470412 312.407885 217.262937 312.407885L232.324489 312.407885C233.116296 312.407885 233.758922 313.050179 233.758922 313.841577 233.758922 314.633692 233.116296 315.275269 232.324489 315.275269"/>
    </g>
    <g transform="translate(0 161)">
      <path fill="#FFF" d="M384.624,265.667 C407.852,265.555 431.095,266.513 454.314,266.101 C443.602,198.574 425.094,135.159 393.113,118.583 C338.525,90.291 310.87,201.95 299.765,265.709 C328.051,265.73 356.339,265.803 384.624,265.667"/>
      <g transform="translate(301 113)">
        <mask id="people-b" fill="#fff">
          <use xlink:href="#people-a"/>
        </mask>
        <path fill="#BBDFF5" d="M2.49 29.83C2.49 33.329 2.49 36.827 2.49 40.326 2.49 41.915 5.436 41.545 5.436 40.144 5.436 36.645 5.436 33.147 5.436 29.648 5.436 28.06 2.49 28.429 2.49 29.83M13.006 29.909C13.006 33.407 13.006 36.905 13.006 40.404 13.006 41.664 15.91 41.076 15.91 40.066 15.91 36.567 15.91 33.069 15.91 29.57 15.91 28.311 13.006 28.898 13.006 29.909M23.504 30.128C23.504 33.626 23.504 37.125 23.504 40.623 23.504 41.495 26.402 40.958 26.402 39.846 26.402 36.348 26.402 32.85 26.402 29.351 26.402 28.48 23.504 29.016 23.504 30.128M34 30.128C34 33.626 34 37.125 34 40.623 34 41.369 36.897 40.872 36.897 39.846 36.897 36.348 36.897 32.85 36.897 29.351 36.897 28.605 34 29.102 34 30.128M44.495 30.128C44.495 33.626 44.495 37.125 44.495 40.623 44.495 41.505 47.393 40.966 47.393 39.846 47.393 36.348 47.393 32.85 47.393 29.351 47.393 28.469 44.495 29.008 44.495 30.128M54.977 29.871C54.977 33.37 54.977 36.868 54.977 40.366 54.977 41.793 57.901 41.298 57.901 40.103 57.901 36.604 57.901 33.106 57.901 29.608 57.901 28.181 54.977 28.676 54.977 29.871M65.485 30.128C65.485 33.626 65.485 37.125 65.485 40.623 65.485 41.349 68.383 40.859 68.383 39.846 68.383 36.348 68.383 32.85 68.383 29.351 68.383 28.625 65.485 29.115 65.485 30.128M75.965 29.863C75.965 33.361 75.965 36.86 75.965 40.358 75.965 41.819 78.894 41.348 78.894 40.111 78.894 36.613 78.894 33.114 78.894 29.616 78.894 28.155 75.965 28.626 75.965 29.863M86.464 29.877C86.464 33.376 86.464 36.874 86.464 40.373 86.464 41.773 89.385 41.261 89.385 40.097 89.385 36.598 89.385 33.1 89.385 29.601 89.385 28.201 86.464 28.713 86.464 29.877M96.967 29.904C96.967 33.402 96.967 36.901 96.967 40.399 96.967 41.681 99.874 41.104 99.874 40.07 99.874 36.572 99.874 33.073 99.874 29.575 99.874 28.293 96.967 28.87 96.967 29.904M107.442 29.83C107.442 33.329 107.442 36.827 107.442 40.326 107.442 41.915 110.389 41.546 110.389 40.144 110.389 36.645 110.389 33.147 110.389 29.648 110.389 28.059 107.442 28.428 107.442 29.83M117.956 29.898C117.956 33.397 117.956 36.895 117.956 40.394 117.956 41.701 120.866 41.137 120.866 40.076 120.866 36.577 120.866 33.079 120.866 29.581 120.866 28.273 117.956 28.838 117.956 29.898M128.448 29.886C128.448 33.385 128.448 36.883 128.448 40.381 128.448 41.744 131.364 41.209 131.364 40.088 131.364 36.59 131.364 33.091 131.364 29.593 131.364 28.23 128.448 28.765 128.448 29.886M138.952 30.128C138.952 33.626 138.952 37.125 138.952 40.623 138.952 41.056 141.85 40.657 141.85 39.846 141.85 36.348 141.85 32.85 141.85 29.351 141.85 28.918 138.952 29.317 138.952 30.128M149.448 30.128C149.448 33.626 149.448 37.125 149.448 40.623 149.448 41.198 152.345 40.756 152.345 39.846 152.345 36.348 152.345 32.85 152.345 29.351 152.345 28.776 149.448 29.218 149.448 30.128M7.761 51.118C7.761 54.617 7.761 58.115 7.761 61.613 7.761 62.487 10.659 61.95 10.659 60.837 10.659 57.339 10.659 53.84 10.659 50.342 10.659 49.469 7.761 50.005 7.761 51.118M18.257 51.118C18.257 54.617 18.257 58.115 18.257 61.613 18.257 62.295 21.155 61.819 21.155 60.837 21.155 57.339 21.155 53.84 21.155 50.342 21.155 49.66 18.257 50.137 18.257 51.118" mask="url(#people-b)"/>
        <path fill="#CBCFEE" d="M28.735 50.848C28.735 54.346 28.735 57.844 28.735 61.343 28.735 62.828 31.667 62.375 31.667 61.108 31.667 57.609 31.667 54.111 31.667 50.612 31.667 49.127 28.735 49.581 28.735 50.848M39.244 50.9C39.244 54.398 39.244 57.897 39.244 61.395 39.244 62.651 42.148 62.062 42.148 61.055 42.148 57.557 42.148 54.058 42.148 50.56 42.148 49.304 39.244 49.893 39.244 50.9M49.722 50.835C49.722 54.333 49.722 57.832 49.722 61.33 49.722 62.866 52.661 62.452 52.661 61.12 52.661 57.622 52.661 54.124 52.661 50.625 52.661 49.089 49.722 49.503 49.722 50.835M60.22 50.844C60.22 54.342 60.22 57.841 60.22 61.339 60.22 62.839 63.154 62.396 63.154 61.111 63.154 57.613 63.154 54.114 63.154 50.616 63.154 49.116 60.22 49.559 60.22 50.844M70.733 51.118C70.733 54.617 70.733 58.115 70.733 61.613 70.733 62.121 73.631 61.7 73.631 60.837 73.631 57.339 73.631 53.84 73.631 50.342 73.631 49.834 70.733 50.255 70.733 51.118M81.206 50.827C81.206 54.326 81.206 57.824 81.206 61.322 81.206 62.888 84.149 62.499 84.149 61.128 84.149 57.63 84.149 54.131 84.149 50.633 84.149 49.067 81.206 49.456 81.206 50.827M91.714 50.873C91.714 54.372 91.714 57.87 91.714 61.369 91.714 62.746 94.632 62.22 94.632 61.082 94.632 57.584 94.632 54.085 94.632 50.587 94.632 49.209 91.714 49.735 91.714 50.873M102.219 51.118C102.219 54.617 102.219 58.115 102.219 61.613 102.219 62.32 105.117 61.836 105.117 60.837 105.117 57.339 105.117 53.84 105.117 50.342 105.117 49.635 102.219 50.119 102.219 51.118M112.714 51.118C112.714 54.617 112.714 58.115 112.714 61.613 112.714 62.488 115.612 61.951 115.612 60.837 115.612 57.339 115.612 53.84 115.612 50.342 115.612 49.467 112.714 50.004 112.714 51.118M123.209 51.118C123.209 54.617 123.209 58.115 123.209 61.613 123.209 62.465 126.107 61.935 126.107 60.837 126.107 57.339 126.107 53.84 126.107 50.342 126.107 49.49 123.209 50.02 123.209 51.118M133.696 50.878C133.696 54.377 133.696 57.875 133.696 61.373 133.696 62.729 136.611 62.191 136.611 61.077 136.611 57.579 136.611 54.08 136.611 50.582 136.611 49.226 133.696 49.764 133.696 50.878M144.2 51.118C144.2 54.617 144.2 58.115 144.2 61.613 144.2 62.06 147.098 61.658 147.098 60.837 147.098 57.339 147.098 53.84 147.098 50.342 147.098 49.895 144.2 50.297 144.2 51.118M2.514 72.109C2.514 75.607 2.514 79.106 2.514 82.604 2.514 83.384 5.412 82.877 5.412 81.828 5.412 78.329 5.412 74.831 5.412 71.332 5.412 70.552 2.514 71.06 2.514 72.109M12.99 71.832C12.99 75.33 12.99 78.829 12.99 82.327 12.99 83.837 15.926 83.403 15.926 82.104 15.926 78.606 15.926 75.108 15.926 71.609 15.926 70.099 12.99 70.534 12.99 71.832M23.504 72.109C23.504 75.607 23.504 79.106 23.504 82.604 23.504 83.481 26.402 82.944 26.402 81.828 26.402 78.329 26.402 74.831 26.402 71.332 26.402 70.455 23.504 70.993 23.504 72.109M33.996 71.889C33.996 75.387 33.996 78.886 33.996 82.384 33.996 83.648 36.901 83.063 36.901 82.048 36.901 78.549 36.901 75.051 36.901 71.552 36.901 70.288 33.996 70.873 33.996 71.889M44.471 71.814C44.471 75.312 44.471 78.81 44.471 82.309 44.471 83.89 47.416 83.515 47.416 82.123 47.416 78.624 47.416 75.126 47.416 71.628 47.416 70.046 44.471 70.422 44.471 71.814M54.973 71.836C54.973 75.334 54.973 78.832 54.973 82.331 54.973 83.826 57.906 83.38 57.906 82.101 57.906 78.602 57.906 75.104 57.906 71.605 57.906 70.11 54.973 70.556 54.973 71.836M65.485 72.109C65.485 75.607 65.485 79.106 65.485 82.604 65.485 83.177 68.383 82.735 68.383 81.828 68.383 78.329 68.383 74.831 68.383 71.332 68.383 70.759 65.485 71.201 65.485 72.109M75.981 72.109C75.981 75.607 75.981 79.106 75.981 82.604 75.981 83.392 78.879 82.882 78.879 81.828 78.879 78.329 78.879 74.831 78.879 71.332 78.879 70.544 75.981 71.054 75.981 72.109M86.476 72.109C86.476 75.607 86.476 79.106 86.476 82.604 86.476 83.464 89.374 82.932 89.374 81.828 89.374 78.329 89.374 74.831 89.374 71.332 89.374 70.472 86.476 71.005 86.476 72.109M96.971 72.109C96.971 75.607 96.971 79.106 96.971 82.604 96.971 83.1 99.869 82.682 99.869 81.828 99.869 78.329 99.869 74.831 99.869 71.332 99.869 70.836 96.971 71.254 96.971 72.109M107.467 72.109C107.467 75.607 107.467 79.106 107.467 82.604 107.467 83.429 110.364 82.908 110.364 81.828 110.364 78.329 110.364 74.831 110.364 71.332 110.364 70.507 107.467 71.029 107.467 72.109M117.939 71.815C117.939 75.313 117.939 78.812 117.939 82.31 117.939 83.886 120.883 83.505 120.883 82.121 120.883 78.623 120.883 75.124 120.883 71.626 120.883 70.05 117.939 70.431 117.939 71.815M128.457 72.109C128.457 75.607 128.457 79.106 128.457 82.604 128.457 83.117 131.355 82.694 131.355 81.828 131.355 78.329 131.355 74.831 131.355 71.332 131.355 70.819 128.457 71.242 128.457 72.109M138.935 71.836C138.935 75.335 138.935 78.833 138.935 82.332 138.935 83.824 141.868 83.376 141.868 82.1 141.868 78.602 141.868 75.103 141.868 71.605 141.868 70.112 138.935 70.56 138.935 71.836M149.447 71.9C149.447 75.398 149.447 78.897 149.447 82.395 149.447 83.605 152.346 82.997 152.346 82.036 152.346 78.538 152.346 75.039 152.346 71.541 152.346 70.331 149.447 70.939 149.447 71.9M7.761 93.099C7.761 96.598 7.761 100.096 7.761 103.595 7.761 104.359 10.659 103.857 10.659 102.818 10.659 99.32 10.659 95.821 10.659 92.323 10.659 91.558 7.761 92.061 7.761 93.099M18.257 93.099C18.257 96.598 18.257 100.096 18.257 103.595 18.257 104.1 21.155 103.679 21.155 102.818 21.155 99.32 21.155 95.821 21.155 92.323 21.155 91.817 18.257 92.238 18.257 93.099M28.752 93.099C28.752 96.598 28.752 100.096 28.752 103.595 28.752 104.445 31.65 103.916 31.65 102.818 31.65 99.32 31.65 95.821 31.65 92.323 31.65 91.472 28.752 92.002 28.752 93.099M39.223 92.803C39.223 96.302 39.223 99.8 39.223 103.298 39.223 104.883 42.169 104.511 42.169 103.114 42.169 99.616 42.169 96.117 42.169 92.619 42.169 91.034 39.223 91.407 39.223 92.803M49.733 92.857C49.733 96.355 49.733 99.854 49.733 103.352 49.733 104.719 52.65 104.187 52.65 103.061 52.65 99.562 52.65 96.064 52.65 92.565 52.65 91.198 49.733 91.73 49.733 92.857M60.238 93.099C60.238 96.598 60.238 100.096 60.238 103.595 60.238 104.026 63.136 103.628 63.136 102.818 63.136 99.32 63.136 95.821 63.136 92.323 63.136 91.892 60.238 92.289 60.238 93.099M70.733 93.099C70.733 96.598 70.733 100.096 70.733 103.595 70.733 103.957 73.631 103.58 73.631 102.818 73.631 99.32 73.631 95.821 73.631 92.323 73.631 91.96 70.733 92.337 70.733 93.099M81.228 93.099C81.228 96.598 81.228 100.096 81.228 103.595 81.228 104.412 84.126 103.893 84.126 102.818 84.126 99.32 84.126 95.821 84.126 92.323 84.126 91.505 81.228 92.024 81.228 93.099M91.724 93.099C91.724 96.598 91.724 100.096 91.724 103.595 91.724 104.442 94.621 103.913 94.621 102.818 94.621 99.32 94.621 95.821 94.621 92.323 94.621 91.476 91.724 92.004 91.724 93.099M102.219 93.099C102.219 96.598 102.219 100.096 102.219 103.595 102.219 104.326 105.117 103.834 105.117 102.818 105.117 99.32 105.117 95.821 105.117 92.323 105.117 91.591 102.219 92.083 102.219 93.099M112.703 92.851C112.703 96.35 112.703 99.848 112.703 103.346 112.703 104.738 115.623 104.22 115.623 103.066 115.623 99.568 115.623 96.069 115.623 92.571 115.623 91.18 112.703 91.697 112.703 92.851M123.209 93.099C123.209 96.598 123.209 100.096 123.209 103.595 123.209 104.417 126.107 103.896 126.107 102.818 126.107 99.32 126.107 95.821 126.107 92.323 126.107 91.501 123.209 92.021 123.209 93.099M133.7 92.876C133.7 96.374 133.7 99.873 133.7 103.371 133.7 104.651 136.607 104.073 136.607 103.041 136.607 99.543 136.607 96.045 136.607 92.546 136.607 91.266 133.7 91.844 133.7 92.876M144.183 92.828C144.183 96.327 144.183 99.825 144.183 103.323 144.183 104.811 147.115 104.359 147.115 103.089 147.115 99.591 147.115 96.092 147.115 92.594 147.115 91.107 144.183 91.559 144.183 92.828M2.497 113.821C2.497 117.319 2.497 120.818 2.497 124.316 2.497 125.795 5.428 125.337 5.428 124.078 5.428 120.579 5.428 117.081 5.428 113.582 5.428 112.104 2.497 112.562 2.497 113.821M13.009 114.09C13.009 117.588 13.009 121.087 13.009 124.585 13.009 125.087 15.907 124.667 15.907 123.809 15.907 120.31 15.907 116.812 15.907 113.313 15.907 112.812 13.009 113.231 13.009 114.09M23.504 114.09C23.504 117.588 23.504 121.087 23.504 124.585 23.504 125.397 26.402 124.88 26.402 123.809 26.402 120.31 26.402 116.812 26.402 113.313 26.402 112.501 23.504 113.019 23.504 114.09M34 114.09C34 117.588 34 121.087 34 124.585 34 125.167 36.897 124.722 36.897 123.809 36.897 120.31 36.897 116.812 36.897 113.313 36.897 112.731 34 113.176 34 114.09M44.487 113.852C44.487 117.35 44.487 120.849 44.487 124.347 44.487 125.694 47.401 125.151 47.401 124.047 47.401 120.548 47.401 117.05 47.401 113.552 47.401 112.204 44.487 112.747 44.487 113.852M54.99 114.09C54.99 117.588 54.99 121.087 54.99 124.585 54.99 125.373 57.888 124.863 57.888 123.809 57.888 120.31 57.888 116.812 57.888 113.313 57.888 112.525 54.99 113.035 54.99 114.09M65.485 114.09C65.485 117.588 65.485 121.087 65.485 124.585 65.485 125.188 68.383 124.737 68.383 123.809 68.383 120.31 68.383 116.812 68.383 113.313 68.383 112.711 65.485 113.162 65.485 114.09M75.981 114.09C75.981 117.588 75.981 121.087 75.981 124.585 75.981 125.241 78.879 124.773 78.879 123.809 78.879 120.31 78.879 116.812 78.879 113.313 78.879 112.657 75.981 113.125 75.981 114.09M86.473 113.872C86.473 117.371 86.473 120.869 86.473 124.368 86.473 125.62 89.377 125.029 89.377 124.026 89.377 120.528 89.377 117.029 89.377 113.531 89.377 112.279 86.473 112.869 86.473 113.872M96.971 114.09C96.971 117.588 96.971 121.087 96.971 124.585 96.971 124.94 99.869 124.565 99.869 123.809 99.869 120.31 99.869 116.812 99.869 113.313 99.869 112.958 96.971 113.333 96.971 114.09M107.463 113.87C107.463 117.368 107.463 120.867 107.463 124.365 107.463 125.629 110.368 125.043 110.368 124.029 110.368 120.53 110.368 117.032 110.368 113.533 110.368 112.27 107.463 112.855 107.463 113.87M117.945 113.819C117.945 117.317 117.945 120.815 117.945 124.314 117.945 125.802 120.877 125.35 120.877 124.08 120.877 120.582 120.877 117.083 120.877 113.585 120.877 112.097 117.945 112.549 117.945 113.819M128.443 113.83C128.443 117.328 128.443 120.827 128.443 124.325 128.443 125.767 131.369 125.282 131.369 124.069 131.369 120.57 131.369 117.072 131.369 113.573 131.369 112.132 128.443 112.616 128.443 113.83M138.93 113.8C138.93 117.299 138.93 120.797 138.93 124.296 138.93 125.855 141.872 125.461 141.872 124.098 141.872 120.6 141.872 117.101 141.872 113.603 141.872 112.043 138.93 112.438 138.93 113.8M149.426 113.803C149.426 117.301 149.426 120.799 149.426 124.298 149.426 125.849 152.367 125.447 152.367 124.096 152.367 120.597 152.367 117.099 152.367 113.601 152.367 112.05 149.426 112.452 149.426 113.803M7.761 135.08C7.761 138.579 7.761 142.077 7.761 145.576 7.761 146.186 10.659 145.733 10.659 144.799 10.659 141.301 10.659 137.802 10.659 134.304 10.659 133.693 7.761 134.147 7.761 135.08M18.257 135.08C18.257 138.579 18.257 142.077 18.257 145.576 18.257 146.384 21.155 145.868 21.155 144.799 21.155 141.301 21.155 137.802 21.155 134.304 21.155 133.495 18.257 134.012 18.257 135.08M28.743 134.841C28.743 138.34 28.743 141.838 28.743 145.337 28.743 146.688 31.658 146.147 31.658 145.038 31.658 141.54 31.658 138.041 31.658 134.543 31.658 133.191 28.743 133.732 28.743 134.841M39.23 134.808C39.23 138.306 39.23 141.805 39.23 145.303 39.23 146.796 42.163 146.348 42.163 145.072 42.163 141.573 42.163 138.075 42.163 134.576 42.163 133.084 39.23 133.531 39.23 134.808M49.743 135.08C49.743 138.579 49.743 142.077 49.743 145.576 49.743 146.171 52.64 145.722 52.64 144.799 52.64 141.301 52.64 137.802 52.64 134.304 52.64 133.709 49.743 134.158 49.743 135.08M60.238 135.08C60.238 138.579 60.238 142.077 60.238 145.576 60.238 146.264 63.136 145.786 63.136 144.799 63.136 141.301 63.136 137.802 63.136 134.304 63.136 133.615 60.238 134.094 60.238 135.08M70.721 134.829C70.721 138.328 70.721 141.826 70.721 145.325 70.721 146.728 73.643 146.218 73.643 145.05 73.643 141.552 73.643 138.053 73.643 134.555 73.643 133.152 70.721 133.662 70.721 134.829M81.228 135.08C81.228 138.579 81.228 142.077 81.228 145.576 81.228 145.953 84.126 145.572 84.126 144.799 84.126 141.301 84.126 137.802 84.126 134.304 84.126 133.926 81.228 134.308 81.228 135.08M91.724 135.08C91.724 138.579 91.724 142.077 91.724 145.576 91.724 146.16 94.621 145.715 94.621 144.799 94.621 141.301 94.621 137.802 94.621 134.304 94.621 133.72 91.724 134.165 91.724 135.08M102.195 134.784C102.195 138.282 102.195 141.781 102.195 145.279 102.195 146.866 105.141 146.495 105.141 145.096 105.141 141.597 105.141 138.099 105.141 134.601 105.141 133.014 102.195 133.385 102.195 134.784M112.714 135.08C112.714 138.579 112.714 142.077 112.714 145.576 112.714 146.25 115.612 145.776 115.612 144.799 115.612 141.301 115.612 137.802 115.612 134.304 115.612 133.63 112.714 134.104 112.714 135.08M123.209 135.08C123.209 138.579 123.209 142.077 123.209 145.576 123.209 146.309 126.107 145.816 126.107 144.799 126.107 141.301 126.107 137.802 126.107 134.304 126.107 133.571 123.209 134.063 123.209 135.08M133.705 135.08C133.705 138.579 133.705 142.077 133.705 145.576 133.705 146.412 136.603 145.887 136.603 144.799 136.603 141.301 136.603 137.802 136.603 134.304 136.603 133.467 133.705 133.992 133.705 135.08M144.178 134.792C144.178 138.291 144.178 141.789 144.178 145.288 144.178 146.842 147.12 146.442 147.12 145.087 147.12 141.589 147.12 138.09 147.12 134.592 147.12 133.038 144.178 133.437 144.178 134.792" mask="url(#people-b)"/>
      </g>
      <path fill="#FFF" d="M369.783,164.201 C365.039,160.933 360.296,157.665 355.552,154.398 C351.062,151.305 345.15,148.433 341.306,144.587 C337.696,140.974 341.515,137.896 344.299,134.182 C346.76,130.901 349.435,127.765 352.426,124.953 C364.179,113.903 379.119,111.053 393.648,118.583 C402.154,122.992 409.065,130.272 414.465,138.078 C418.067,143.285 413.701,146.606 409.812,150.715 C406.318,154.407 402.387,157.685 398.12,160.448 C394.427,162.84 390.147,164.914 385.793,164.273 C381.44,163.633 381.503,158.402 378.883,154.993 C375.85,158.062 372.816,161.131 369.783,164.201"/>
      <path fill="#989FDD" d="M456.58 264.32C452.697 240.179 448.221 216.059 441.087 192.638 437.578 181.118 433.423 169.787 428.382 158.845 423.702 148.689 418.444 138.72 410.603 130.624 409.796 129.791 406.163 131.188 406.989 132.04 415.342 140.664 420.78 151.471 425.634 162.336 430.428 173.065 434.387 184.155 437.748 195.412 444.578 218.29 448.929 241.81 452.717 265.355 452.886 266.408 456.776 265.536 456.58 264.32M347.598 126.475C340.617 136.72 333.994 146.972 328.523 158.113 327.627 159.939 331.512 159.72 332.17 158.38 337.641 147.239 344.264 136.986 351.245 126.742 352.343 125.13 348.428 125.257 347.598 126.475M302.745 262.84C308.642 229.875 316.163 196.741 329.055 165.734 329.928 163.633 326.042 163.511 325.337 165.205 312.349 196.445 304.759 229.877 298.819 263.089 298.458 265.107 302.417 264.676 302.745 262.84"/>
      <path fill="#CBCFEE" d="M410.27,148.712 C406,154.237 401.054,158.936 394.969,162.272 C393.217,163.232 389.638,165.319 387.263,166.198 C385.026,162.522 382.788,158.846 380.55,155.17 C380.125,154.472 378.551,153.688 377.803,154.331 C377.19,154.858 372.244,161.9 370.588,163.586 C369.601,164.591 369.119,165.577 367.652,164.993 C366.681,164.607 365.97,163.637 365.169,163.002 C358.504,157.716 351.824,152.447 345.151,147.169 C342.999,145.467 337.886,148.593 340.617,150.754 C349.021,157.401 357.424,164.048 365.828,170.695 C367.177,171.762 369.581,171.119 370.581,169.851 C372.811,167.023 375.04,164.196 377.27,161.368 C378.424,163.263 379.577,165.158 380.731,167.053 C382.478,169.922 383.202,171.76 386.851,170.815 C397.985,167.932 408.256,159.648 415.241,150.61 C417.585,147.577 412.008,146.462 410.27,148.712"/>
      <path fill="#989FDD" d="M410.485,146.675 C406.586,151.869 402.065,156.514 396.469,159.892 C393.355,161.773 388.995,162.743 386.134,164.883 C387.336,163.984 387.692,166.161 386.642,163.726 C385.964,162.154 384.815,160.637 383.946,159.166 C382.726,157.104 381.507,155.042 380.288,152.98 C379.667,151.93 377.156,152.792 376.58,153.543 C373.422,157.668 370.263,161.792 367.104,165.916 C368.298,165.664 369.492,165.412 370.686,165.16 C362.523,158.513 354.36,151.866 346.197,145.219 C345.263,144.458 341.738,145.95 342.585,146.64 C350.748,153.287 358.911,159.934 367.073,166.581 C367.913,167.265 370.046,166.621 370.655,165.825 C373.814,161.7 376.973,157.576 380.131,153.452 C378.896,153.64 377.66,153.827 376.424,154.015 C378.863,158.139 381.302,162.264 383.74,166.388 C383.979,166.792 384.445,166.826 384.881,166.818 C388.514,166.749 392.845,163.93 396.033,162.278 C403.273,158.527 409.162,153.076 414.036,146.583 C414.944,145.374 411.145,145.795 410.485,146.675"/>
      <path fill="#F2F2F2" d="M392.148,187.125 C392.711,188.229 394.684,188.114 395.692,188.216 C397.302,188.38 398.918,188.482 400.536,188.504 C403.631,188.545 406.824,187.44 409.863,187.654 C410.815,187.721 412.352,187.215 413.145,186.718 C413.971,186.2 413.667,185.293 412.673,185.318 C411.849,185.339 411.027,185.454 410.212,185.579 C408.632,185.821 407.057,186.159 405.452,186.191 C402.392,186.251 399.286,185.878 396.269,185.375 C395.12,185.184 393.892,185.443 392.816,185.85 C392.262,186.06 391.917,186.104 392.018,186.719 C392.043,186.87 392.087,187.005 392.148,187.125"/>
      <path fill="#989FDD" d="M391.758 186.598C395.101 187.107 398.498 187.431 401.88 187.457 404.965 187.48 409.228 186.447 411.58 186.598 413.41 186.716 415.551 184.041 412.94 183.874 409.875 183.677 406.812 184.644 403.75 184.719 400.212 184.806 396.614 184.405 393.118 183.874 391.269 183.592 389.167 186.204 391.758 186.598M404.973 193.885C404.973 195.335 403.798 196.509 402.349 196.509 400.9 196.509 399.725 195.335 399.725 193.885 399.725 192.436 400.9 191.262 402.349 191.262 403.798 191.262 404.973 192.436 404.973 193.885"/>
      <path fill="#FFF" d="M410.752,77.082 C411.316,43.468 396.974,15.97 378.718,15.664 C360.462,15.357 345.205,42.358 344.641,75.973 C344.628,76.751 344.563,80.624 344.54,81.997 C344.227,100.634 345.594,113.647 348.215,122.732 C350.242,129.758 354.842,135.706 360.387,140.353 C364.37,143.691 368.861,146.468 373.593,148.614 C374.956,149.232 376.375,149.357 377.738,148.837 C378.61,148.505 379.473,148.152 380.33,147.782 C382.785,146.721 385.182,145.519 387.495,144.175 C393.335,140.78 398.874,136.381 402.499,130.598 C403.449,129.083 404.256,127.478 404.879,125.801 C408.233,116.763 410.312,103.252 410.65,83.107 C410.673,81.775 410.738,77.901 410.752,77.082"/>
      <path fill="#CBCFEE" d="M414.374,46.278 C421.606,37.828 421.107,24.392 414.724,15.282 C408.342,6.173 397.178,1.193 386.085,0.389 C374.991,-0.414 363.929,2.528 353.614,6.688 C347.052,9.334 340.25,12.904 337.095,19.237 C333.764,25.925 335.526,34.412 340.231,40.216 C344.937,46.021 352.116,49.396 359.437,50.893 C366.758,52.391 374.306,52.186 381.775,51.958 C386.572,51.811 391.492,51.633 395.924,49.789 C400.356,47.946 404.262,44.051 404.7,39.272 L414.374,46.278"/>
      <path fill="#989FDD" d="M412.706 76.926C412.825 63.998 411.157 50.87 406.245 38.833 402.782 30.346 397.511 21.593 389.249 17.042 372.435 7.779 357.349 23.335 350.781 37.646 345.521 49.105 343.14 61.85 342.728 74.397 342.334 86.4 342.286 98.544 343.784 110.479 345.239 122.066 348.54 132.129 357.443 140.179 361.801 144.12 367.978 149.034 373.849 150.339 378.454 151.364 383.849 147.819 387.643 145.674 399.025 139.239 406.205 130.457 409.167 117.716 412.269 104.378 412.477 90.551 412.706 76.926 412.739 74.949 408.825 75.545 408.797 77.239 408.624 87.547 408.409 97.859 407.035 108.091 405.75 117.656 403.852 127.725 397.046 135.009 392.953 139.39 387.758 142.719 382.4 145.336 378.622 147.182 376.094 148.153 371.971 145.994 368.901 144.386 365.944 142.5 363.227 140.348 354.469 133.41 350.083 124.592 348.273 113.764 346.489 103.095 346.334 92.196 346.501 81.406 346.658 71.272 347.258 61.286 349.779 51.421 353.357 37.422 365.012 10.934 384.015 18.203 392.89 21.597 398.612 30.893 402.121 39.23 407.157 51.192 408.916 64.339 408.797 77.239 408.779 79.218 412.691 78.618 412.706 76.926M327.883 159.226C325.042 159.823 321.914 160.074 319.688 162.141 316.132 165.441 314.562 171.049 312.701 175.361 307.28 187.922 298.38 198.753 289.102 208.673 279.447 218.995 268.806 228.42 257.462 236.848 255.184 238.541 252.872 240.185 250.533 241.792 248.684 243.062 246.946 244.569 244.413 244.29 243.321 244.169 242.179 243.361 241.103 243.083 237.194 242.074 233.358 243.123 230.107 245.375 227.956 246.865 231.16 247.952 232.618 246.943 237.855 243.315 242.385 248.657 247.752 246.614 252.141 244.942 256.246 241.185 259.973 238.416 269.816 231.103 279.145 223.037 287.782 214.331 296.19 205.855 304.107 196.744 310.536 186.657 313.756 181.603 315.985 176.289 318.423 170.848 319.473 168.504 320.651 164.996 322.715 163.332 324.215 162.124 326.7 162.032 328.532 161.648 330.94 161.142 330.262 158.726 327.883 159.226"/>
      <path fill="#FFF" d="M367.321,73.715 C367.231,79.801 362.224,84.66 356.138,84.569 C350.053,84.479 345.193,79.472 345.284,73.386 C345.375,67.301 350.382,62.441 356.467,62.532 C362.553,62.623 367.412,67.63 367.321,73.715"/>
      <path fill="#989FDD" d="M365.404,74.009 C365.268,75.982 364.865,77.702 363.84,79.397 C361.942,82.538 357.822,84.407 354.228,83.12 C349.962,81.592 347.217,77.458 347.273,72.981 C347.347,67.087 352.687,61.635 358.909,64.199 C363.07,65.914 365.221,69.906 365.39,74.233 C365.426,75.162 369.303,74.475 369.253,73.197 C368.636,57.337 343.676,58.612 343.359,73.792 C343.024,89.836 368.208,88.393 369.239,73.421 C369.327,72.145 365.477,72.941 365.404,74.009"/>
      <path fill="#FFF" d="M399.838,74.2 C399.747,80.286 394.741,85.146 388.655,85.055 C382.57,84.964 377.71,79.957 377.801,73.871 C377.892,67.786 382.898,62.926 388.984,63.017 C395.07,63.108 399.929,68.115 399.838,74.2"/>
      <path fill="#989FDD" d="M397.884,74.358 C397.53,79.502 393.838,84.319 388.133,83.602 C383.331,82.998 379.713,78.474 379.755,73.714 C379.799,68.779 383.518,64.501 388.553,64.455 C393.962,64.406 397.688,69.313 397.884,74.358 C397.961,76.34 401.858,75.712 401.793,74.043 C401.162,57.828 376.218,58.069 375.846,74.029 C375.464,90.436 400.71,89.777 401.793,74.043 C401.927,72.09 398.001,72.66 397.884,74.358"/>
      <path fill="#989FDD" d="M400.869 73.198C403.628 71.961 406.699 71.062 409.763 71.436 410.791 71.562 412.02 71.767 412.728 72.624 413.023 72.981 413.712 75.668 412.87 75.878 410.57 76.453 411.004 78.123 413.317 77.545 416.898 76.65 418.897 72.076 414.846 70.158 410.311 68.012 403.66 69.961 399.411 71.866 396.946 72.972 399.226 73.935 400.869 73.198M369.247 75.976C369.165 74.415 370.153 71.759 372.112 72.2 373.876 72.597 374.978 74.446 375.199 76.096 375.371 77.373 379.256 76.499 379.063 75.061 377.979 66.981 364.979 69.326 365.383 77.011 365.448 78.232 369.325 77.453 369.247 75.976M426.24 162.182C442.97 176.841 441.924 199.112 430.032 216.556 417.455 235.004 397.252 245.008 376.008 249.928 373.631 250.479 374.253 252.751 376.618 252.204 398.563 247.122 419.413 236.809 432.78 218.093 445.677 200.036 447.536 176.116 429.803 160.579 428.651 159.569 425.014 161.108 426.24 162.182"/>
      <path fill="#989FDD" d="M371.533,255.472 C373.228,254.131 374.923,252.79 376.618,251.449 C377.3,250.909 376.94,250.155 376.216,249.951 C375.271,249.684 374.215,250.105 373.484,250.683 C371.789,252.024 370.094,253.365 368.399,254.706 C367.717,255.246 368.077,256 368.801,256.204 C369.746,256.471 370.802,256.05 371.533,255.472"/>
      <path fill="#989FDD" d="M368.009 253.401C369.423 253.239 370.837 253.076 372.251 252.914 373.135 252.812 374.272 252.298 374.361 251.279 374.443 250.323 373.368 249.789 372.54 249.884 371.126 250.047 369.712 250.209 368.298 250.372 367.415 250.473 366.277 250.987 366.189 252.006 366.106 252.963 367.181 253.497 368.009 253.401M357.209 112.721C358.572 119.693 361.766 124.023 369.32 123.717 374.239 123.517 381.023 121.83 382.754 116.633 383 115.895 378.395 116.357 378.004 117.531 376.36 122.465 369.945 123.151 366.073 120.248 363.299 118.169 362.661 114.613 362.038 111.427 361.867 110.552 357.001 111.66 357.209 112.721"/>
      <polyline fill="#FFF" points="399.84 265.773 278.587 265.773 278.587 253.915 399.84 257.268 399.84 265.773"/>
      <path fill="#989FDD" d="M400.605,264.729 C362.592,264.729 324.579,264.729 286.566,264.729 C284.436,264.729 281.713,265.193 279.621,264.729 C278.807,264.548 280.513,265.182 280.519,265.15 C280.726,263.936 280.519,262.488 280.519,261.27 C280.519,258.646 280.519,256.022 280.519,253.397 C279.62,253.918 278.721,254.439 277.822,254.959 C315.121,255.991 352.42,257.022 389.719,258.054 C392.358,258.127 395.394,258.638 398.016,258.283 C399.922,258.025 397.902,258.344 397.908,258.328 C397.173,260.45 397.908,264.011 397.908,266.291 C397.908,267.391 401.771,266.696 401.771,265.256 C401.771,262.421 401.771,259.585 401.771,256.75 C401.771,256.295 400.874,256.231 400.605,256.224 C365.186,255.244 329.767,254.265 294.348,253.285 C289.349,253.147 284.351,253.009 279.352,252.87 C278.464,252.846 276.655,253.3 276.655,254.432 C276.655,258.385 276.655,262.338 276.655,266.291 C276.655,266.741 277.553,266.818 277.822,266.818 C313.24,266.818 348.659,266.818 384.078,266.818 C389.077,266.818 394.076,266.818 399.074,266.818 C400.462,266.818 403.198,264.729 400.605,264.729"/>
      <path fill="#CBCFEE" d="M154.9 211.154C152.842 231.228 159.072 252.171 173.594 266.509 174.498 267.401 178.139 265.972 177.193 265.038 162.946 250.972 156.732 230.337 158.753 210.628 158.899 209.198 155.025 209.935 154.9 211.154M105.357 211.154C104.195 229.912 106.81 250.264 116.856 266.509 117.473 267.507 121.239 266.306 120.455 265.038 110.642 249.169 108.075 228.933 109.209 210.628 109.299 209.169 105.431 209.951 105.357 211.154"/>
      <path fill="#DFE2FC" d="M250.495,210.891 L15.742,210.891 C8.445,210.891 2.531,204.976 2.531,197.68 L2.531,21.294 C2.531,13.998 8.445,8.083 15.742,8.083 L250.495,8.083 C257.791,8.083 263.706,13.998 263.706,21.294 L263.706,197.68 C263.706,204.976 257.791,210.891 250.495,210.891"/>
      <path fill="#FFF" d="M250.495,200.333 L29.933,200.333 C22.636,200.333 16.721,194.418 16.721,187.122 L16.721,21.294 C16.721,13.998 22.636,8.083 29.933,8.083 L250.495,8.083 C257.791,8.083 263.706,13.998 263.706,21.294 L263.706,187.122 C263.706,194.418 257.791,200.333 250.495,200.333"/>
      <g transform="translate(130 23)">
        <g transform="translate(0 .807)">
          <path fill="#242727" d="M17.9976936,3.48606471 C18.6724069,2.59238879 19.0004125,1.28953507 18.2351799,0.512254599 C17.5701495,-0.1632461 16.4363629,-0.0301650167 15.5208013,0.43651772 C14.7153923,0.847053106 17.5702253,4.05225805 17.9976936,3.48606471 Z"/>
          <path fill="#989FDD" d="M17.9976936,3.48606471 C18.6724069,2.59238879 19.0004125,1.28953507 18.2351799,0.512254599 C17.5701495,-0.1632461 16.4363629,-0.0301650167 15.5208013,0.43651772 C14.7153923,0.847053106 17.5702253,4.05225805 17.9976936,3.48606471 Z"/>
          <path fill="#989FDD" d="M2.69781927,3.48606471 C3.37253253,2.59238879 3.70053817,1.28953507 2.93530558,0.512254599 C2.27027517,-0.1632461 1.13648854,-0.0301650167 0.220926917,0.43651772 C-0.584482012,0.847053106 2.27035094,4.05225805 2.69781927,3.48606471 Z" transform="matrix(-1 0 0 1 3.455 0)"/>
        </g>
        <mask id="people-d" fill="#fff">
          <use xlink:href="#people-c"/>
        </mask>
        <use fill="#FFF" stroke="#989FDD" stroke-width=".853" xlink:href="#people-c"/>
        <g mask="url(#people-d)">
          <g transform="translate(2.6 5.163)">
            <g transform="matrix(-1 0 0 1 3.341 .05)">
              <path fill="#989FDD" d="M1.14520018,1.70616114 C1.70740159,1.70616114 2.29040035,1.51339881 2.29040035,0.974949221 C2.29040035,0.436499635 1.70740159,0 1.14520018,0 C0.582998761,0 0,0.436499635 0,0.974949221 C0,1.51339881 0.582998761,1.70616114 1.14520018,1.70616114 Z"/>
              <ellipse cx="1.145" cy=".855" fill="#FFF" rx="1" ry="1"/>
            </g>
            <g transform="translate(10.213 .05)">
              <path fill="#989FDD" d="M1.14520018,1.70616114 C1.70740159,1.70616114 2.29040035,1.51339881 2.29040035,0.974949221 C2.29040035,0.436499635 1.70740159,0 1.14520018,0 C0.582998761,0 0,0.436499635 0,0.974949221 C0,1.51339881 0.582998761,1.70616114 1.14520018,1.70616114 Z"/>
              <ellipse cx="1.145" cy=".855" fill="#FFF" rx="1" ry="1"/>
            </g>
          </g>
        </g>
        <g fill="#989FDD" fill-rule="nonzero" stroke="#989FDD" stroke-width=".598" mask="url(#people-d)">
          <path d="M14.5107693,6.17890995 L13.6401237,6.17890995 C13.4299678,6.15100538 13.219812,6.12791194 13.0115325,6.09327178 C12.6325015,6.03072704 12.2666051,5.92007098 11.9072762,5.7766992 C11.3049545,5.5351803 10.8818283,5.09063158 10.5356341,4.54889795 C10.1190752,3.89747049 9.81322335,3.19985615 9.66029745,2.43488594 C9.60869669,2.17700918 9.47172012,1.98071494 9.21090171,1.92009466 C8.79059003,1.82387199 8.46503612,2.00284616 8.37872211,2.42333922 C8.24737471,3.06033328 8.02314594,3.65883827 7.69946841,4.21789198 C7.46961047,4.6152916 7.22474138,5.00595563 6.87948536,5.31098149 C6.44322436,5.69779661 5.91502017,5.88927972 5.36336109,6.02495368 C5.04437455,6.10385627 4.71975883,6.13945866 4.39514312,6.17890995 L3.52449749,6.17890995 C3.49916621,6.17409882 3.47383493,6.16736323 3.44850364,6.16351433 C2.43712866,6.0182181 1.6856339,5.51978468 1.28971531,4.52003115 C0.99606005,3.77622993 0.835628583,2.99778854 0.70709577,2.21164935 C0.647989441,1.84792766 0.540096934,1.52943063 0.17326241,1.37836104 C0.121661646,1.35719205 0.118847059,1.30908072 0.116032472,1.26385606 C0.104774123,1.09354194 0.095392166,0.922265592 0.0850720131,0.750989243 L0.0850720131,0.269875902 C0.857207084,0.160182061 1.63215674,0.0841661529 2.41085918,0.0495259923 C2.61820044,0.0399037255 2.82647988,0.0514504457 3.03288294,0.0177725118 L4.86424097,0.0177725118 C5.27704709,0.0668460726 5.69079139,0.113032953 6.09984473,0.192897768 C6.652442,0.301629383 7.2003483,0.423832171 7.70134481,0.701915682 C7.84957973,0.78370495 8.01094939,0.832778511 8.17794823,0.857796405 C8.61045645,0.920341139 9.04577926,0.910718872 9.48016388,0.893398792 C9.63590436,0.887625432 9.79070666,0.876078712 9.94550895,0.842400778 C10.1856871,0.790440537 10.3939665,0.660539935 10.6153807,0.564317267 C11.1191918,0.344929584 11.6530251,0.242933555 12.1877967,0.148635341 C12.5133506,0.0909017396 12.8426573,0.0591482591 13.1710258,0.0187347385 L15.0023838,0.0187347385 C15.0530464,0.0370170455 15.1046472,0.0331681388 15.1571861,0.0331681388 C15.53997,0.0350925921 15.9208774,0.0629971659 16.3027231,0.0889772863 C16.8543822,0.126504127 17.4032267,0.190011088 17.9501948,0.270838129 L17.9501948,0.75195147 C17.9201725,0.913605552 17.941751,1.07910854 17.9248635,1.24172485 C17.9164197,1.32158967 17.8873357,1.37066323 17.81228,1.40530339 C17.5833602,1.51018609 17.4416927,1.69589584 17.3844628,1.94415033 C17.3450585,2.11446445 17.3187891,2.28766525 17.2878286,2.45990383 C17.1574194,3.16906489 17.0026171,3.86956592 16.7380459,4.54216237 C16.4162448,5.35813059 15.8251815,5.84694175 15.0145804,6.08268728 C14.8494579,6.12983639 14.6787063,6.1481187 14.5107693,6.17890995 Z M13.5774922,0.573222886 C13.1132086,0.587687739 12.6282484,0.544293179 12.1461077,0.622403388 C11.7682899,0.684120096 11.4008104,0.774766511 11.0718645,0.986917695 C10.813407,1.15374567 10.6273176,1.38036171 10.5446112,1.6870166 C10.4835213,1.91266832 10.4515665,2.14410597 10.4515665,2.37747228 C10.4515665,3.05924904 10.6254379,3.69280962 10.9750604,4.27140376 C11.2635929,4.7477796 11.6207342,5.14700956 12.1489273,5.35530345 C12.8632098,5.63785025 13.6009884,5.75646205 14.3622631,5.69667399 C14.7635771,5.66581564 15.1479739,5.55974004 15.4900776,5.32926671 C15.846279,5.08915014 16.0803005,4.73813637 16.2804875,4.36397882 C16.6573655,3.6590583 16.7447712,2.88663512 16.7438313,2.10071141 C16.7428915,1.59637019 16.5107497,1.21835535 16.0925185,0.958952312 C15.7203397,0.72847898 15.3077476,0.636868241 14.8810578,0.598295298 C14.4534281,0.559722356 14.0248586,0.578044504 13.5774922,0.573222886 Z M4.03994136,5.71017452 C4.58505168,5.7092102 5.06249313,5.64074322 5.53147597,5.49127307 C5.91775242,5.36880398 6.29557026,5.22608409 6.58692233,4.91846487 C7.3463174,4.11904064 7.6903008,3.16532463 7.59067719,2.05056659 C7.55684276,1.67930202 7.44218162,1.34178877 7.14331079,1.09588626 C6.93278543,0.92327234 6.69312486,0.81237513 6.43748692,0.735229245 C5.96756423,0.593473681 5.48636339,0.561651003 5.00046333,0.572258562 C4.3265942,0.586723416 3.65178522,0.53368562 2.97979577,0.62047474 C2.57942164,0.672548213 2.19972411,0.788267041 1.866079,1.03127658 C1.52115575,1.28200071 1.34258513,1.62819287 1.32190853,2.06020982 C1.30781085,2.35143554 1.33694606,2.64073261 1.36984064,2.92906536 C1.43375013,3.49705194 1.57660663,4.0399661 1.87829699,4.52791383 C2.10761926,4.8991784 2.36419705,5.24247759 2.76645087,5.44016392 C3.18468207,5.64845781 3.62922893,5.71692479 4.03994136,5.71017452 Z" transform="translate(.36 2.92)"/>
        </g>
        <g mask="url(#people-d)">
          <g transform="translate(4.518 5.414)">
            <mask id="people-f" fill="#fff">
              <use xlink:href="#people-e"/>
            </mask>
            <use fill="#F4F8F9" stroke="#989FDD" stroke-width=".853" xlink:href="#people-e"/>
            <path stroke="#989FDD" stroke-linecap="round" stroke-linejoin="round" stroke-width=".853" d="M4.67199554,6.33587976 C4.67199554,6.33587976 4.81491048,8.19636414 3.36194187,8.66148524 C1.90897326,9.12660634 0.00344066032,7.70388298 0.00344066032,7.70388298" mask="url(#people-f)"/>
            <path stroke="#989FDD" stroke-linecap="round" stroke-linejoin="round" stroke-width=".853" d="M9.67815631,6.33587976 C9.67815631,6.33587976 9.82107126,8.19636414 8.36810265,8.66148524 C6.91513404,9.12660634 5.00960143,7.70388298 5.00960143,7.70388298" mask="url(#people-f)" transform="matrix(-1 0 0 1 14.692 0)"/>
            <path fill="#989FDD" d="M3.51368375,4.74395087 C3.95678776,4.54931263 4.39989176,4.4519935 4.84299577,4.4519935 C5.28606775,4.4519935 5.72913974,4.54929856 6.17221172,4.74390867 L6.17224917,4.74382342 C6.30322304,4.80135096 6.36276306,4.95416155 6.30523552,5.08513543 C6.29866101,5.10010373 6.29068412,5.11441597 6.28141163,5.12788057 L4.84299577,7.21660646 L3.40457396,5.12784215 C3.32347338,5.01007588 3.3531968,4.84886245 3.47096307,4.76776188 C3.48442005,4.75849463 3.49872408,4.75052207 3.51368375,4.74395087 Z" mask="url(#people-f)"/>
          </g>
        </g>
      </g>
      <path fill="#989FDD" d="M243.38,21.43 C249.106,22.268 246.956,37.741 246.957,42.072 C246.957,46.871 246.957,51.67 246.958,56.469 C246.958,58.334 246.958,60.198 246.958,62.063 C246.958,71.754 246.958,81.446 246.958,91.138 C246.958,117.454 246.958,143.771 246.958,170.087 C246.958,176.525 246.958,182.963 246.958,189.401 C246.958,190.72 249.869,190.162 249.869,189.088 C249.869,146.361 249.869,103.634 249.869,60.907 C249.869,58.014 249.869,55.12 249.868,52.227 C249.868,44.614 249.899,37.001 249.867,29.388 C249.847,24.878 249.787,20.401 244.463,19.622 C243.232,19.442 241.44,21.147 243.38,21.43"/>
      <path fill="#989FDD" d="M251.234,209.752 C228.747,209.752 206.26,209.752 183.773,209.752 C144.246,209.752 104.718,209.752 65.191,209.752 C51.876,209.752 38.561,209.752 25.247,209.752 C22.515,209.752 19.767,209.84 17.036,209.752 C9.537,209.51 4.69,204.026 4.466,196.716 C3.549,166.792 4.466,136.698 4.466,106.762 C4.466,87.824 4.466,68.886 4.466,49.948 C4.466,40.423 4.092,30.812 4.466,21.292 C5.003,7.609 17.112,9.222 26.611,9.222 C40.801,9.222 54.991,9.222 69.181,9.222 C108.838,9.222 148.495,9.222 188.152,9.222 C203.403,9.222 218.654,9.222 233.905,9.222 C241.31,9.222 253.667,7.145 258.899,13.66 C262.044,17.577 261.771,21.868 261.771,26.464 C261.771,31.92 261.771,37.377 261.771,42.834 C261.771,60.98 261.771,79.127 261.771,97.273 C261.771,129.817 261.771,162.36 261.771,194.904 C261.771,202.062 259.401,209.336 250.746,209.773 C248.792,209.872 247.572,212.144 250.244,212.009 C258.879,211.573 265.508,205.406 265.641,196.64 C265.7,192.771 265.641,188.895 265.641,185.026 C265.641,168.151 265.641,151.277 265.641,134.403 C265.641,98.518 265.641,62.634 265.641,26.749 C265.641,23.57 265.995,19.908 265.044,16.848 C262.935,10.067 256.637,7.014 249.999,6.944 C240.294,6.843 230.582,6.944 220.876,6.944 C181.186,6.944 141.495,6.944 101.805,6.944 C73.781,6.944 45.74,6.653 17.717,6.944 C11.522,7.009 5.474,9.204 2.32,14.931 C0.313,18.574 0.595,22.49 0.595,26.464 C0.595,40.855 0.595,55.246 0.595,69.637 C0.595,107.884 0.595,146.131 0.595,184.377 C0.595,195.055 -1.355,210.323 13.434,211.935 C20.41,212.695 27.767,212.03 34.765,212.03 C72.608,212.03 110.452,212.03 148.295,212.03 C180.356,212.03 212.418,212.03 244.479,212.03 C246.238,212.03 247.996,212.03 249.755,212.03 C251.264,212.03 253.836,209.752 251.234,209.752"/>
      <path fill="#FFF" d="M181.587,112.074 C181.587,142.569 156.866,167.291 126.37,167.291 C95.875,167.291 71.154,142.569 71.154,112.074 C71.154,81.579 95.875,56.857 126.37,56.857 C156.866,56.857 181.587,81.579 181.587,112.074"/>
      <path fill="#989FDD" d="M89.789,99.043 C99.025,103.82 106.062,112.823 112.135,121.017 C115.969,126.191 119.615,131.559 122.852,137.131 C123.62,138.453 126.809,137.49 127.493,136.453 C134.476,125.884 141.939,115.599 149.667,105.566 C156.012,97.33 162.59,89.243 169.703,81.653 C175.471,75.499 181.759,68.998 189.356,65.108 C192.225,63.639 187.867,63.219 186.434,63.953 C179.189,67.663 173.133,73.549 167.516,79.335 C160.041,87.036 153.2,95.351 146.615,103.816 C138.371,114.414 130.442,125.309 123.04,136.514 C124.587,136.288 126.134,136.062 127.682,135.837 C124.343,130.091 120.596,124.548 116.643,119.212 C110.375,110.754 103.196,101.792 93.676,96.869 C92.433,96.226 87.976,98.106 89.789,99.043"/>
      <path fill="#989FDD" d="M179.173,112.378 C178.952,130.083 170.631,146.973 155.878,157.052 C140.426,167.607 120.163,168.643 103.504,160.26 C70.486,143.644 63.506,97.381 90.67,72.066 C107.649,56.242 132.596,54.269 152.545,65.697 C153.907,66.477 158.355,64.489 156.389,63.363 C137.95,52.8 114.889,53.012 96.627,63.904 C79.868,73.901 69.027,92.106 68.748,111.676 C68.47,131.208 78.564,149.618 95.084,160.011 C111.5,170.339 132.774,171.318 150.327,163.271 C170.535,154.008 183.724,134.016 184.002,111.77 C184.026,109.783 179.193,110.788 179.173,112.378"/>
      <path fill="#FFF" d="M258.375,264.773 L214.499,264.773 L214.499,256.951 L236.625,249.288 C247.27,245.601 258.375,253.507 258.375,264.773"/>
      <path fill="#989FDD" d="M259.396,263.708 C244.771,263.708 230.145,263.708 215.52,263.708 C215.985,263.847 216.449,263.987 216.914,264.126 C216.914,261.519 216.914,258.912 216.914,256.304 C216.397,256.738 215.88,257.171 215.363,257.605 C221.585,255.45 227.808,253.294 234.031,251.139 C238.109,249.727 241.952,248.799 246.215,250.588 C252.132,253.07 255.96,259.044 255.96,265.42 C255.96,266.366 260.79,265.632 260.79,264.126 C260.79,250.617 246.884,244.979 235.564,248.703 C228.219,251.12 220.943,253.767 213.636,256.298 C213.094,256.485 212.085,256.9 212.085,257.598 C212.085,260.206 212.085,262.813 212.085,265.42 C212.085,265.907 213.248,265.839 213.479,265.839 C228.104,265.839 242.729,265.839 257.354,265.839 C258.785,265.839 262.595,263.708 259.396,263.708"/>
      <path fill="#989FDD" d="M227.625,260.979 C230.408,260.979 231.31,257.371 228.034,257.371 C225.251,257.371 224.349,260.979 227.625,260.979"/>
    </g>
  </g>
</svg>
