<svg xmlns="http://www.w3.org/2000/svg" width="250" height="200" viewBox="0 0 250 200">
  <g fill="none" fill-rule="evenodd">
    <path fill="#CBCFEE" d="M4.18333333,195.33703 C0.373015873,194.50099 -1.03134921,193.51604 0.792460317,192.355644 C13.4765873,184.287525 70.572619,184.533069 98.2686508,184.542178 C133.104762,184.553267 169.351587,184.340594 200.728571,186.30495 C213.859127,187.126733 243.60873,187.882772 248.711508,190.612673 C262.094048,197.783762 167.176587,199.756436 151.813889,199.854257 C126.203571,200.01703 25.9472222,200.111287 4.18333333,195.33703"/>
    <path fill="#FFF" d="M209.505159,0.884356436 L188.480556,0.884356436 C187.425,0.884356436 186.569841,1.73821782 186.569841,2.79128713 L186.569841,13.9718812 L211.415873,13.9718812 L211.415873,2.79128713 C211.415873,1.73821782 210.560714,0.884356436 209.505159,0.884356436"/>
    <path fill="#989FDD" d="M209.584921,0.163564356 C204.491667,0.163564356 199.39881,0.163564356 194.305952,0.163564356 C192.41746,0.163564356 190.453175,0.00831683168 188.569444,0.163564356 C185.501587,0.416633663 185.597222,2.97821782 185.597222,5.30613861 C185.597222,8.2170297 185.597222,11.1279208 185.597222,14.0388119 C185.597222,14.5390099 186.05873,14.6926733 186.490079,14.6926733 C194.772222,14.6926733 203.054365,14.6926733 211.336508,14.6926733 C211.723016,14.6926733 212.388492,14.3611881 212.388492,13.9045545 C212.388492,11.3417822 212.388492,8.7790099 212.388492,6.21623762 C212.388492,3.84990099 213.009127,0.596435644 209.832143,0.170693069 C208.864683,0.0407920792 207.890873,1.42574257 209.178571,1.59841584 C211.301587,1.88316832 210.443651,6.93346535 210.443651,8.25386139 C210.443651,10.1821782 210.443651,12.110495 210.443651,14.0388119 C210.794048,13.7762376 211.144841,13.5136634 211.495635,13.2506931 C203.213492,13.2506931 194.931349,13.2506931 186.649206,13.2506931 C186.946825,13.4689109 187.244444,13.6867327 187.542063,13.9045545 C187.542063,10.8867327 187.542063,7.86851485 187.542063,4.85029703 C187.542063,3.86930693 187.177381,2.0170297 188.487302,1.60554455 C189.210317,1.37821782 190.367063,1.60554455 191.115079,1.60554455 C197.218651,1.60554455 203.322222,1.60554455 209.425794,1.60554455 C210.535317,1.60554455 210.884127,0.163564356 209.584921,0.163564356"/>
    <path fill="#FFF" d="M167.037698,0.884356436 L146.012698,0.884356436 C144.95754,0.884356436 144.101984,1.73821782 144.101984,2.79128713 L144.101984,13.9718812 L168.948413,13.9718812 L168.948413,2.79128713 C168.948413,1.73821782 168.092857,0.884356436 167.037698,0.884356436"/>
    <path fill="#989FDD" d="M167.117063,0.163564356 C162.024206,0.163564356 156.931349,0.163564356 151.838095,0.163564356 C149.95,0.163564356 147.985714,0.00831683168 146.101984,0.163564356 C143.034127,0.416633663 143.129762,2.97821782 143.129762,5.30613861 C143.129762,8.2170297 143.129762,11.1279208 143.129762,14.0388119 C143.129762,14.5390099 143.59127,14.6926733 144.022619,14.6926733 C152.304762,14.6926733 160.586905,14.6926733 168.869048,14.6926733 C169.255556,14.6926733 169.920635,14.3611881 169.920635,13.9045545 C169.920635,11.3417822 169.920635,8.7790099 169.920635,6.21623762 C169.920635,3.84990099 170.541667,0.596435644 167.364286,0.170693069 C166.396825,0.0407920792 165.423413,1.42574257 166.711111,1.59841584 C168.83373,1.88316832 167.97619,6.93346535 167.97619,8.25386139 C167.97619,10.1821782 167.97619,12.110495 167.97619,14.0388119 C168.326587,13.7762376 168.677381,13.5136634 169.027778,13.2506931 C160.745635,13.2506931 152.463889,13.2506931 144.181746,13.2506931 C144.479365,13.4689109 144.776984,13.6867327 145.074603,13.9045545 C145.074603,10.8867327 145.074603,7.86851485 145.074603,4.85029703 C145.074603,3.86930693 144.709921,2.0170297 146.019841,1.60554455 C146.742857,1.37821782 147.899603,1.60554455 148.647619,1.60554455 C154.75119,1.60554455 160.854762,1.60554455 166.958333,1.60554455 C168.06746,1.60554455 168.416667,0.163564356 167.117063,0.163564356"/>
    <path fill="#CBCFEE" d="M225.450397,83.7710891 L130.067857,83.7710891 C127.437698,83.7710891 125.305952,81.6431683 125.305952,79.0186139 L125.305952,18.7243564 C125.305952,16.0994059 127.437698,13.9718812 130.067857,13.9718812 L225.450397,13.9718812 C228.080159,13.9718812 230.212302,16.0994059 230.212302,18.7243564 L230.212302,79.0186139 C230.212302,81.6431683 228.080159,83.7710891 225.450397,83.7710891"/>
    <path fill="#989FDD" d="M225.538492,83.0811881 C217.451587,83.0811881 209.364683,83.0811881 201.277778,83.0811881 C186.187698,83.0811881 171.097619,83.0811881 156.00754,83.0811881 C150.03373,83.0811881 144.059921,83.0811881 138.086508,83.0811881 C135.489286,83.0811881 132.801587,83.2819802 130.209921,83.0811881 C125.165873,82.6906931 126.275794,76.2217822 126.275794,72.7473267 C126.275794,66.0110891 126.275794,59.2748515 126.275794,52.5390099 C126.275794,45.1805941 126.275794,37.8221782 126.275794,30.4641584 C126.275794,26.570297 126.125,22.6435644 126.275794,18.7520792 C126.458333,14.04 130.771825,14.6613861 134.056746,14.6613861 C139.093651,14.6613861 144.130556,14.6613861 149.16746,14.6613861 C164.179762,14.6613861 179.191667,14.6613861 194.203968,14.6613861 C204.321429,14.6613861 214.439286,14.6613861 224.557143,14.6613861 C227.037302,14.6613861 229.089286,16.129901 229.24246,18.8087129 C229.299206,19.8039604 229.24246,20.8194059 229.24246,21.8158416 C229.24246,27.7461386 229.24246,33.6768317 229.24246,39.6075248 C229.24246,52.3366337 229.24246,65.0657426 229.24246,77.7948515 C229.24246,80.2788119 228.660714,82.9136634 225.538492,83.0811881 C224.462698,83.1390099 224.053571,84.5306931 225.362698,84.4605941 C228.652778,84.2835644 231.128571,81.9279208 231.182143,78.6079208 C231.207937,77.0182178 231.182143,75.4261386 231.182143,73.8364356 C231.182143,67.0633663 231.182143,60.290297 231.182143,53.5176238 C231.182143,45.8328713 231.182143,38.1485149 231.182143,30.4641584 C231.182143,26.5457426 231.329762,22.5956436 231.182143,18.6792079 C231.059921,15.4344554 228.610714,13.3382178 225.432143,13.2823762 C224.509921,13.2657426 223.586111,13.2823762 222.663889,13.2823762 C217.760317,13.2823762 212.856349,13.2823762 207.952381,13.2823762 C192.469048,13.2823762 176.985317,13.2823762 161.501587,13.2823762 C151.215873,13.2823762 140.921429,13.16 130.636111,13.2823762 C128.221032,13.3108911 125.868651,14.3493069 124.815079,16.6574257 C124.199206,18.0055446 124.335714,19.5140594 124.335714,20.9552475 C124.335714,26.7972277 124.335714,32.639604 124.335714,38.4815842 C124.335714,51.6661386 124.335714,64.8506931 124.335714,78.0352475 C124.335714,80.199604 124.740873,82.2308911 126.719841,83.5346535 C128.053175,84.4130693 129.526587,84.4605941 131.045635,84.4605941 C135.053571,84.4605941 139.061508,84.4605941 143.069444,84.4605941 C158.143651,84.4605941 173.217857,84.4605941 188.292063,84.4605941 C200.026587,84.4605941 211.761111,84.4605941 223.496032,84.4605941 C224.118254,84.4605941 224.740476,84.4605941 225.362698,84.4605941 C226.44881,84.4605941 226.840476,83.0811881 225.538492,83.0811881"/>
    <path fill="#FFF" d="M220.055952,77.8930693 L135.922619,77.8930693 C133.203968,77.8930693 131,75.6617822 131,72.909703 L131,23.9829703 C131,21.2308911 133.203968,19 135.922619,19 L220.055952,19 C222.774603,19 224.978571,21.2308911 224.978571,23.9829703 L224.978571,72.909703 C224.978571,75.6617822 222.774603,77.8930693 220.055952,77.8930693"/>
    <text fill="#989FDD" font-family="OpenSans-SemiBold, Open Sans" font-size="8" font-weight="500">
      <tspan x="146" y="52">ОБСУЖИВАНИЕ</tspan>
    </text>
    <path fill="#D0F0DC" d="M104.977778,1.32871287 L83.9527778,1.32871287 C82.897619,1.32871287 82.0420635,2.18217822 82.0420635,3.23564356 L82.0420635,14.4158416 L106.888095,14.4158416 L106.888095,3.23564356 C106.888095,2.18217822 106.032937,1.32871287 104.977778,1.32871287"/>
    <path fill="#989FDD" d="M105.057143,0.607524752 C99.9638889,0.607524752 94.8710317,0.607524752 89.7781746,0.607524752 C87.8900794,0.607524752 85.9253968,0.452277228 84.0420635,0.607524752 C80.9738095,0.860594059 81.0698413,3.42257426 81.0698413,5.75049505 C81.0698413,8.66138614 81.0698413,11.5722772 81.0698413,14.4831683 C81.0698413,14.9833663 81.5309524,15.1370297 81.9626984,15.1370297 C90.2444444,15.1370297 98.5265873,15.1370297 106.80873,15.1370297 C107.195238,15.1370297 107.860714,14.8051485 107.860714,14.3489109 C107.860714,11.7861386 107.860714,9.2229703 107.860714,6.66019802 C107.860714,4.29386139 108.481349,1.04079208 105.304365,0.614653465 C104.336905,0.484752475 103.363095,1.86970297 104.650794,2.04237624 C106.77381,2.32712871 105.915873,7.37742574 105.915873,8.69782178 C105.915873,10.6261386 105.915873,12.5544554 105.915873,14.4831683 C106.266667,14.220198 106.617063,13.9576238 106.967857,13.6950495 C98.6857143,13.6950495 90.4035714,13.6950495 82.1214286,13.6950495 C82.4190476,13.9128713 82.7166667,14.1306931 83.0142857,14.3489109 C83.0142857,11.3306931 83.0142857,8.31247525 83.0142857,5.29465347 C83.0142857,4.31366337 82.6496032,2.4609901 83.9595238,2.04950495 C84.6825397,1.82257426 85.8392857,2.04950495 86.5873016,2.04950495 C92.690873,2.04950495 98.7944444,2.04950495 104.898016,2.04950495 C106.00754,2.04950495 106.356349,0.607524752 105.057143,0.607524752"/>
    <path fill="#D0F0DC" d="M62.5099206,1.32871287 L41.4853175,1.32871287 C40.4297619,1.32871287 39.5746032,2.18217822 39.5746032,3.23564356 L39.5746032,14.4158416 L64.4206349,14.4158416 L64.4206349,3.23564356 C64.4206349,2.18217822 63.5654762,1.32871287 62.5099206,1.32871287"/>
    <path fill="#989FDD" d="M62.5896825,0.607524752 C57.4964286,0.607524752 52.4035714,0.607524752 47.3107143,0.607524752 C45.4222222,0.607524752 43.4579365,0.452277228 41.5742063,0.607524752 C38.5063492,0.860594059 38.6019841,3.42257426 38.6019841,5.75049505 C38.6019841,8.66138614 38.6019841,11.5722772 38.6019841,14.4831683 C38.6019841,14.9833663 39.0634921,15.1370297 39.4948413,15.1370297 C47.7769841,15.1370297 56.059127,15.1370297 64.3412698,15.1370297 C64.7277778,15.1370297 65.393254,14.8051485 65.393254,14.3489109 C65.393254,11.7861386 65.393254,9.2229703 65.393254,6.66019802 C65.393254,4.29386139 66.0138889,1.04079208 62.8369048,0.614653465 C61.8694444,0.484752475 60.8956349,1.86970297 62.1833333,2.04237624 C64.3063492,2.32712871 63.4484127,7.37742574 63.4484127,8.69782178 C63.4484127,10.6261386 63.4484127,12.5544554 63.4484127,14.4831683 C63.7988095,14.220198 64.1496032,13.9576238 64.5,13.6950495 C56.218254,13.6950495 47.9361111,13.6950495 39.6539683,13.6950495 C39.9515873,13.9128713 40.2492063,14.1306931 40.5468254,14.3489109 C40.5468254,11.3306931 40.5468254,8.31247525 40.5468254,5.29465347 C40.5468254,4.31366337 40.1821429,2.4609901 41.4920635,2.04950495 C42.2150794,1.82257426 43.3718254,2.04950495 44.1198413,2.04950495 C50.2234127,2.04950495 56.3269841,2.04950495 62.4305556,2.04950495 C63.5400794,2.04950495 63.8888889,0.607524752 62.5896825,0.607524752"/>
    <path fill="#96E296" d="M120.922619,84.2150495 L25.5400794,84.2150495 C22.9099206,84.2150495 20.7781746,82.0875248 20.7781746,79.4625743 L20.7781746,19.1683168 C20.7781746,16.5437624 22.9099206,14.4158416 25.5400794,14.4158416 L120.922619,14.4158416 C123.552778,14.4158416 125.684524,16.5437624 125.684524,19.1683168 L125.684524,79.4625743 C125.684524,82.0875248 123.552778,84.2150495 120.922619,84.2150495"/>
    <path fill="#989FDD" d="M121.010714,83.5255446 C112.92381,83.5255446 104.836905,83.5255446 96.75,83.5255446 C81.6599206,83.5255446 66.5698413,83.5255446 51.4797619,83.5255446 C45.5059524,83.5255446 39.5321429,83.5255446 33.5587302,83.5255446 C30.9615079,83.5255446 28.2738095,83.7263366 25.6821429,83.5255446 C20.6380952,83.1346535 21.7480159,76.6661386 21.7480159,73.1912871 C21.7480159,66.4550495 21.7480159,59.7192079 21.7480159,52.9829703 C21.7480159,45.6245545 21.7480159,38.2665347 21.7480159,30.9081188 C21.7480159,27.0146535 21.597619,23.0875248 21.7480159,19.1960396 C21.9305556,14.4839604 26.2444444,15.1053465 29.5289683,15.1053465 C34.565873,15.1053465 39.6027778,15.1053465 44.6396825,15.1053465 C59.6519841,15.1053465 74.6638889,15.1053465 89.6761905,15.1053465 C99.7940476,15.1053465 109.911508,15.1053465 120.029365,15.1053465 C122.509524,15.1053465 124.561508,16.5738614 124.714683,19.2526733 C124.771429,20.2479208 124.714683,21.2633663 124.714683,22.259802 C124.714683,28.190495 124.714683,34.1211881 124.714683,40.0518812 C124.714683,52.7809901 124.714683,65.510099 124.714683,78.2388119 C124.714683,80.7227723 124.132937,83.3576238 121.010714,83.5255446 C119.934921,83.5833663 119.525794,84.9750495 120.834921,84.9045545 C124.125,84.7279208 126.600794,82.3722772 126.654762,79.0518812 C126.680556,77.4625743 126.654762,75.870495 126.654762,74.2807921 C126.654762,67.5077228 126.654762,60.7346535 126.654762,53.9615842 C126.654762,46.2772277 126.654762,38.5924752 126.654762,30.9081188 C126.654762,26.989703 126.801984,23.039604 126.654762,19.1235644 C126.53254,15.8788119 124.082937,13.7825743 120.904365,13.7263366 C119.982143,13.710099 119.058333,13.7263366 118.136111,13.7263366 C113.23254,13.7263366 108.328571,13.7263366 103.424603,13.7263366 C87.9412698,13.7263366 72.4575397,13.7263366 56.9742063,13.7263366 C46.6880952,13.7263366 36.3936508,13.6043564 26.1083333,13.7263366 C23.693254,13.7548515 21.3412698,14.7936634 20.2873016,17.1013861 C19.6718254,18.449505 19.8079365,19.9580198 19.8079365,21.3992079 C19.8079365,27.2415842 19.8079365,33.0835644 19.8079365,38.9255446 C19.8079365,52.110099 19.8079365,65.2946535 19.8079365,78.4792079 C19.8079365,80.6439604 20.2130952,82.6748515 22.1920635,83.9786139 C23.5253968,84.8570297 24.9992063,84.9045545 26.5178571,84.9045545 C30.5257937,84.9045545 34.5337302,84.9045545 38.5416667,84.9045545 C53.615873,84.9045545 68.6900794,84.9045545 83.7642857,84.9045545 C95.4988095,84.9045545 107.23373,84.9045545 118.968254,84.9045545 C119.590476,84.9045545 120.212698,84.9045545 120.834921,84.9045545 C121.921032,84.9045545 122.313095,83.5255446 121.010714,83.5255446"/>
    <path fill="#80DC8B" d="M115.613492,78.8930693 L30.3650794,78.8930693 C27.9543651,78.8930693 26,76.9425743 26,74.5366337 L26,24.3564356 C26,21.950495 27.9543651,20 30.3650794,20 L115.613492,20 C118.024206,20 119.978571,21.950495 119.978571,24.3564356 L119.978571,74.5366337 C119.978571,76.9425743 118.024206,78.8930693 115.613492,78.8930693"/>
    <path fill="#E4FFED" d="M66.4277344,52.625 L66.6230469,52.625 C67.7949277,52.625 68.7112597,52.3108755 69.3720703,51.6826172 C70.0328809,51.0543588 70.3632812,50.1803441 70.3632812,49.0605469 C70.3632812,48.018875 70.0556671,47.1920604 69.4404297,46.5800781 C68.8251922,45.9680959 67.9804741,45.6621094 66.90625,45.6621094 L66.4277344,45.6621094 L66.4277344,52.625 Z M64.2207031,56.6777344 L64.2207031,54.4804688 L63.8984375,54.4804688 C62.7330671,54.4804688 61.7093143,54.2672547 60.8271484,53.8408203 C59.9449826,53.4143859 59.2532577,52.7747438 58.7519531,51.921875 C58.2506485,51.0690062 58,50.12175 58,49.0800781 C58,48.0709585 58.2278623,47.1611369 58.6835938,46.3505859 C59.1393252,45.540035 59.7936155,44.9052757 60.6464844,44.4462891 C61.4993532,43.9873024 62.4986922,43.7578125 63.6445312,43.7578125 L64.2207031,43.7578125 L64.2207031,42 L66.4277344,42 L66.4277344,43.7578125 L67.0234375,43.7578125 C68.175787,43.7578125 69.1767536,43.9856748 70.0263672,44.4414062 C70.8759808,44.8971377 71.5237608,45.5270142 71.9697266,46.3310547 C72.4156923,47.1350952 72.6386719,48.0514271 72.6386719,49.0800781 C72.6386719,50.1412813 72.3880233,51.0950479 71.8867188,51.9414062 C71.3854142,52.7877646 70.6969445,53.4225239 69.8212891,53.8457031 C68.9456336,54.2688823 67.9186257,54.4804688 66.7402344,54.4804688 L66.4277344,54.4804688 L66.4277344,56.6777344 L64.2207031,56.6777344 Z M64.2207031,45.6621094 L63.7421875,45.6621094 C62.6614529,45.6621094 61.8151072,45.9697235 61.203125,46.5849609 C60.5911428,47.2001984 60.2851562,48.0253854 60.2851562,49.0605469 C60.2851562,50.1673232 60.613929,51.0380828 61.2714844,51.6728516 C61.9290397,52.3076204 62.8535097,52.625 64.0449219,52.625 L64.2207031,52.625 L64.2207031,45.6621094 Z M87.483817,56.4824219 L85.140067,56.4824219 L85.140067,50.046875 L78.5580357,50.046875 L78.5580357,56.4824219 L76.2240514,56.4824219 L76.2240514,42.2050781 L78.5580357,42.2050781 L78.5580357,48.0449219 L85.140067,48.0449219 L85.140067,42.2050781 L87.483817,42.2050781 L87.483817,56.4824219 Z"/>
    <path fill="#96E296" d="M226.050794,188.698614 L25.7619048,188.698614 C23.131746,188.698614 21,186.571089 21,183.946139 L21,88.7524752 C21,86.1279208 23.131746,84 25.7619048,84 L226.050794,84 C228.680952,84 230.812698,86.1279208 230.812698,88.7524752 L230.812698,183.946139 C230.812698,186.571089 228.680952,188.698614 226.050794,188.698614"/>
    <path fill="#989FDD" d="M225.917063,188.224158 C222.04127,188.224158 218.165476,188.224158 214.290079,188.224158 C204.340079,188.224158 194.390079,188.224158 184.440079,188.224158 C170.931746,188.224158 157.423413,188.224158 143.915079,188.224158 C129.364286,188.224158 114.813095,188.224158 100.262302,188.224158 C87.1845238,188.224158 74.106746,188.224158 61.0293651,188.224158 C51.9404762,188.224158 42.8519841,188.224158 33.7630952,188.224158 C31.5011905,188.224158 29.2388889,188.224158 26.9765873,188.224158 C24.2642857,188.224158 21.8753968,187.089901 21.7480159,183.870495 C21.4242063,175.66495 21.7480159,167.38099 21.7480159,159.171089 C21.7480159,145.004356 21.7480159,130.837624 21.7480159,116.670891 C21.7480159,107.640792 21.6904762,98.6083168 21.7480159,89.5782178 C21.7630952,87.2261386 22.7805556,85.0954455 25.4531746,84.9045545 C25.7257937,84.8851485 26.0071429,84.9045545 26.2805556,84.9045545 C28.2825397,84.9045545 30.284127,84.9045545 32.2861111,84.9045545 C40.9900794,84.9045545 49.6940476,84.9045545 58.3980159,84.9045545 C71.2722222,84.9045545 84.1464286,84.9045545 97.0210317,84.9045545 C111.549603,84.9045545 126.078571,84.9045545 140.60754,84.9045545 C154.275,84.9045545 167.942857,84.9045545 181.610317,84.9045545 C191.900794,84.9045545 202.19127,84.9045545 212.481746,84.9045545 C216.836508,84.9045545 221.328175,84.5853465 225.675,84.9045545 C229.84881,85.2114851 229.621032,89.070495 229.621032,92.0609901 C229.621032,96.3889109 229.621032,100.716832 229.621032,105.045149 C229.621032,118.787327 229.621032,132.529505 229.621032,146.271683 C229.621032,157.570297 229.621032,168.869307 229.621032,180.168317 C229.621032,183.215842 230.305556,187.988515 225.917063,188.224158 C224.84127,188.28198 224.43254,189.673663 225.74127,189.603564 C228.910317,189.432871 231.44246,187.201188 231.561111,183.963564 C231.592063,183.122772 231.561111,182.275248 231.561111,181.434455 C231.561111,177.135842 231.561111,172.836832 231.561111,168.538218 C231.561111,154.515248 231.561111,140.492277 231.561111,126.469307 C231.561111,115.132277 231.561111,103.794851 231.561111,92.4574257 C231.561111,89.2506931 231.969048,85.5821782 228.35119,84.0011881 C226.846032,83.3433663 224.987698,83.5255446 223.368254,83.5255446 C216.194444,83.5255446 209.020635,83.5255446 201.846825,83.5255446 C189.639286,83.5255446 177.431746,83.5255446 165.224206,83.5255446 C150.554762,83.5255446 135.885317,83.5255446 121.215873,83.5255446 C106.819048,83.5255446 92.4222222,83.5255446 78.025,83.5255446 C66.6301587,83.5255446 55.2357143,83.5255446 43.840873,83.5255446 C38.027381,83.5255446 32.2130952,83.4974257 26.4,83.5255446 C22.9865079,83.5421782 19.9424603,85.4784158 19.8079365,89.1813861 C19.7115079,91.8435644 19.8079365,94.5271287 19.8079365,97.190495 C19.8079365,110.010693 19.8079365,122.831287 19.8079365,135.651485 C19.8079365,148.771089 19.8079365,161.890693 19.8079365,175.010297 C19.8079365,177.973069 19.7607143,180.939802 19.8079365,183.902178 C19.8666667,187.554059 22.5099206,189.580594 25.9940476,189.603564 C31.5281746,189.639604 37.0638889,189.603564 42.5984127,189.603564 C53.8210317,189.603564 65.0440476,189.603564 76.2670635,189.603564 C90.597619,189.603564 104.928175,189.603564 119.25873,189.603564 C133.968651,189.603564 148.678571,189.603564 163.388492,189.603564 C175.787698,189.603564 188.186905,189.603564 200.586508,189.603564 C207.967857,189.603564 215.349206,189.603564 222.730952,189.603564 C223.734127,189.603564 224.737698,189.603564 225.74127,189.603564 C226.827778,189.603564 227.219444,188.224158 225.917063,188.224158"/>
    <path fill="#80DC8B" d="M219.334524,182.611485 L31.3650794,182.611485 C28.9543651,182.611485 27,180.66099 27,178.25505 L27,95.3564356 C27,92.950495 28.9543651,91 31.3650794,91 L219.334524,91 C221.745238,91 223.699603,92.950495 223.699603,95.3564356 L223.699603,178.25505 C223.699603,180.66099 221.745238,182.611485 219.334524,182.611485"/>
    <text fill="#E4FFED" font-family="OpenSans-SemiBold, Open Sans" font-size="8" font-weight="500" letter-spacing="1">
      <tspan x="80" y="159">В СОБСТВЕННОСТ</tspan> <tspan x="164.82" y="159">И</tspan>
    </text>
    <path fill="#E4FFED" d="M103.957031,143.482422 L101.212891,143.482422 L95.3339844,136.246094 L95.3339844,143.482422 L93,143.482422 L93,129.205078 L95.3339844,129.205078 L95.3339844,136.119141 L101.115234,129.205078 L103.673828,129.205078 L97.9121094,136.099609 L103.957031,143.482422 Z M115.699219,143.482422 L114.273438,139.517578 L108.814453,139.517578 L107.417969,143.482422 L104.957031,143.482422 L110.298828,129.146484 L112.837891,129.146484 L118.179688,143.482422 L115.699219,143.482422 Z M113.658203,137.505859 L112.320312,133.619141 C112.222656,133.358723 112.087566,132.948571 111.915039,132.388672 C111.742512,131.828773 111.623698,131.418621 111.558594,131.158203 C111.382812,131.958988 111.125653,132.834631 110.787109,133.785156 L109.498047,137.505859 L113.658203,137.505859 Z M127.138672,131.001953 C125.797519,131.001953 124.742842,131.477209 123.974609,132.427734 C123.206376,133.37826 122.822266,134.690096 122.822266,136.363281 C122.822266,138.114592 123.191728,139.439449 123.930664,140.337891 C124.6696,141.236333 125.738925,141.685547 127.138672,141.685547 C127.744144,141.685547 128.330075,141.625326 128.896484,141.504883 C129.462893,141.38444 130.05208,141.229819 130.664062,141.041016 L130.664062,143.042969 C129.544265,143.466148 128.274747,143.677734 126.855469,143.677734 C124.765615,143.677734 123.160813,143.044603 122.041016,141.77832 C120.921218,140.512038 120.361328,138.700533 120.361328,136.34375 C120.361328,134.859368 120.633135,133.560552 121.176758,132.447266 C121.72038,131.333979 122.506505,130.481123 123.535156,129.888672 C124.563807,129.296221 125.771477,129 127.158203,129 C128.616544,129 129.964187,129.305987 131.201172,129.917969 L130.361328,131.861328 C129.879555,131.633462 129.37012,131.433269 128.833008,131.260742 C128.295896,131.088215 127.731123,131.001953 127.138672,131.001953 Z M140.414062,131.001953 C139.07291,131.001953 138.018233,131.477209 137.25,132.427734 C136.481767,133.37826 136.097656,134.690096 136.097656,136.363281 C136.097656,138.114592 136.467119,139.439449 137.206055,140.337891 C137.944991,141.236333 139.014316,141.685547 140.414062,141.685547 C141.019534,141.685547 141.605466,141.625326 142.171875,141.504883 C142.738284,141.38444 143.327471,141.229819 143.939453,141.041016 L143.939453,143.042969 C142.819656,143.466148 141.550137,143.677734 140.130859,143.677734 C138.041005,143.677734 136.436204,143.044603 135.316406,141.77832 C134.196609,140.512038 133.636719,138.700533 133.636719,136.34375 C133.636719,134.859368 133.908526,133.560552 134.452148,132.447266 C134.995771,131.333979 135.781896,130.481123 136.810547,129.888672 C137.839198,129.296221 139.046868,129 140.433594,129 C141.891934,129 143.239577,129.305987 144.476562,129.917969 L143.636719,131.861328 C143.154946,131.633462 142.64551,131.433269 142.108398,131.260742 C141.571286,131.088215 141.006513,131.001953 140.414062,131.001953 Z M156.873047,143.482422 L155.447266,139.517578 L149.988281,139.517578 L148.591797,143.482422 L146.130859,143.482422 L151.472656,129.146484 L154.011719,129.146484 L159.353516,143.482422 L156.873047,143.482422 Z M154.832031,137.505859 L153.494141,133.619141 C153.396484,133.358723 153.261394,132.948571 153.088867,132.388672 C152.91634,131.828773 152.797526,131.418621 152.732422,131.158203 C152.55664,131.958988 152.299481,132.834631 151.960938,133.785156 L150.671875,137.505859 L154.832031,137.505859 Z"/>
  </g>
</svg>
