<svg xmlns="http://www.w3.org/2000/svg" width="280" height="200" viewBox="0 0 280 200">
  <g fill="none" fill-rule="evenodd">
    <path fill="#CBCFEE" d="M275.242971,196.134572 C278.056711,195.481041 279.847003,194.586245 279.641645,193.355762 C278.54244,186.767658 235.141698,188.446097 229.606684,188.407063 C209.511671,188.264684 189.422599,188.773978 169.327586,188.778067 C134.147109,188.785502 98.1206897,189.695167 62.6119363,189.784387 C48.102069,189.820818 33.4696552,189.005204 18.9779841,189.596283 C16.6039257,189.692937 -3.44206897,190.515613 0.939893899,195.665428 C4.06482759,199.337918 18.8387268,198.676952 23.1850398,198.933829 C35.3735809,199.653532 47.6081698,199.775836 59.8182493,199.808922 C76.2227586,199.852788 92.6257825,199.356877 109.027692,199.42119 C155.602759,199.604089 202.275119,199.718587 248.818992,197.989963 C251.294058,197.89777 267.32313,197.973606 275.242971,196.134572"/>
    <path fill="#CBCFEE" d="M65.9069496,152.947955 C66.22,141.579182 66.1386737,127.297026 64.513634,116.100743 C64.145252,113.562454 55.8956499,117.738662 53.2460477,118.130483 C49.196817,118.729368 45.0892838,119.411152 41.0118302,119.517844 C35.6602653,119.658364 29.0427586,119.903717 24.2021751,117.566171 C21.4697613,116.246468 19.0106631,114.441636 16.7131034,112.498513 C15.8938992,111.805576 10.5909814,107.828996 10.7387798,106.894052 C8.62875332,120.253903 7.17230769,133.743123 7.09915119,147.281784 C7.03045093,159.995167 8.28376658,172.584758 8.77580902,185.268773 C8.91172414,188.774721 9.14901857,192.081784 12.5476393,194.1 C12.9914058,194.363569 13.4481698,194.63197 13.9587798,194.720818 C14.553687,194.824535 15.1679045,194.671747 15.7130504,194.42119 C21.2599469,191.871747 21.8214324,185.604833 22.787321,180.43197 C25.0566578,168.278439 28.7620159,156.257249 34.6479576,145.302602 C36.4103979,142.021561 40.282122,145.850186 41.5666313,147.752788 C44.570504,152.201115 45.0606897,158.381041 46.2917241,163.486245 C47.8265252,170.413383 49.3932626,177.446097 51.5140584,184.224535 C52.1245623,186.175836 52.7506631,188.160223 53.918939,189.855019 C54.8684881,191.232342 56.1630239,192.382156 57.6569761,193.175093 C63.9124138,196.495167 64.2414324,189.779926 64.7839788,185.5829 C65.6715119,178.733457 65.3959682,171.956877 65.5597347,165.10855 C65.6570292,161.055762 65.7955438,157.000372 65.9069496,152.947955"/>
    <path fill="#989FDD" d="M66.8037666,152.707435 C67.0065252,145.142379 67.0306631,137.566543 66.6752785,130.005576 C66.4988859,126.252788 66.2292838,122.501859 65.7910875,118.769517 C65.552679,116.737918 65.845305,114.854275 63.4207427,114.963569 C61.3950133,115.054647 59.3711406,115.849071 57.4813263,116.517472 C54.6393634,117.523048 51.9834483,118.075836 48.9788329,118.49145 C44.8824403,119.057993 40.7797347,119.28513 36.6454642,119.262825 C32.8309284,119.242379 28.8247745,118.992937 25.3036074,117.387732 C22.0546419,115.90632 19.3549072,113.622677 16.5838727,111.423048 C15.5734218,110.62119 14.5629708,109.8171 13.5978249,108.960967 C12.9980902,108.428625 11.6775597,107.542379 11.6355968,106.653532 C11.6222281,106.379554 9.9069496,106.720818 9.84196286,107.134572 C8.30530504,116.919703 7.10286472,126.762454 6.54509284,136.65539 C5.98286472,146.622305 6.25469496,156.567658 6.83066313,166.526766 C7.12588859,171.635688 7.46864721,176.741636 7.71782493,181.85316 C7.88493369,185.273606 7.40514589,189.713011 9.64700265,192.60223 C11.5865782,195.10223 14.1455703,195.622305 16.8687003,194.183643 C19.5903448,192.745725 21.2417507,190.211524 22.1638196,187.334944 C23.2132626,184.060595 23.5753316,180.569517 24.2708753,177.211524 C25.2490186,172.487361 26.4540584,167.808178 27.9283289,163.214126 C29.3424403,158.808922 31.0057294,154.482156 32.9545889,150.285502 C33.3823873,149.363941 33.8235544,148.448327 34.2795756,147.540149 C34.6383024,146.825279 35.1128912,145.192937 35.7824403,144.728996 C37.2013793,143.746097 39.5219629,146.490706 40.2590981,147.433457 C42.5911936,150.415613 43.4716711,154.342751 44.2114058,157.973606 C45.1238196,162.453532 46.0785676,166.919331 47.1216976,171.371375 C48.198992,175.968401 49.3613263,180.55316 50.8014324,185.050929 C52.0153846,188.842751 53.8513528,192.351673 57.7483289,193.912639 C59.6348011,194.66803 62.0745889,194.5829 63.553687,193.018587 C65.2771353,191.195539 65.3495491,188.022677 65.6384615,185.67881 C66.295756,180.343123 66.3559151,174.996283 66.3934218,169.627509 C66.4331565,163.985502 66.646313,158.347212 66.8037666,152.707435 C66.8093369,152.503346 65.0235013,152.710409 65.0101326,153.188476 C64.8801592,157.852416 64.6970822,162.516357 64.6287533,167.181784 C64.5596817,171.930855 64.6380371,176.686989 64.3134748,181.428625 C64.1047745,184.475465 63.9335809,187.82974 63.0828117,190.788476 C62.8161804,191.715242 62.3687003,193.191822 61.3983554,193.601859 C59.9333687,194.221561 57.4586737,192.34684 56.4341114,191.436803 C53.2334218,188.593309 52.3054111,183.837546 51.2006366,179.889219 C49.9818568,175.533829 48.9513528,171.128625 47.9609549,166.716357 C47.096817,162.866171 46.4087003,158.968773 45.4907162,155.132714 C44.704191,151.845725 43.585305,148.451301 41.1930504,145.968401 C39.6549072,144.372119 37.7253581,143.137918 35.4909284,143.999628 C34.4515119,144.400743 33.9735809,145.10855 33.447374,146.07026 C32.365252,148.048327 31.4064191,150.105204 30.4906631,152.165056 C26.9962334,160.023792 24.4799469,168.295539 22.6855703,176.700743 C21.942122,180.182156 21.5529443,183.794796 20.542122,187.211896 C19.6367639,190.272119 16.6369761,196.298885 12.688382,193.327881 C9.62397878,191.021933 9.76137931,187.019703 9.61246684,183.565056 C9.4130504,178.937918 9.12153846,174.315613 8.84116711,169.692937 C8.20801061,159.245725 7.73676393,148.810037 8.2262069,138.345353 C8.72307692,127.723048 9.9864191,117.154275 11.6355968,106.653532 C11.0377188,106.813755 10.4398408,106.973978 9.84196286,107.134572 C9.90843501,108.530855 12.6746419,110.228625 13.6145358,110.993309 C15.692626,112.684015 17.7499204,114.443494 19.9828647,115.924164 C26.0544828,119.948699 32.8108753,120.064684 39.8643501,119.869888 C45.9794164,119.701115 52.1149072,118.963197 57.8857294,116.914498 C59.309496,116.408922 63.0761273,114.460595 63.6576658,116.627509 C64.0798939,118.199628 64.0980902,120.042751 64.2570292,121.659108 C64.4512467,123.635688 64.6038727,125.616357 64.725305,127.598885 C65.2485411,136.115985 65.2388859,144.661338 65.0101326,153.188476 C65.0045623,153.393309 66.7907692,153.18513 66.8037666,152.707435"/>
    <path fill="#FFF" d="M46.5594695,51.4765799 C46.9898674,51.7282528 47.4109814,51.9962825 47.822069,52.2788104 C50.1044032,53.8460967 52.0644032,55.8468401 53.7399469,58.0438662 C54.9891777,59.6821561 55.7185146,61.3048327 57.8192573,61.7713755 C59.0398939,62.0423792 60.2408488,62.3918216 61.4362334,62.7583643 C63.706313,63.4539033 65.6677984,64.1710037 67.8123607,65.239777 C68.001008,67.8104089 68.1896552,70.3810409 68.3783024,72.9516729 C68.4046684,73.3126394 68.4288064,73.6895911 68.2858355,74.0219331 C67.9404775,74.8241636 66.0272679,74.3609665 65.2047215,74.694052 C64.1296552,75.1297398 63.2443501,76.0356877 63.1355438,77.2319703 C63.069443,77.9598513 63.1522546,78.7342007 63.3145358,79.5260223 C63.5076393,80.2193309 63.6977719,80.9197026 63.8830769,81.6289963 C66.1059947,90.1371747 67.7507162,98.8895911 67.4276393,107.720818 C67.2854111,111.615613 66.7915119,121.14461 66.7903979,121.165799 C66.7599469,121.755762 60.8940584,123.09145 60.2230239,123.22974 C46.0781963,126.143866 31.9820159,123.0171 18.2352785,119.714498 C16.1163395,119.205204 13.8581432,118.889591 11.9048276,118.007807 C10.3856233,117.320446 8.56228117,116.324535 7.27962865,115.273606 C5.31777188,113.666543 15.6324668,70.8349442 24.2916711,58.2843866 C29.6948541,50.4520446 37.6737401,46.2754647 46.5594695,51.4765799"/>
    <path fill="#989FDD" d="M46.9809549,79.8271375 C47.0942175,81.1468401 47.2033952,82.4669145 47.3084881,83.7869888 C47.3912997,84.8282528 47.8398939,86.5185874 47.5569231,87.5516729 C47.4733687,87.8572491 47.8981963,88.0115242 48.1217507,88.0118959 C50.0331034,88.0144981 51.9143767,87.6710037 53.8235013,87.6524164 C54.9902918,87.6408922 56.4367109,87.7319703 57.4876393,87.1282528 C58.5196286,86.5349442 58.3814854,85.5669145 58.1508753,84.5167286 C57.6922546,82.4289963 57.4861538,80.3390335 57.2507162,78.2118959 C57.1760743,77.5405204 55.3750133,77.9505576 55.4570822,78.6929368 C55.6364456,80.3130112 55.7096021,81.9814126 56.0137401,83.5836431 C56.1734218,84.4241636 56.8949602,85.9286245 56.1997878,86.4416357 C55.6561273,86.8431227 54.0158621,86.5211896 53.3206897,86.5483271 C51.8048276,86.6074349 50.3149602,86.8988848 48.7935279,86.8966543 C48.9818037,87.0498141 49.1700796,87.2033457 49.3583554,87.3565056 C49.6409549,86.3241636 49.2138992,84.729368 49.1318302,83.6840149 C49.0181963,82.2375465 48.8986207,80.7918216 48.7745889,79.3460967 C48.7177719,78.6810409 46.9170822,79.0802974 46.9809549,79.8271375"/>
    <path fill="#F2F2F2" d="M27.1722546,54.5226766 C27.1288064,54.6141264 27.1124668,54.7182156 27.1395756,54.8427509 C27.2071618,55.1572491 27.4448276,55.4156134 27.5833422,55.6992565 C29.8727321,60.3776952 33.9824934,64.0501859 39.2014854,65.5312268 C42.2833422,66.405948 45.4015915,66.1301115 48.3401061,65.3449814 C49.8095491,64.9520446 51.2351724,64.4464684 52.652626,63.9297398 C53.4291247,63.6464684 54.2487003,63.4855019 54.9698674,63.0643123 C55.3367639,62.8501859 55.4307162,62.7334572 55.4236605,62.2988848 C55.4188329,61.9843866 55.4117772,61.5412639 55.1744828,61.3003717 C54.8996817,61.0215613 54.1584615,61.1988848 53.8275862,61.3074349 C49.4237135,62.7513011 44.2314589,66.0334572 39.366366,63.6765799 C35.2993103,61.705948 31.9003183,57.9933086 29.6725729,54.2550186 C29.2507162,53.5472119 28.2907692,53.4702602 27.7174005,53.9888476 C27.522069,54.1657993 27.273634,54.3100372 27.1722546,54.5226766"/>
    <path fill="#989FDD" d="M28.1674801,54.3539033 C30.5315119,58.6910781 34.6394164,63.2799257 39.5475862,64.6728625 C44.7877454,66.1598513 49.7152255,63.0743494 54.4744828,61.3104089 C55.6323607,60.8810409 54.6022281,60.0126394 53.7054111,60.3449814 C49.1407427,62.036803 44.3502918,65.1687732 39.4120424,63.1137546 C35.2915119,61.3996283 31.9096021,57.429368 29.8162865,53.5884758 C29.4649867,52.9442379 27.7407958,53.5710037 28.1674801,54.3539033"/>
    <path fill="#989FDD" d="M52.1007958,57.3542751 C53.1617507,58.6628253 54.0864191,60.498513 55.5250398,61.4672862 C57.1281698,62.5468401 59.4884881,62.727881 61.3148011,63.3092937 C62.2933156,63.6208178 63.2658886,63.9527881 64.2217507,64.3297398 C65.7676923,64.9390335 66.6704509,65.1624535 67.0184085,66.8825279 C67.245305,68.0018587 67.1922016,69.2490706 67.275756,70.3877323 C67.3221751,71.0226766 67.9233952,73.7342007 67.5123077,74.139777 C67.2913528,74.3579926 66.0465782,74.1851301 65.6759682,74.2539033 C65.1690716,74.3475836 64.6874271,74.5230483 64.234748,74.769145 C62.9561804,75.4639405 62.2235013,76.5591078 62.2160743,78.0267658 C62.2049337,80.2297398 63.1685942,82.5111524 63.6851459,84.6371747 C64.2477454,86.9520446 64.7576127,89.2799257 65.1861538,91.6234201 C66.6585676,99.6758364 66.5794695,107.564684 66.1813793,115.690335 C66.1197347,116.946468 66.0569761,118.202974 65.9931034,119.459108 C65.9723077,119.873606 66.0566048,121.105204 65.8501326,121.358364 C65.328382,121.99777 63.1667374,122.202974 62.3716711,122.402602 C61.1172414,122.718216 59.8616976,122.993309 58.5853581,123.211152 C48.312626,124.964312 37.845305,123.528625 27.7500796,121.373234 C25.5163926,120.896283 23.2908753,120.382528 21.0683289,119.855762 C18.677931,119.288848 16.1709284,118.909294 13.8432891,118.114498 C12.7229178,117.73197 11.6467374,117.200372 10.6162334,116.618216 C9.93517241,116.233457 8.50360743,115.631599 8.12259947,114.961338 C7.99151194,114.730112 7.98,114.488104 7.9462069,114.223792 C7.79098143,113.001859 8.07655172,111.635688 8.25183024,110.433086 C8.54445623,108.424164 8.93140584,106.428625 9.34583554,104.441636 C10.4710345,99.0490706 11.835756,93.7037175 13.3371353,88.404461 C15.152679,81.9962825 17.1680106,75.6260223 19.6148541,69.4289963 C21.890504,63.666171 24.4706631,57.9483271 29.0520424,53.630855 C29.4490186,53.2565056 27.7541645,53.4271375 27.4214324,53.7405204 C23.2117772,57.7081784 20.6843501,62.8063197 18.5074801,68.0828996 C16.1074271,73.9003717 14.146313,79.901487 12.3664191,85.9345725 C10.6507692,91.7486989 9.10891247,97.6215613 7.82774536,103.547212 C7.08095491,107.00223 6.00180371,110.83197 6.14106101,114.404833 C6.21570292,116.324907 8.50137931,117.05948 10.0131565,117.818959 C11.7859947,118.709665 13.6364456,119.227138 15.5689655,119.648327 C18.3258886,120.249071 21.06313,120.934944 23.8159682,121.55316 C33.606313,123.752416 43.6703448,125.435688 53.7310345,124.512268 C57.0223342,124.210037 60.2627586,123.621933 63.4541645,122.77026 C64.5611671,122.474721 67.2534748,122.112268 67.6912997,120.849071 C67.9311936,120.156134 67.7848806,119.015985 67.8212732,118.295539 C67.9,116.734944 67.9772414,115.173978 68.0522546,113.613011 C68.230504,109.904461 68.4607427,106.191078 68.3058886,102.477695 C68.0581963,96.5275093 67.0228647,90.6349442 65.6458886,84.8505576 C65.3138992,83.4565056 64.9633422,82.0665428 64.5931034,80.6821561 C64.2585146,79.432342 63.7293369,77.898513 64.1144297,76.5858736 C64.7951194,74.2643123 66.7748011,75.3486989 68.3749602,74.5319703 C70.0987798,73.6520446 69.1291777,70.7237918 69.0177719,69.2055762 C68.9836074,68.73829 68.9490716,68.2710037 68.9149072,67.8033457 C68.8692308,67.1814126 69.045252,65.5037175 68.7091777,64.9988848 C68.3281698,64.4271375 66.9003183,64.102974 66.2552785,63.836803 C63.9573475,62.8895911 61.5662069,62.1710037 59.1613263,61.5527881 C56.4196286,60.8479554 55.4645093,58.7981413 53.7871088,56.729368 C53.5000531,56.3754647 51.7996286,56.9828996 52.1007958,57.3542751"/>
    <path fill="#FFF" d="M60.4257825,34.5966543 C64.8214854,20.0869888 62.0032891,6.38698885 54.1313528,3.99739777 C46.2597878,1.60743494 36.3149602,11.432342 31.9192573,25.9420074 C31.8175066,26.2780669 31.3109814,27.9498141 31.1312467,28.5427509 C28.6944297,36.5873606 27.6795225,42.4003717 27.6932626,46.6650558 C27.7118302,52.4386617 31.3904509,56.6557621 35.7449337,60.004461 C37.5225995,61.3713755 39.6901857,62.3449814 41.9309284,62.2951673 C43.9358621,62.2505576 45.8542706,61.3910781 47.4770822,60.2111524 C54.205252,55.3185874 57.3346419,44.8 59.6377719,37.197026 C59.8119363,36.6223048 60.3188329,34.9498141 60.4257825,34.5966543"/>
    <path fill="#CBCFEE" d="M38.0877984,4.41710037 C34.0938992,7.46468401 31.4023342,11.86171 28.325305,15.8345725 C25.2482759,19.8074349 21.388435,23.6122677 16.4609549,24.5806691 C18.4090716,26.1832714 19.7203183,28.4085502 21.0846684,30.5315985 C22.4490186,32.6542751 23.9775066,34.7873606 26.1699735,36.0342007 C28.3624403,37.2806691 31.3904509,37.3944238 33.2186207,35.6557621 C34.2272149,34.6962825 34.7370822,33.3330855 35.1370292,31.9992565 C36.2403183,28.3200743 36.7524138,24.4907063 37.6878515,20.7654275 C38.4910875,17.5665428 39.4228117,13.1189591 43.1757029,12.3193309 C44.3967109,12.0591078 45.6626525,12.1509294 46.9059416,12.2669145 C49.6862599,12.5256506 52.4792042,12.9040892 55.1143236,13.8282528 C57.1248276,14.5334572 59.2660477,15.5929368 60.7644562,17.1483271 C62.4307162,18.8780669 61.8874271,21.9 61.7348011,24.1907063 C61.3924138,29.3282528 60.3054642,34.4267658 58.3855703,39.2037175 C55.2561804,46.9907063 62.6973475,43.6315985 65.1207958,39.5022305 C67.582122,35.3081784 67.6378249,29.9033457 68.2739523,25.3475836 C68.6022281,22.997026 69.0801592,20.6416357 68.9457294,18.2717472 C68.5977719,12.1483271 65.0892308,5.45501859 59.7391512,2.31933086 C53.1376127,-1.55018587 44.0376127,-0.123048327 38.0877984,4.41710037"/>
    <path fill="#989FDD" d="M53.8966578 53.7557621C56.4964987 49.4033457 58.1835544 44.6118959 59.6815915 39.7888476 60.8847745 35.9148699 62.1447745 32.039777 62.8028117 28.0275093 63.953634 21.0092937 64.0980902 11.4873606 58.7082759 6.00669145 54.6913528 1.92230483 48.6483289 3.0267658 44.2927321 5.93011152 37.6859947 10.3345725 33.5598939 18.1185874 31.2218568 25.501487 29.7988329 29.9951673 28.4731034 34.5446097 27.6097082 39.1825279 26.8183554 43.4301115 26.198939 47.9282528 27.8614854 52.0412639 28.0289655 52.4557621 29.7847215 51.8814126 29.6551194 51.560223 28.311565 48.2360595 28.4909284 44.7832714 28.9770292 41.3003717 29.5890186 36.9156134 30.7413263 32.6137546 32.0150663 28.3814126 34.1492308 21.2907063 36.9295491 14.2825279 42.1983024 8.89516729 44.3112997 6.73420074 47.0348011 4.50483271 50.1248276 4.07286245 52.849443 3.69219331 55.4600531 4.89739777 57.2811671 6.89182156 62.1525729 12.2267658 62.1187798 21.1301115 61.1202122 27.8026022 60.4907692 32.0085502 59.1709814 36.0609665 57.9139523 40.1111524 56.4174005 44.9342007 54.7288594 49.7260223 52.1293899 54.0776952 52.0131565 54.272119 53.6303979 54.201487 53.8966578 53.7557621M37.2622812 55.1910781C39.0848806 57.9557621 41.790557 59.0178439 45.0035013 58.2490706 46.1238727 57.9810409 45.7811141 56.7182156 44.6651989 56.9851301 42.1281167 57.5921933 40.2813793 56.4836431 38.9018037 54.3910781 38.4435544 53.6966543 36.737931 54.3962825 37.2622812 55.1910781"/>
    <path fill="#989FDD" d="M52.84313 44.7892193C52.2445093 47.06171 48.6728382 48.5832714 46.5342175 48.3468401 45.3767109 48.2193309 44.2782493 47.6197026 43.5440849 46.7152416 42.2164987 45.0799257 41.6520424 41.6085502 44.7535809 41.9330855 45.7116711 42.0330855 46.5706101 42.5498141 47.3712467 43.0858736 47.8447215 43.4026022 48.2405836 43.5672862 48.7289125 43.8609665 49.3579841 44.2394052 50.0498143 44.632342 50.7780371 44.539777 51.1712997 44.4895911 51.5430239 44.2981413 51.9396286 44.2966543 52.3362334 44.2951673 52.9445093 44.4052045 52.84313 44.7892193M18.9772414 78.8810409C22.1682759 78.9728625 24.8453581 76.1840149 27.1700265 74.3524164 27.3731565 74.1925651 27.5332095 73.933829 27.4622812 73.666171 27.084244 72.236803 26.7017507 70.539777 25.7822812 69.3501859 25.2523607 68.6643123 23.5552785 69.3981413 24.1464721 70.163197 24.9809019 71.2431227 25.3232891 72.8412639 25.6686472 74.1472119 25.766313 73.9185874 25.8636074 73.6895911 25.9612732 73.4609665 24.0751724 74.9468401 21.6762334 77.5594796 19.1150133 77.4858736 18.0596286 77.4557621 17.7688594 78.8460967 18.9772414 78.8810409"/>
    <path fill="#6A79A8" d="M110.719204,41.4925651 C107.082546,44.960223 106.709708,50.129368 104.532838,54.4342007 C102.480371,58.4936803 99.3001061,61.869145 95.4703448,64.3003717 C87.6132626,69.2881041 77.7237666,70.3579926 68.6560743,69.1494424 C68.2435013,69.0944238 66.734695,69.7654275 67.1769761,69.8245353 C76.3698143,71.0494424 86.2299735,69.9910781 94.5297082,65.6501859 C98.5629708,63.5405204 102.149496,60.5836431 104.715172,56.7973978 C106.180531,54.635316 107.20695,52.2814126 108.014271,49.8052045 C109.016923,46.727881 109.926366,43.635316 112.33756,41.3364312 C112.685517,41.004461 111.029655,41.1966543 110.719204,41.4925651"/>
    <path fill="#31C766" d="M79.6028117,20.6163569 L96.6174536,14.8223048 C97.5521485,14.5040892 98.5681698,15.004461 98.8860477,15.9405204 L101.972732,25.0241636 L81.5724668,31.9710037 L78.4857825,22.8873606 C78.1679045,21.9516729 78.6677454,20.9349442 79.6028117,20.6163569" opacity=".217"/>
    <path fill="#989FDD" d="M79.7728912,21.2520446 C84.7055703,19.572119 89.6386207,17.8925651 94.5712997,16.2126394 C95.1940584,16.0003717 96.0581963,15.5171004 96.7266313,15.4784387 C98.051618,15.4022305 98.2250398,16.8750929 98.5406897,17.8037175 C99.3858886,20.2907063 100.231088,22.7776952 101.075915,25.264684 C101.318408,24.9724907 101.560531,24.6806691 101.802653,24.3884758 C95.0024403,26.704461 88.2025995,29.0200743 81.4023873,31.3356877 C81.7581432,31.4672862 82.1138992,31.5988848 82.4692838,31.7304833 C81.9352785,30.1583643 81.4009019,28.5862454 80.8665252,27.0141264 C80.5519894,26.0877323 78.4048276,21.9620818 80.0049867,21.1654275 C81.0986207,20.6211896 80.1238196,19.6078067 79.2002653,20.067658 C76.573687,21.3750929 77.783183,23.6992565 78.4969231,25.7992565 C79.2232891,27.936803 79.9496552,30.0743494 80.6760212,32.2118959 C80.8156499,32.6234201 81.3697082,32.733829 81.7425464,32.6066914 C88.5427586,30.2910781 95.3429708,27.9754647 102.142812,25.6594796 C102.472573,25.5472119 103.02069,25.2286245 102.869549,24.7836431 C101.952679,22.0855019 101.035809,19.3877323 100.11931,16.6899628 C99.7134218,15.495539 99.2807958,14.3490706 97.8562865,14.0925651 C96.9932626,13.9371747 96.2011671,14.270632 95.4046154,14.5420074 C90.0805305,16.3550186 84.756817,18.1680297 79.4327321,19.9810409 C78.3576658,20.3472119 78.673687,21.6263941 79.7728912,21.2520446"/>
    <path fill="#31C766" d="M114.470981,8.74237918 L131.485623,2.94832714 C132.42069,2.63011152 133.43634,3.13048327 133.754218,4.06654275 L136.840902,13.1501859 L116.441008,20.097026 L113.353952,11.0133829 C113.036074,10.0776952 113.535915,9.06096654 114.470981,8.74237918" opacity=".217"/>
    <path fill="#989FDD" d="M114.641061,9.37806691 C119.57374,7.69814126 124.50679,6.01821561 129.439469,4.33866171 C130.062228,4.12639405 130.926366,3.64312268 131.595172,3.60446097 C132.919788,3.52825279 133.09321,5.00111524 133.408859,5.92973978 C134.254058,8.41672862 135.099257,10.9037175 135.944085,13.3907063 C136.186578,13.098513 136.4287,12.8066914 136.670822,12.5144981 C129.870981,14.8301115 123.070769,17.1460967 116.270557,19.46171 C116.626313,19.5933086 116.982069,19.7249071 117.337454,19.8565056 C116.803448,18.2843866 116.269072,16.7122677 115.734695,15.1401487 C115.420159,14.2137546 113.272997,10.0881041 114.873528,9.29144981 C115.96679,8.7472119 114.991989,7.733829 114.068435,8.1936803 C111.441857,9.50111524 112.651353,11.8252788 113.365093,13.9252788 C114.091459,16.0628253 114.817825,18.2003717 115.544191,20.3375465 C115.684191,20.7494424 116.237878,20.8598513 116.611088,20.7327138 C123.410928,18.4171004 130.211141,16.101487 137.010981,13.7855019 C137.341114,13.6732342 137.888859,13.3546468 137.737719,12.9096654 C136.820849,10.2115242 135.903979,7.51375465 134.98748,4.81561338 C134.581592,3.62156134 134.149337,2.47509294 132.724456,2.21858736 C131.861432,2.06319703 131.069337,2.39665428 130.272785,2.66802974 C124.949072,4.48104089 119.624987,6.29405204 114.300902,8.1070632 C113.225836,8.4732342 113.541857,9.75241636 114.641061,9.37806691"/>
    <path fill="#96E296" d="M89.0659947,90.8416357 L166.762653,64.3828996 C169.09252,63.5892193 170.33878,61.0553903 169.545942,58.7230483 L153.708859,12.1178439 C152.916393,9.78550186 150.384881,8.53791822 148.055013,9.33122677 L70.3587268,35.7899628 C68.0284881,36.5832714 66.7822281,39.1174721 67.5750663,41.4498141 L83.4121485,88.0550186 C84.2046154,90.3873606 86.7361273,91.6349442 89.0659947,90.8416357"/>
    <path fill="#989FDD" d="M89.2279045,91.4464684 C96.0292308,89.1301115 102.830928,86.8141264 109.632255,84.4981413 C122.187692,80.2223048 134.743501,75.9468401 147.298939,71.6710037 C152.071565,70.0457249 156.84382,68.4204461 161.616446,66.795539 C163.648488,66.1033457 165.952732,65.5944238 167.862971,64.5836431 C172.371936,62.1977695 170.140106,57.5907063 168.930981,54.0330855 C167.014058,48.3921933 165.097135,42.7509294 163.180212,37.1100372 C161.139629,31.1048327 159.098674,25.0992565 157.05809,19.094052 C156.412308,17.1936803 155.766525,15.2929368 155.120743,13.3925651 C154.661751,12.0420074 154.294854,10.7100372 153.158515,9.72899628 C150.463979,7.40260223 147.327162,8.91933086 144.477401,9.88959108 C140.178249,11.3535316 135.879469,12.8174721 131.580318,14.2814126 C119.095066,18.5330855 106.609814,22.7851301 94.1245623,27.036803 C86.2344297,29.7234201 78.2997347,32.3063197 70.4467374,35.1 C68.1803714,35.905948 66.3674271,37.7052045 66.4394695,40.2639405 C66.4717772,41.4223048 66.970504,42.5513011 67.3392573,43.6364312 C68.9925199,48.5011152 70.6457825,53.3657993 72.2986737,58.2304833 C75.6809549,68.1832714 78.8077454,78.2684015 82.4577719,88.1263941 C83.5239257,91.0052045 86.3150133,92.2542751 89.2279045,91.4464684 C90.3278515,91.1412639 90.0110875,89.929368 88.9040849,90.2364312 C84.3275332,91.505948 83.2402122,84.669145 82.2033952,81.6189591 C80.2857294,75.9750929 78.3676923,70.3312268 76.4500265,64.6873606 C74.5349602,59.0516729 72.6198939,53.4159851 70.7044562,47.7806691 C69.7801592,45.0594796 66.8642971,39.7033457 69.3404775,37.198513 C70.7857825,35.7364312 73.7866844,35.2828996 75.6415915,34.6509294 C80.1182493,33.1263941 84.5949072,31.6022305 89.071565,30.0776952 C101.081857,25.9873606 113.09252,21.8973978 125.103183,17.8074349 C132.682493,15.2263941 140.224297,12.436803 147.868966,10.0546468 C152.02069,8.76096654 152.949443,12.7620818 153.941698,15.6821561 C155.670716,20.770632 157.400106,25.8591078 159.129125,30.9475836 C161.152255,36.9011152 163.175385,42.8546468 165.198515,48.8081784 C166.32817,52.1319703 167.620106,55.4442379 168.599363,58.8167286 C169.790663,62.9171004 166.500477,63.8118959 163.635862,64.7873606 C159.713263,66.1234201 155.790292,67.4591078 151.867321,68.7951673 C140.018568,72.8301115 128.169443,76.8650558 116.32069,80.9 C107.633263,83.8583643 98.9462069,86.8167286 90.2591512,89.7750929 C89.8072149,89.9289963 89.3556499,90.0828996 88.9040849,90.2364312 C87.8353316,90.6003717 88.1335279,91.8193309 89.2279045,91.4464684"/>
    <path fill="#31C766" d="M91.7014854,84.394052 L160.745995,60.8814126 C162.882016,60.1542751 164.024297,57.8312268 163.297931,55.6933086 L150.602493,18.3334572 C149.875756,16.1951673 147.555172,15.0516729 145.419523,15.7788104 L76.3750133,39.2914498 C74.238992,40.0185874 73.0967109,42.3416357 73.8230769,44.4795539 L86.5188859,81.8394052 C87.245252,83.9776952 89.5658355,85.1211896 91.7014854,84.394052" opacity=".217"/>
    <path fill="#E4FFED" d="M110.384766,54.1425781 L110.580078,54.1425781 C111.751959,54.1425781 112.668291,53.8284537 113.329102,53.2001953 C113.989912,52.571937 114.320312,51.6979223 114.320312,50.578125 C114.320312,49.5364531 114.012698,48.7096385 113.397461,48.0976562 C112.782223,47.485674 111.937505,47.1796875 110.863281,47.1796875 L110.384766,47.1796875 L110.384766,54.1425781 Z M108.177734,58.1953125 L108.177734,55.9980469 L107.855469,55.9980469 C106.690098,55.9980469 105.666346,55.7848329 104.78418,55.3583984 C103.902014,54.931964 103.210289,54.292322 102.708984,53.4394531 C102.20768,52.5865843 101.957031,51.6393281 101.957031,50.5976562 C101.957031,49.5885366 102.184894,48.678715 102.640625,47.8681641 C103.096356,47.0576131 103.750647,46.4228539 104.603516,45.9638672 C105.456384,45.5048805 106.455723,45.2753906 107.601562,45.2753906 L108.177734,45.2753906 L108.177734,43.5175781 L110.384766,43.5175781 L110.384766,45.2753906 L110.980469,45.2753906 C112.132818,45.2753906 113.133785,45.5032529 113.983398,45.9589844 C114.833012,46.4147158 115.480792,47.0445923 115.926758,47.8486328 C116.372724,48.6526733 116.595703,49.5690053 116.595703,50.5976562 C116.595703,51.6588595 116.345055,52.612626 115.84375,53.4589844 C115.342445,54.3053428 114.653976,54.9401021 113.77832,55.3632812 C112.902665,55.7864604 111.875657,55.9980469 110.697266,55.9980469 L110.384766,55.9980469 L110.384766,58.1953125 L108.177734,58.1953125 Z M108.177734,47.1796875 L107.699219,47.1796875 C106.618484,47.1796875 105.772138,47.4873016 105.160156,48.1025391 C104.548174,48.7177765 104.242188,49.5429636 104.242188,50.578125 C104.242188,51.6849014 104.57096,52.5556609 105.228516,53.1904297 C105.886071,53.8251985 106.810541,54.1425781 108.001953,54.1425781 L108.177734,54.1425781 L108.177734,47.1796875 Z M131.440848,58 L129.097098,58 L129.097098,51.5644531 L122.515067,51.5644531 L122.515067,58 L120.181083,58 L120.181083,43.7226562 L122.515067,43.7226562 L122.515067,49.5625 L129.097098,49.5625 L129.097098,43.7226562 L131.440848,43.7226562 L131.440848,58 Z" transform="rotate(-18 116.699 50.856)"/>
    <path fill="#989FDD" d="M23.1007427,76.5334572 C26.3953846,86.8271375 31.4383554,96.6304833 42.2027586,100.529368 C52.6058355,104.29777 64.0862069,101.324164 72.697878,94.7821561 C75.4484881,92.6921933 77.8953316,90.2234201 80.0903979,87.5594796 C81.3544828,86.0252788 82.5402122,84.4182156 83.6312467,82.7557621 C84.6795756,81.1587361 85.9139523,77.2 88.2022281,77.3468401 C88.8762334,77.3903346 90.1113528,76.4256506 88.9051989,76.3479554 C86.7591512,76.2100372 84.9083289,77.1762082 83.9134748,79.0929368 C82.3898143,82.0289963 80.7272679,84.7037175 78.6291247,87.2806691 C74.6571353,92.1583643 69.7586207,96.2947955 63.9447215,98.7855019 C53.1877454,103.39368 40.2951194,101.210409 32.6742175,91.9966543 C28.8604244,87.3858736 26.6984085,81.6884758 24.8943767,76.0520446 C24.6983024,75.4401487 22.9117241,75.9420074 23.1007427,76.5334572"/>
    <path fill="#FFF" d="M201.746313,32.7137546 L219.278621,32.7137546 C220.266048,32.7137546 221.066684,33.5152416 221.066684,34.5037175 L221.066684,43.866171 L199.958249,43.866171 L199.958249,34.5037175 C199.958249,33.5152416 200.758886,32.7137546 201.746313,32.7137546"/>
    <path fill="#989FDD" d="M201.670186,33.3847584 C206.713899,33.3847584 211.757241,33.3847584 216.800955,33.3847584 C217.456021,33.3847584 218.473528,33.1936803 219.111512,33.3847584 C220.429072,33.7799257 220.157241,35.2806691 220.157241,36.3197026 C220.157241,38.8568773 220.157241,41.3936803 220.157241,43.930855 C220.485517,43.6855019 220.814164,43.4401487 221.14244,43.1951673 C214.106419,43.1951673 207.070027,43.1951673 200.034005,43.1951673 C200.311777,43.3973978 200.58992,43.5992565 200.867692,43.801487 C200.867692,42.1795539 200.867692,40.5576208 200.867692,38.9356877 C200.867692,38.1921933 200.254218,33.5754647 201.670186,33.3847584 C202.669125,33.2505576 203.039363,31.8788104 201.822069,32.0427509 C198.854589,32.4416357 199.048806,34.7728625 199.048806,37.1055762 C199.048806,39.3806691 199.048806,41.6557621 199.048806,43.930855 C199.048806,44.3992565 199.481061,44.5371747 199.882493,44.5371747 C206.918515,44.5371747 213.954536,44.5371747 220.990928,44.5371747 C221.349284,44.5371747 221.976127,44.227881 221.976127,43.801487 C221.976127,41.0375465 221.976127,38.2732342 221.976127,35.5092937 C221.976127,34.3394052 222.005093,33.1401487 220.870239,32.4327138 C220.104138,31.9550186 219.17687,32.0427509 218.315703,32.0427509 C212.817825,32.0427509 207.319947,32.0427509 201.822069,32.0427509 C200.787851,32.0427509 200.454005,33.3847584 201.670186,33.3847584"/>
    <path fill="#FFF" d="M237.825093,32.7137546 L255.357401,32.7137546 C256.344828,32.7137546 257.145464,33.5152416 257.145464,34.5037175 L257.145464,43.866171 L236.037029,43.866171 L236.037029,34.5037175 C236.037029,33.5152416 236.837666,32.7137546 237.825093,32.7137546"/>
    <path fill="#989FDD" d="M237.481592,33.2423792 C242.569125,33.2423792 247.656658,33.2423792 252.744191,33.2423792 C253.436393,33.2423792 254.266737,33.1085502 254.947798,33.2423792 C256.513422,33.5505576 256.247162,35.0349442 256.247162,36.2141264 C256.247162,38.8003717 256.247162,41.3866171 256.247162,43.9724907 C256.66122,43.7609665 257.075279,43.5490706 257.488966,43.3371747 C250.452944,43.3371747 243.416923,43.3371747 236.380531,43.3371747 C236.565464,43.4780669 236.750398,43.6189591 236.935332,43.7594796 C236.935332,42.0762082 236.935332,40.3925651 236.935332,38.7092937 C236.935332,37.9513011 236.367162,33.4130112 237.708488,33.2327138 C238.590451,33.1141264 239.181645,32.027881 237.941698,32.1947955 C234.9913,32.5918216 235.138727,34.7947955 235.138727,37.1475836 C235.138727,39.4226766 235.138727,41.6977695 235.138727,43.9724907 C235.138727,44.2769517 235.413528,44.3947955 235.693528,44.3947955 C242.729549,44.3947955 249.765942,44.3947955 256.801963,44.3947955 C257.09756,44.3947955 258.043767,44.2263941 258.043767,43.7594796 C258.043767,40.995539 258.043767,38.2312268 258.043767,35.4672862 C258.043767,34.330855 258.123979,33.1817844 256.970557,32.5122677 C256.254218,32.0962825 255.363342,32.1847584 254.569019,32.1847584 C249.102334,32.1847584 243.635279,32.1847584 238.168594,32.1847584 C237.468594,32.1847584 236.273952,33.2423792 237.481592,33.2423792"/>
    <path fill="#CBCFEE" d="M188.44557,103.345725 L268.657772,103.345725 C271.119098,103.345725 273.114005,101.348327 273.114005,98.8847584 L273.114005,48.3271375 C273.114005,45.8635688 271.119098,43.866171 268.657772,43.866171 L188.44557,43.866171 C185.984615,43.866171 183.989337,45.8635688 183.989337,48.3271375 L183.989337,98.8847584 C183.989337,101.348327 185.984615,103.345725 188.44557,103.345725"/>
    <path fill="#989FDD" d="M187.868117,103.726394 C195.188223,103.726394 202.508329,103.726394 209.828435,103.726394 C223.070875,103.726394 236.313316,103.726394 249.556127,103.726394 C254.296817,103.726394 259.037507,103.726394 263.778568,103.726394 C266.223554,103.726394 269.222971,104.112639 271.428435,102.872491 C274.850822,100.947212 274.010822,96.4070632 274.010822,93.0973978 C274.010822,87.0773234 274.010822,81.0572491 274.010822,75.0371747 C274.010822,68.6869888 274.010822,62.3364312 274.010822,55.9862454 C274.010822,53.9472119 274.010822,51.9085502 274.010822,49.8695167 C274.010822,48.4881041 274.134483,47.0843866 273.402546,45.8349442 C271.722918,42.967658 268.265252,43.4855019 265.456711,43.4855019 C260.805517,43.4855019 256.153952,43.4855019 251.502387,43.4855019 C238.333846,43.4855019 225.164934,43.4855019 211.996021,43.4855019 C204.354324,43.4855019 196.684032,43.2918216 189.04382,43.4855019 C186.026207,43.5620818 183.238833,45.3315985 183.092891,48.5713755 C183.053156,49.4531599 183.092891,50.3457249 183.092891,51.2282528 C183.092891,56.5710037 183.092891,61.9133829 183.092891,67.2561338 C183.092891,77.7795539 182.915756,88.3197026 183.092891,98.8416357 C183.140053,101.643866 185.085942,103.576208 187.868117,103.726394 C188.273634,103.748327 189.916499,103.013383 189.023395,102.965056 C183.937719,102.691078 184.886154,96.7624535 184.886154,93.2669145 C184.886154,87.6174721 184.886154,81.9680297 184.886154,76.3189591 C184.886154,70.0921933 184.886154,63.8654275 184.886154,57.6390335 C184.886154,54.4821561 184.738727,51.2855019 184.886154,48.1312268 C185.094854,43.6736059 188.837719,44.2468401 191.903979,44.2468401 C196.31305,44.2468401 200.722493,44.2468401 205.131565,44.2468401 C217.828117,44.2468401 230.524668,44.2468401 243.221592,44.2468401 C251.364244,44.2468401 259.53252,44.0565056 267.673316,44.2468401 C270.207427,44.305948 272.090928,45.9587361 272.21756,48.5713755 C272.259151,49.430855 272.21756,50.302974 272.21756,51.1635688 C272.21756,56.1591078 272.21756,61.1546468 272.21756,66.1501859 C272.21756,76.8472119 272.21756,87.5442379 272.21756,98.2408922 C272.21756,100.272119 271.683554,102.646468 269.189178,102.965056 C268.540053,103.047955 267.825942,102.965056 267.173475,102.965056 C263.353369,102.965056 259.533634,102.965056 255.713528,102.965056 C243.30069,102.965056 230.888223,102.965056 218.475385,102.965056 C209.147003,102.965056 199.818621,102.965056 190.490239,102.965056 C190.001167,102.965056 189.512467,102.965056 189.023395,102.965056 C188.62382,102.965056 186.988011,103.726394 187.868117,103.726394"/>
    <path fill="#FFF" d="M194.084881,97.3271375 L263.899204,97.3271375 C266.155544,97.3271375 267.984085,95.4962825 267.984085,93.2379182 L267.984085,53.0892193 C267.984085,50.830855 266.155544,49 263.899204,49 L194.084881,49 C191.828912,49 190,50.830855 190,53.0892193 L190,93.2379182 C190,95.4962825 191.828912,97.3271375 194.084881,97.3271375"/>
    <text fill="#989FDD" font-family="OpenSans-SemiBold, Open Sans" font-size="8" font-weight="500">
      <tspan x="197" y="77">ОБСУЖИВАНИЕ</tspan>
    </text>
    <path fill="#FFF" d="M112.621645,92.1933086 L130.153952,92.1933086 C131.141379,92.1933086 131.942016,92.9947955 131.942016,93.9832714 L131.942016,103.345725 L110.833581,103.345725 L110.833581,93.9832714 C110.833581,92.9947955 111.634218,92.1933086 112.621645,92.1933086"/>
    <path fill="#989FDD" d="M112.55443,92.8977695 C117.598143,92.8977695 122.641485,92.8977695 127.685199,92.8977695 C128.342122,92.8977695 129.355915,92.7078067 129.995756,92.8977695 C131.30626,93.2869888 131.029973,94.7550186 131.029973,95.7903346 C131.029973,98.3271375 131.029973,100.864312 131.029973,103.401115 C131.356393,103.147955 131.68244,102.894424 132.008859,102.641264 C124.972838,102.641264 117.936446,102.641264 110.900424,102.641264 C111.182281,102.857621 111.463767,103.073978 111.745623,103.290335 C111.745623,101.668401 111.745623,100.046468 111.745623,98.4245353 C111.745623,97.667658 111.124721,93.0899628 112.55443,92.8977695 C113.577507,92.760223 113.900584,91.3256506 112.688488,91.4888476 C109.721751,91.8877323 109.921538,94.2464684 109.921538,96.5762082 C109.921538,98.8509294 109.921538,101.126022 109.921538,103.401115 C109.921538,103.875836 110.349708,104.050186 110.766737,104.050186 C117.802759,104.050186 124.83878,104.050186 131.875172,104.050186 C132.252467,104.050186 132.854058,103.728996 132.854058,103.290335 C132.854058,100.526394 132.854058,97.7620818 132.854058,94.9981413 C132.854058,93.8178439 132.875968,92.6152416 131.741114,91.8947955 C130.970928,91.405948 130.049973,91.4888476 129.182122,91.4888476 C123.684244,91.4888476 118.186366,91.4888476 112.688488,91.4888476 C111.630875,91.4888476 111.34122,92.8977695 112.55443,92.8977695"/>
    <path fill="#FFF" d="M148.700424,92.1933086 L166.232732,92.1933086 C167.220159,92.1933086 168.020796,92.9947955 168.020796,93.9832714 L168.020796,103.345725 L146.912361,103.345725 L146.912361,93.9832714 C146.912361,92.9947955 147.712997,92.1933086 148.700424,92.1933086"/>
    <path fill="#989FDD" d="M148.341326,92.6639405 C153.470822,92.6639405 158.60069,92.6639405 163.730186,92.6639405 C164.370398,92.6639405 165.199629,92.5282528 165.832785,92.6639405 C167.401751,93 167.123979,94.6405204 167.123979,95.8275093 C167.123979,98.4137546 167.123979,101 167.123979,103.586245 C167.542865,103.349071 167.961379,103.112268 168.379894,102.875093 C161.343873,102.875093 154.307851,102.875093 147.271459,102.875093 C147.450822,102.951673 147.629814,103.028625 147.809178,103.105204 C147.809178,101.483271 147.809178,99.8613383 147.809178,98.2394052 C147.809178,97.4765799 147.233581,92.8263941 148.566366,92.6472119 C149.395225,92.5356877 150.084085,91.5713755 148.834483,91.7394052 C145.911194,92.1327138 146.015544,94.2498141 146.015544,96.5981413 C146.015544,98.9275093 146.015544,101.256877 146.015544,103.586245 C146.015544,103.791822 146.434801,103.816357 146.553263,103.816357 C153.589284,103.816357 160.625676,103.816357 167.661698,103.816357 C168.058674,103.816357 168.917613,103.625279 168.917613,103.105204 C168.917613,100.340892 168.917613,97.5769517 168.917613,94.8130112 C168.917613,93.5650558 168.868223,92.3074349 167.427745,91.8453532 C166.790875,91.6412639 166.016976,91.7226766 165.35931,91.7226766 C159.926048,91.7226766 154.492785,91.7226766 149.059523,91.7226766 C148.434536,91.7226766 147.138886,92.6639405 148.341326,92.6639405"/>
    <path fill="#CBCFEE" d="M99.3209019,192.565056 L268.657772,192.565056 C271.119098,192.565056 273.114005,190.567658 273.114005,188.104089 L273.114005,107.806691 C273.114005,105.343123 271.119098,103.345725 268.657772,103.345725 L99.3209019,103.345725 C96.8599469,103.345725 94.8646684,105.343123 94.8646684,107.806691 L94.8646684,188.104089 C94.8646684,190.567658 96.8599469,192.565056 99.3209019,192.565056"/>
    <path fill="#989FDD" d="M98.7363926,192.919331 C102.159151,192.919331 105.58191,192.919331 109.004668,192.919331 C117.753369,192.919331 126.502069,192.919331 135.250769,192.919331 C147.046048,192.919331 158.841326,192.919331 170.636605,192.919331 C183.199098,192.919331 195.761592,192.919331 208.323714,192.919331 C219.374058,192.919331 230.424403,192.919331 241.474748,192.919331 C248.733581,192.919331 255.992414,192.919331 263.251247,192.919331 C267.406313,192.919331 273.827374,193.587732 274.010822,187.659851 C274.236976,180.359108 274.010822,173.015242 274.010822,165.711896 C274.010822,153.435316 274.010822,141.158364 274.010822,128.881413 C274.010822,121.830855 274.272626,114.724164 274.010822,107.676952 C273.797294,101.922677 267.148594,102.99145 263.213369,102.99145 C255.553475,102.99145 247.893952,102.99145 240.234058,102.99145 C228.971671,102.99145 217.709284,102.99145 206.446897,102.99145 C193.861379,102.99145 181.275862,102.99145 168.690345,102.99145 C157.061061,102.99145 145.431777,102.99145 133.802493,102.99145 C125.408806,102.99145 117.015119,102.99145 108.621432,102.99145 C106.342812,102.99145 104.064562,102.99145 101.786313,102.99145 C100.13305,102.99145 98.5269496,102.917844 96.9680106,103.639405 C93.8337931,105.089591 93.9682228,107.936803 93.9682228,110.800743 C93.9682228,114.68513 93.9682228,118.569145 93.9682228,122.453532 C93.9682228,134.469145 93.9682228,146.48513 93.9682228,158.501115 C93.9682228,167.739033 93.9682228,176.976952 93.9682228,186.21487 C93.9682228,186.886245 93.9433422,187.562825 93.9682228,188.233829 C94.0699735,190.980669 96.0585676,192.774721 98.7363926,192.919331 C99.1088594,192.939405 100.76992,192.257621 99.9057825,192.210781 C95.5609549,191.97658 95.7614854,187.920074 95.7614854,184.808922 C95.7614854,180.976208 95.7614854,177.143494 95.7614854,173.310781 C95.7614854,161.524535 95.7614854,149.737918 95.7614854,137.951673 C95.7614854,128.716729 95.7614854,119.482156 95.7614854,110.247212 C95.7614854,107.70632 95.4205836,104.29777 98.8143767,103.7 C99.884244,103.511524 101.159469,103.7 102.240477,103.7 C108.804509,103.7 115.368912,103.7 121.932944,103.7 C132.351247,103.7 142.769178,103.7 153.18748,103.7 C165.362653,103.7 177.537454,103.7 189.712626,103.7 C201.582175,103.7 213.452095,103.7 225.321645,103.7 C234.642599,103.7 243.963554,103.7 253.284509,103.7 C258.000318,103.7 262.721326,103.631227 267.436764,103.7 C270.266472,103.740892 272.182281,105.595167 272.21756,108.484015 C272.248753,111.057993 272.21756,113.634572 272.21756,116.20855 C272.21756,127.118959 272.21756,138.028996 272.21756,148.939405 C272.21756,159.660595 272.21756,170.382156 272.21756,181.103346 C272.21756,183.441636 272.315968,185.804089 272.21756,188.140892 C272.103554,190.840149 270.391618,192.210781 267.993422,192.210781 C262.720584,192.210781 257.447745,192.210781 252.174907,192.210781 C242.509708,192.210781 232.844881,192.210781 223.180053,192.210781 C211.177931,192.210781 199.175438,192.210781 187.173316,192.210781 C175.078727,192.210781 162.984509,192.210781 150.88992,192.210781 C140.763873,192.210781 130.637454,192.210781 120.511406,192.210781 C114.454271,192.210781 108.396764,192.210781 102.339629,192.210781 C101.528223,192.210781 100.717188,192.210781 99.9057825,192.210781 C99.5374005,192.210781 97.8830239,192.919331 98.7363926,192.919331"/>
    <path fill="#FFF" d="M263.023873,187.066914 C265.280212,187.066914 267.108753,185.236059 267.108753,182.977695 L267.108753,113.089219 C267.108753,110.830855 265.280212,109 263.023873,109 L104.084881,109 C101.828912,109 100,110.830855 100,113.089219 L100,182.977695 C100,185.236059 101.828912,187.066914 104.084881,187.066914 L263.023873,187.066914 Z"/>
    <text fill="#989FDD" font-family="OpenSans-SemiBold, Open Sans" font-size="20" font-weight="500" letter-spacing="1">
      <tspan x="149" y="156">КАСС</tspan> <tspan x="204.016" y="156">А</tspan>
    </text>
    <text fill="#989FDD" font-family="OpenSans-SemiBold, Open Sans" font-size="8" font-weight="500" letter-spacing="1">
      <tspan x="161" y="170">В АРЕНД</tspan> <tspan x="201.828" y="170">У</tspan>
    </text>
  </g>
</svg>
