<svg xmlns="http://www.w3.org/2000/svg" width="20" height="20" viewBox="0 0 20 20">
  <g fill="none" fill-rule="evenodd">
    <circle cx="10" cy="10" r="10" fill="#313FBC"/>
    <path fill="#FFF" fill-rule="nonzero" d="M5.10095197,0.00144770499 C4.95472149,0.0297982922 4.83607252,0.144089915 4.79455926,0.296588228 C4.75304601,0.449086541 4.79580975,0.613558154 4.90499004,0.72131085 L8.50579035,4.56930657 C8.50579035,4.56930657 0.457245723,4.56869278 0.445004837,4.56930657 C0.228551275,4.58014938 1.08986713e-14,4.74276652 0,4.98813604 C-1.08639768e-14,5.23350556 0.23073368,5.40696551 0.445004837,5.40696551 L8.50579035,5.40696551 L4.90499004,9.25496123 C4.7881283,9.3555978 4.73530028,9.51871014 4.76894526,9.67501457 C4.80259024,9.83131899 4.91680044,9.95336973 5.06306386,9.98932444 C5.20932728,10.0252792 5.36196127,9.96882449 5.45613295,9.84394017 L9.73055236,5.28916972 L10,4.98813604 L9.73055236,4.68710236 L5.45613295,0.132331913 C5.37425438,0.0390346231 5.25697326,-0.00917017574 5.13769483,0.00144770499 C5.12545394,0.000833909323 5.11319285,0.000833909323 5.10095197,0.00144770499 Z" transform="translate(5 5)"/>
  </g>
</svg>
